<?xml version="1.0" standalone="no"?><!DOCTYPE svg PUBLIC "-//W3C//DTD SVG 1.1//EN" "http://www.w3.org/Graphics/SVG/1.1/DTD/svg11.dtd" ><svg xmlns="http://www.w3.org/2000/svg"><metadata></metadata><defs><font id="1.000;SJ  ;dongxuejingrenjian-Regular" horiz-adv-x="256"><font-face font-family="dongxuejingrenjian" font-weight="400" font-stretch="normal" units-per-em="256" panose-1="0 0 5 0 0 0 0 0 0 0" ascent="256" descent="-51" x-height="0" bbox="-15 -86 271 241" underline-thickness="50" underline-position="-75" unicode-range="U+0020-ff1f" /><missing-glyph horiz-adv-x="128" d="M105 -51 l-81 0 l0 256 l81 0 l0 -256 ZM43 188 l0 -9 l17 0 l0 -9 l-17 0 l0 -9 l42 0 l0 9 l-17 0 l0 9 l17 0 l0 9 l-42 0 ZM43 155 l0 -27 l42 0 l0 9 l-17 0 l0 18 l-25 0 ZM60 137 l-9 0 l0 9 l9 0 l0 -9 ZM43 121 l0 -8 l17 0 l0 -10 l-17 0 l0 -8 l25 0 l0 18 l17 0 l0 8 l-42 0 ZM77 106 l0 -17 l-34 0 l0 -9 l42 0 l0 26 l-8 0 ZM60 75 l0 -15 l8 0 l0 6 l9 0 l0 -12 l-26 0 l0 21 l-8 0 l0 -29 l42 0 l0 29 l-25 0 ZM43 30 l0 -29 l42 0 l0 29 l-42 0 ZM77 10 l-26 0 l0 12 l26 0 l0 -12 ZM43 -4 l0 -9 l18 0 l-18 -12 l0 -8 l42 0 l0 8 l-26 0 l18 12 l8 0 l0 9 l-42 0 Z" /><glyph glyph-name="space" unicode=" " d="" /><glyph glyph-name="A" unicode="A" d="M52 117 q8 13 15 13 q2 0 2.5 -1 q0.5 -1 -0.5 -3 l0 -3 q2 -1 5 -7 q3 -6 4 -11 q3 -19 8 -22 q2 -2 2 -12 q0 -4 2 -8 q1 -1 4.5 -11.5 q3.5 -10.5 4.5 -16.5 q0 -2 -4 0 q-2 0 -5 6 q-1 3 -3 9 q-2 6 -5 10 l-5 11 l-10 -2 q-5 0 -10.5 -1 q-5.5 -1 -10.5 -1 q-11 0 -15 -3.5 q-4 -3.5 -12 -17.5 q-5 -11 -10.5 -16.5 q-5.5 -5.5 -8.5 -4.5 q0 4 8 21 q3 5 7.5 12.5 q4.5 7.5 5.5 8.5 q2 2 5 8.5 q3 6.5 7 10.5 q5 9 10 16.5 q5 7.5 9 14.5 ZM63 113 q-2 0 -13 -17.5 q-11 -17.5 -10 -18.5 l15 0 q9 0 14 1.5 q5 1.5 5 5.5 q0 3 -5 16 l-6 13 Z" /><glyph glyph-name="B" unicode="B" d="M9 129 q0 2 4 2 q2 0 4 -1.5 q2 -1.5 1 -2.5 q8 -2 16 -2 q13 0 21 -4 q8 -5 8 -10 q0 -5 -12 -17 l-10 -11 l8 0 q8 0 14.5 -2.5 q6.5 -2.5 8.5 -6.5 q2 -7 2 -14 q0 -4 -8 -11 q-10 -10 -46 -23 q-11 -4 -11 -2 q-2 4 -4.5 11 q-2.5 7 -3.5 12 q0 4 2 4 q2 0 4 -2 l0 2 q2 4 2 8 q0 3 -2 13 q0 5 2 5 q0 1 1 8 q1 7 -1 19 l0 25 ZM49 114 q-6 1 -15 1 q-9 0 -14 -1 q-2 -2 -2 -6 l0 -14 l0 -9 l6 2 q6 1 16.5 10.5 q10.5 9.5 10.5 12.5 q0 4 -2 4 ZM62 70 q-3 3 -20 3 q-12 0 -16 -1 q-6 -2 -8 -5.5 q-2 -3.5 -2 -15.5 q0 -8 1.5 -11 q1.5 -3 4.5 -3 q4 0 19 8 q15 8 19 12 q3 4 4 8 q1 4 -2 5 Z" /><glyph glyph-name="C" unicode="C" d="M32 117 q11 8 19 8 q8 0 11 -6 q11 -14 11 -21 q0 -5 -5 -7 q-2 0 -3.5 2 q-1.5 2 -0.5 3 l1 3 q0 6 -8 14 q-3 3 -5 4 q-2 1 -5 0 q-14 -3 -27 -28 q-4 -8 -6 -15 q-2 -7 -3 -16 q0 -8 3.5 -11 q3.5 -3 17.5 -6 l15 -2 l11 6 q15 8 18 6 q2 0 1.5 -1.5 q-0.5 -1.5 -1.5 -4.5 q-4 -7 -14 -11 q-8 -4 -13.5 -4.5 q-5.5 -0.5 -14.5 -0.5 q-12 1 -20.5 5 q-8.5 4 -10.5 9 q-2 6 -2 12 q0 11 4 24 q4 13 10 21 q7 10 17 17 Z" /><glyph glyph-name="D" unicode="D" d="M5 126 q0 2 4 2 l13 -2 q29 0 40 -11 q7 -8 9.5 -12.5 q2.5 -4.5 2.5 -10.5 q0 -11 -4.5 -19.5 q-4.5 -8.5 -18.5 -23.5 q-10 -11 -15 -14.5 q-5 -3.5 -14 -7.5 q-3 -1 -7 -1 q-2 0 -8 3 l-6 3 l2 36 q0 23 1 38.5 q1 15.5 1 19.5 ZM57 104 q-7 7 -10.5 8.5 q-3.5 1.5 -14.5 2.5 l-17 0 l-2 -24 q-1 -8 -1 -27 q0 -24 3 -26 q3 0 7 2 q11 4 26.5 23.5 q15.5 19.5 15.5 30.5 q0 1 -3 4.5 q-3 3.5 -4 5.5 Z" /><glyph glyph-name="E" unicode="E" d="M59 136 q13 0 15 -2 q0 -2 -2 -4 q-1 -3 -13 -5.5 q-12 -2.5 -30 -2.5 l-21 0 l4 -3 q1 -3 1 -8 q0 -5 2 -12 q0 -15 2 -19 q0 -5 1.5 -6 q1.5 -1 8.5 -1 l7 -1 q12 0 29 5 q4 2 4 0 q0 -3 -11 -8 q-11 -5 -23 -6 l-16 -2 l0 -11 l0 -12 q0 -2 27 -2 q7 1 18 1 q24 0 24 -6 q0 -6 -9 -6 q-2 0 -10 2 q-8 2 -12 2 q-3 0 -17 -2 q-11 -2 -23 -2 q-3 0 -7 -4 q-2 -2 -3.5 -2 q-1.5 0 -2.5 2 q-1 1 -1 4 q0 2 3 8 q3 4 3.5 12 q0.5 8 0.5 24 q-1 10 -2 22 q-1 12 -2 14 q-1 6 -1 13 q0 4 1 6 q1 2 4 4 q3 3 10.5 4 q7.5 1 10.5 2 q19 0 23 2 l7 0 Z" /><glyph glyph-name="F" unicode="F" d="M57 145 q2 1 8 1 q8 0 11 -3 q2 0 2 -1 q0 -8 -42 -11 q-3 -1 -4 -4.5 q-1 -3.5 -2 -13.5 l0 -23 q2 -2 10 -2 q8 0 21 2 q13 2 24 5 l3 0 q2 0 2 -1 q0 -3 -8 -6 q-8 -4 -12 -4 q-5 0 -8 -2 l-17 -4 q-6 0 -10 -1 q-4 -1 -5 -1 l0 -26 q-2 -31 -7 -48 q-2 -5 -4 -5 q-1 0 0 15 q0 5 1 21 q1 16 1 43 l0 52 l-8 0 q-7 0 -10.5 2 q-3.5 2 -0.5 5 q4 2 7 2 q8 0 24 3 q16 3 24 5 Z" /><glyph glyph-name="G" unicode="G" d="M49 144 q3 0 8 -5 q5 -5 5 -8 q-1 -3 -5.5 -7.5 q-4.5 -4.5 -4.5 -2.5 q0 3 -5 0 q-6 0 -6 2 q2 2 4 2 q3 0 5 2.5 q2 2.5 2 5.5 q-1 0 -2 1 q-1 1 -3 1 q-4 0 -8.5 -2.5 q-4.5 -2.5 -4.5 -3.5 q0 -2 -1.5 -3.5 q-1.5 -1.5 -2.5 -4.5 q-8 -8 -13 -21 q-5 -13 -5 -23 q0 -7 2 -9 q3 -4 10 -4 q4 0 28 6 q19 5 16 8 q0 3 3 3 q4 0 4 6 l1 4 q0 3 -4 3 l-8 -1 q-10 -2 -11 -2 q-8 0 -10 6 q0 3 4 3 q4 0 10.5 2 q6.5 2 19.5 4 q18 5 23 2 l1 -3 q0 -4 -9 -6 q-3 -6 -3 -8 q0 -10 -2 -13 l0 -25 q-1 -5 -2 -17 q-1 -12 -4 -21 q-2 -5 -2 -5 q-2 0 -2 28 q0 24 -4 28 l-21 -6 q-19 -6 -30 -6 q-7 0 -13 4 q-9 9 -9 20 q0 12 9 28 q10 25 28 35 l12 3 Z" /><glyph glyph-name="H" unicode="H" d="M72 129 q2 2 4 2 q4 -2 5 -4 q1 -2 1 -11 q-2 -6 -2 -34 l-2 -20 q0 -9 -2 -21 q0 -18 -2 -18 q-4 0 -4 32 q-1 20 -2 23.5 q-1 3.5 -7 1.5 q-8 0 -12 -2 q-12 -1 -22 -3.5 q-10 -2.5 -12 -4.5 q-2 0 -2 -17 q-3 -16 -4 -17 q-7 -6 -7 4 q-1 2 -1 18 l1 41 q1 0 2 4 q1 4 2 7 q0 14 5 14 q1 0 1.5 -4.5 q0.5 -4.5 0.5 -14.5 q-1 -8 -1 -15 q0 -7 1 -7 q1 -1 19.5 2.5 q18.5 3.5 28.5 5.5 l6 0 q3 0 3 17 q0 19 2 21 Z" /><glyph glyph-name="I" unicode="I" d="M6 131 q0 1 3 1 q2 0 6.5 -1.5 q4.5 -1.5 5 -6 q0.5 -4.5 0.5 -11.5 q0 -25 1 -47.5 q1 -22.5 2 -30.5 q2 -1 2 -3 q0 -3 -9 -8 q-8 -1 -10 -0.5 q-2 0.5 -3 4.5 q0 4 3 7 q3 1 3.5 5 q0.5 4 0.5 12 q0 19 -2 39 q-2 20 -3 28 q0 1 -0.5 3 q-0.5 2 0.5 3 l0 6 Z" /><glyph glyph-name="J" unicode="J" d="M56 140 q3 0 7 2 q3 0 3 -3.5 q0 -3.5 -3 -7.5 q-3 -6 -3 -9 q0 -7 1 -12 q1 -10 1 -33 q0 -27 -3 -36 q-2 -10 -6 -15.5 q-4 -5.5 -13 -9.5 l-9 -2 l-9 2 q-7 1 -10 3.5 q-3 2.5 -6 8.5 q-3 5 -4 11.5 q-1 6.5 0 10.5 q2 1 4 1.5 q2 0.5 2 -1.5 q0 -1 1 -2 q1 -1 1 -3 q1 0 2.5 -2 q1.5 -2 1.5 -4 q0 -5 4.5 -9 q4.5 -4 10.5 -6 q4 0 6.5 1 q2.5 1 4.5 5 q12 9 12 46 q0 10 -2 32 l-2 17 l-8 0 q-4 0 -7 0.5 q-3 0.5 -4 3.5 q-2 3 -2 5 q0 1 4.5 2 q4.5 1 7.5 2 q11 0 17 2 Z" /><glyph glyph-name="K" unicode="K" d="M4 126 q0 18 2 18 q7 0 7 -29 q-1 -8 -1 -14.5 q0 -6.5 1 -6.5 q8 6 17 15 q32 26 40 24 q3 -1 3 -4 q0 -4 -10 -8 q-4 -1 -12 -7.5 q-8 -6.5 -13 -9.5 l-15 -13 l5 -4 q8 -4 10 -2 l19 -4 l17 -4 q5 0 8 -6 q2 -3 2.5 -4 q0.5 -1 -2.5 -3 q-3 -3 -5 -3 q-2 0 -5 3 q-6 4 -36 11 l-21 4 l-2 1 q-2 0 -2 -24 q-2 -15 -2 -34 q2 -6 -1 -9 q-4 -3 -5.5 -1.5 q-1.5 1.5 -1.5 10.5 q0 17 1 32 q0 46 2 48 l0 24 Z" /><glyph glyph-name="L" unicode="L" d="M2 76 q0 67 1 67 q10 0 10 -88 l0 -21 l11 2 q8 1 24 1 q19 0 22 -3 q1 -2 0.5 -3.5 q-0.5 -1.5 -2.5 -3.5 q-10 -7 -25 -4 q-1 1 -4 1 q-5 0 -9.5 -1 q-4.5 -1 -9.5 -2 l-18 -4 l0 8 l0 51 Z" /><glyph glyph-name="M" unicode="M" d="M80 135 q9 4 11 -1 q2 -5 2 -30 q0 -54 4 -74 q0 -4 -0.5 -7 q-0.5 -3 -3.5 -4 q-4 -3 -5.5 -0.5 q-1.5 2.5 -2.5 18.5 q-1 16 -1 43 q0 20 -2 38 q-2 0 -8 -10.5 q-6 -10.5 -13 -24.5 q-8 -15 -13 -19.5 q-5 -4.5 -8 -0.5 q0 1 -0.5 2.5 q-0.5 1.5 0.5 4.5 q0 1 -5 8 q-4 4 -8 4 q-4 4 -10 5 l-7 8 q-2 -4 0 -9 l2 -52 q0 -8 -2 -10 q-4 -2 -6 -2 q-4 0 -4 19 l0 48 q0 15 0.5 21.5 q0.5 6.5 1.5 7.5 q3 0 8 -4.5 q5 -4.5 5 -7.5 q0 -4 13.5 -13.5 q13.5 -9.5 19.5 -9.5 q6 8 9 16 q4 9 10 17 q3 0 5 8 q2 5 8 11 Z" /><glyph glyph-name="N" unicode="N" d="M69 135 q0 1 4 1 q3 -1 4 -9 q1 -8 3 -27 q2 -19 2.5 -47 q0.5 -28 -0.5 -29 l-5 0 l-2 -1 q-1 0 -2 3.5 q-1 3.5 -2 5.5 q0 5 -2 9 q-3 0 -9 5 q-6 5 -6 7 q0 3 -21 19 q-10 7 -10 9 q-1 2 -4 4 l-3 2 l0 -34 l1 -26 q0 -5 -0.5 -7 q-0.5 -2 -2.5 -3 l-6 0 q0 15 -2 32 q0 66 -4 72 q-3 3 0 6 l4 2 q6 0 6 -11 q0 -6 2.5 -10 q2.5 -4 8.5 -10 q6 -5 10 -11 q8 -10 19 -19 q17 -14 18 -14 q3 0 3 11 q0 17 -4 50 l0 20 Z" /><glyph glyph-name="O" unicode="O" d="M50 130 q3 0 9 -2 q6 -3 10 -9 q18 -39 18 -55 q0 -13 -10 -23 q-6 -6 -16 -10.5 q-10 -4.5 -19 -6.5 q-7 0 -16.5 3.5 q-9.5 3.5 -10.5 7.5 l-1 4 q-2 0 -8 9 q-6 11 -6 23 q0 21 14 40 q4 8 9 11.5 q5 3.5 14 5.5 l13 2 ZM59 115 q-4 4 -8.5 5 q-4.5 1 -6.5 -3 q-1 -2 -2 -2.5 q-1 -0.5 -2 0.5 l-3 4 q-2 0 0 -2 q0 -2 -4 -4 q-4 -2 -6 0 l-1 0 q-5 0 -11 -21 q-4 -16 -4 -21 q0 -3 4 -19 q10 -19 25 -19 q6 0 10 2 q6 3 19 11 q6 6 7 9 q1 3 1 11 q0 9 -6 26 q-6 17 -12 23 Z" /><glyph glyph-name="P" unicode="P" d="M3 129 q1 4 2 5.5 q1 1.5 3 0.5 q3 0 8 -1 q5 -1 9 -1 q37 -7 46 -14 q5 -5 5 -10 q0 -9 -13 -22 q-7 -9 -13.5 -12 q-6.5 -3 -20.5 -3 q-6 0 -11.5 -1 q-5.5 -1 -5.5 -3 q0 -4 -2 -8 q0 -11 2 -19 q2 -6 2 -9 l-2 -8 q-2 -5 -4.5 -6.5 q-2.5 -1.5 -4.5 0.5 q-1 1 -1 53 q0 53 1 58 ZM41 119 q-14 3 -20.5 3 q-6.5 0 -8.5 -3 q0 -2 -1 -12.5 q-1 -10.5 -1 -21.5 l0 -6 l15 0 q13 1 20 4.5 q7 3.5 13 10.5 q7 11 7 13 q0 5 -9 9 q-6 3 -15 3 Z" /><glyph glyph-name="Q" unicode="Q" d="M41 129 q9 3 15 3 q7 0 19 -5 q24 -18 27 -31 q2 -10 -1.5 -21.5 q-3.5 -11.5 -10.5 -20.5 l-9 -7 l7 -12 q12 -17 20 -38 q1 -7 -3 -4 q-3 6 -9 12 q-17 30 -21 32 q-1 3 -3.5 3 q-2.5 0 -5.5 -1 q-7 -4 -16 -6 q-9 -2 -15 0 q-16 1 -25.5 15 q-9.5 14 -9.5 33 q0 38 41 48 ZM63 121 q-2 4 -11 4 q-7 0 -9 -1.5 q-2 -1.5 0 -6.5 q0 -2 -0.5 -3 q-0.5 -1 -1.5 -1 q-4 0 -4 2 q0 7 -5 5.5 q-5 -1.5 -11 -9 q-6 -7.5 -9 -15.5 q-3 -7 -3 -10 q0 -6 1 -11 q3 -12 7 -18.5 q4 -6.5 11 -11.5 q4 -3 7.5 -3.5 q3.5 -0.5 9.5 -0.5 l21 7 q0 2 -1.5 3.5 q-1.5 1.5 -2.5 4.5 q-4 6 -6 11.5 q-2 5.5 0 5.5 q0 1 2 1 q2 0 6 -3 q4 -3 5 -7 q2 -2 4.5 -5 q2.5 -3 3.5 -3 q3 0 13 17 q5 10 5 16 q0 5 -3 11 q-4 5 -10 11 q-6 6 -11 10 q-5 3 -5 -2 q0 -2 -3 2 Z" /><glyph glyph-name="R" unicode="R" d="M9 140 q1 0 10 1 q9 1 19 -1 q13 0 21 -0.5 q8 -0.5 17 -3.5 q5 -3 9.5 -5 q4.5 -2 7.5 -4 q6 -6 -4 -19.5 q-10 -13.5 -25 -20.5 l-11 -6 l8 -8 q2 -3 17 -13 q25 -21 32 -33 l6 -7 l-4 -4 q-3 -3 -4 -3 q-1 0 -4 3 q-18 25 -34 36 q-21 21 -21 21 q-7 7 -10 8 q-3 1 -9 0 q-11 0 -11 -8 l-4 -11 q-4 -12 -2 -13 l0 -4 q0 -7 -2.5 -15 q-2.5 -8 -4.5 -10 l-4 -2 q-3 0 -3 5 q0 6 3 24 q3 10 5 32 q4 22 4 32 q2 11 3.5 14.5 q1.5 3.5 4.5 1.5 q3 -1 3.5 -6 q0.5 -5 0.5 -13 l-2 -18 l15 2 q15 0 23 3.5 q8 3.5 17 12.5 q4 4 6.5 7.5 q2.5 3.5 0.5 3.5 q-1 3 -9 6.5 q-8 3.5 -15 4.5 q-5 1 -23 1 q-23 0 -30 -2 q-4 0 -6 1 l-1 4 q0 3 10 6 Z" /><glyph glyph-name="S" unicode="S" d="M26 126 q7 4 19 4 q7 0 10.5 -1 q3.5 -1 6.5 -4 q9 -15 9 -17 q0 -4 -2 -4 q-3 0 -7 7 q-8 13 -18 13 q-6 0 -10 -1 q-10 -3 -12 -10 q-3 -7 -3 -12 q0 -12 26 -18 q20 -5 30 -21 q4 -7 4 -13 q0 -7 -8 -16 q-5 -4 -9.5 -5.5 q-4.5 -1.5 -12.5 -1.5 q-5 -1 -13 -1 q-10 0 -20 6 q-15 10 -15 21 q0 4 3 4 q6 0 9 -7 q10 -15 29 -15 q6 0 10 1 q16 6 16 15 q0 10 -6 14 q-6 4 -23 9 q-7 3 -14 7 q-7 4 -9 5 q-5 4 -6 6.5 q-1 2.5 -1 10.5 q0 17 17 24 Z" /><glyph glyph-name="T" unicode="T" d="M79 136 q15 2 21.5 3 q6.5 1 9.5 -1 q3 0 3 -2 q0 -2 -5.5 -4.5 q-5.5 -2.5 -11.5 -2.5 q-9 0 -19 -2.5 q-10 -2.5 -9 -3.5 q0 -4 -2 -6 l0 -9 l6 -67 l0 -11 q0 -10 -2 -12 q-2 -2 -4 -2 q-4 0 -4 23 q-2 10 -2 28 q-1 3 -4 39 l-1 15 l-19 0 q-18 -3 -25.5 -3 q-7.5 0 -9.5 3 q-2 2 -2 3 q0 2 10 2 q18 3 31 4 l39 6 Z" /><glyph glyph-name="U" unicode="U" d="M61 128 q2 2 5.5 1.5 q3.5 -0.5 4.5 -3.5 q1 -1 1 -9 q0 -3 -3 -42 q-6 -32 -23 -44 q-5 -6 -7.5 -7 q-2.5 -1 -7.5 1 q-14 1 -20 7 q-6 6 -9 20 q-5 46 -5 59 q0 1 0.5 4.5 q0.5 3.5 4.5 3.5 q3 0 4 -6 q1 -6 2 -19 q0 -4 2.5 -15 q2.5 -11 3.5 -18 q3 -21 5 -23 q6 -4 12 -4 q7 0 11 4 q14 16 15 27 q0 3 1 6 q1 3 1 6 q0 1 1 5 q1 4 1 12 q2 8 2 10 q0 3 -2 11 l0 13 Z" /><glyph glyph-name="V" unicode="V" d="M80 120 q3 10 7 10 q5 0 5 -4 q0 -3 -5 -13 l-7 -18 q0 -3 -3 -9 q-3 -6 -7 -10 q-10 -18 -15 -26.5 q-5 -8.5 -6 -11.5 q0 -3 -5 -7.5 q-5 -4.5 -8 -5.5 q-3 4 -12.5 27 q-9.5 23 -10.5 32 q0 1 -8 17 q-6 14 -3 17 q0 2 1 3 q1 1 2 1 q1 0 4.5 -7 q3.5 -7 5.5 -14 l2 -8 q3 0 9 -19 q12 -30 14 -30 q4 4 7 10 q27 45 25 45 q0 0 0 2 q2 2 2 5 q0 3 2.5 6.5 q2.5 3.5 3.5 7.5 Z" /><glyph glyph-name="W" unicode="W" d="M125 120 q3 8 5.5 9.5 q2.5 1.5 5.5 -2.5 q1 -1 1 -2 q0 -1 -1 -3 q-1 -2 -3.5 -6.5 q-2.5 -4.5 -5.5 -11.5 q-22 -44 -33 -62 q-11 -18 -16 -18 q-5 0 -7 27 l-9 44 l-1 1 q-2 0 -3.5 -2.5 q-1.5 -2.5 -1.5 -6.5 q0 -3 -4 -15 q-7 -21 -9 -25 q-3 -13 -7 -17 l-5 -4 q-2 0 -6 12 l-9 19 q-2 5 -5 17 l-7 19 q-10 21 -2 21 q3 0 21 -44 q3 -9 6 -15.5 q3 -6.5 4 -7.5 q2 1 7.5 16.5 q5.5 15.5 8.5 21.5 q2 11 5.5 20 q3.5 9 5.5 9 q1 0 5 -4 q3 -5 7.5 -23.5 q4.5 -18.5 6.5 -37.5 q0 -5 2 -9 q2 0 14.5 22 q12.5 22 16.5 31 q2 5 4 8 q2 3 2 5 q7 14 7 14 Z" /><glyph glyph-name="X" unicode="X" d="M73 119 q10 7 10 2 q-6 -10 -15 -19 q-8 -10 -16 -17 q0 -1 4 -4.5 q4 -3.5 6 -5.5 q12 -8 30.5 -20 q18.5 -12 20.5 -12 q2 0 1.5 -2.5 q-0.5 -2.5 -2.5 -5.5 l-4 -2 q-4 0 -15 8 l-21 14 l-17 13 l-10 7 l-15 -17 q-8 -7 -12.5 -13 q-4.5 -6 -7.5 -8 q-2 -4 -6.5 -5 q-4.5 -1 -4.5 1 q0 6 25 35 q11 10 11 15 q-3 4 -9 8 q-7 5 -12 11.5 q-5 6.5 -5 10.5 q0 1 1 1 q4 0 12 -6 q3 -2 6.5 -5 q3.5 -3 6.5 -7 l10 -5 l6 5 q3 3 5.5 7 q2.5 4 5.5 7 l11 9 Z" /><glyph glyph-name="Y" unicode="Y" d="M69 135 q10 13 15 13 q5 0 5 -2 q0 -4 -10 -15 q-8 -7 -15 -15 q0 -5 -10 -13 l-9 -10 l1 -24 q0 -11 1 -19 q1 -8 3 -8 q0 -1 1 -5 q1 -4 1 -10 q0 -14 -4 -18 l-5 -2 q-4 0 -4 8 l0 12 q0 2 -1 9.5 q-1 7.5 -1 18.5 q-2 20 -5 28 q-3 8 -16 21 q-15 19 -15 25 q0 4 2 4 q3 0 19 -19 q10 -11 13 -11 q3 0 9 4.5 q6 4.5 10 10.5 q4 7 15 17 Z" /><glyph glyph-name="Z" unicode="Z" d="M83 120 q1 1 4 1 q3 0 5.5 -1 q2.5 -1 3.5 -2 l-17 -21 q-27 -26 -40.5 -41 q-13.5 -15 -9.5 -12 q4 1 26.5 2 q22.5 1 38.5 1 q12 0 14 -3 q4 -4 -2 -5 q-6 -1 -35 -3 q-19 0 -30 -1 q-11 -1 -15 -1 q-17 -5 -21 -5 q-6 0 -6 3 q0 5 11 14 q7 4 18 14.5 q11 10.5 32 32.5 q16 16 9 16 q-1 -2 -7.5 -3 q-6.5 -1 -10.5 -2 l-16 -1 q-3 0 -10.5 -1 q-7.5 -1 -14.5 -3 q-2 0 -3 4 q-1 4 2 6 l9 1 q11 0 16 2 q2 0 6.5 1 q4.5 1 10.5 1 q14 2 32 6 Z" /><glyph glyph-name="a" unicode="a" d="M24 64 q14 13 20 15 q6 2 8 -3 q2 -5 3.5 -6 q1.5 -1 2.5 0 q1 1 4 1 q6 0 6 -7 l0 -8 q0 -5 -2 -9 q-3 -6 -3 -14 q0 -14 8 -17 q3 -1 8 -1 l10 1 q5 2 11 2 q2 -3 -7 -7 q-9 -4 -18 -4 q-6 0 -12 4 q-6 4 -9 11 l-4 4 l-11 -12 q-15 -15 -22 -15 q-5 0 -8 6 q-1 1 -3.5 5.5 q-2.5 4.5 -2.5 9.5 q-1 11 3 20 q4 9 18 24 ZM49 66 q-1 3 -3 3 q-4 0 -10 -5.5 q-6 -5.5 -12 -14.5 q-12 -12 -12 -21 l0 -3 q0 -6 2 -11 q2 -5 6 -5 q3 0 17 17 l15 15 l-2 11 l-1 14 Z" /><glyph glyph-name="b" unicode="b" d="M12 102 q2 1 6 1 q4 0 2 -32 l-2 -17 l9 2 l7 1 q15 0 18 -12 q4 -5 4 -13 q0 -10 -6 -16 q-5 -6 -15 -11.5 q-10 -5.5 -15 -5.5 q-8 0 -13 5 q-3 5 -4 8 q-1 3 2 2 q2 0 2 8 q0 2 1 8.5 q1 6.5 1 17.5 q1 10 1 34 q0 8 1 13 q1 5 1 7 ZM41 45 q-4 2 -8 2 q-6 0 -11 -5 q-3 -2 -3.5 -5.5 q-0.5 -3.5 -0.5 -11.5 q0 -18 -2 -18 q3 0 12.5 5 q9.5 5 14.5 10 q3 2 3 4.5 q0 2.5 -1 6.5 q0 6 -4 12 Z" /><glyph glyph-name="c" unicode="c" d="M25 54 q8 4 15 4 q4 0 6.5 -1 q2.5 -1 4 -3 q1.5 -2 3.5 -4 q3 -8 1.5 -11.5 q-1.5 -3.5 -5.5 3.5 q-5 11 -11 11 q-5 0 -12 -7 q-13 -10 -13 -22 q0 -8 7 -12 q8 -2 13 -2 q15 0 31 6 q6 2 11.5 4 q5.5 2 9.5 2 l3 0 l1 0 q0 -2 -17 -10 q-17 -10 -40 -10 q-11 0 -15 2 q-6 1 -10.5 7.5 q-4.5 6.5 -4.5 12.5 q1 1 1 9 q1 4 8 10.5 q7 6.5 13 10.5 Z" /><glyph glyph-name="d" unicode="d" d="M77 130 q3 6 7 0 q1 -2 1 -16 q0 -22 -3 -30 l-5 -55 q2 -3 5 -3 q3 0 16 5 l12 6 q2 -2 0.5 -5 q-1.5 -3 -4.5 -3 q-3 0 -5 -4 q-2 -3 -12 -7 q-10 -4 -15 -4 q-4 0 -6 5.5 q-2 5.5 -1 15.5 q2 7 0.5 8 q-1.5 1 -4.5 -6 q-6 -15 -24 -27 q-18 -12 -29 -8 q-3 1 -5 7 q-2 6 -2 12 q0 12 9.5 28 q9.5 16 21.5 22 q3 2 5.5 3.5 q2.5 1.5 4.5 1.5 q4 0 6 -5.5 q2 -5.5 2 -11.5 q0 -9 -4 -15 q-4 -4 -8 -4.5 q-4 -0.5 -4 2.5 l0 2 l1 0 q2 0 4.5 4.5 q2.5 4.5 2.5 9.5 q0 5 -3 5 q-3 0 -7 -4 l-7 -1 l0 -2 q-1 -4 -4 -8.5 q-3 -4.5 -5 -7.5 q-2 -1 -5 -8.5 q-3 -7.5 -3 -12.5 q3 -9 8 -9 q4 0 16 7 q16 12 25.5 29 q9.5 17 10.5 32 l0 20 q1 5 3.5 17 q2.5 12 3.5 15 Z" /><glyph glyph-name="e" unicode="e" d="M42 81 q3 1 7 1 q8 0 9 -6 q3 -4 3 -10 q0 -12 -19 -25 q-17 -13 -26 -13 q-4 0 -4 -2 q0 -17 19 -17 q6 0 21 5 q15 5 23 10 q9 3 11 2 q2 -1 -5 -6 q-33 -19 -54 -19 q-10 0 -15 4 q-10 8 -10 22 q0 11 6 20 q4 7 14.5 18 q10.5 11 12.5 11 q2 0 4 2 q0 1 1 2 q1 1 2 1 ZM52 68 q0 4 -5 4 q-6 0 -16 -10 q-18 -18 -15 -23 q0 -1 8 0 q6 4 9 4 q0 2 8 6 q11 11 11 19 Z" /><glyph glyph-name="eacute" unicode="é" d="M155 147 l0 -4 q-2 -5 -25.5 -28 q-23.5 -23 -30.5 -26 q-3 -2 -4.5 -2 q-1.5 0 -2.5 1 q-3 2 -2.5 3.5 q0.5 1.5 2.5 1.5 q3 0 12.5 9 q9.5 9 17.5 16 q7 7 13.5 12.5 q6.5 5.5 13.5 12.5 l6 4 ZM116 72 q12 4 14 4 q6 0 9.5 -4.5 q3.5 -4.5 3.5 -12.5 q0 -6 -2 -9 q-2 -3 -5 -6 q-8 -6 -19.5 -11.5 q-11.5 -5.5 -15.5 -5.5 q-2 0 -2 -2 q0 -9 15 -9 q11 0 24 5 q13 5 23 12 q4 2 6.5 1 q2.5 -1 -1.5 -4 q-7 -3 -11 -9 q-16 -13 -44 -13 q-10 0 -15 3.5 q-5 3.5 -8 13.5 q-1 4 -1 9 l1 10 q10 21 28 28 ZM134 63 q-3 4 -8.5 5.5 q-5.5 1.5 -6.5 -1.5 q0 -2 -1.5 -3 q-1.5 -1 -3.5 -1 q-2 0 -8.5 -9.5 q-6.5 -9.5 -7.5 -13.5 q0 -3 0.5 -4.5 q0.5 -1.5 4.5 0.5 q5 2 27 13 q7 11 4 14 Z" /><glyph glyph-name="f" unicode="f" d="M51 116 q4 2 5.5 2 q1.5 0 4.5 -2 q1 0 2 -1.5 q1 -1.5 1 -3.5 q0 -3 -1.5 -3 q-1.5 0 -3.5 3 q-2 4 -6 -4 q-7 -7 -7 -16 q0 -7 3 -16 l4 -10 l20 4 l21 4 l1 -1 q0 -2 -8 -5 q-10 -4 -17.5 -6.5 q-7.5 -2.5 -10.5 -4.5 q-2 -1 -2.5 -5.5 q-0.5 -4.5 -0.5 -12.5 q0 -17 -3 -26 q0 -8 -3 -17 q0 -13 -12 -23 q-4 -5 -5 -5 q-1 0 -4 3 q-4 3 -4 5 q0 2 4 1 q10 -3 16 36 q3 14 3 28 q0 10 -1 12 q0 1 -3 1 q-6 0 -19 -5 q-12 -4 -17 -4 q-3 0 -4 1.5 q-1 1.5 -1 4.5 q0 2 0.5 3 q0.5 1 1.5 1 q3 0 5 2 q2 2 3 2 q0 -1 3 -1 q7 0 13 2 q14 4 15 4 q-2 4 -3 10 q-4 8 -4 16 q0 18 14 27 Z" /><glyph glyph-name="g" unicode="g" d="M66 79 q4 4 8.5 5.5 q4.5 1.5 4.5 -2.5 l-6 -11 q-14 -22 -14 -60 q0 -7 -4.5 -19 q-4.5 -12 -9.5 -19 q-5 -7 -11.5 -13.5 q-6.5 -6.5 -10.5 -7.5 q-1 -1 -4 -1 q-4 0 -8 3.5 q-4 3.5 -5 7.5 q-3 6 -3 12 q0 20 32 28 l13 3 l1 7 q2 12 2 19 q0 11 -2 11 q-2 0 -11 -7 q-11 -8 -19 -8 q-8 0 -8 8 q0 7 6 17.5 q6 10.5 15 18.5 q11 8 16 8 q5 0 9 -3 l4 -3 l5 6 ZM54 69 q-6 2 -13 0 q-4 -2 -11.5 -13.5 q-7.5 -11.5 -7.5 -16.5 q0 -5 15 5 q15 10 18 17 q1 3 1 5 q0 2 -2 3 ZM44 -6 q0 2 -3 2 q-4 0 -12 -4 q-2 -1 -4.5 -2.5 q-2.5 -1.5 -5.5 -1.5 q-7 -3 -7 -16 q0 -12 6 -12 q5 0 15.5 14 q10.5 14 10.5 20 Z" /><glyph glyph-name="h" unicode="h" d="M20 139 q0 1 2 0.5 q2 -0.5 4 -2.5 l1 -5 q0 -4 -3 -28 q-2 -1 -2 -15 q-2 -6 -2 -13 l-1 -1 q4 2 8 7 q14 13 22 13 q9 0 7 -23 q-2 -7 -2 -17 q0 -4 1.5 -9.5 q1.5 -5.5 2.5 -5.5 q4 2 13.5 7.5 q9.5 5.5 13.5 9.5 q2 0 4 2 q4 0 -2 -8 q-3 -2 -6 -4.5 q-3 -2.5 -6 -4.5 q-1 -3 -4.5 -5.5 q-3.5 -2.5 -6.5 -2.5 q-6 -3 -8.5 -3 q-2.5 0 -5.5 3 l-3 4 l0 4 q-2 2 -2 4 q-2 9 0 19 q0 17 -2 17 q-6 -4 -12 -10 q-7 -7 -12 -16 q-5 -9 -5 -16 q0 -10 -7 -10 q-3 0 -3.5 3 q-0.5 3 -0.5 9 q2 7 3.5 15 q1.5 8 2.5 13 q0 19 3 25 q0 5 4 25 l4 19 Z" /><glyph glyph-name="i" unicode="i" d="M32 113 q4 0 8 -13 q3 -4 3 -5.5 q0 -1.5 -3 -3.5 l-4 -4 q-2 0 -5 11 q-3 11 -1 14 l2 1 ZM21 72 q8 3 13 4.5 q5 1.5 8 -0.5 q2 -2 2 -4 q0 -1 -6 -27 q-6 -19 -6 -21.5 q0 -2.5 6 4.5 l8 8 q3 0 2.5 -4 q-0.5 -4 -2.5 -6 q-4 -4 -4 -6 q-8 -15 -15 -17 q-6 -4 -7 -4 q-2 0 -2 4 q0 10 5 25 l7 28 q2 0 3 2.5 q1 2.5 1 3.5 q0 6 -1 6 q-5 0 -5 -2 q0 -1 0 -1.5 q0 -0.5 -1 -0.5 q0 0 -12 -4 q-4 -2 -6 -3 q-2 -1 -5 1 q-2 3 -1.5 7 q0.5 4 3.5 3 l2 -1 q3 0 13 5 Z" /><glyph glyph-name="j" unicode="j" d="M43 104 q0 4 2 6 q2 0 5 -2.5 q3 -2.5 3 -4.5 l4 -10 q3 -6 2 -10 q-2 0 -3 -1 q-1 -1 -3 -1 q-2 0 -6 9 q-4 9 -4 14 ZM34 57 q3 4 5 4 q5 0 8 -10 q4 -12 4 -18 q0 -7 -2 -10 q0 -7 -4 -21 q-5 -22 -12 -31 q-7 -9 -20 -9 l-10 1 q-1 2 2 2 q4 0 12 4 q8 5 11 14 q4 9 12 40 q0 7 2 9 q0 4 -2 6 q-2 3 -2 6 q0 5 -2 7 q-2 0 -2.5 1.5 q-0.5 1.5 0.5 4.5 Z" /><glyph glyph-name="k" unicode="k" d="M7 110 q0 2 2 2 q3 0 6 -19 q0 -12 1 -14 q23 16 31 23 q7 6 21 6 q12 0 12 -4 q0 -3 -2.5 -3.5 q-2.5 -0.5 -7.5 -0.5 q-6 0 -9.5 -0.5 q-3.5 -0.5 -7.5 -4.5 q-2 -2 -17 -14 q-5 -2 -8.5 -5 q-3.5 -3 -3.5 -5 q0 -2 20 -7.5 q20 -5.5 30 -5.5 q3 0 4.5 -0.5 q1.5 -0.5 1.5 -2.5 q0 -2 -16 -2 q-10 0 -26 3 q-16 3 -20 6 q-2 2 -3 0 q-2 -3 -2.5 -21.5 q-0.5 -18.5 0.5 -24.5 q1 -3 1 -7 q0 -7 -5 -8 l-2 0 q-7 0 -4 27 q0 34 2 51 q0 29 2 31 Z" /><glyph glyph-name="l" unicode="l" d="M11 123 q1 -1 2.5 -3.5 q1.5 -2.5 1.5 -5.5 l0 -49 q0 -48 2 -48 q1 -4 3 -4 q3 0 6 2 q3 2 6 4 q10 5 7 2 l-1 -6 q0 -3 -6 -6 q-3 -2 -6 -4 q-3 -2 -5 -3 q-3 -2 -7 -2 q-8 0 -7 15 q0 4 -2 8 q-3 7 -2 7 q0 22 2 44 q0 21 0.5 32 q0.5 11 3.5 12 q2 2 2 4 l0 1 Z" /><glyph glyph-name="m" unicode="m" d="M72 65 q11 11 16 11 q4 0 7 -11 q4 -16 4 -37 q0 -20 -4 -28 l-6 -3 q-2 0 -2 4 l1 12 q1 10 1 27 q0 22 -5 23 l-12 -12 q-10 -10 -19 -25 q-2 -6 -7 -11.5 q-5 -5.5 -8 -5.5 q-3 0 -3 3 q0 5 1 9 q0 11 0.5 21.5 q0.5 10.5 -0.5 10.5 q-2 2 -6.5 -5.5 q-4.5 -7.5 -8.5 -19.5 q-6 -13 -8.5 -16.5 q-2.5 -3.5 -6.5 -3.5 q-3 0 -3 2 q0 2 1 7 q0 5 4 21 l1 23 q0 8 2 9.5 q2 1.5 6 -2.5 q2 -1 2 -13 l-2 -9 l8 9 q6 10 9 12 q3 2 8 0 q4 -2 4 -8 l2 -25 l7 10 q10 10 17 21 Z" /><glyph glyph-name="n" unicode="n" d="M15 78 q6 0 6 -18 l0 -9 l4 5 q4 4 9 14 q4 4 6.5 4.5 q2.5 0.5 5.5 -1.5 q8 -2 11 -43 q0 -11 -0.5 -16.5 q-0.5 -5.5 -0.5 -6.5 q2 -2 2 -2 q2 0 13 8 q-5 -9 -10.5 -13.5 q-5.5 -4.5 -9.5 -3.5 q-2 2 -3 8.5 q-1 6.5 -2 23.5 q0 13 -1 22 q-1 9 -1 10 q0 1 -2 1 q-4 0 -13 -12 q-4 -9 -9.5 -24.5 q-5.5 -15.5 -5.5 -19.5 q0 -2 -2 -2 q-3 0 -6 -2 q-3 0 -3 2 l1 10 q0 11 4 23 q1 3 1.5 11.5 q0.5 8.5 2.5 14.5 l0 16 l3 0 Z" /><glyph glyph-name="o" unicode="o" d="M13 63 q9 18 21 18 q3 0 11 -6.5 q8 -6.5 12 -13.5 q3 -4 3 -17 q0 -7 -1 -10 q-6 -19 -12 -26.5 q-6 -7.5 -15 -7.5 q-9 0 -16 5 q-7 5 -11 14 q-3 6 -3 12 q0 13 11 32 ZM30 74 q-4 -2 -5.5 -3 q-1.5 -1 -1.5 -3 l-5 -11 q-4 -3 -4 -9 l-1 -3 q-2 -2 -2 -10 q0 -9 3 -14 q1 -6 7.5 -10 q6.5 -4 13.5 -4 q2 1 6.5 7.5 q4.5 6.5 6.5 12.5 q5 12 5 20 q0 14 -12 24 q-3 3 -5 3.5 q-2 0.5 -6 -0.5 Z" /><glyph glyph-name="p" unicode="p" d="M36 99 q4 4 7 3.5 q3 -0.5 3 -5.5 q1 -4 0.5 -6.5 q-0.5 -2.5 -1.5 -4.5 l-1 -5 l17 1 q2 0 4 0.5 q2 0.5 5 -0.5 q20 0 23 -12 q1 -2 1 -6 q0 -7 -12 -22 q-18 -20 -37 -23 q-6 -2 -8 -1.5 q-2 0.5 -5 4.5 l-6 4 l-3 -10 q-4 -9 -2 -12 q2 -1 2 -3 q-1 -1 -3 -8 q-2 -25 -4.5 -32 q-2.5 -7 -8.5 -8 q-3 0 -3 7 q0 36 13 67 q4 12 7.5 25 q3.5 13 5.5 21 q0 4 2 6 q2 1 3.5 4.5 q1.5 3.5 -0.5 3.5 q-4 -1 -9 -3.5 q-5 -2.5 -7 -4.5 q-2 -2 -8 -2.5 q-6 -0.5 -7 1.5 q-1 2 -1 4.5 q0 2.5 2 1.5 q5 1 14.5 5.5 q9.5 4.5 16.5 9.5 ZM79 71 q-4 2 -10.5 2.5 q-6.5 0.5 -9.5 -0.5 q-1 -1 -3.5 -1 q-2.5 0 -4.5 -1 q-8 0 -10 -2 q-1 0 -7 -17 q-3 -12 -3 -17 q0 -6 6 -8 q12 -4 35 19 q12 11 12 17 q0 7 -5 8 Z" /><glyph glyph-name="q" unicode="q" d="M30 84 q5 1 9 1.5 q4 0.5 4 -1.5 q2 -2 2.5 -6.5 q0.5 -4.5 -0.5 -4.5 q-1 0 -2 2 q-1 2 -2 3 q0 2 -2 4 q-2 0 -8.5 -6 q-6.5 -6 -10.5 -13 q-2 -7 -5 -7 q-2 -4 -2 -8 q0 -6 0.5 -7 q0.5 -1 5.5 -1 q8 1 17.5 8 q9.5 7 12.5 13 q0 4 8 12 q3 3 4.5 4 q1.5 1 2.5 0 q3 -3 3 -6 q0 -3 -5 -10 q-7 -10 -7 -38 q0 -9 0.5 -13.5 q0.5 -4.5 3.5 -8.5 q6 -11 17 -11 q5 0 17 5 q5 1 15 11 q6 5 9 7 q3 2 3 -1 q0 -4 -9 -12 q-9 -8 -18 -13 q-14 -7 -22 -7 q-5 0 -11 3 q-3 3 -5.5 6 q-2.5 3 -3.5 4 q-3 4 -6.5 16.5 q-3.5 12.5 -3.5 21.5 l0 9 l-11 -4 q-8 -4 -16 -5 q-8 -1 -10 2 q0 1 -0.5 5 q-0.5 4 0.5 8 q1 10 8.5 22 q7.5 12 17.5 16 Z" /><glyph glyph-name="r" unicode="r" d="M3 90 q0 6 2 6 q2 0 5.5 -7.5 q3.5 -7.5 5.5 -17.5 q0 -3 2 -3 l9 5 q11 7 21 7 q17 0 21 -19 q0 -3 -0.5 -5.5 q-0.5 -2.5 -3.5 -3.5 q-7 -3 -7 4 q2 2 -2 9 q-5 6 -10 6 q-9 0 -19 -10 q-5 -5 -5 -9 q0 -3 -1 -8 q-1 -5 -1 -13 q-4 -16 -4 -21 q0 -4 -1 -6 q-1 -2 -2.5 -2.5 q-1.5 -0.5 -2.5 -0.5 q-3 -2 -7 -2 q0 9 2 19 q2 9 2 31 q0 21 -2 28 q0 3 -1 6.5 q-1 3.5 -1 6.5 Z" /><glyph glyph-name="s" unicode="s" d="M41 78 q3 1 8 1 q6 0 13 -5 q4 -3 4 -4 q0 -3 -4 -4 q-4 -1 -4 1 q0 3 -6 4 q-3 3 -7 3 q-5 0 -18 -11 q-12 -9 -12 -11 q0 -4 6.5 -8 q6.5 -4 12.5 -4 q9 0 21 -4 q12 -4 16 -9 l2 -4 q0 -5 -5 -10.5 q-5 -5.5 -14 -9.5 q-6 -2 -16 -2.5 q-10 -0.5 -28 -0.5 q-7 0 -7 1 q0 2 16 4 q16 0 24 3 q8 2 14.5 6.5 q6.5 4.5 5.5 6.5 q-2 8 -31 13 q-12 2 -17.5 5.5 q-5.5 3.5 -7.5 10.5 q0 4 1 6.5 q1 2.5 6 6.5 q16 13 27 15 Z" /><glyph glyph-name="t" unicode="t" d="M46 91 q1 11 3 14 q2 3 5 3 q3 0 3.5 -1.5 q0.5 -1.5 0.5 -5.5 q0 -10 -2 -12 q0 -2 -1 -4 q-1 -2 -1 -5 l-2 -10 l15 4 q14 3 15 0 q1 0 1 -2 q0 -5 -10 -7 q-2 -2 -6.5 -3 q-4.5 -1 -6.5 -2 l-8 -1 l0 -14 q-1 -13 2.5 -24.5 q3.5 -11.5 8.5 -11.5 q2 0 14.5 8 q12.5 8 25.5 19 l6 3 q0 0 0.5 -0.5 q0.5 -0.5 0.5 -0.5 q0 -5 -8 -12 q-28 -26 -42 -26 q-8 0 -14 12.5 q-6 12.5 -6 29.5 l-1 13 q-8 0 -14 -2 q-11 -3 -16.5 -3 q-5.5 0 -5.5 3 q0 3 4 5.5 q4 2.5 20 6.5 q13 1 13 5 q4 4 6 21 Z" /><glyph glyph-name="u" unicode="u" d="M64 82 q3 3 5 0 q3 -1 4 -4 q1 -3 1 -9 q0 -14 -1 -25 l-1 -6 q0 -7 2.5 -13 q2.5 -6 4.5 -6 l10 5 q7 1 7 0 q0 -4 -4 -6 l-5 -4 q-4 -2 -8 -2 q-4 0 -6.5 2 q-2.5 2 -5.5 5 q-3 3 -5 8 q0 1 -4.5 -2.5 q-4.5 -3.5 -7.5 -5.5 q-21 -18 -34 -18 q-5 -1 -7.5 -1 q-2.5 0 -3.5 3 q-2 3 -2 19 q0 23 4 45 q0 4 1 5.5 q1 1.5 4 0.5 q4 0 4 -2 q0 -8 -2 -15 q0 -8 -1 -16.5 q-1 -8.5 -1 -14.5 l0 -13 l6 -2 q9 0 25 16 q16 16 15 24 q0 7 2.5 18.5 q2.5 11.5 3.5 13.5 Z" /><glyph glyph-name="v" unicode="v" d="M90 98 q4 0 8 2 l4 -4 q3 -5 0 -9 q-4 -8 -6 -10 q-5 -2 -2 -7 q1 -4 4 -5 q3 -1 8 -1 q3 1 6.5 2 q3.5 1 4.5 2 l2 0 q1 0 1 -1 q0 -2 -9 -9 q-4 -3 -10 -3 q-5 0 -11 3 q-5 3 -9 -2 q-2 -3 -4.5 -6 q-2.5 -3 -5.5 -9 q-12 -16 -21 -25 q-8 -8 -12 -11 q-4 -3 -7 -2 q-3 3 -3 6 q-4 6 -4 11 q-9 16 -16 38 q0 6 -3 12 q-3 3 -1.5 4 q1.5 1 4.5 1 q10 -3 16 -26 q2 -8 5 -17.5 q3 -9.5 6 -13.5 l2 -1 q3 0 8 7 q23 27 23 28 q0 2 1 2 q0 2 2 3.5 q2 1.5 4 4.5 q1 2 3.5 6 q2.5 4 0.5 9 l-1 6 q0 5 1.5 9 q1.5 4 3.5 2 l7 4 Z" /><glyph glyph-name="w" unicode="w" d="M121 93 q4 0 9 -5 q1 -2 2.5 -5 q1.5 -3 1.5 -5.5 q0 -2.5 -2 -5.5 q-6 -11 4 -11 q4 -1 5 -4 q1 -3 -3 -3 q-12 0 -13 1 l-2 1 q-4 0 -12 -8 q-9 -10 -25 -22.5 q-16 -12.5 -19 -12.5 q-4 0 -9 7.5 q-5 7.5 -8 17.5 l-2 6 l-1 -4 q-7 -15 -18.5 -28.5 q-11.5 -13.5 -14.5 -13.5 l-7 10 q-4 10 -4 30 l0 25 q2 0 4 -2 q3 -2 4 -11.5 q1 -9.5 1 -13.5 q2 -17 4 -21.5 q2 -4.5 6 0.5 l10 18 l15 26 q6 15 11 15 q4 0 2 -15 q0 -11 2 -22 q2 -11 5 -12 q1 -1 16 10 q15 11 25 20 q5 6 6 9 q1 3 1 12 q0 13 2 15 l4 2 Z" /><glyph glyph-name="x" unicode="x" d="M55 82 q18 12 19 12 q2 0 4 -2.5 q2 -2.5 1 -3.5 q0 -2 -3.5 -4 q-3.5 -2 -7.5 -4 q-3 -2 -8.5 -5 q-5.5 -3 -8.5 -6 l-8 -6 l10 -17 q17 -38 11 -44 q-3 -3 -5.5 -1 q-2.5 2 -2.5 5 q0 10 -7 27 q-7 17 -11 17 q-6 0 -22 -38 q-4 -12 -9 -12 q-4 0 -4.5 1.5 q-0.5 1.5 2.5 6.5 q2 2 4 7 q2 5 2 8 l11 27 l8 13 l-10 12 q-11 11 -9 11 q2 2 4 2 q5 0 15 -10 l8 -7 l17 11 Z" /><glyph glyph-name="y" unicode="y" d="M59 74 q0 3 1.5 3.5 q1.5 0.5 4.5 0.5 q5 0 4.5 -6 q-0.5 -6 -6.5 -30 q-6 -22 -6 -33 q0 -7 -3 -13 l-6 -15 q-6 -19 -27 -27 q-10 -5 -14 -5 q-5 0 -5 4 q0 1 4 9 q6 11 13.5 16 q7.5 5 11.5 1 l3 -4 q2 0 8.5 17.5 q6.5 17.5 7.5 26.5 q3 19 -2 8 q-3 -6 -7.5 -10 q-4.5 -4 -7.5 -4 q-3 1 -10 22.5 q-7 21.5 -6 23.5 q4 0 8 -2 q6 0 8 -10 q1 -6 2.5 -10.5 q1.5 -4.5 2.5 -4.5 q7 9 14 23 q7 14 7 19 ZM21 -36 q2 2 2 3 q0 1 -1.5 1 q-1.5 0 -2.5 -1 q-4 -6 2 -3 Z" /><glyph glyph-name="z" unicode="z" d="M27 73 q12 4 25 4 q9 0 15 -2 q6 -2 6 -6 q0 -3 -5.5 -12.5 q-5.5 -9.5 -8.5 -11.5 q-6 -9 -11 -14 q-3 -4 -7 -8 q-4 -4 -6 -7 l-4 -4 l6 0 q2 1 8 2 q6 1 11 2 q5 0 9 1 q4 1 6 1 l2 1 q3 0 6 -2.5 q3 -2.5 3 -4.5 q0 -5 -23 -5 q-8 -2 -17 -3.5 q-9 -1.5 -15 -2.5 l-21 -6 q-4 0 -4 3 q0 5 6 9 q8 4 30.5 28.5 q22.5 24.5 22.5 29.5 q-4 2 -7 2 q-2 1 -8 1 q-5 0 -23 -3 q-5 -1 -6.5 -0.5 q-1.5 0.5 -1.5 2.5 q0 3 3 4 q3 1 9 2 Z" /><glyph glyph-name="uni4E00" unicode="&#x4e00;" d="M149 88 q18 2 25 2 q11 0 15 -2 l2 -7 q-1 -4 -13.5 -8.5 q-12.5 -4.5 -22.5 -4.5 q-6 0 -8 3 q0 2 4 2 q3 0 5 2 q0 1 -1 1 q-5 0 -26 -5 q-24 -6 -41 -6 q-14 0 -18 4 q-3 0 -5 2 q-2 2 -2 4 q0 2 3 2 l14 -2 q9 0 17 1 q8 1 21 5 q18 7 31 7 Z" /><glyph glyph-name="uni4E03" unicode="&#x4e03;" d="M112 142 q3 -1 7 -10.5 q4 -9.5 4 -12.5 q0 -3 4 -13 q3 -6 5 -7 q2 -1 12 -1 q5 0 7.5 -0.5 q2.5 -0.5 2.5 -3.5 q0 -3 -5 -6 q-5 -3 -16 -7 q-8 -2 -17 -6 q-2 -2 -2 -19 q0 -25 11 -27 q5 -2 21.5 -2.5 q16.5 -0.5 16.5 0.5 q4 2 8 0 q23 0 23 10 q0 5 2 5 q2 0 9 -7 q4 -4 5.5 -6.5 q1.5 -2.5 0.5 -5.5 q0 -8 -9 -5 q-12 0 -19 -2 q-3 0 -10.5 -1 q-7.5 -1 -18.5 -1 q-10 -2 -19 -2 l-1 0 q-5 0 -12.5 3 q-7.5 3 -11.5 6 q-4 4 -4 6 q0 2 -1 3 q-1 1 -1 3 q-2 0 -2 19 l0 17 l-17 -4 q-18 -9 -30 -9 q-10 0 -10 6 q0 4 2.5 4.5 q2.5 0.5 6.5 0.5 q6 0 24 5.5 q18 5.5 22 8.5 q2 14 2 28 q0 15 0.5 21.5 q0.5 6.5 3.5 9.5 l6 2 ZM119 98 q-1 10 -4 10 l-1 -10 q0 -6 2 -10 q10 0 3 10 Z" /><glyph glyph-name="uni4E07" unicode="&#x4e07;" d="M170 151 q11 3 15 3 q6 0 8 -5 l1 -2 q0 -5 -22 -11 q-10 -2 -19 -6 q0 -2 6 -7 q6 -5 7 -3 q2 0 2 -3 l8 -4 q9 -5 13 -10.5 q4 -5.5 4 -14.5 q1 -2 1 -7 q0 -5 -3 -10 q0 -4 -2 -8 q0 -4 -6 -10 q-5 -5 -7 -9 q0 -2 -4 -6 l-11 -17 q-5 -8 -8.5 -13 q-3.5 -5 -7.5 -5 q-3 0 -11 8 q-5 8 -8.5 17.5 q-3.5 9.5 -3.5 15.5 q0 5 2 4.5 q2 -0.5 2 -6.5 q2 -3 4.5 -7.5 q2.5 -4.5 3.5 -6.5 q8 -9 10 -9 q3 0 13 17 q11 15 18.5 29 q7.5 14 7.5 19 q0 13 -17 21 l-13 6 q-1 0 -12 -14 q-12 -13 -26 -27.5 q-14 -14.5 -16 -14.5 q-2 0 -9 -5 l-6 -4 q-2 0 -2 1 q0 5 15 18 q15 14 27 29.5 q12 15.5 12 20.5 q0 2 -2 2 q-1 -1 -1.5 0.5 q-0.5 1.5 -0.5 4.5 l1 2 q0 2 -2 2 q-5 0 -9 -2 q-26 -8 -41.5 -12 q-15.5 -4 -19.5 -1 q-1 1 -1 3 q0 6 9 6 q5 0 14.5 2.5 q9.5 2.5 17.5 5.5 q9 3 19 6.5 q10 3.5 21 6.5 q10 2 29 10 Z" /><glyph glyph-name="uni4E08" unicode="&#x4e08;" d="M147 150 q0 2 3 2 q3 0 6 -4 q3 -4 3 -8 q0 -5 15 -24 q3 -3 3 -6 q0 -5 -11 -6 q-3 0 -7 -1 q-4 -1 -6 -3 q0 -1 -8 -19 q-1 -5 -5 -13 q-4 -8 -6 -12 l-4 -9 l6 -1 q1 0 15 -7 q12 -4 15 -4 q2 0 6 -4 q4 0 6 -1 q2 -1 4 -1 q11 -5 13 -7 q2 -1 4.5 -2.5 q2.5 -1.5 4.5 -1.5 q2 -1 3.5 -4 q1.5 -3 -0.5 -6 q-1 -4 -5 -4 q-6 0 -22 8 q-41 18 -44 19 q-4 1 -10 1 q-5 0 -19 -7 q-17 -10 -30 -10 q-13 0 -25 10 q-4 3 -5 5.5 q-1 2.5 -1 6.5 q1 5 8 11.5 q7 6.5 13 9.5 q8 2 15 2 q18 0 33 -6 l2 -1 q3 0 7 9 q5 8 9.5 18.5 q4.5 10.5 4.5 13.5 q0 1 -2 1 q-8 0 -18 -5 q-21 -8 -30 -8 q-10 0 -10 8 q0 3 2.5 4 q2.5 1 9.5 2 q9 0 31 6.5 q22 6.5 22 9.5 q2 3 2 19 q2 9 2 19 ZM159 116 q0 3 -2 3 q-2 0 -2 -3 q0 0 0.5 -0.5 q0.5 -0.5 1.5 -0.5 l2 1 ZM99 47 q-11 3 -18 3 q-11 0 -22 -11 l-7 -6 l7 -4 q5 -5 13 -5 q17 0 33 13 q2 1 2.5 2.5 q0.5 1.5 -0.5 4.5 q-2 0 -3.5 1 q-1.5 1 -4.5 2 Z" /><glyph glyph-name="uni4E09" unicode="&#x4e09;" d="M101 138 q0 4 4 4 q26 -6 34 -10 q8 -4 6 -11 q-1 -3 -4 -3 q-1 0 -9 3 l-14 6 q-17 5 -17 11 ZM90 102 q0 2 3.5 1 q3.5 -1 3.5 -3 q1 -3 5.5 -3.5 q4.5 -0.5 12.5 -0.5 q8 0 13 -0.5 q5 -0.5 8 -3.5 q4 -3 4 -4 q0 -1 -4 -5 q-4 -4 -4 -2 q-8 2 -17 2 q-5 2 -10.5 3.5 q-5.5 1.5 -9.5 3.5 q-5 1 -6 3.5 q-1 2.5 1 8.5 ZM151 52 q8 2 17 2 q12 0 21 -3 q9 -3 10 -7 q1 -2 0.5 -6.5 q-0.5 -4.5 -2.5 -4.5 q-5 0 -14 -6 q-14 -8 -19 -8 q-3 -2 -6 -3 q-3 -1 -5 -2 l-1 0 q-2 0 -3 3 q-1 3 2 6 l15 8 l10 8 q-1 2 -8 2 q-15 0 -27 -4 q-10 -4 -11 -4 q0 0 -12 -4 q-10 -4 -13 -4 q-4 0 -6 -2 q0 -4 -30 -4 q-6 0 -11 3 q-5 3 -3 5 q2 2 12 2 q12 0 33.5 5 q21.5 5 25.5 10 q3 0 13 4 l12 4 Z" /><glyph glyph-name="uni4E0A" unicode="&#x4e0a;" d="M107 137 q3 0 3 -15 q3 -37 6 -33 q4 0 6 2 q1 0 13 4 q3 1 7 1 q4 0 8 -3 q3 -1 3 -3.5 q0 -2.5 -1 -5.5 q-1 -5 -4 -6 q-3 -1 -9 -2 q-13 0 -18 -5.5 q-5 -5.5 -7 -19.5 l0 -11 l6 2 q39 7 58 7 q16 0 28 -4 q13 -5 16 -8.5 q3 -3.5 -3 -6.5 l-17 0 q-16 4 -27 4 l-15 0 q-3 3 -94 -8 q-7 0 -15 -4 l-9 -2 q-6 0 -8 3 q-2 3 4 5 q5 3 23 6 q18 3 28 4 q5 0 6.5 1.5 q1.5 1.5 1.5 7.5 q3 10 3.5 21 q0.5 11 0.5 31 q0 13 1 24 q1 11 1 12 l4 2 Z" /><glyph glyph-name="uni4E0B" unicode="&#x4e0b;" d="M179 159 q6 0 10 -2 l2 -4 q0 -6 -20 -6 q-27 -3 -36 -9 q-2 -2 -2 -12 l2 -17 q0 -4 0.5 -6 q0.5 -2 3.5 -2 q3 0 9 -2.5 q6 -2.5 12 -6.5 q14 -7 27.5 -11.5 q13.5 -4.5 16.5 -2.5 q3 2 5 -6 q2 -8 -1 -11 q-1 -3 -5 -3 q-2 0 -8 3.5 q-6 3.5 -10 5.5 q-9 6 -16 10 q-7 4 -11 7 q-14 5 -17 10 q-2 3 -6 3 q0 -7 -2 -15 q0 -15 -2 -17 q-2 -4 -2 -13 q0 -10 -2 -14 q-3 -7 -3 -21 q0 -23 -6 -17 q-3 3 3 61 q3 55 1 67 l-1 10 l-13 -2 q-13 0 -25 -4 q-18 -4 -22 -4 q-7 0 -12 4 q-3 1 -4.5 5 q-1.5 4 0.5 5 q3 5 10 0 q6 -1 21.5 1.5 q15.5 2.5 50.5 9.5 q16 4 27 4 l25 2 Z" /><glyph glyph-name="uni4E0D" unicode="&#x4e0d;" d="M96 147 q2 2 20 1 q18 -1 20 -1 q1 -1 1 -6 q0 -7 -3 -13 q-2 -2 -5.5 -8 q-3.5 -6 -10.5 -15 q-19 -26 -19 -40 q2 -4 2 -13 q1 -1 2 -8 q1 -7 2 -13 q2 -12 2 -14 q0 -16 -11 -8 q-2 1 -3 5.5 q-1 4.5 -2 10 q-1 5.5 -1 9.5 q0 11 -0.5 16 q-0.5 5 -1.5 5 q-1 0 -3.5 -5.5 q-2.5 -5.5 -4.5 -9.5 q-3 -7 -13 -17 q0 -2 -2 -4 q0 -4 -2 -4 l-4 -5 q0 -4 -7 -4 q-6 0 -6 6 l2 9 q3 4 4 8.5 q1 4.5 3 14.5 q1 3 3 11.5 q2 8.5 3 13.5 l4 21 q0 5 4 9 l9 2 q6 0 10 -7 q3 -6 5.5 -7 q2.5 -1 2.5 3 q0 1 1.5 3 q1.5 2 1.5 4 q4 4 8 12 l11 17 l6 8 q0 2 -11 2 q-9 0 -13 0.5 q-4 0.5 -4 3.5 l0 7 ZM78 88 q-2 0 -4.5 -5.5 q-2.5 -5.5 -2.5 -9.5 q0 -2 -2 -4 q-2 -2 -4 -27 q1 0 9 11.5 q8 11.5 10 17.5 q0 7 -2 11 l-4 6 ZM147 71 q2 1 4 1.5 q2 0.5 2 -1.5 q3 0 8 -2 q5 -2 11 -4 q20 -8 23 -8 q5 -5 8 -5 q4 0 4.5 -3.5 q0.5 -3.5 -2.5 -8.5 l-4 -4 l-8 4 l-13 8 q-7 7 -15 9 q-8 3 -14 7.5 q-6 4.5 -4 6.5 Z" /><glyph glyph-name="uni4E0E" unicode="&#x4e0e;" d="M127 156 q4 2 5 2 q4 0 8 -10 q1 -11 3.5 -13.5 q2.5 -2.5 8.5 0.5 q5 6 9 2 q3 -1 3 -5 q0 -5 -12 -11 q-10 -7 -10 -9 q-1 -1 -2 -1 q-1 0 -3 1 l-3 1 q-6 0 -11 -7 l0 -4 q0 -5 -2 -7 l-1 -3 q0 -2 2 -2 q1 0 18 5 q32 7 44 7 q11 -1 14.5 -4 q3.5 -3 3.5 -9 q2 -9 -4 -34 q-6 -25 -10 -25 l-4 -6 q-4 -8 -4 -10 q-2 -2 -3.5 -4.5 q-1.5 -2.5 -1.5 -4.5 q-1 -4 -5 -7 q-4 -3 -9 -3 l-11 8 q-4 4 -9 8.5 q-5 4.5 -8 6.5 q-11 6 -14 9.5 q-3 3.5 0 5.5 q1 1 2.5 1.5 q1.5 0.5 1.5 -1.5 q0 -2 4 -3.5 q4 -1.5 6 -1.5 q2 0 4 -1.5 q2 -1.5 3 -2.5 q6 -6 10 -8 l8 -4 l7 6 q8 9 14.5 22.5 q6.5 13.5 6.5 21.5 q0 8 2 10 q2 4 2 7 q0 8 -6 8 q-3 3 -7 0 l-10 0 q-12 0 -30.5 -6.5 q-18.5 -6.5 -21.5 -12.5 q-3 -3 -7.5 -3.5 q-4.5 -0.5 -5.5 3.5 q-2 2 -2 6 q3 8 7 21 q4 13 5 21 q0 7 3 9 l2 6 q5 20 10 25 ZM133 62 q0 2 7 2 q4 -2 10 -2 q1 0 1 -5 q0 -8 -3 -8 q-1 -1 -2.5 -1 q-1.5 0 -1.5 1 q-7 -1 -23.5 -4.5 q-16.5 -3.5 -24.5 -7.5 q-12 -4 -19 -4 q-6 -3 -12 -3 l-2 0 q-3 0 -6 3 q-3 3 -3 6 q0 5 8 2 q5 0 23.5 5.5 q18.5 5.5 18.5 6.5 q0 4 17 7 q5 0 8 1 q3 1 4 1 Z" /><glyph glyph-name="uni4E13" unicode="&#x4e13;" d="M135 159 q0 10 0.5 15.5 q0.5 5.5 1.5 5.5 q10 0 10 -23 q0 -15 3 -15 l6 4 q4 4 10 4 q7 0 7 -5 q0 -3 -6 -8.5 q-6 -5.5 -13 -8.5 q-7 -4 -9.5 -7.5 q-2.5 -3.5 -3.5 -13.5 l0 -13 l6 2 q8 0 11 5 q2 2 19 2 q9 0 11 -1 q2 -1 3 -6 q1 -2 1 -5 q0 -6 -11 -3 q-8 0 -10 -2 l-9 0 q-5 0 -12 -2 q-7 -2 -9 -2 q-2 -6 -2 -13 l0 -12 l11 6 q10 5 16 5 q6 0 13 -5 q4 -4 4 -11 q-6 -23 -15 -31 q-6 -6 -6 -8 q2 -7 6 -13 q8 -10 5 -17 l0 -6 q-2 -2 -5 -2 l-3 -1 q-6 0 -9 11 q-3 19 -11 19 q-3 0 -5.5 4 q-2.5 4 -2.5 9 q0 3 4 5.5 q4 2.5 6 0.5 l1 0 q3 0 8.5 4.5 q5.5 4.5 5.5 8.5 q0 2 2 4 q3 3 4.5 8 q1.5 5 -0.5 7 q-3 1 -11.5 -3 q-8.5 -4 -17.5 -10 q-14 -13 -17 -6 q-1 1 -1 4 q0 5 6 21 q3 7 2.5 11.5 q-0.5 4.5 -2.5 4.5 l-13 -1 q-3 -1 -25 -7 q-12 -4 -17 -4 q-3 -2 -4.5 0.5 q-1.5 2.5 -1.5 3.5 q-1 2 -1 5 q0 8 18 12 q6 2 18 10 q9 9 11 9 l10 10 q8 8 5 8 q-10 -2 -15 -2 q-5 0 -11 2 q-1 1 -1 3 q0 5 14 8 q5 0 9.5 1 q4.5 1 7.5 1 l6 2 l-2 21 ZM131 98 q1 5 -0.5 9.5 q-1.5 4.5 -3.5 -0.5 q0 -1 -4.5 -4.5 q-4.5 -3.5 -8.5 -8.5 l-11 -8 q0 -1 2 -1 q-1 0 11 3 q2 1 6.5 2.5 q4.5 1.5 6 3 q1.5 1.5 2.5 4.5 Z" /><glyph glyph-name="uni4E14" unicode="&#x4e14;" d="M133 159 q6 2 9 2 q7 0 14 -5 q10 -10 4 -16 q-4 -3 -4 -42 q0 -23 2 -44.5 q2 -21.5 4 -22.5 q0 -2 13 -2 q42 -3 42 -15 q0 -3 -5 -6 q-5 -3 -8 -2 q-3 3 -19 5.5 q-16 2.5 -29 2.5 q-13 0 -33 -4 q-9 0 -15.5 -1 q-6.5 -1 -9.5 -1 q-25 -3 -28 -6 q-1 0 -2 -1.5 q-1 -1.5 -2 -1.5 q0 1 -3 1 q-4 0 -8 -2 q-4 -2 -4 -3 q0 -1 -1 -1 q-4 0 -9 5 q-3 3 -3 5 q0 2 3.5 4.5 q3.5 2.5 9.5 3.5 l15 4 q2 2 4.5 2.5 q2.5 0.5 5.5 1.5 q10 0 13 5 q2 2 6 2 q3 -2 0 2 q-1 2 -1 6 l1 19 q4 40 4 55 q0 12 -4 16 q-5 8 -5 11 q0 3 2 3 q4 0 14 -10 q8 -8 10 -8 q7 0 14 -11 q7 -11 7 -20 q0 -9 -4 -13 q-1 -3 -1 -7 l1 -8 q4 -8 4 -10 q2 0 3.5 -1 q1.5 -1 1.5 -3 q0 -2 1 -3.5 q1 -1.5 2 -3.5 q2 0 2 4 q0 7 -2 13 l-1 50 l1 36 q1 1 1 3 q0 3 -3 3 q-4 0 -8 -4 q-3 -3 -7.5 -3 q-4.5 0 -4.5 3 q0 6 10 13 ZM116 104 l-6 6 l0 -20 l0 -21 q-1 -2 -1 -18 q0 -16 1 -16 l6 2 q3 3 3 5 l-3 8 q-3 6 -3 12 q0 5 3 11 q2 4 2 15 q-2 8 -1 8.5 q1 0.5 6 -2.5 q4 -4 2 0 q0 4 -2 6 l-7 4 ZM139 29 q0 3 -3 4 q-3 1 -3 -2 l-8 -4 q-9 0 -9 -5 q2 -2 4 0 q2 0 5 1.5 q3 1.5 6 1.5 l6 0 q2 0 2 4 Z" /><glyph glyph-name="uni4E16" unicode="&#x4e16;" d="M155 148 q0 6 0.5 8 q0.5 2 3.5 2 q4 0 4 -2 q0 -4 2 -8 q2 -2 2 -7 q0 -4 -2 -12 q0 -14 -2 -19 l0 -4 l23 0 q19 -2 25 -4 q6 -2 3 -9 q0 -3 -6 -3 l-18 1 q-25 0 -25 2 l-2 1 q-2 0 -4 -3 q-2 -3 -2 -6 q0 -3 -4 -13 q-5 -10 -5 -12 l1 -4 q0 -6 -13 -9 q-4 -1 -9 -2 q-5 -1 -6 -2 q-5 -3 -8 0 q-2 5 -4 15 q-2 10 0 19 l0 8 l-11 -2 q-9 0 -12 -4.5 q-3 -4.5 -3 -18.5 q5 -40 7 -40 q5 -1 14.5 -0.5 q9.5 0.5 14.5 0.5 q7 2 31.5 2.5 q24.5 0.5 39.5 -0.5 q5 0 7.5 -5 q2.5 -5 -0.5 -7 q-1 -1 -14 -1 q-15 0 -29.5 1 q-14.5 1 -21.5 2 q-5 0 -7 -2 q-1 0 -5.5 -1 q-4.5 -1 -13.5 -1 q-2 -1 -7 -2 q-5 -1 -7 -4 q-3 -4 -8 -4 q-5 0 -7 4 l0 39 l0 38 l-8 0 q-2 0 -6.5 -1 q-4.5 -1 -10.5 -1 q-8 -2 -9.5 -1.5 q-1.5 0.5 -1.5 5.5 q0 3 1.5 3.5 q1.5 0.5 5.5 0.5 q2 0 6 1 q4 1 11 1 l10 2 l0 13 q0 13 2 13 q2 0 2 -5 q0 -2 1 -4 q1 -2 1 -6 q2 -7 3 -7.5 q1 -0.5 8 0.5 q9 2 11.5 4.5 q2.5 2.5 2.5 8.5 q3 6 3 15 q0 4 1 6 q1 2 1 4 q0 2 2 2 q2 -7 2 -17 q2 -12 3 -14 q1 -2 5 -2 l15 0 q3 1 5.5 1.5 q2.5 0.5 4.5 2.5 q4 3 6.5 19 q2.5 16 0.5 25 ZM144 89 q0 2 -4 2 l-13 -2 q-6 0 -7 -1.5 q-1 -1.5 -1 -10.5 q0 -8 0.5 -13 q0.5 -5 3.5 -2 q2 3 3.5 3.5 q1.5 0.5 5.5 0.5 q3 0 8.5 10.5 q5.5 10.5 3.5 12.5 Z" /><glyph glyph-name="uni4E18" unicode="&#x4e18;" d="M131 147 q0 4 3 4 q3 0 6 -4 q2 -2 2 -5 q0 -5 -6.5 -10.5 q-6.5 -5.5 -16.5 -7.5 q-11 -4 -20.5 -9 q-9.5 -5 -9.5 -7 q0 -7 3 -9 q2 -6 2 -10 q1 -3 2 -6 q1 -3 2 -3 q2 0 7.5 2.5 q5.5 2.5 13.5 4.5 q28 9 44 6 q3 -1 4.5 -5.5 q1.5 -4.5 -0.5 -7.5 q0 -3 -7.5 -5.5 q-7.5 -2.5 -13.5 -2.5 l-6 0 l0 -19 q2 -12 2 -23 l10 0 q3 1 11.5 2 q8.5 1 15.5 2 q18 0 26.5 -2 q8.5 -2 9.5 -8 l1 -4 q0 -8 -11 -5 q-3 0 -7.5 1 q-4.5 1 -7.5 1 q-17 0 -25 3 l-15 1 q-24 0 -29 -8 q0 -3 -7 0 q-6 2 -8 2 l-12 -2 q-16 -4 -23 -4 q-4 -1 -8.5 -1.5 q-4.5 -0.5 -8.5 -2.5 l-10 0 q-2 1 -2 3 q0 3 16 7 q13 3 18 4.5 q5 1.5 5 4.5 l0 15 q3 18 3 32 q0 13 -2 20.5 q-2 7.5 -5 7.5 q-8 0 -8 9 q0 5 6 6 q2 0 4 2 q0 2 2 2 q3 1 7 3 q4 2 10 5 q8 5 16 7 q4 0 10.5 5.5 q6.5 5.5 6.5 8.5 ZM125 66 q-3 6 -6 6 q-4 0 -11.5 -3 q-7.5 -3 -11.5 -5 q-2 -12 -2 -22 q0 -11 0.5 -15.5 q0.5 -4.5 3.5 -4.5 q5 0 12 3.5 q7 3.5 7 6.5 q2 2 6 2 q3 0 4.5 6 q1.5 6 -0.5 9 q-1 0 -1 1.5 q0 1.5 1 2.5 q0 6 -2 13 Z" /><glyph glyph-name="uni4E19" unicode="&#x4e19;" d="M146 156 q2 1 6 1 q9 0 10 -7 q0 -5 -3 -6.5 q-3 -1.5 -13 -1.5 q-12 -1 -16 -3 q-4 -2 -1 -4 q0 -1 0.5 -2.5 q0.5 -1.5 -0.5 -1.5 q0 -6 -2 -12 l0 -13 l-1 -1 l3 -1 l23 2 q10 2 35 2 q9 -1 14 -2.5 q5 -1.5 10 -5.5 q5 -5 5.5 -8.5 q0.5 -3.5 0.5 -19.5 q0 -10 -1 -18 q-1 -8 -4 -15 q-15 -44 -29 -44 q-5 0 -20 13.5 q-15 13.5 -15 17.5 q0 1 2 1 q7 0 12 -5 q6 -4 13 -6 q2 -2 4 -2 l3 -1 q5 0 10 11 q1 3 3.5 8.5 q2.5 5.5 2.5 8.5 q6 12 6 33 q0 11 -2.5 15.5 q-2.5 4.5 -9.5 5.5 q-27 0 -46 -2 q-12 -1 -17.5 -2 q-5.5 -1 -5.5 -4 q0 -3 -5 -10 l-2 -9 q0 -4 3.5 -4.5 q3.5 -0.5 9.5 0.5 q12 2 17 2 q10 0 16 -3 q6 -3 6 -7 q0 -4 -15 -13.5 q-15 -9.5 -20 -9.5 q-4 0 -6 -3 q-3 -1 -8.5 -1 q-5.5 0 -8.5 1 q0 7 11 9 q6 0 12 6 q5 2 6.5 3.5 q1.5 1.5 -2.5 2.5 q-1 1 -5 1 q-6 0 -13.5 -2 q-7.5 -2 -12.5 -5 q-1 -1 -6 -1 q-7 0 -7 5 q2 7 5 11 q4 4 9 13.5 q5 9.5 3 11.5 q-8 0 -17 -4 l-21 -4 q-15 -5 -18 -21 q0 -3 -1 -7.5 q-1 -4.5 1 -5.5 q0 -2 1 -4 q1 -2 1 -6 q2 -7 -2 -11 q-2 -1 -5 -1 q-3 0 -4 9 q-4 14 -4 17 q-1 5 -1 33 q0 27 1 28 l1 0 q5 0 5 -17 q0 -8 1.5 -12.5 q1.5 -4.5 2.5 2.5 l7 2 q15 4 31 9.5 q16 5.5 23 9.5 q3 2 6.5 17.5 q3.5 15.5 -0.5 15.5 q-6 0 -14 -2 q-3 -1 -10 -1 q-15 0 -15 5 q0 4 21 7 q29 5 40 10 q2 2 6 2 Z" /><glyph glyph-name="uni4E1A" unicode="&#x4e1a;" d="M129 160 q2 2 5 1 q3 -1 3 -5 q2 -2 2 -32 q0 -31 -2 -33 q0 -1 3 -1 l12 1 q9 1 19 1 q4 0 5.5 -1 q1.5 -1 2.5 -4 q0 -6 -8 -17 q-8 -11 -19 -17 q-7 -4 -9.5 -8 q-2.5 -4 -2.5 -10 q1 -4 4 -4 l10 2 q28 2 35 2 q21 0 28 -5 q3 -1 3 -5 q0 -4 -3 -7 q-1 -1 -4 -2.5 q-3 -1.5 -6 0.5 q-7 3 -46 3 q-49 0 -59 -5 q-4 0 -9.5 -2.5 q-5.5 -2.5 -13.5 -4.5 l-29 -8 q-13 -4 -13 -2 q-2 1 -2 4 q0 6 4 8 q1 1 13 7 q8 4 15 4 l16 6 q11 5 13 7.5 q2 2.5 2 7.5 q-1 1 -2.5 5 q-1.5 4 -8.5 7 q-6 5 -23 9 q-21 3 -21 8 q0 3 4 3.5 q4 0.5 15 0.5 q4 -1 12 -1 q18 0 21 6 q0 1 1.5 5.5 q1.5 4.5 1.5 10.5 q2 9 2 17 q0 4 -2 11 q-3 9 -2.5 11.5 q0.5 2.5 4.5 2.5 q3 0 7 -7 q4 -7 5 -16 q0 -3 1 -3 q2 0 8 18 l6 25 q0 4 2 6 ZM129 123 q0 4 -2 8 q-2 0 -6 -17 l0 -6 q-4 -9 -7 -23 q0 -1 3 -1 q3 0 4 1 q6 3 6 6 q0 3 1 6 q1 3 1 7 l0 19 ZM161 76 q0 2 -5 3 q-5 1 -10 0 q-6 0 -6 -9 q-1 -2 -1 -5 q0 -3 3 -3 q4 0 10 6 l9 8 ZM127 62 q0 10 -1 11.5 q-1 1.5 -7 0.5 q-8 -1 -8 -17 q0 -7 3 -10 q4 -3 9 0 q3 2 4 4.5 q1 2.5 0 10.5 ZM94 64 q-2 0 -2 -2 q0 -2 3 -2.5 q3 -0.5 3 2.5 l-4 2 ZM114 28 q3 1 3 2 q0 1 -3 3 l-4 -3 q-5 -5 4 -2 Z" /><glyph glyph-name="uni4E1C" unicode="&#x4e1c;" d="M121 160 q2 2 5 2 q7 0 7 -13 q0 -6 2 -11 q0 -3 4 -3 q2 0 3.5 -1.5 q1.5 -1.5 1.5 -3.5 l0 -2 q0 -3 -3.5 -6.5 q-3.5 -3.5 -7.5 -3.5 l-4 0 l-6 0 q-7 -3 -7 -11 q0 0 -4 -12 q-4 -8 -4 -11 l-6 -14 q-5 -9 -5.5 -12.5 q-0.5 -3.5 3.5 -0.5 q2 2 6 2 q5 0 9 5 q4 5 4 10 q0 12 6 12 q5 0 8 -6 q1 -1 3 -3.5 q2 -2.5 3 -2.5 q4 -1 4 -4 q0 -4 -6 -9 q-8 -8 -8 -10 q0 -11 -2 -17 l0 -21 l0 -12 q0 -2 -1 -4 q-1 -2 -1 -3 q-1 -1 -3 -1 q-3 0 -6.5 1.5 q-3.5 1.5 -3.5 3.5 q-2 5 -4 5 q-6 5 -8.5 12 q-2.5 7 2.5 7 q4 0 8 -3 q2 -2 3 -2 q1 0 1 2 l0 19 l1 7 q0 4 -2 4.5 q-2 0.5 -7 -2.5 q-10 -5 -15 -5 q-4 0 -5.5 1 q-1.5 1 -2.5 4 l-1 6 q0 3 7 14 q2 6 4 9.5 q2 3.5 2 5.5 q0 2 1.5 3 q1.5 1 1.5 3 q3 3 4.5 10.5 q1.5 7.5 1.5 11.5 q-6 0 -13 -3 q-12 -4 -19 -4 q-5 1 -7.5 2.5 q-2.5 1.5 -2.5 4.5 q0 2 1.5 2.5 q1.5 0.5 6.5 0.5 q8 0 18.5 3 q10.5 3 15.5 6 q5 3 8 14 q1 4 2 8.5 q1 4.5 2 4.5 q3 2 3 5 q0 3 2 6 ZM127 130 q0 1 -1 2 q-1 1 -1 3 q-2 0 -2 -3 q0 -4 2 -4 l2 2 ZM173 38 q3 0 16 -14 q13 -14 15 -19 q1 -1 1 -4 q0 -4 -2.5 -6.5 q-2.5 -2.5 -6.5 -2.5 q-3 2 -8.5 11.5 q-5.5 9.5 -5.5 15.5 q0 3 -3 3 q-2 0 -6 6.5 q-4 6.5 -4 9.5 l4 0 ZM49 13 q0 15 2 15 q3 0 6 -4 q3 -4 3 -9 q0 -2 1 -3 q1 -1 1 -3 q2 -4 2 -11 q2 -6 1.5 -7 q-0.5 -1 -5.5 -1 q-7 0 -9 4.5 q-2 4.5 -2 18.5 Z" /><glyph glyph-name="uni4E1D" unicode="&#x4e1d;" d="M147 152 q0 5 5 5 q4 0 9 -5 q6 -4 6 -13 q0 -7 -6 -19 l-6 -12 l8 0 q10 0 13.5 -2.5 q3.5 -2.5 3.5 -10.5 q0 -5 -4 -12.5 q-4 -7.5 -9 -10.5 q-2 -4 5 -6 q6 0 6 -7 q0 -5 -4 -8 q-4 -3 -8 -2 q-7 0 -11 -4 q-3 -4 -9 -4 q-6 0 -10 4 q-3 3 -3 7 q0 5 4 10 q4 5 10 8 q9 7 15 14.5 q6 7.5 4 10.5 q-5 0 -11 -2 q-13 -2 -13 0 q-2 4 -2 7 q0 7 7 16 l8 15 q1 2 1 5 q0 3 -5 7 q-4 4 -4 9 ZM97 137 q0 2 2 2 q5 0 6 -6 q1 -1 1 -4 q0 -3 -5 -11 l-7 -10 l3 -8 q3 -7 6 -8 q3 -1 4 3 q2 6 6.5 12.5 q4.5 6.5 5.5 6.5 q2 0 2 -3 q0 -6 -10 -28 q-3 -8 -9 -19 q-6 -11 -8 -15 q-7 -15 -12 -15 q-4 0 -4 6 q0 8 8 22 q1 2 3 6.5 q2 4.5 2 7.5 q0 3 -1 7 q0 8 -4 12 q-1 2 -3 2.5 q-2 0.5 -5 -2.5 q-6 -1 -8.5 0 q-2.5 1 -2.5 5 q0 3 4 7.5 q4 4.5 7 4.5 q3 0 9.5 9 q6.5 9 6.5 12 q3 2 3 4 ZM195 37 q2 2 4 2 q5 -5 12 -5 q14 -1 19 -3 q5 -2 7 -5 l0 -6 q-1 -2 -15 -2 q-23 0 -31 4 q-1 2 -14 2 q-21 0 -33 -4 l-10 0 q-2 2 -2 0 q-4 -2 -9 -2 l-10 0 q0 -2 -6 -2 q-2 0 -5.5 -1.5 q-3.5 -1.5 -7.5 -1.5 q-4 -1 -12 -1 q-2 0 -5.5 -1.5 q-3.5 -1.5 -5.5 -3.5 q-3 0 -8 -1 q-5 -1 -11 -1 q-3 -1 -8 -2 q-5 -1 -6 -2 q-4 -1 -10 -1 q-7 0 -9 3 q0 2 1 3.5 q1 1.5 5 2.5 l9 0 q2 3 6 3 q7 0 65 12 q22 4 36.5 5.5 q14.5 1.5 21.5 2.5 q6 1 19 2 q13 1 13 3 Z" /><glyph glyph-name="uni4E22" unicode="&#x4e22;" d="M145 168 q2 3 3 3 q2 0 3.5 -2.5 q1.5 -2.5 2.5 -5.5 q0 -6 4 -6 q2 -2 2 -4 q0 -6 -10.5 -11.5 q-10.5 -5.5 -35.5 -11.5 q-8 -3 -11 0 l-1 2 q0 4 14 8 q4 0 9 2.5 q5 2.5 10 6.5 q5 2 8 4.5 q3 2.5 2 5.5 l0 9 ZM133 132 q1 1 3 1 q4 0 9 -9 q1 -5 4 -9 q3 -4 5 -4 q5 -2 5 -5 q0 -5 -9 -7 q-7 -4 -7 -9 l-1 -7 q0 -9 10 -3 q16 4 25 4 q5 1 12 1 q6 0 7 -4 q2 -1 2 -3 q0 -2 -4.5 -4 q-4.5 -2 -12.5 -3 q-15 0 -23 -4 q-2 -2 -8 -2 q-4 0 -32 -31 q-2 -5 -4 -7 q5 1 13.5 4 q8.5 3 13.5 5 q8 7 18.5 10 q10.5 3 10.5 -2 q0 -6 -14 -14.5 q-14 -8.5 -36 -14.5 q-13 -5 -17 -5 q-5 0 -8 5 q0 6 6 14 q1 5 4 8 q3 3 5 3 q2 0 2 2 q0 4 6 10 q10 10 7 10 q-5 0 -32 -10 q-6 -2 -11.5 -4 q-5.5 -2 -9.5 -2 l-6 -2 q0 -2 -9 -2 q-4 0 -5.5 0.5 q-1.5 0.5 -0.5 3.5 q0 6 4 6 q5 0 12.5 2.5 q7.5 2.5 8.5 4.5 q1 0 25 8 q12 2 23 6 q2 2 5 21 q-1 0 -13 -4 q-8 -4 -16 -4 q-7 0 -7 4 q0 3 1 4.5 q1 1.5 5 1.5 q7 0 21 7 l11 6 l0 10 q-1 2 -1 5 q0 5 3 8 ZM177 56 q2 3 2 3 q4 0 15 -23 q2 -2 3 -5.5 q1 -3.5 3 -7.5 q5 -9 5 -23 q0 -6 -1.5 -10.5 q-1.5 -4.5 -3.5 -4.5 q-3 0 -7 3.5 q-4 3.5 -4 5.5 q2 0 2 8 q1 2 1 6 q0 5 -7 26 q-6 10 -8 22 Z" /><glyph glyph-name="uni4E24" unicode="&#x4e24;" d="M131 148 q2 -2 6 -2 q2 -2 2 -4 l0 -2 q0 -4 -5 -5.5 q-5 -1.5 -18 -3.5 l-7 -1 q-7 0 -11.5 3.5 q-4.5 3.5 -4.5 8.5 q0 3 2.5 3 q2.5 0 6.5 -1 q1 -1 5 -1 q6 0 18 5 l6 0 ZM133 100 q3 9 6.5 9.5 q3.5 0.5 1.5 -7.5 q0 -7 2 -7 q2 0 9 3 q2 0 6 1 q4 1 8 1 l21 4 q10 2 14 1 q4 -1 5 -1 q4 -2 6.5 -6 q2.5 -4 2.5 -7 q0 5 -13.5 -27 q-13.5 -32 -14.5 -42 q-4 -16 -10 -16 q-3 0 -11 4 q-8 4 -12 8 q-3 3 -4.5 8.5 q-1.5 5.5 0.5 8.5 q0 2 6 -4 l6 -4 q2 0 4 -2 q0 -3 2 -3 q6 0 9 9 l8 19 q5 12 9.5 26.5 q4.5 14.5 3.5 14.5 q-2 2 -22 0 q-20 -2 -29 -6 q-9 -3 -11.5 -6.5 q-2.5 -3.5 3.5 -7.5 q2 -3 8 -3 q3 0 7 -4 q2 -2 8 -2 q3 0 8 -4 q5 -4 5 -8 q0 -4 -7 -4 q-3 -2 -5.5 -2 q-2.5 0 -6.5 3 q-6 3 -10 7 q-3 0 -7 4 q-3 1 -5.5 1 q-2.5 0 -4.5 -3 q-6 -9 -9 0 q-1 1 -1 3 q0 12 6 16 l0 2 l-2 0 q-6 0 -15 -3 q-9 -3 -11 -6 q-1 -1 -1 -4 q0 -7 6 -12 q2 -3 3 -3 q1 0 1 3 q1 4 3 4 q3 0 9 -6 q7 -7 7.5 -9.5 q0.5 -2.5 -3.5 -5.5 q-2 -1 -6 -1 q-8 0 -21 5 q-4 0 -8 -4 q-2 -3 -4.5 -4 q-2.5 -1 -4.5 2 q-1 1 -1 4 q0 9 6 15 q0 1 1 3 q1 2 1 5 q0 2 -0.5 3 q-0.5 1 -1.5 1 q-5 0 -5 -2 q0 -2 -4 -2 q-2 0 -3.5 -2 q-1.5 -2 -4.5 -4 q-3 -5 -3.5 -9 q-0.5 -4 -0.5 -12 q0 -13 -2 -15 q-2 -2 -7 -2 q-3 1 -5.5 11 q-2.5 10 -2.5 19 q0 4 -2 8 q-1 1 -1.5 8.5 q-0.5 7.5 -0.5 22.5 q2 5 5 5.5 q3 0.5 3 -3.5 l2 -29 l13 8 l12 9 q7 0 9 2 q5 2 10 16 q4 14 7 11 q1 -1 2 -5.5 q1 -4.5 -1 -7.5 q-3 -1 -3 -4 q0 -2 8 -2 q14 4 18 6.5 q4 2.5 7 8.5 Z" /><glyph glyph-name="uni4E25" unicode="&#x4e25;" d="M130 175 q16 7 30 7 q7 0 8 -3 q1 -1 -7.5 -6.5 q-8.5 -5.5 -9.5 -6.5 l0 -10 l0 -21 q1 -5 2.5 -7.5 q1.5 -2.5 5.5 -1.5 q2 1 6 1 q7 0 7 -7 q0 -4 -5 -12.5 q-5 -8.5 -10 -12.5 q-6 -3 -6 -6 q0 -1 -2 -2 q-2 -1 -3 -2 q-2 0 -2 -2 q0 -1 2 -1 q-1 0 11 3 q17 4 28 4 q10 0 8 -6 q0 -6 -9 -9 q-11 0 -19 -4 q-10 -2 -40 -6 q-6 0 -14 -4 q-5 -3 -11 -3 l-2 -3 q0 -22 -8 -38 q-5 -13 -14 -25.5 q-9 -12.5 -13 -12.5 q-4 0 -4 2.5 q0 2.5 4 5.5 q9 8 17 33.5 q8 25.5 3 29.5 q-2 2 -8 0 q-2 -1 -9 -1 q-8 0 -8 3 q0 4 1.5 7.5 q1.5 3.5 3.5 1.5 q6 0 8 2 q2 1 10 4.5 q8 3.5 15 7.5 q11 5 15 8 q4 3 4 7 q-1 13 -3 14 q-2 1 -18 1 l-19 0 l0 6 q0 3 3 4.5 q3 1.5 14 1.5 q17 0 17 2 q2 0 3 5.5 q1 5.5 1 13.5 l0 19 l-7 0 q-5 2 -7 5.5 q-2 3.5 -1 7.5 q1 0 3 0.5 q2 0.5 5 -0.5 l9 0 l15 6 ZM140 150 q0 11 -1.5 12.5 q-1.5 1.5 -6.5 -4.5 q-4 -3 -7 -14.5 q-3 -11.5 -1 -14.5 q1 -6 6 2 q0 7 6 4 q2 0 3 6.5 q1 6.5 1 8.5 ZM157 112 q0 2 -2 1.5 q-2 -0.5 -4 -1.5 q0 -2 2 -2 q2 2 4 2 ZM138 104 q2 2 0 4 q0 2 -1 2 q-1 0 -3 -2 q-2 -1 -2 -2 q0 -1 2 -2 l4 0 Z" /><glyph glyph-name="uni4E27" unicode="&#x4e27;" d="M124 170 q2 5 3 5.5 q1 0.5 6 -2.5 q2 -2 2.5 -3.5 q0.5 -1.5 -0.5 -3.5 q-2 -1 -2 -6 q0 -7 4 -15 q3 -3 8 0 q6 3 9 0 l2 -5 q0 -4 -8 -9 q-8 -4 -9.5 -8.5 q-1.5 -4.5 -1.5 -21.5 q0 -6 -2 -12 q0 -2 2 -2 q4 0 13 9.5 q9 9.5 14 17.5 q3 7 7.5 10.5 q4.5 3.5 7.5 1.5 q0 -4 -2 -8 q-2 -4 -2 -10 q0 -2 -4.5 -8 q-4.5 -6 -6.5 -9 q-6 -4 -10 -11 q4 0 10 2 q4 2 11 2 l2 0 q0 3 6 3 q4 0 9 2 q3 0 6 -7 q5 -5 0 -8 q-2 -2 -6 -2 q-5 2 -53 -4 q-16 -3 -16 -7 q0 -3 6.5 -9 q6.5 -6 12.5 -7 q5 -3 8 -3.5 q3 -0.5 8 0.5 q10 5 10 7 q0 2 2 2 q3 0 11 8 q9 9 12.5 10 q3.5 1 4.5 -6 q1 -2 1.5 -4 q0.5 -2 -1.5 -2 l-9 -8 q-12 -8 -16 -8 l-5 -5 q0 -2 10 -8 q10 -6 14 -6 q4 0 6 -3 q2 0 3 -1 q1 -1 3 -1 q6 -1 12.5 -5.5 q6.5 -4.5 6.5 -8.5 q-2 -5 -7 -7.5 q-5 -2.5 -8 1.5 q-2 0 -14 8 q-7 2 -19 11 q-6 6 -15 8.5 q-9 2.5 -12 -0.5 q-5 -3 -5 -7 q0 -8 -20 -29 q-11 -10 -17 -10 q-5 0 -7.5 5.5 q-2.5 5.5 -0.5 14.5 l1 13 q0 8 3 13 q3 9 4 21 q1 12 -2 12 l-2 1 q-2 0 -9.5 -2.5 q-7.5 -2.5 -13.5 -4.5 q-33 -12 -38 -12 q-6 0 -6 8 q0 4 42 14 q6 4 11 5.5 q5 1.5 7 3.5 q2 0 3.5 1 q1.5 1 3.5 1 l1 0 l-4 8 q-4 7 -4 19 l0 13 q4 0 9 -11 q0 -6 4 -12 q3 0 7 3 q4 3 5 7 q2 4 3 12.5 q1 8.5 0 12.5 q-7 0 -13 -2 l-7 -1 q-16 0 -16 10 q0 5 1 5.5 q1 0.5 7 -1.5 q2 -1 7 -1 q6 0 10 1 l11 2 l0 15 q0 14 1 18 ZM123 74 q1 2 1 6 q-1 2 -2.5 1 q-1.5 -1 -5.5 -3 q-2 -1 -4 -2.5 q-2 -1.5 2 -1.5 l9 0 ZM137 24 q1 1 1 3 q0 2 -9 11 l-11 13 l-4 -23 q-3 -16 -3 -23 q0 -7 3 -7 q1 0 9 9 q8 9 14 17 Z" /><glyph glyph-name="uni4E2A" unicode="&#x4e2a;" d="M95 154 q6 7 8 8 q2 1 3 -4 q0 -5 -11 -21 q-6 -8 -8 -16 q12 0 23 4 q30 4 55 4 q18 0 21 -2 q3 -1 3 -3 q0 -2 -3 -5 q-2 -4 -5 -6 q-3 -2 -10 -3 q-6 -1 -19 -8 q-4 -3 -9.5 -3 q-5.5 0 -5.5 3 q0 6 13 12 q6 1 5 3 q-1 2 -7 2 q-47 -6 -67 -17 q-8 -3 -11 -2.5 q-3 0.5 -3 4.5 q0 4 2 8.5 q2 4.5 6 8.5 l20 33 ZM119 93 q-2 8 1 8 q6 0 8 -5.5 q2 -5.5 2 -17.5 q0 -13 -1 -22 q0 -10 -1 -18.5 q-1 -8.5 -1 -13.5 q0 -5 1 -10 q1 -5 1 -6 q0 -6 -2 -11.5 q-2 -5.5 -4 -3.5 q-1 1 -2.5 17 q-1.5 16 -1.5 29 l2 36 q0 12 -2 18 Z" /><glyph glyph-name="uni4E2D" unicode="&#x4e2d;" d="M127 174 q2 0 8 -7 q3 -2 5 -4.5 q2 -2.5 2 -6.5 q0 -8 -1 -14 l0 -17 l25 0 q14 0 28 -2 q2 -2 2 -5 q0 -6 -7 -7 l-8 -2 l-10 -7 q-6 -1 -13 -5 q-7 -4 -10 -7 l10 0 q8 0 9 -1 q1 -1 1 -6 l1 -4 q0 -6 -15 -6 l-11 0 l0 -10 q0 -19 -2 -26 q0 -6 0.5 -9 q0.5 -3 1.5 -3 l0 -5 q0 -1 -1 -7.5 q-1 -6.5 -1 -14.5 q-1 -9 -2 -13.5 q-1 -4.5 -4 -5.5 q-4 0 -4 2 q-1 2 -1 18 q0 22 1 36 l1 26 q0 8 -3 8 q-1 1 -5 1 q-1 0 -10 -3 q-7 -5 -10 -5 q-3 0 -5 5 q-1 1 -1 3 q0 4 14 11 l10 7 l5 4 q2 0 3 4.5 q1 4.5 1 10.5 q0 4 -4 4 q-22 -5 -32.5 -10 q-10.5 -5 -14.5 -13 l-1 -9 q-2 -2 -2 -12 l0 -3 q0 -5 -2 -8.5 q-2 -3.5 -4 -3.5 q-5 0 -7 11 q0 3 -1 8 q-1 5 -1 10 q-3 14 -3 25 q0 8 1 9 q4 0 4 -2 l4 -30 l2 0 q2 3 2 5 q4 14 15 21.5 q11 7.5 37 11.5 q4 2 5.5 3.5 q1.5 1.5 1.5 9.5 l0 14 l0 7 q-3 3 -4.5 10.5 q-1.5 7.5 0.5 8.5 ZM150 116 q-5 0 -9 -5 q-3 -3 -2 -6 q1 -3 4 -3 q7 2 11 5 l10 6 l-6 2 l-8 1 Z" /><glyph glyph-name="uni4E30" unicode="&#x4e30;" d="M142 180 q0 4 0.5 6.5 q0.5 2.5 3.5 2.5 q6 0 6 -6 q0 -9 4 -9 q3 -3 3 -9 q0 -7 -1 -12 q0 -10 0.5 -15 q0.5 -5 2.5 -6 q10 -6 2 -14 l-7 -11 q0 -2 1 -3 q1 -1 4 -1 l4 0 q0 -1 1 -1.5 q1 -0.5 3 -0.5 q4 0 4 -4 q2 -2 6 -2 q2 0 4 -3 q2 -3 3 -4 l10 -8 q8 -3 8 -10 q0 -5 -3 -6 q-3 -1 -15 -1 q-5 0 -8.5 -1 q-3.5 -1 -4.5 -1 q0 -1 -3.5 -2.5 q-3.5 -1.5 -6.5 -1.5 q-1 -1 -6 -2.5 q-5 -1.5 -5.5 -14.5 q-0.5 -13 -1.5 -35 q0 -14 -1 -24.5 q-1 -10.5 -1 -11.5 q-7 -4 -4 46 q0 33 -2 33 q0 2 -13.5 -1.5 q-13.5 -3.5 -20.5 -6.5 q-2 -1 -5 -2 q-3 -1 -5 -2 q-5 0 -8 -1 q-3 -1 -5 -1 q-6 -1 -19 -1 q-9 0 -10 1 q-2 1 -2 2 q0 1 2 2 q4 4 10 4 q10 1 28 5.5 q18 4.5 35 9.5 l15 4 l2 15 l0 12 q-7 2 -15 2 q-21 3 -21 11 q0 2 25 2 l7 0 q1 0 3.5 1.5 q2.5 1.5 2.5 6.5 q0 8 -2 10.5 q-2 2.5 -7 4.5 q-4 3 -9 11.5 q-5 8.5 -5 11.5 q2 3 2 3 q1 0 8 -7 q6 -9 11 -9 q1 0 1 6 q0 11 -3 20 q-2 6 -2 18 ZM165 86 q-1 4 -3 4 q-2 0 -5 -5.5 q-3 -5.5 -3 -11.5 l-2 -8 l9 2 q4 3 8 3 q2 1 10 1 q0 0 2 1.5 q2 1.5 2 5.5 q0 11 -10 8 q-3 -1 -5 -1 q-2 0 -3 1 Z" /><glyph glyph-name="uni4E32" unicode="&#x4e32;" d="M108 180 q8 3 8 -4 q2 -2 4 -4.5 q2 -2.5 3 -2.5 q4 -4 4 -8 q0 -5 3 -6.5 q3 -1.5 12 -1.5 q21 -3 21 -11 q0 -7 -15 -10 q-4 0 -4 -9 q0 -3 -1.5 -5 q-1.5 -2 -9.5 -3 q-11 -5 -11 -10 q0 -2 7 -2 q7 0 11 1 q36 6 40 6 q4 0 6 -1.5 q2 -1.5 4 -2.5 l6 -4 q0 -6 -12 -10 l-11 -4 l-6 -2 q-4 0 -6.5 -3.5 q-2.5 -3.5 -2.5 -7.5 q0 -3 -2 -5 q-2 -2 -8 -3 q-14 -1 -18.5 -3 q-4.5 -2 -6.5 -6 q-2 -2 -2 -42 q0 -6 -0.5 -18.5 q-0.5 -12.5 -2 -19 q-1.5 -6.5 -2.5 -6.5 q-1 0 -2.5 5.5 q-1.5 5.5 -1.5 12.5 q0 6 1 8 l0 33 q-1 7 -1 13 q0 6 -1 9.5 q-1 3.5 -3 3.5 q-2 0 -12 -5 q-5 0 -11 -4 q-3 0 -4.5 -3 q-1.5 -3 -1.5 -4 q0 -2 -1 -4 q-1 -2 -3 -2 q-2 0 -3.5 2 q-1.5 2 -2 4.5 q-0.5 2.5 -0.5 4.5 q-4 15 -6 30.5 q-2 15.5 -1 21 q1 5.5 4 -3.5 q3 -3 5.5 -4 q2.5 -1 3.5 2 q2 2 25 6 q2 1 7.5 2 q5.5 1 5.5 4 q0 7 -17 7 q-8 0 -5 -5 q0 0 0.5 -0.5 q0.5 -0.5 0.5 -0.5 q0 -2 -2.5 -3.5 q-2.5 -1.5 -6.5 -1.5 q-1 0 -2 2 q-1 2 -2 4 q0 4 -1 7 q-1 3 -1 4 q-2 6 -2 13 l-2 16 l0 11 q2 3 5 3 q3 0 3 -3 q0 -16 7 -13 q1 1 12 7 q4 0 10 2 q2 0 2 3 q0 6 -2 11 q-2 7 -2 13 ZM115 136 q0 4 -2 6 q0 -1 -3.5 -2 q-3.5 -1 -5.5 -2 q-6 -2 -10.5 -5.5 q-4.5 -3.5 -4.5 -7.5 q0 -3 4 -3 q4 0 7 3 q2 2 6 2 l2 0 q0 5 2 5 q5 0 5 4 ZM129 142 q-5 0 -5 -4 q0 -4 4 -2 q4 2 4 4 l-3 2 ZM150 90 q3 2 2.5 2.5 q-0.5 0.5 -4.5 -0.5 q-12 0 -18 -1 q-6 -1 -9 -5 q0 -1 -0.5 -1.5 q-0.5 -0.5 0.5 -1.5 q0 -3 2 -3 q2 0 10 4 q5 1 10 3.5 q5 2.5 7 2.5 ZM113 86 q-1 1 -9 1 q-10 0 -16 -3 q-9 -4 -12.5 -10 q-3.5 -6 1.5 -11 q0 -1 2 -1 q3 0 25 9 q4 3 7.5 8 q3.5 5 1.5 7 Z" /><glyph glyph-name="uni4E34" unicode="&#x4e34;" d="M121 159 q2 4 4.5 4 q2.5 0 5.5 -4 q0 -1 1 -4.5 q1 -3.5 -1 -9.5 l0 -11 l9 7 q11 8 14 2 q3 -3 3 -6 q0 -3 -1 -7 q-1 -2 -1 -6 q0 -4 5 -4 l13 2 q8 1 12 1 q4 0 5 -3 q2 -2 2 -7 q0 -3 -11 -10.5 q-11 -7.5 -14 -7.5 q-3 0 -6 -7 q-4 -1 -6.5 -2.5 q-2.5 -1.5 -4.5 -1.5 q-3 0 -4.5 0.5 q-1.5 0.5 -1.5 3.5 q1 1 3 4.5 q2 3.5 5 4.5 q4 4 4 6 q0 3 -6 6 q-1 2 -3.5 4.5 q-2.5 2.5 -2.5 4.5 q-1 4 -4 4 q-5 0 -11 -15 q-6 -9 -6 -14 q0 -3 -4.5 -4.5 q-4.5 -1.5 -8.5 -0.5 q-3 1 -3 4.5 q0 3.5 1 8.5 q11 43 11 48 q0 4 2 10 ZM64 122 q0 3 2 3 q3 0 6 -10 q3 -5 4.5 -11.5 q1.5 -6.5 2 -13.5 q0.5 -7 0.5 -10 l0 -12 q2 -9 2 -17 q0 -13 -2 -17 q-2 -4 -7 -2 q-2 1 -3 9.5 q-1 8.5 -1 18.5 q0 12 1 18 q0 21 -3 27 q-2 7 -2 17 ZM39 101 q0 -4 2.5 -16.5 q2.5 -12.5 5.5 -31.5 q2 -8 2 -9.5 q0 -1.5 -5 -3.5 l-7 0 q-2 2 -2.5 29.5 q-0.5 27.5 0.5 31.5 l4 0 ZM190 72 q11 0 27 -4 q4 -3 4 -8 q0 -4 -6 -16 q-4 -8 -17 -33 q-5 -10 -10 -10 q-4 0 -17 10 q-5 5 -8 2 q-25 -4 -36 -4 q-1 1 -2 0.5 q-1 -0.5 -2 -0.5 q0 -11 -4 -15 l-2 -1 q-2 0 -5 3.5 q-3 3.5 -4 8.5 q0 4 -4 16 q-1 7 -4 20.5 q-3 13.5 -2 13.5 q0 0 0.5 0.5 q0.5 0.5 0.5 0.5 q2 0 5.5 -5.5 q3.5 -5.5 5.5 -12.5 l4 -15 q1 0 1 11 q0 15 1 15 q0 1 4 2.5 q4 1.5 9 1.5 q3 1 7 2 q4 1 4 2 q2 2 4 2 q6 0 6 2 q1 1 21 7 q6 0 11 1 q5 1 8 3 ZM205 57 q-2 2 -9 2 q-3 0 -17 -2 l-14 -4 l0 -9 l-1 -4 q0 -5 2.5 -8.5 q2.5 -3.5 4.5 -1.5 l2 1 q3 0 6 -2.5 q3 -2.5 3 -4.5 q0 -6 2 -6 q3 0 8 8 l4 10 q2 2 6 10 q5 11 3 11 ZM152 42 q0 6 -2 6 q-2 0 -4 -1.5 q-2 -1.5 -4 -2.5 q-4 -2 -13 -2 q-3 0 -3.5 -3 q-0.5 -3 -0.5 -9 q0 -6 0.5 -8.5 q0.5 -2.5 3.5 -2.5 q10 0 14.5 2.5 q4.5 2.5 4.5 8.5 q0 6 2 6 l2 6 Z" /><glyph glyph-name="uni4E38" unicode="&#x4e38;" d="M95 146 q0 3 1.5 4.5 q1.5 1.5 3.5 1.5 q3 0 7.5 -6 q4.5 -6 4.5 -9 q-2 -8 -2.5 -18.5 q-0.5 -10.5 0.5 -10.5 q1 0 11 8 q8 8 13 8 q3 0 3 -4 q0 -2 -2 -10 q0 -3 -1 -8 q-1 -5 -1 -11 q-2 -6 -2.5 -12.5 q-0.5 -6.5 -1.5 -12.5 q-1 -2 -1 -6 q0 -4 1 -8 q1 -4 2 -9 q3 -11 7.5 -16.5 q4.5 -5.5 13.5 -8.5 q8 -3 11 -3 q6 0 10 1 q10 0 12 4 q3 2 5 2 q4 0 7 4.5 q3 4.5 1 8.5 q-3 5 -7.5 21 q-4.5 16 -2.5 16 q1 0 3 -3.5 q2 -3.5 5 -6.5 q11 -16 13 -23 q6 -6 7 -9 q1 -3 -1 -6 q-5 -5 -23 -13 q-18 -8 -27 -8 q-13 0 -24 7 q-11 7 -16 18 q-7 14 -7 26 q0 9 3 25 q2 12 2 25 q0 1 -3 -1 q-3 -2 -6 -3 q-8 -9 -8 -15 q0 -3 -1 -9.5 q-1 -6.5 -1 -15.5 q-1 -9 -1 -13.5 q0 -4.5 1 -7.5 q2 -2 6 -2 q3 0 3 -5 q0 -5 -3 -8 q-9 -6 -12 0 q-3 2 -4 2.5 q-1 0.5 -3 -2.5 q-3 -7 -11.5 -14 q-8.5 -7 -13.5 -5 q-2 0 -2 1 q0 2 6 6 q4 2 7.5 5 q3.5 3 5.5 7 l4 11 l-4 8 q-4 8 -4 12 q0 4 4 3 l4 -4 q2 -5 3 -5 q1 0 5 25 l0 11 l-10 -6 q-22 -12 -34.5 -15.5 q-12.5 -3.5 -11.5 2.5 q6 6 31 17 q22 10 25 15 q2 3 3.5 20 q1.5 17 -0.5 19 q-3 2 -3 9 Z" /><glyph glyph-name="uni4E3A" unicode="&#x4e3a;" d="M138 175 q4 2 6 1 q2 -1 3 -6 q1 -1 1 -4 q0 -5 -10 -21 l-12 -31 q-1 -3 -3 -8.5 q-2 -5.5 -3 -6.5 q-3 -6 -3 -9 q0 -2 2 -2 q4 0 13 3 q11 4 17.5 5 q6.5 1 16.5 1 q10 1 13.5 1 q3.5 0 5.5 -3 q8 -13 8 -34 q0 -32 -15 -58 q-4 -11 -6 -11 q0 -2 -4 -6 q-3 -6 -9 -6 q-6 0 -13.5 7.5 q-7.5 7.5 -11.5 19.5 q-6 24 -6 42 q0 6 2 8 q4 0 8 -2 q3 -2 9 -2 l10 -8 q8 -8 9.5 -13.5 q1.5 -5.5 -5.5 -5.5 q-3 0 -10 4.5 q-7 4.5 -13 9.5 l-1 1 q-1 0 -1 -11 q3 -13 7 -17 l2 -8 q0 -1 6 -9 l6 -4 l4 6 q8 8 11 22 q2 6 4 11 q2 5 2 7 q3 5 3 15 q0 22 -5 29 q-1 1 -2.5 3 q-1.5 2 -4.5 2.5 q-3 0.5 -8 -0.5 q-4 0 -8 -1.5 q-4 -1.5 -8 -1.5 q-8 -4 -13 -4 q-4 0 -8 -2 q-2 -2 -6 -2 q-4 0 -8.5 -6 q-4.5 -6 -4.5 -11 q0 -4 -2 -6 l-4 -13 q-3 -5 -12.5 -25 q-9.5 -20 -13.5 -25 l-8 -4 q-4 0 -4 4 q0 4 4 4 q2 0 2 2 q0 2 2 5 q2 0 7.5 11 q5.5 11 11.5 28 l9 26 q0 1 -2 1 q-4 0 -11 -4 l-17 -4 q-3 2 -3 5.5 q0 3.5 3 3.5 q3 0 15 4 q9 6 15 6 q3 0 5.5 5 q2.5 5 6.5 16 l4 15 q0 1 -2 -1.5 q-2 -2.5 -4 -5.5 q-8 -8 -13 -8 q-4 0 -9 2.5 q-5 2.5 -5 5.5 q0 3 -2 5 q0 4 -2 4 q-1 1 -1 6 q0 5 1 9 q1 4 2 6 q2 2 3 2 q3 0 3 -11 q0 -6 2 -11 q2 -5 4 -5 q9 0 25 33 q6 7 13.5 17.5 q7.5 10.5 9.5 12.5 Z" /><glyph glyph-name="uni4E3B" unicode="&#x4e3b;" d="M97 173 q0 3 2 3 q3 0 11 -7 q3 -3 6.5 -4.5 q3.5 -1.5 5.5 -1.5 q3 0 3 -2 q0 -2 2 -3.5 q2 -1.5 4 -1.5 q5 -1 6 -5 q1 -4 -2 -7 l-4 -1 q-3 0 -9 3 l-8 4 q-2 0 -9.5 10 q-7.5 10 -7.5 13 ZM106 123 q11 3 16 -7 q5 -10 7 -37 q0 -9 1 -14 q1 -5 5 -9 q5 -4 5.5 -6 q0.5 -2 -1.5 -7 q0 -6 -6 -12 q-6 -7 -6 -13 q0 -3 1.5 -3.5 q1.5 -0.5 4.5 -0.5 q3 0 5.5 1.5 q2.5 1.5 2.5 2.5 q2 0 3 0.5 q1 0.5 2 -0.5 q8 0 14 2 q5 3 11 3 q6 0 10 -3 q14 0 10 -8 q-1 -3 -3.5 -4.5 q-2.5 -1.5 -6.5 -1.5 l-12 0 q-10 1 -31 -4.5 q-21 -5.5 -34 -12.5 q-4 -2 -12 -6.5 q-8 -4.5 -10 -4.5 q-2 0 -3 3 q-4 3 -2.5 7.5 q1.5 4.5 4.5 4.5 q1 1 2.5 2 q1.5 1 1.5 2 l6 9 l6 6 l-6 8 q-12 15 -12 15 l-7 6 q-3 0 -6.5 4.5 q-3.5 4.5 -1.5 5.5 q2 3 10 3 q39 3 42 6 q1 1 1 10 q0 22 -3 34 q-2 5 -6 6 q-4 1 -13 0 q-7 -1 -10.5 -1 q-3.5 0 -3.5 3 q0 2 10 7 q11 0 15 4 ZM116 41 q0 7 -2 7 q-3 -2 -15.5 -4 q-12.5 -2 -13.5 -3 q12 -18 17 -21 l1 0 q3 0 8 7.5 q5 7.5 5 13.5 Z" /><glyph glyph-name="uni4E3D" unicode="&#x4e3d;" d="M155 152 q3 3 7 3 q5 0 10 -5 q2 -2 2 -4 q0 -2 -2 -4 q-2 -2 -5 -2 l-8 -2 q0 -2 -7 -3 q-7 -1 -10 -1 q-7 0 -14.5 -1 q-7.5 -1 -14.5 -1 q-19 -6 -29 -6 q-11 0 -11 9 q0 5 2.5 6.5 q2.5 1.5 4.5 -1.5 q0 -2 10 -2 q16 2 35 6.5 q19 4.5 30 7.5 ZM167 110 q7 3 17 3 l9 0 q4 -3 6 -7 q4 -3 6 -10.5 q2 -7.5 4 -22.5 l0 -29 q1 -4 1 -12 q0 -19 -7 -26 q-2 -2 -7 -2 q-10 0 -18 6 q-4 2 -6.5 13 q-2.5 11 -2.5 26 q0 19 2 25.5 q2 6.5 7 6.5 q2 0 6 -4 q4 -4 6 -8 q2 -3 4 -3 q3 0 3 11 q-2 4 -2 13 q0 3 -5 6 q-1 3 -5 3.5 q-4 0.5 -11 0.5 q-11 0 -14.5 -3.5 q-3.5 -3.5 -8.5 -17.5 q-4 -10 -5.5 -18.5 q-1.5 -8.5 -1.5 -21.5 q-1 -14 -2 -16.5 q-1 -2.5 -6 -2.5 q-3 0 -3.5 6.5 q-0.5 6.5 -0.5 25.5 q0 18 -2 33 q0 2 -3.5 -3.5 q-3.5 -5.5 -7.5 -12.5 q0 -7 -4 -7 q-1 0 -2 -4.5 q-1 -4.5 -2 -7.5 q0 -14 -6 -23.5 q-6 -9.5 -15 -12.5 q-7 0 -9 4 l0 7 q0 20 5 27 q6 14 6.5 18 q0.5 4 -4.5 7 q-2 2 -7 4 q-3 0 -10.5 -9 q-7.5 -9 -7.5 -12 l0 -8 q-1 -4 -2 -11 q-1 -7 -3 -10 q0 -9 -1.5 -12 q-1.5 -3 -4.5 -3 q-3 0 -4 3.5 q-1 3.5 0 13.5 q2 6 2 38 q-1 6 -1 14 q0 5 1 7.5 q1 2.5 2 1.5 q0 -2 2 -5 q2 -3 2 -6 l2 -6 l7 4 q7 10 19 10 q5 0 10 -3 q6 -7 13 -7 q3 0 5.5 3 q2.5 3 6.5 10 q2 3 5.5 7.5 q3.5 4.5 5.5 4.5 l2 1 q4 0 8 -9 q1 -3 3.5 -4 q2.5 -1 2.5 2 q0 5 6 9 q6 4 15 5 ZM193 50 q-5 0 -11 6 q-4 4 -4 2 q-1 -5 -1 -11 l1 -10 q8 -19 12 -19 q4 0 6.5 5.5 q2.5 5.5 2.5 13.5 q0 7 -1 9 q-1 2 -5 4 ZM99 55 q-4 0 -5 -7 q0 -7 -2 -13 q-1 -2 -1 -3 q0 -1 1 -1 q3 1 5.5 8.5 q2.5 7.5 2.5 12.5 l-1 3 Z" /><glyph glyph-name="uni4E3E" unicode="&#x4e3e;" d="M152 204 q6 3 9 3 q3 0 8 -3 q7 -4 7 -13 q0 -7 -9 -15 q-3 0 -21 -18 q-14 -11 -14 -16 q0 0 8 5 q6 6 12 6 q4 0 6 3 q2 2 4 2 q3 0 6 -2 q3 -2 3 -5 q0 -4 -8 -8 q-8 -4 -13 -4 q-1 0 -1 -1 q0 -3 5 -12 q7 -8 19 -16 q12 -8 21 -11 q8 -4 10 -6 q2 0 5 -2 q3 -2 6 -2 q10 -7 10 -10 q0 -7 -8 -7 q-8 0 -17 6 q-4 4 -8 4 q-8 2 -15 13 l-6 4 q-2 0 -5.5 3 q-3.5 3 -7.5 8 l-10 10 l0 -6 q4 -7 0 -11 q-4 -4 -4 -6 q0 -2 2 -2 q1 3 5.5 0.5 q4.5 -2.5 2.5 -4.5 q0 -7 2 -9 l2 -6 q0 -4 6.5 -11 q6.5 -7 12.5 -10 q4 -2 8 -6 q0 -3 -3 -6.5 q-3 -3.5 -9 -4.5 q-7 0 -19 -4 l-10 -4 l2 -34 q0 -51 -5 -48 q-1 0 -1 2 q0 2 -3 5 l0 8 q1 2 1 12 q0 15 -2 32.5 q-2 17.5 -3 18.5 l-14 -4 q-20 -9 -26 -9 q-9 0 -9 3 q0 5 20 26 q29 26 29 36 q0 2 -10 2 q-18 0 -15 7 q0 4 11 4 q7 0 9.5 1.5 q2.5 1.5 4.5 6.5 l0 13 q0 9 7 12 q1 4 4 7 q-2 1 -13.5 -8 q-11.5 -9 -11.5 -11 q0 -2 -9 -11 q-5 -5 -15 -19 q-6 -9 -41 -50 q-7 -4 -13 -13 q0 -2 -4 -4 q-4 0 -4 3 q0 4 8 12 q10 10 13 17 q2 3 5 6 q3 3 5 6 q6 3 6 7 q0 2 1.5 4 q1.5 2 2.5 4 q7 6 26 29 l8 9 q1 2 2.5 4 q1.5 2 1.5 4 q0 1 -2 1 q-5 0 -12 -5 l-7 -4 q-3 0 -10 -5 q-16 -7 -23.5 -9.5 q-7.5 -2.5 -12.5 -0.5 q-4 0 -4 4 q0 3 8 8 q8 5 13 5 q6 0 19 6 q8 3 13.5 6.5 q5.5 3.5 11.5 8.5 q6 6 8 6 q1 0 2 1.5 q1 1.5 3 2.5 l21 25 q11 10 20 24 q-4 2 -20 -16 q-11 -10 -18 -10 q-4 0 -10 7 l-6 8 q-2 0 -4.5 -13 q-2.5 -13 -1.5 -17 q1 -2 1 -6 q0 -5 -6 -6 l-2 0 q-3 0 -10 15 q-3 5 -4 9 q-1 4 0 7 q1 4 3 3.5 q2 -0.5 5 -5.5 l4 -8 l2 8 q1 4 3 7.5 q2 3.5 2 5.5 q1 1 2 4.5 q1 3.5 2 6.5 q3 5 6 5 q3 0 11 -8 q4 -8 6 -8 q4 2 10 8 q12 8 17 13 ZM156 63 q-4 10 -7 10 q-4 0 -5 -16 l-1 -8 q0 -5 3 -5 q4 0 10 3 q5 1 5 4 q0 3 -5 12 ZM133 45 q0 6 -2 6 q-1 0 -10 -8.5 q-9 -8.5 -9 -10.5 l7 2 q8 4 10 4 q3 0 3.5 1.5 q0.5 1.5 0.5 5.5 Z" /><glyph glyph-name="uni4E45" unicode="&#x4e45;" d="M89 143 q4 8 4 6 q3 0 3 -6 q0 -6 -3 -11 q-4 -9 -7.5 -21 q-3.5 -12 -2.5 -12 l10 10 q5 3 9 6.5 q4 3.5 6 4.5 q4 2 6 6 q5 4 7 5 q2 1 6 -1 q3 -3 3 -11 q0 -8 -5 -20 q-2 -3 -4.5 -7 q-2.5 -4 -4.5 -4 q-2 -2 -2 -6 q-1 -4 -9 -15.5 q-8 -11.5 -10 -11.5 q-2 -3 -2 -5 q-2 -5 -8.5 -12 q-6.5 -7 -12.5 -11 q-6 -6 -8 -6 q-2 -3 -6 -4 q-4 -1 -4 2 l16 17 q9 10 15 19 q0 2 4 6 q4 4 4 6 q1 2 3 6 q2 4 4 5 q8 13 16 33 q-1 1 -12 -7 q-11 -8 -13 -12 q0 -4 -4 -4 q-2 0 -23 -23 q-1 -3 -4.5 -3 q-3.5 0 -3.5 3 l-1 2 q0 2 1 4 q1 2 2 5 q1 4 2.5 6 q1.5 2 1.5 4 q2 6 6 11 q2 4 6 12 q4 8 5 13 q4 6 10 21 ZM129 67 q-1 1 -1 3 q0 0 0.5 0.5 q0.5 0.5 0.5 0.5 q3 -1 9 -3.5 q6 -2.5 14 -6.5 q16 -8 25 -17 q8 -8 10 -8 q3 0 9 -7.5 q6 -7.5 6 -11.5 l0 -3 q0 -4 -2 -6 q-2 -2 -4 -2 q-6 0 -11 9 q-2 4 -6 8 q-6 4 -10 11 q-11 13 -22 18 q-15 10 -18 15 Z" /><glyph glyph-name="uni4E48" unicode="&#x4e48;" d="M138 128 q0 6 4 6 q4 0 5 -6 q0 -5 -4 -15 q-4 -10 -9 -15 q-2 -1 -3 -3.5 q-1 -2.5 -1 -4.5 l-8 -10 l-9 -11 q0 -2 -4 -6 q0 0 -6 -9 l-4 -6 l4 2 q1 1 6 2 q5 1 9 2 q17 4 25 8 q8 4 12 11 q2 7 6 11 q4 0 5.5 -4.5 q1.5 -4.5 3.5 -14.5 q4 -13 6 -13 q3 -1 3.5 -4.5 q0.5 -3.5 0.5 -9.5 q-2 -10 -4 -13.5 q-2 -3.5 -8 -3.5 q-3 0 -3.5 2.5 q-0.5 2.5 -0.5 7.5 q0 13 -3 15 q-1 4 -3 5 q-2 1 -7 -1 q-7 0 -23 -4 q-6 -4 -15 -6 l-2 0 q-2 -2 -4 -2 l-8 -2 q-5 -2 -13 -2 q-5 0 -6.5 2.5 q-1.5 2.5 -1.5 3.5 q0 4 4 8 q3 1 8 7.5 q5 6.5 7 9.5 q6 9 12 15 q7 6 17 23.5 q10 17.5 12 24.5 ZM97 132 l0 -1 q0 -4 -1.5 -9.5 q-1.5 -5.5 -3.5 -8.5 l-4 -15 q0 -10 -4 -14 l-4 -2 q-4 0 -7 6 q-1 3 7 19.5 q8 16.5 12 20.5 l5 4 Z" /><glyph glyph-name="uni4E49" unicode="&#x4e49;" d="M110 147 q0 6 6 3 q3 -4 7.5 -9.5 q4.5 -5.5 5.5 -9.5 q4 -5 6 -11 q7 -7 7 -10 q0 -3 -5 -7 q-6 0 -10 5 q-6 6 -6 12 q0 3 -3 8 q-3 5 -4 7 q-4 8 -4 12 ZM156 139 q3 6 6 6 q7 0 7 -7 q0 -8 -7 -28 q-3 -15 -6 -15 q-2 -2 -2 -6 q0 -3 -2.5 -7.5 q-2.5 -4.5 -5.5 -9.5 l-9 -12 l9 -7 q4 -4 6 -8 q0 -3 4 -3 q4 0 4 -4 q1 0 13 -6 q10 -7 10 -8 q0 -1 2.5 -3 q2.5 -2 4.5 -4 q6 -3 6 -6 q0 -3 -5 -8 q0 -2 -2 -2 q-6 0 -18 12 q-5 4 -9 9 q-2 0 -8 6 q-4 2 -15 13 l-8 4 l-10 -11 q-6 -6 -12.5 -10.5 q-6.5 -4.5 -13.5 -7.5 q-18 -9 -26 -9 q-6 0 -9 6 q-3 6 -3 21 q0 17 3 32 l2 16 l6 3 q8 0 18.5 -1.5 q10.5 -1.5 17.5 -3.5 q6 -6 12 -10 l11 -7 q3 2 11.5 18.5 q8.5 16.5 8.5 19.5 q0 2 3 4 q2 5 4.5 15 q2.5 10 1.5 11 l0 8 ZM93 72 q-2 0 -6 1 q-4 1 -8 1 q-6 0 -7.5 -1.5 q-1.5 -1.5 -3.5 -6.5 q-3 -6 -3 -30 q0 -16 1 -19 q1 -6 15 0.5 q14 6.5 27 18.5 q8 8 9 11 q1 3 -1 6 q0 4 -4 4 q-4 3 -6 6 q-3 2 -6.5 4.5 q-3.5 2.5 -6.5 4.5 Z" /><glyph glyph-name="uni4E4B" unicode="&#x4e4b;" d="M102 144 q-3 9 0 9 q2 0 4 -3 q2 -3 2 -6 q1 -1 5 -6 q4 -5 12 -13 q10 -10 10 -14 q-2 -7 -9 -3.5 q-7 3.5 -14 14 q-7 10.5 -10 22.5 ZM137 94 q8 0 10.5 -2 q2.5 -2 2.5 -9 q0 -5 -7.5 -13 q-7.5 -8 -28.5 -24 q-11 -10 -15 -14.5 q-4 -4.5 1 -4.5 q6 -2 12 -2 q18 -5 34 -5 q26 0 35 -1.5 q9 -1.5 9 -6.5 l0 -4 q-17 0 -24 -2 q-3 0 -6 -2 q0 -1 -1 -1 q-1 0 -1 1 q-2 2 -19 2 q-15 0 -23 4 q-3 1 -29 4 l-8 0 q-3 2 -3 7 q0 4 2 8 q2 4 5 4 q6 4 12 11 l25 23 q15 13 15 14 q2 2 2 4 q0 1 -8 -2 q-7 0 -23 -4 q-15 -3 -29 -3 q-9 0 -11 1 q-2 3 -0.5 6.5 q1.5 3.5 4.5 2.5 q2 -3 7 -3 q2 0 6 1.5 q4 1.5 8 1.5 q21 3 21 6 l7 0 q4 0 8 2 l10 0 Z" /><glyph glyph-name="uni4E4C" unicode="&#x4e4c;" d="M125 176 q2 3 3 2.5 q1 -0.5 6 -2.5 q7 -3 7 -8 q0 -5 -9 -23 q-6 -10 -6.5 -14 q-0.5 -4 4.5 -1 q3 3 20 3 q12 0 15 -1 q2 -3 5 -9 q3 -6 2 -8 q-3 -2 -3 -6 q0 -5 -4 -19 q-2 -8 -2 -17 l9 0 q9 0 17.5 -4 q8.5 -4 11.5 -10 q1 -3 1 -10 q0 -26 -7 -41 q-2 -5 -4.5 -8.5 q-2.5 -3.5 -2.5 -5.5 l-4 -8 q-1 -2 -3.5 -4.5 q-2.5 -2.5 -2.5 -4.5 q0 -2 -2 -2 l-13 2 q-4 3 -8 3 q-1 0 -3 1 q-2 1 -6 2 q-5 7 -6 7 q-2 0 -4 2.5 q-2 2.5 -2 5.5 q0 0 0.5 0.5 q0.5 0.5 0.5 0.5 q3 0 6 -1 q3 -1 7 -2 q3 -2 13 -2 q6 0 8 1.5 q2 1.5 7 9.5 q3 2 4.5 6.5 q1.5 4.5 1.5 7.5 q0 2 2 4 q1 0 2 4 q1 4 2 7 l0 5 q0 7 -3 12.5 q-3 5.5 -7 7.5 q-2 1 -9 1 q-8 0 -10 -3 q-6 -2 -13 -2 q-5 0 -10 -1.5 q-5 -1.5 -6 -1.5 l-5 -1 q-5 0 -12 -7 q-9 -6 -15 -6 q-3 2 -3 7 q0 6 3 10 q1 2 2 4.5 q1 2.5 3 5.5 q0 6 1 6 q0 1 1.5 5 q1.5 4 1.5 8 q3 11 7 11 q2 0 2 -8 q0 -6 -1 -11 q-2 -7 -2 -13 q0 0 0.5 -0.5 q0.5 -0.5 0.5 -0.5 q3 0 6 1 q3 1 5 2 q8 2 9.5 3 q1.5 1 1.5 5 q-1 6 1 8 q2 2 5 -1 l4 -2 q2 0 4 5.5 q2 5.5 3 8.5 q3 14 3 19 q0 7 -5 9 q-4 2 -6 2 l-9 -2 q0 -2 -4 -2 q-4 0 -13 -9 q-7 -6 -10 -6.5 q-3 -0.5 -6 2.5 l-1 2 q0 2 5 15 q4 6 10 21 q1 2 3 6 q2 4 3 4 q4 3 5 9.5 q1 6.5 -3 7.5 q0 1 -0.5 3 q-0.5 2 0.5 3 ZM125 23 q8 3 22 3 q15 0 16 -3 q2 -2 2 -3 q0 -5 -12 -7 q-2 0 -6 -1 q-4 -1 -9 -1 q-22 -4 -27 -6 q-3 -3 -10 -4 q-7 -1 -19 -1 q-25 0 -25 2 q-3 3 -3 5 q0 2 1 3 q1 1 4 1 q3 -1 11 -1 q19 0 26 5 q8 4 15 4 q3 1 7 2 q4 1 7 2 Z" /><glyph glyph-name="uni4E4E" unicode="&#x4e4e;" d="M133 174 q3 0 9 -6 q2 -4 2 -6 q0 -5 -9 -10 q-26 -10 -33 -10 q-2 0 -4 -3 q0 -2 -7 -2 q-8 0 -8 2 q0 7 21 13 q17 6 21 8.5 q4 2.5 4 6.5 l2 6 l2 1 ZM144 133 q2 2 6 2 q7 -5 12.5 -9.5 q5.5 -4.5 6.5 -9.5 q1 -1 1 -4 q0 -3 -5 -8 q-4 -5 -9 -6 l-8 -7 q-6 -4 -6.5 -6 q-0.5 -2 0.5 -8 q1 -6 2 -8 q1 -2 4 -1 q1 0 5 1 q4 1 10 1 q3 0 6.5 1.5 q3.5 1.5 3.5 2.5 q1 1 8 1 q8 0 16 -1 q8 -1 12 -2 l0 -8 q0 -3 -3 -3.5 q-3 -0.5 -8 -0.5 q-17 0 -27 -2 q-9 0 -21 -3 q-6 0 -6 -18 q0 -12 -4.5 -34.5 q-4.5 -22.5 -6.5 -24.5 q-3 -3 -18 7.5 q-15 10.5 -15 15.5 q0 3 4.5 4 q4.5 1 5.5 -2 q5 -3 9 -3 q8 0 8 14 q0 6 4 14 l0 15 q-1 6 -2 7 q-1 1 -6 1 l-9 -2 q-4 -4 -25 -8 q-20 -8 -23 -8 q-3 -3 -9 -4 q-6 -1 -9 1 q-1 1 -1 4 q0 3 2 6 q2 3 5 3 q2 0 10 4 q3 3 13 8 q4 0 10 5 l13 10 q5 2 8.5 4.5 q3.5 2.5 3.5 4.5 q2 1 4.5 3.5 q2.5 2.5 6.5 4.5 q4 3 5 6 q1 3 1 9 l0 8 q-3 0 -8.5 -8 q-5.5 -8 -8.5 -13 q-2 -3 -6.5 -5.5 q-4.5 -2.5 -5.5 -0.5 q-5 3 -9.5 18 q-4.5 15 -1.5 15 q3 -2 7 -7 q4 -5 4 -10 q0 -3 2 -3 q3 0 12 12 q6 7 7.5 10 q1.5 3 -0.5 6 q-1 4 -1 6.5 q0 2.5 3 2.5 q2 0 6 -4 q0 -3 6 0 q5 0 9 4 ZM150 118 q-3 5 -4 5 q-1 0 -4 -3 q-2 -2 -2 -8 l0 -6 q0 -3 2 -3 q3 0 8 5 l6 6 l-6 4 ZM131 70 q-1 3 -4 3 q-3 0 -11 -5 q-6 -4 -6 -6 q0 -1 9 0 q7 1 9.5 3 q2.5 2 2.5 5 Z" /><glyph glyph-name="uni4E4F" unicode="&#x4e4f;" d="M134 166 q1 0 9 -7 q13 -12 6 -19 q-2 -2 -6 -2 l-5 0 q0 -2 -8 -6 q-4 -1 -10.5 -4 q-6.5 -3 -10.5 -4 q-8 -5 -18.5 -7 q-10.5 -2 -10.5 0 q0 2 1 3.5 q1 1.5 3 1.5 l2 0 q0 3 7 3 q2 3 18 11 q18 9 21 11.5 q3 2.5 2 9.5 q-2 4 -2 8 l2 1 ZM111 106 q3 0 20.5 -14.5 q17.5 -14.5 17.5 -16.5 q-2 -3 -6 -4 q-4 -1 -9 0 q-4 3 -8.5 7.5 q-4.5 4.5 -5.5 7.5 q0 4 -2 6 q-7 5 -7 8 l0 6 ZM158 63 q2 0 4 -2.5 q2 -2.5 2 -4.5 q0 -6 -2 -6 q-5 -3 -5 -6 q-7 -8 -16 -17 q-9 -8 -15 -17 q0 -2 29 -2 q21 0 26 -1 q5 -1 8 -5 q3 -3 3 -4 q0 -1 -5 -4 q-5 -4 -9 -4 q-2 2 -10 2 q-9 0 -13 2 q-12 2 -30 2 q-14 0 -16 -2 q-1 -1 -4 -1 q-3 0 -5.5 1.5 q-2.5 1.5 -2.5 3.5 l27 27 q14 13 19 19 q5 6 2 6 l-9 0 q0 -2 -2 -2 q-6 0 -14 -4 q-36 -8 -42 -8 q-8 0 -11.5 3.5 q-3.5 3.5 2.5 4.5 l5 0 q2 -2 17.5 2 q15.5 4 23.5 6 q9 3 18 5 q9 2 14 4 q6 0 10 2 l1 0 Z" /><glyph glyph-name="uni4E50" unicode="&#x4e50;" d="M114 161 q1 1 3 1 q3 0 7 -7 q3 -4 3 -8 q0 -3 -4 -4.5 q-4 -1.5 -5 -2.5 q-1 -1 -4 -3 q-3 -2 -3 -3 l-2 0 q0 -1 -3 -3.5 q-3 -2.5 -5 -3.5 q-3 -3 -4.5 -7 q-1.5 -4 -1.5 -14 q-3 -26 -4 -27 l-2 -6 q0 -3 6 0 q6 0 6 4 l4 0 q4 1 8.5 5.5 q4.5 4.5 4.5 7.5 q0 4 4 8 q1 1 2 2.5 q1 1.5 4 -0.5 l4 -4 q0 -4 9 0 q6 2 10 -2 q5 -3 0 -8 q-4 -3 -10 -3 q-2 0 -4 -1.5 q-2 -1.5 -2 -2.5 l0 -38 q0 -16 -0.5 -26 q-0.5 -10 -2.5 -11 q-2 -2 -6 -2 q-2 0 -16.5 14 q-14.5 14 -14.5 17 q0 2 3.5 2 q3.5 0 4.5 -2 q0 -2 4 -2 q2 0 9 -6 q2 -3 3 -3 q1 0 1 3 q3 2 3 10 q0 10 -1 19 q0 13 -2 15 q0 0 -0.5 0.5 q-0.5 0.5 -0.5 0.5 l-14 -8 l-6 -2 q-4 0 -4 -4 l-3 0 l-10 -4 q-5 -3 -8 0 q-1 2 -1 6 q0 4 3 7 q4 4 4 14 q0 9 4 17 q1 2 1 6 q0 13 -7 13 q-3 0 -4 2.5 q-1 2.5 2 5.5 q7 7 13 9 q9 5 17.5 13.5 q8.5 8.5 7.5 11.5 l0 4 ZM185 58 q0 2 4 2 q2 0 2 -4 q4 -4 6 -10 q20 -33 20 -44 q0 -7 -7 -7 q-3 0 -4 2.5 q-1 2.5 -2 8.5 q-6 12 -9 21 q-10 30 -10 31 ZM38 33 q1 7 5 7 q5 0 6 -9 q0 -8 4 -12 q3 -4 5 -11.5 q2 -7.5 1 -12.5 q0 -1 -1 -2.5 q-1 -1.5 -3 -1.5 q-6 0 -11 9 q-5 9 -6 25 l0 8 Z" /><glyph glyph-name="uni4E54" unicode="&#x4e54;" d="M96 168 q-11 3 -11 8 q0 4 4 4 l4 0 q3 -1 9 -1 l27 1 q5 1 12 1 q10 0 13 -3 q3 -3 -2 -8 q-5 -5 -10 -2 q-14 0 -22 -0.5 q-8 -0.5 -8 -3.5 q0 2 -4 2 q-6 0 -12 2 ZM211 105 q10 0 10 -10 q0 -7 -12 -5 l-5 0 q-4 -1 -11 -1 q-7 0 -11 1 q0 4 -19 7 l-5 2 l2 -13 q0 -5 1.5 -12.5 q1.5 -7.5 1.5 -14.5 q0 -9 1 -15.5 q1 -6.5 1 -9.5 q0 -8 -2 -8 l0 -9 q2 -3 2 -6.5 q0 -3.5 -2 -5.5 q0 -2 -1.5 -6.5 q-1.5 -4.5 -1.5 -10.5 q0 -24 -6 -15 q-2 2 -2 21 q2 10 2 34 q0 31 -4 43 q-1 3 -2 3 q-2 0 -6 -13 q-2 -6 -6 -13.5 q-4 -7.5 -5 -9.5 q-4 -12 -4 -17 q0 -7 -2.5 -10 q-2.5 -3 -5.5 0 q-6 2 -6 33 q0 39 6 46 l4 -1 q3 -1 3 -8 q0 -5 -3 -26 q-1 -7 0.5 -7.5 q1.5 -0.5 3.5 5.5 q1 2 4.5 8 q3.5 6 8.5 17 l8 19 l-15 6 q-14 4 -14 6 q0 3 -1 3 q0 0 -10 -13 q-8 -18 -8 -19 q-2 -4 -4 -6.5 q-2 -2.5 -3 -3.5 q-1 -2 -3.5 -4.5 q-2.5 -2.5 -4.5 -6.5 q-1 -6 -11 -18.5 q-10 -12.5 -18 -19.5 q-6 -7 -12 -7 q-7 0 -7 7 q-3 7 4 7 q1 0 3.5 0.5 q2.5 0.5 2.5 -0.5 q5 0 20 21 q15 21 26 43 q4 5 5.5 9 q1.5 4 3.5 6 l2 1 l-1 0 l-10 -3 q-10 -5 -35 -10 q-6 0 -8.5 0.5 q-2.5 0.5 -3.5 3.5 q-5 3 -5 6 l15 0 q12 0 12 2 q0 2 2 3 q2 1 4 1 l7 0 q2 4 19 11 q13 5 16 12 q9 15 17 21 q5 3 11 3 q7 0 12 -3.5 q5 -3.5 4 -7.5 q0 -3 -9.5 -11 q-9.5 -8 -19.5 -12 q-8 -3 -8 -6 q4 -3 8 -4 q10 -5 32.5 -7 q22.5 -2 32.5 0 l6 0 q2 -2 9 -2 ZM146 149 q-3 0 -8 -4 q-5 -4 -5 -6 q2 0 4 1.5 q2 1.5 5 2.5 q4 2 4 6 Z" /><glyph glyph-name="uni4E56" unicode="&#x4e56;" d="M135 192 q2 2 5 0 q3 0 3 -4 l0 -2 q0 -6 -7 -10.5 q-7 -4.5 -15 -4.5 q-2 1 -5 1 l-10 -1 l-4 -1 q-7 0 -7 8 q0 3 5 5.5 q5 2.5 12 2.5 q6 0 14.5 2.5 q8.5 2.5 8.5 3.5 ZM116 159 q1 5 5 5 q5 0 10 -5 q1 -4 3 -5 q2 -1 6 1 q4 2 8 2 q6 0 11.5 -2 q5.5 -2 5.5 -5 q0 -6 -7 -6 q-2 -2 -6.5 -3.5 q-4.5 -1.5 -9.5 -4.5 q-7 -2 -15 -6 q-4 -10 -4 -68 q1 -8 1 -25 l-1 -33 q-1 -5 -1 -13 q0 -7 1 -10 q3 -11 3 -16 q0 -5 -3 -5 q-5 0 -8.5 5.5 q-3.5 5.5 -6.5 19.5 q-1 10 -1 15.5 q0 5.5 3 5.5 q2 0 3 3.5 q1 3.5 1 18.5 q0 15 0 43 q0 54 -2 54 l-8 -4 q-4 -1 -6.5 -9.5 q-2.5 -8.5 -6.5 -30.5 q0 -5 1 -6 q1 -1 6 2 l3 1 q2 0 2 -2 q0 -2 -5 -7 q-8 -8 -8 -12 q0 -3 3 -11 q0 -7 -2 -9 q-1 -1 -2.5 -1 q-1.5 0 -3.5 1 q-2 0 -4 2.5 q-2 2.5 -2 4.5 q0 4 -2 6 q-6 0 -15 -11 q-14 -10 -20 -12 q-6 -2 -7 4 q0 6 16 21 q17 19 17 21 q-4 0 -8 -2 q-9 -2 -13 2 q-3 2 -3 4 q0 5 12 6 q14 4 23 11 q6 3 6 10 q0 13 -4 9 q-24 -8 -34 -8 q-9 0 -10 4 q-3 3 -3 5 q0 3 13 3 q28 6 40 10 l27 9 l0 10 q2 4 2 13 ZM148 121 q3 3 4 2 q1 -1 2 -2 q4 -4 4 -8 q0 -7 2 -7 q3 0 7 9 q6 7 11 7.5 q5 0.5 5 -5.5 q0 -4 -5.5 -10 q-5.5 -6 -6.5 -7 q-12 -12 -12 -19 q0 -3 3 -8 q4 -3 16 -5 q12 -2 22 -1 q18 3 21 0 q1 -2 1 -6 q0 -4 -5 -5.5 q-5 -1.5 -21 -3.5 q-4 -1 -10 -1 q-7 0 -19 5 q-14 5 -17.5 10.5 q-3.5 5.5 -3.5 27.5 q-1 7 -1 16 q0 8 3 11 ZM81 71 q-1 0 -9.5 -7.5 q-8.5 -7.5 -7.5 -7.5 q4 1 10.5 5.5 q6.5 4.5 6.5 5.5 l0 4 Z" /><glyph glyph-name="uni4E58" unicode="&#x4e58;" d="M121 173 q2 2 4 2 q3 0 7 -2.5 q4 -2.5 4 -5.5 q0 -2 -5 -5.5 q-5 -3.5 -8 -2.5 q-10 0 -19 -2 l-12 -2 q-8 0 -8 6 q-1 2 0 3 q1 1 4 1 q7 0 25 8 l4 0 l4 0 ZM109 151 q0 0 0.5 0.5 q0.5 0.5 0.5 0.5 q1 0 2.5 -6.5 q1.5 -6.5 2.5 -9.5 q0 -5 0.5 -7.5 q0.5 -2.5 3.5 -1.5 q6 0 15 9 l12 4 l7 0 q0 1 3.5 2.5 q3.5 1.5 6.5 1.5 q6 0 8.5 -0.5 q2.5 -0.5 2.5 -3.5 q0 -3 -3 -5.5 q-3 -2.5 -10 -4.5 q-13 -5 -17 -5 l-4 0 q-2 -2 -14 -6 q-8 -3 -11 -6 q-1 -2 -1 -22 q0 -19 1 -18 q1 0 1.5 -1 q0.5 -1 0.5 -3 q0 -2 2.5 -3.5 q2.5 -1.5 6 -3 q3.5 -1.5 6.5 -2.5 q22 -7 27 -12 q1 -3 8 -3.5 q7 -0.5 19 -0.5 q46 0 46 -11 l0 -3 q0 -3 -4 -4 q-4 -1 -12 -1 q-43 3 -70 16 q-8 5 -15 8.5 q-7 3.5 -10 4.5 l-8 2 l0 -21 q0 -23 -2 -31 q-1 -6 -6 -6 q-3 0 -4.5 4 q-1.5 4 0.5 8 q0 2 1 7 q1 5 1 14 l0 15 l-34 -34 q-18 -18 -36 -33 q-6 0 -7.5 5 q-1.5 5 3.5 7 q5 2 27 21.5 q22 19.5 26 27.5 q4 4 4 10 q-1 4 -2.5 4.5 q-1.5 0.5 -6.5 -0.5 q-19 -8 -23 -2 q-2 2 -2 3 q0 3 15 7 q17 7 17 15 q0 2 -1.5 1.5 q-1.5 -0.5 -6.5 -1.5 q-7 -2 -13 -2 q-1 1 -1 3 q0 4 9 10 l11 6 q3 3 3 5.5 q0 2.5 -3 0.5 q-3 0 -36 -6 q-11 0 -13 2 l-2 1 q0 1 13 5 l38 11 q15 4 18.5 6.5 q3.5 2.5 3.5 5.5 q2 4 3 13 q1 9 2 13 ZM148 113 q7 7 9.5 8 q2.5 1 5.5 -4 q2 -2 -2 -6 q-3 -5 -12.5 -11 q-9.5 -6 -12.5 -6 q-2 -4 -2 -8 q0 -5 1 -7 q1 -2 3 0 l19 4 q14 4 17 0 q2 -1 2 -4 q0 -4 -7 -7 q-7 -3 -18 -5 l-13 -1 q-10 0 -13.5 2.5 q-3.5 2.5 -5.5 8.5 q-1 3 -1 10 q0 10 3 19 q3 3 8 4 q5 1 7 -1 l2 -1 q2 0 4.5 1.5 q2.5 1.5 5.5 3.5 ZM98 109 q-2 0 -6 -3 q0 -6 2 -8 q4 -8 4 -33 q2 -12 3.5 -4 q1.5 8 1.5 27 l0 21 l-5 0 Z" /><glyph glyph-name="uni4E59" unicode="&#x4e59;" d="M105 129 q1 1 6 3.5 q5 2.5 9 0.5 q5 -3 5 -6 q0 -4 -9 -12 l-11 -15 q0 -7 -4 -7 q-2 0 -2 -2 q0 -4 -2 -6 q-5 -4 -8 -14 q-3 -10 -3 -19 q0 -5 2 -9 q4 -8 36 -8 q17 0 34 5 q17 5 20 10 q5 10 5 25 q1 13 2 18.5 q1 5.5 4 2.5 q3 -4 0 -11 q0 -8 2 -10 l0 -7 q0 -6 2.5 -13 q2.5 -7 3.5 -7 l0 -7 q-1 -4 -2 -5 q-1 -1 -6 -1 q-9 -2 -27 -8 q-6 -3 -15 -4 q-9 -1 -23 -1 q-31 0 -41 6.5 q-10 6.5 -10 25.5 q0 10 5 17 q4 8 4 10 q0 3 2.5 7 q2.5 4 6.5 8 q5 8 5 11 q0 1 -2 1 l-10 -2 q-4 -2 -8.5 -3.5 q-4.5 -1.5 -8.5 -0.5 q-8 3 -8 8 q0 7 8 5 q5 0 17 4 q12 4 21 10 Z" /><glyph glyph-name="uni4E5D" unicode="&#x4e5d;" d="M87 157 q-2 4 2 4 q5 0 8 -9 q3 -9 0 -14 l0 -4 q0 -6 -2 -14 q-3 -10 -5 -21.5 q-2 -11.5 -1 -12.5 q27 19 31 25 q3 3 5.5 3 q2.5 0 5.5 -1 q4 -3 4.5 -7 q0.5 -4 -2.5 -7 q-7 -7 -11 -20.5 q-4 -13.5 -4 -25.5 q0 -15 4 -15 q2 0 0 -2 q0 -1 -0.5 -4.5 q-0.5 -3.5 0.5 -6.5 q1 -16 33 -16 q17 0 36 4 q28 4 30 6 q0 1 1 7 q1 6 1 14 q0 10 2 21 q2 2 4 -4 q2 -6 2 -15 q0 -8 2 -17 q2 0 3.5 -5.5 q1.5 -5.5 1.5 -10.5 q-2 0 -6.5 -1.5 q-4.5 -1.5 -10.5 -3.5 q-22 -4 -27 -4 q-16 -3 -32.5 -4 q-16.5 -1 -22.5 0 q-7 0 -14.5 4 q-7.5 4 -12.5 10 q-5 15 -5 46 q0 20 5 30 q0 2 -1 2 q-2 0 -12 -8 q-10 -7 -12.5 -10 q-2.5 -3 -5.5 -13 l-7 -26 q-6 -18 -6 -18 q-1 -8 -6.5 -12.5 q-5.5 -4.5 -10.5 -2.5 q-1 1 -6 12 q-5 11 -7 15 q0 3 -4.5 7 q-4.5 4 -7.5 4 q-3 1 -3.5 2.5 q-0.5 1.5 -0.5 5.5 q-2 5 0 6.5 q2 1.5 6 -0.5 q7 0 25 12.5 q18 12.5 21 19.5 q2 2 3.5 7.5 q1.5 5.5 1.5 11.5 q1 4 2.5 11.5 q1.5 7.5 3.5 11.5 q3 11 3 21 q0 9 -1 12 ZM68 59 q-1 0 -5.5 -3 q-4.5 -3 -7.5 -6 l-12 -8 q-4 0 -4 -2 q0 -2 4 -4 q2 0 2 -2 q0 -2 6 -13 q2 -6 3.5 -8 q1.5 -2 2.5 2 q4 3 6 14 q3 9 5 21 l0 9 Z" /><glyph glyph-name="uni4E5F" unicode="&#x4e5f;" d="M106 179 q2 2 2 2 q2 0 8 -6 q7 -8 8 -11.5 q1 -3.5 -1 -11.5 l-2 -30 l-2 -21 q0 -4 -1.5 -8 q-1.5 -4 -1.5 -6 l0 -4 q2 -3 15 3.5 q13 6.5 21 13.5 q4 6 9 6 q3 0 5 -3.5 q2 -3.5 1 -7.5 q-1 -1 -10.5 -34 q-9.5 -33 -12.5 -47 q0 -5 -2 -7 l-3 0 q-9 0 -18 17 q-1 6 -4 9.5 q-3 3.5 -3 0.5 l0 -8 q0 -4 -3.5 -8 q-3.5 -4 -6.5 -4 q-2 0 -8.5 13.5 q-6.5 13.5 -6.5 17.5 q0 3 -2.5 4 q-2.5 1 -3.5 -2 q-1 -1 -1 -15 q0 -15 1 -18 l0 -13 q0 -5 6 -8 q2 -1 6 -3 q4 -2 7 -2 q15 0 39.5 3 q24.5 3 31.5 6 q4 1 9 2.5 q5 1.5 10 3.5 q4 0 6.5 2 q2.5 2 6.5 9 q3 8 5 23 q2 15 1 22 q-1 3 -0.5 3.5 q0.5 0.5 2.5 -0.5 q2 -5 5 -15 q3 -10 3 -19 q0 -8 -2.5 -19 q-2.5 -11 -5.5 -14 q-1 -3 -9 -6 q-8 -3 -14 -3 q-11 0 -13 -2 q-6 -2 -20.5 -4 q-14.5 -2 -27.5 -2 q-8 -2 -21 -2 q-2 -1 -6 -1 q-14 0 -19 5 l-6 6 q-3 2 -3.5 10.5 q-0.5 8.5 -0.5 33.5 l-3 11 l-8 -7 l-8 -4 q-3 0 -4 -2 q-1 -1 -4 -1 q-9 0 -11 5 l0 2 q0 5 4.5 9 q4.5 4 10.5 4 q12 0 20 9 q2 1 2.5 5.5 q0.5 4.5 0.5 10.5 l0 17 q0 1 2 1 q2 0 5 -4 q3 -4 5 -10 q3 -10 6 -10 q3 1 7.5 3.5 q4.5 2.5 7.5 4.5 l0 7 q4 28 4 48 q3 18 -2 18 q-6 0 -6 6 q0 1 2 9 q2 4 2 13 l0 4 ZM148 78 q0 3 0.5 4.5 q0.5 1.5 -0.5 1.5 l-15 -8 l-14 -8 q-3 0 -4.5 -5 q-1.5 -5 -1.5 -11 q0 -7 3 -9 q5 0 9 -9 l6 -6 q2 0 9 20.5 q7 20.5 8 29.5 ZM85 64 q0 4 -1 4.5 q-1 0.5 -3 -2.5 q-1 -2 -0.5 -3 q0.5 -1 2.5 -1 q2 0 2 2 ZM104 49 q0 7 -2 8 q-2 1 -7 -1 q-1 -4 0.5 -6 q1.5 -2 2.5 -3 l4 -6 q0 4 2 8 Z" /><glyph glyph-name="uni4E60" unicode="&#x4e60;" d="M165 153 q11 2 16 0 q4 -5 0 -10 q-2 -5 -2 -96 l0 -11 l-2 -17 q0 -9 -4 -15 l-4 -3 l-17 14 q-22 25 -19 30 q3 0 23 -17 l7 -7 l2 7 q0 1 1 17 q1 16 1 39 q0 27 -0.5 40 q-0.5 13 -1.5 14 q-3 2 -14 -0.5 q-11 -2.5 -20 -5.5 q-4 -2 -9 -2.5 q-5 -0.5 -10 -1.5 q-7 0 -11 0.5 q-4 0.5 -6 3.5 q0 2 -2 4 q0 2 15 2 q3 2 13.5 4 q10.5 2 18.5 5 q18 6 25 6 ZM102 101 q0 4 4 4 q2 0 2 -2 q4 -4 8 -4 q5 -2 8.5 -5 q3.5 -3 6.5 -4 q7 -1 7 -5 q0 -4 -7 -7 q-16 -8 -36 -25 q-5 -5 -5 -8 q0 0 0.5 -0.5 q0.5 -0.5 0.5 -0.5 q1 0 15 7 q3 2 19 10 q4 1 8.5 5.5 q4.5 4.5 6.5 5.5 l6 4 q2 0 6 4 q0 1 2 2.5 q2 1.5 4 1.5 q6 4 3 -4 q0 -4 -2.5 -7 q-2.5 -3 -6.5 -5.5 q-4 -2.5 -6 -4.5 q-5 -4 -9.5 -8 q-4.5 -4 -7.5 -7 q-2 0 -4 -1.5 q-2 -1.5 -4 -1.5 q-2 -3 -7 -5 q0 -2 -2 -2 q-2 0 -10 -4 q-6 -3 -13 -3 q-7 0 -11.5 2.5 q-4.5 2.5 -4.5 6.5 q0 4 15 18.5 q15 14.5 18 14.5 q2 0 3 1.5 q1 1.5 1 3.5 l6 4 q4 0 4 2 q0 2 -4 2 q-3 0 -8.5 6 q-5.5 6 -5.5 9 Z" /><glyph glyph-name="uni4E61" unicode="&#x4e61;" d="M99 168 q0 5 4.5 5 q4.5 0 5.5 -5 q4 -8 4 -19 q0 -8 -2 -11 l-4 -4 l8 2 q3 1 8 1 q6 0 11 -5 q2 -2 2 -6 q0 -6 -3 -14.5 q-3 -8.5 -7 -12.5 q-2 -2 -2 -5 q4 1 12.5 5.5 q8.5 4.5 8.5 7.5 l2 2 l2 -1 q3 0 6 2 q3 2 6 3 q13 11 15 15 q3 7 7 8 q4 1 6 -4 q1 -2 1 -5 q0 -4 -4 -9 q-1 -2 -8 -17 q0 -6 -10 -21 l-11 -19 q-4 -9 -6 -9 l-4 -8 q-1 -1 -3 -3.5 q-2 -2.5 -3 -2.5 q-3 0 -3 -2 q0 -3 -12 -19 q-12 -16 -21 -25 q-21 -18 -21 -11 q0 2 7 8 q7 6 8 5 q2 2 2 4 l4 6 q3 0 6 7 q1 2 9 10 l27 44 q8 12 14 24.5 q6 12.5 5 13.5 q0 0 -0.5 0.5 q-0.5 0.5 -0.5 0.5 q-1 0 -5 -2.5 q-4 -2.5 -7 -4.5 q-10 -8 -17 -11 l-21 -10 q-14 -7 -18 -7 q-6 2 -6 5 q0 6 12 16 l10 15 q0 3 5 6 q4 5 4.5 9 q0.5 4 -2.5 4 q-5 -2 -9 -2 q-3 -4 -8 -4 q-2 0 -3 -1.5 q-1 -1.5 -3 -1.5 q-9 -6 -9 -6 q-2 -1 -4.5 -3 q-2.5 -2 -5.5 -3 q-4 -4 -9 -4 q-3 2 -3 5 q0 5 5 7 q15 12 25 26.5 q10 14.5 7 21.5 q-4 6 -4 9 Z" /><glyph glyph-name="uni4E66" unicode="&#x4e66;" d="M97 182 q2 3 5 3.5 q3 0.5 4 -3.5 l0 -17 q0 -15 1.5 -20 q1.5 -5 6.5 -3 q10 0 19 -6 q4 -4 4 -7 q0 -7 -16 -23 q-6 -5 -10 -11.5 q-4 -6.5 -5 -9.5 l-2 -6 q-1 -1 0.5 -1 q1.5 0 3.5 1 q2 2 4 2.5 q2 0.5 4 1.5 q7 0 15 4 q9 3 36 3 q14 0 20 -0.5 q6 -0.5 9 -4.5 q6 -4 6 -16 q0 -3 -2 -11 q-2 -10 -25 -44 q-3 -4 -7 -4 q-5 0 -10 4 q-2 1 -4 2.5 q-2 1.5 -4 1.5 q-2 0 -2 2 q0 6 -8 11 q-5 4 -9 10 q0 4 3.5 4 q3.5 0 5.5 -2 q1 -2 6 -4 q4 0 10 -6 q3 -3 6 -4.5 q3 -1.5 3 0.5 q5 0 18 25 q4 8 4 14 q0 3 -0.5 5.5 q-0.5 2.5 -3.5 3.5 q-8 2 -22 2 q-15 0 -21 -2 l-13 -4 q-12 -6 -13 -7 q-2 -1 -4.5 -2 q-2.5 -1 -3.5 1 l-4 -7 q-4 -4 -4.5 -15.5 q-0.5 -11.5 -0.5 -32.5 q0 -18 -1 -29.5 q-1 -11.5 -1 -12.5 q-2 0 -4 2 q-2 4 -2 46 l0 40 q-8 -2 -17 -7 q-4 -1 -9.5 -3 q-5.5 -2 -6.5 0 l-5 3 q0 3 23 24 l21 23 l2 14 l0 15 l-8 -2 q-10 0 -10 2 l-1 2 q0 5 9 9 q6 0 9 3.5 q3 3.5 1 6.5 q-1 1 -1 17 q0 17 1 19 ZM162 165 q-3 10 0 10 q5 -4 6 -10 q8 -16 13 -24 q5 -8 9 -8 q2 -2 2 -4 q0 -2 4 -6 q5 -2 5 -7 q0 -6 -5 -8 q-3 0 -6.5 3 q-3.5 3 -10.5 12 q0 2 -2 5.5 q-2 3.5 -4 8.5 q-3 4 -5 8.5 q-2 4.5 -3 6.5 q-3 6 -3 13 ZM118 129 q-2 1 -4 0.5 q-2 -0.5 -4 -2.5 q-1 0 -2.5 -3.5 q-1.5 -3.5 -1.5 -6.5 l0 -9 l8 9 q6 6 7 9 q1 3 -3 3 Z" /><glyph glyph-name="uni4E70" unicode="&#x4e70;" d="M153 161 q10 2 15 2 q8 0 12 -2 q3 -2 3 -6 q0 -3 -6 -12 q-6 -9 -9 -9 q-2 0 -4 -2 q0 -3 -7.5 -11 q-7.5 -8 -9.5 -8 l-4 4 q0 6 8 17 q13 14 8 14 q-4 2 -9 2 q-8 0 -12 -4 q-5 -3 -21.5 -6 q-16.5 -3 -19.5 -4 q-10 0 -14.5 2 q-4.5 2 -4.5 7 q0 2 4.5 3.5 q4.5 1.5 5.5 -0.5 q2 -2 13.5 0 q11.5 2 26.5 7 q8 3 15 4.5 q7 1.5 10 1.5 ZM105 121 q0 4 2.5 4.5 q2.5 0.5 5.5 -4.5 q8 -10 15 -12 q6 -3 6.5 -7 q0.5 -4 -2.5 -6 q-5 -2 -10 0 q-9 5 -9 6 l0 3 q-3 0 -5.5 5.5 q-2.5 5.5 -2.5 10.5 ZM159 105 q7 0 7 -13 q0 -9 4.5 -12.5 q4.5 -3.5 14.5 -2.5 q8 2 15 2 q11 0 14 -3 l0 -5 q0 -4 -3.5 -7 q-3.5 -3 -7.5 -3 q-1 1 -3 0.5 q-2 -0.5 -3 -0.5 q-1 -2 -2.5 -2 q-1.5 0 -1.5 2 q0 1 -6.5 2.5 q-6.5 1.5 -13.5 1.5 q-11 0 -14 -2 q-4 0 -4 -2 q-3 0 -8.5 -5.5 q-5.5 -5.5 -3.5 -7.5 q-2 -4 -5 -6 q-7 -7 -14 -25 q-8 -17 -12 -21.5 q-4 -4.5 -7 -1.5 q-1 1 -1 4 q0 9 5 17 q7 8 15.5 25 q8.5 17 5.5 17 q-4 0 -4 -2 q-2 0 -6 -2 q-4 -2 -9 -3 q-4 0 -13.5 -2.5 q-9.5 -2.5 -15.5 -3.5 q-16 -6 -31 -6 q-11 0 -11 4 q-2 2 0 4 q4 -1 34 5.5 q30 6.5 33 9.5 q0 2 9 2 q4 0 4 4 q0 2 -2 2 q-4 0 -14 9 q-10 9 -10 12 q0 2 5 2 q18 -6 25.5 -11.5 q7.5 -5.5 1.5 -9.5 q-3 -3 -1 -4.5 q2 -1.5 7 0.5 q7 2 10 5.5 q3 3.5 9 17.5 l8 15 ZM162 76 q0 1 -3 1 q-1 0 -1.5 0 q-0.5 0 -0.5 -1 l2 -3 q3 0 3 3 ZM183 44 q-2 0 -1 1 q1 1 3 1 q1 0 8 -10 q11 -26 17 -32 q2 -4 2 -6 q0 -6 -6 -6 q-7 0 -7 6 q0 6 -4 6 l-8 25 q-4 14 -4 15 Z" /><glyph glyph-name="uni4E71" unicode="&#x4e71;" d="M77 152 q1 3 3.5 2 q2.5 -1 4.5 -4 q3 -5 6 -5 l11 0 q7 -2 10 -8 q0 -6 -11 -6 q-4 0 -14 2 q-4 2 -8 9 q-4 7 -2 10 ZM156 137 q2 2 6 2 q5 -2 5 -11 q0 -2 -2 -14 q-3 -6 -3 -13 q0 -4 -2 -6 q-2 -15 -2 -33 l-1 -20 q0 -9 2 -12.5 q2 -3.5 7 -3.5 q1 0 11 2 q9 0 26.5 5.5 q17.5 5.5 19.5 7.5 q0 5 -1 15.5 q-1 10.5 -3 17.5 q-3 12 0 15 q4 0 4 -5 q0 -2 2 -3 q2 0 2 -5 q0 -10 9 -27 q4 -8 4 -12 q0 -4 -18.5 -11.5 q-18.5 -7.5 -27.5 -7.5 q-4 -1 -9 -2 q-5 -1 -8 -3 l-17 0 q-9 4 -11.5 9 q-2.5 5 -2.5 19 q0 10 -0.5 13 q-0.5 3 -4.5 -5 q-3 -8 -7 -12.5 q-4 -4.5 -13 -10.5 q-3 -1 -8.5 -4 q-5.5 -3 -10.5 -6 q-12 -8 -17.5 -8.5 q-5.5 -0.5 -5.5 5.5 q0 8 8 13 q17 16 17 18 l-2 1 l-9 -2 q-13 -4 -16 -6.5 q-3 -2.5 -3 -10.5 q0 -10 3 -13 q0 -8 -3 -10 l-2 -1 q-6 0 -8 5 q-1 3 -1 20 q0 19 1 26 q2 6 2 13 q-4 0 -8 -2 q-7 -5 -18.5 -6.5 q-11.5 -1.5 -17.5 -0.5 q-3 3 -3 4 q0 4 11 5 q31 8 36 15 q1 0 6 14 q5 13 9 17 q4 4 10 2 q2 0 4 -2 q0 -1 3 -3.5 q3 -2.5 6 -5.5 q4 -4 4 -9 q0 -5 -6 -7 q-2 -2 -4.5 -3.5 q-2.5 -1.5 -4.5 -1.5 q0 0 -8 -8 q-5 -2 -8 -12 l0 -11 q2 0 12 5 q2 0 7.5 1.5 q5.5 1.5 5.5 -0.5 l8 0 q9 0 11 -6 q0 -4 4 -4 q2 0 5.5 8 q3.5 8 6.5 19 q1 10 5.5 23 q4.5 13 7.5 19 l0 2 l2 7 q2 1 2 8 q0 2 2 4 ZM91 99 q-1 4 -2 4 q-1 0 -3 -4 q-2 -4 -3 -6 q-2 -5 0 -6 q2 -1 6 4 q2 2 2.5 4 q0.5 2 -0.5 4 Z" /><glyph glyph-name="uni4E86" unicode="&#x4e86;" d="M103 159 q3 10 7 10 q3 0 2 -10 l-2 -8 l6 4 q5 3 13 5.5 q8 2.5 14 2.5 q4 0 8 -2 q3 -1 5.5 -3 q2.5 -2 2.5 -5 q0 -5 -9 -26 q-6 -12 -6 -14 q0 -3 3 -8 q3 -6 5 -19 q2 -13 2 -27 q0 -18 -4 -28 q-6 -16 -13 -23 q-2 0 -2 -4 l-6 -6 q-5 -2 -7 -5 q0 -1 -2 -2.5 q-2 -1.5 -4 -3.5 q-3 -1 -4.5 -1.5 q-1.5 -0.5 -1.5 1.5 q0 5 8 17 q15 19 19.5 31.5 q4.5 12.5 3.5 29.5 q-3 36 -8 41 q-2 2 -2 6 q0 10 6 20 q6 9 6 12 q0 4 -2 4.5 q-2 0.5 -6 0.5 l-19 -9 l-9 -4 l-4 4 q-4 3 -4 6 q0 5 4 13 Z" /><glyph glyph-name="uni4E88" unicode="&#x4e88;" d="M131 183 q8 2 11 2.5 q3 0.5 6 -0.5 q3 -3 3 -5 q0 -2 -3 -5 l-17 -19 q-3 -4 -5.5 -6.5 q-2.5 -2.5 -2.5 -4 q0 -1.5 2 -2.5 q1 -1 4 -3 q3 -2 6 -5 q1 -2 2 -3.5 q1 -1.5 0 -2.5 q-3 -4 -5 -4 q-3 0 -9 4 q-2 4 -15 8 q-14 4 -10 13 q3 3 8 0 q3 0 9 4 q6 4 8 6 q2 3 4.5 6.5 q2.5 3.5 2.5 4.5 q0 1 -3 1 q-5 0 -11 -2 q-4 -1 -9 -1.5 q-5 -0.5 -9 -2.5 q-11 0 -11 -2 q-2 0 -5 3 q-3 3 -3 6 l12 4 q22 0 40 6 ZM166 122 q24 3 32 3 q7 0 10 -3 q2 -5 -3.5 -15 q-5.5 -10 -14.5 -16 q-5 -2 -9.5 -5 q-4.5 -3 -7.5 -5 q-16 -11 -21 -13 l-8 -4 l0 -61 l-9 -15 q-7 -16 -11 -16 q-3 0 -8 8 q-5 9 -8 17.5 q-3 8.5 -3 11.5 q0 3 5 -4 q1 -1 3.5 -5 q2.5 -4 5.5 -5 l4 -7 l4 5 q3 5 5 17 q2 12 2 24 q0 24 -5 30 q-1 7 -1.5 14 q-0.5 7 -2 11 q-1.5 4 -4.5 4 q-4 0 -2.5 3.5 q1.5 3.5 4.5 4.5 q2 0 4 2 l0 3 q-5 -1 -19 -5 q-14 -4 -25 -6 q-28 -9 -36 -10 q-8 -1 -6 4 q0 3 2.5 5 q2.5 2 10.5 3 q5 1 15 3.5 q10 2.5 20 5.5 l77 16 ZM196 114 q0 2 -3.5 2.5 q-3.5 0.5 -7.5 -0.5 l-10 0 q-6 -2 -12 -2 q-4 -2 -10.5 -3 q-6.5 -1 -13.5 -1 q-2 0 -2 -10 q3 -28 7 -28 q1 0 44 31 q2 3 4.5 6 q2.5 3 3.5 5 Z" /><glyph glyph-name="uni4E89" unicode="&#x4e89;" d="M117 201 q3 5 6.5 6.5 q3.5 1.5 3.5 -1.5 q0 -2 -1.5 -6 q-1.5 -4 -4.5 -7 l-4 -12 q2 -2 5 -2 q5 0 16 4 q8 3 16 3 q9 0 11 -5 q1 -1 1 -4 q0 -9 -18 -21 q-4 -5 -10 -9.5 q-6 -4.5 -7 -5.5 l-6 -7 l6 3 q4 2 13 2 q6 0 10 4 l7 0 q6 -2 10 -2 q13 0 15 -2 q3 -2 5.5 -8 q2.5 -6 2.5 -13 l0 -11 l6 0 q4 0 6.5 -1 q2.5 -1 2.5 -3 l0 -2 q0 -4 -13 -13 q-5 -1 -6.5 -4.5 q-1.5 -3.5 -1.5 -20.5 q0 -6 -0.5 -7 q-0.5 -1 -5.5 -1 q-10 -4 -15 -4 q-6 -6 -6 -13 q-3 -36 -9 -60.5 q-6 -24.5 -12 -27.5 l-7 -2 l5 13 q5 9 7.5 21 q2.5 12 4.5 33 l0 27 q-2 2 -13 -1 q-11 -3 -23 -9 q-6 -3 -12 -3 q-7 0 -7 5 q0 4 3 4 q2 1 44 30 q4 2 6 5 q2 3 2 7 l0 8 l-12 -1 q-5 0 -9 -1.5 q-4 -1.5 -6 -1.5 q-10 -7 -63 -14 q-12 -3 -12 0 q-2 1 -2 3 q0 1 14 5 q7 0 15 2 l17 4 q8 4 18 4 q2 2 17 7 q15 3 16.5 4.5 q1.5 1.5 0.5 12.5 q0 12 2 12 l2 1 q2 0 4 -2.5 q2 -2.5 2 -6.5 q0 -4 3 -9 q1 -3 3.5 -3.5 q2.5 -0.5 8.5 -0.5 q6 2 13 2 l0 11 l1 6 q0 4 -3.5 6 q-3.5 2 -10.5 3 q-5 1 -27 -4 q-22 -5 -34 -11 q-12 -5 -14 0 q-3 2 -3 4 q0 4 13 12 q11 13 15 13 q8 8 16 14 l17 15 q0 2 -1.5 2.5 q-1.5 0.5 -2.5 -0.5 l-15 -4 q0 2 -1.5 1.5 q-1.5 -0.5 -2.5 -1.5 q0 -2 -6 -2 q-2 0 -3 -1 q-1 -1 -3 -1 q-1 -1 -3 -1 q-3 0 -5.5 3.5 q-2.5 3.5 -2.5 7.5 q0 3 1 5 q1 2 1 4 q2 0 3.5 2 q1.5 2 1.5 4 q0 5 4 8 ZM177 93 q2 2 0.5 2 q-1.5 0 -6.5 0 q-6 -1 -9 -4 q-3 -3 1 -4 q0 -1 3 -1 q3 0 6.5 2 q3.5 2 4.5 5 ZM173 72 q2 3 1 4 q-1 1 -3 -2 q-1 -1 -1 -2 q0 -1 1 -2 q2 0 2 2 ZM150 59 q0 2 -2 2 q-2 0 -2 -2 q0 -2 2 -2 q2 0 2 2 Z" /><glyph glyph-name="uni4E8B" unicode="&#x4e8b;" d="M231 81 q6 0 7 -1 q1 -1 1 -5 l0 -6 l-16 0 q-19 0 -23 -3 q-4 -3 -4 -16 l0 -15 q0 -3 -4 -3 q-4 0 -11 5 l-7 7 l-14 -5 l-15 -4 l0 -27 q0 -51 -12 -57 q-6 -3 -11 2 q-8 10 -21 13 l-14 8 l12 -2 q7 0 19 -4 l6 -4 l7 6 q4 8 4 17 l0 40 q-7 0 -15 -7 q-23 -12 -29 -12 q-2 0 -2.5 3.5 q-0.5 3.5 0.5 6.5 q0 2 10 7 q24 9 30 14 q6 5 4 13 l-4 6 l-15 -6 q-16 -7 -17 -7 q0 0 -17 -8 q-22 -12 -39 -18 q-17 -6 -19 -3 q-2 2 -2 3 q0 2 2.5 4 q2.5 2 5.5 2 q7 0 19 4 q48 25 63 31 q14 5 16 8.5 q2 3.5 3 4.5 q0 5 -1 5.5 q-1 0.5 -6 -1.5 q-3 0 -7.5 -2.5 q-4.5 -2.5 -6.5 -3.5 q-3 0 -8 -2.5 q-5 -2.5 -7 -2.5 q-11 -4 -13 -6 l-8 0 q-6 0 -6 2 q0 5 16 13 q9 2 17.5 5.5 q8.5 3.5 10.5 4.5 q12 6 14 6 q2 0 3.5 1.5 q1.5 1.5 1.5 3.5 q0 2 -2 2.5 q-2 0.5 -5 -0.5 q-12 -3 -12 -9 q0 -1 -1.5 -2.5 q-1.5 -1.5 -3.5 -1.5 l-2 0 q-3 0 -6.5 4.5 q-3.5 4.5 -5.5 12.5 q-3 3 -5.5 14 q-2.5 11 -3.5 16 l1 0 q3 0 6.5 -2 q3.5 -2 3.5 -3 q2 -3 3 -3 l14 8 q10 4 13 6.5 q3 2.5 3 7.5 q0 6 -2 6 l-19 -8 q-15 -6 -21 -6 l-8 -5 q-11 -5 -17.5 -7.5 q-6.5 -2.5 -13.5 -2.5 q-6 0 -8.5 0.5 q-2.5 0.5 -2.5 3.5 q0 4 1.5 5 q1.5 1 7.5 1 q14 0 39 13 q4 1 8.5 2.5 q4.5 1.5 8.5 3.5 q4 1 14 5 q10 4 13 6.5 q3 2.5 3 5.5 q0 4 -7 13 q-2 2 -4.5 8.5 q-2.5 6.5 -2.5 11.5 q0 4 3 4 q3 0 8 -8 q8 -10 9 -10 q4 -1 5 -4 q1 -3 1 -7 q0 -8 2 -8 q2 2 34 2 q10 1 22 1 q9 0 9 -3 q0 -4 -2 -6 q-1 -4 -8 -4.5 q-7 -0.5 -24 -0.5 q-29 0 -33 -1 q-4 -10 -4 -11 q0 -3 1 -4 q1 -1 5 0 q14 3 19.5 3 q5.5 0 5.5 -3 l1 -4 q0 -6 -11 -13 q-3 -3 -7 -6.5 q-4 -3.5 -4 -5.5 q0 -6 -6 -9 q-4 -4 -2 -6 q0 -1 2 -1 l8 1 q10 4 25 4 l9 1 q19 0 19 -12 q0 -4 0.5 -5.5 q0.5 -1.5 3.5 -2.5 q19 0 25 -2 ZM137 127 q0 -2 2 -2 q2 0 2 2 q1 0 1 1 q0 1 -1 1 q-2 -2 -4 -2 ZM126 123 q-7 -1 -15 -7 q-8 -6 -8 -8 q0 -1 2 -1 q4 0 12.5 5.5 q8.5 5.5 8.5 8.5 l0 2 ZM166 77 q11 2 16.5 3.5 q5.5 1.5 5.5 3.5 q0 9 -10 9 q-7 0 -22 -5 q-12 -5 -15 -5 l-2 -6 q0 -3 0.5 -4 q0.5 -1 3.5 0 l23 4 ZM170 62 q10 3 13 7 q0 1 -2 1 q-4 0 -15 -4 q-14 -2 -19 -3.5 q-5 -1.5 -4 -4.5 q0 -7 2 -7 q2 0 9 3 l16 8 Z" /><glyph glyph-name="uni4E8C" unicode="&#x4e8c;" d="M93 123 q0 3 2 3 q3 0 10 -3 q4 0 10 -1 q6 -1 11 -1 q5 0 9 -1 q4 -1 6 -1 q0 -2 4 -2 l1 0 q2 0 2 -4 q0 -6 -3 -9 l-4 -1 q-2 0 -11 3 q-12 4 -14 4 q-5 0 -14 5 q-9 5 -9 8 ZM174 67 q1 1 7 1 q7 0 15 -1.5 q8 -1.5 8 -2.5 q3 -3 3.5 -6.5 q0.5 -3.5 -1.5 -3.5 q-11 -7 -25 -12.5 q-14 -5.5 -19 -6.5 q-5 0 -7 -2 q-2 -1 -3 -0.5 q-1 0.5 -1 2.5 q0 4 4 4 q2 0 3.5 1.5 q1.5 1.5 1.5 3.5 l6 1 l10 7 q1 1 -0.5 1.5 q-1.5 0.5 -5.5 0.5 q-3 0 -9 -1 q-6 -1 -14 -1 q-9 0 -13.5 -1 q-4.5 -1 -5.5 -1 q0 -2 -6 -2 q-3 0 -7 -1.5 q-4 -1.5 -8 -2.5 q-18 -7 -37 -7 q-15 0 -19 4 q-2 3 -2 7 l14 0 q19 0 25 2 q40 14 67 14 q10 0 19 3 Z" /><glyph glyph-name="uni4E8E" unicode="&#x4e8e;" d="M172 127 q5 0 5.5 -0.5 q0.5 -0.5 0.5 -5.5 q0 -4 -1.5 -5 q-1.5 -1 -11.5 -3 q-3 0 -12.5 -0.5 q-9.5 -0.5 -10.5 -10.5 q-1 -10 -2 -27 q0 -35 -8 -61 q0 -2 -1 -3 q-1 -1 -1 -3 q0 -5 -5 -8 q-2 -4 -2 -11 q0 -1 -7.5 -8.5 q-7.5 -7.5 -10.5 -9.5 q-2 0 -2 2 q0 4 8 12 q9 11 15 39 q6 28 6 57 q-1 14 -2 20 q-1 6 -5 6 q-2 0 -3 -1.5 q-1 -1.5 -3 -1.5 q-5 -4 -31 -10 q-4 0 -5.5 0.5 q-1.5 0.5 -2.5 3.5 l-1 4 q0 4 7 11 q10 7 10 8 q4 6 10 11 q10 12 13 19 q0 2 1.5 4 q1.5 2 2.5 2 q4 0 8.5 4.5 q4.5 4.5 4.5 7.5 q0 6 -6 3 q-11 0 -17 -3 q-6 0 -9.5 0.5 q-3.5 0.5 -3.5 4.5 l0 2 q3 0 30 6 q3 2 12 2 q9 0 11 -2 l0 -8 q-4 -4 -4 -11 l-5 -4 q-2 0 -6 -8 q-4 -6 -3.5 -12.5 q0.5 -6.5 3.5 -4.5 q6 3 11.5 3.5 q5.5 0.5 5.5 -1.5 l0 -2 q4 0 6 -2 q2 -1 5.5 -2 q3.5 -1 5.5 -3 ZM115 117 q10 3 10 8 q-2 7 -4 7 q-2 0 -10 -9 l-8 -10 q0 0 12 4 ZM142 123 q4 0 4 4 q-2 0 -3 1.5 q-1 1.5 -3 1.5 q-3 1 -4 1.5 q-1 0.5 0 -1.5 q2 -3 2 -7 q0 -1 1 -1 q1 0 3 1 Z" /><glyph glyph-name="uni4E91" unicode="&#x4e91;" d="M101 150 q0 3 2 3 q3 0 7 -8 q1 -2 7 -8.5 q6 -6.5 10 -10.5 q6 -6 13 -10 q0 -2 -2 -3.5 q-2 -1.5 -3 -4.5 q-3 -4 -4 -4 q-1 0 -4 4 l-4 4 q0 5 -11 14 q-10 12 -10 19 l-1 5 ZM106 85 q14 3 24 3 q13 0 14 -3 q4 -4 0.5 -10 q-3.5 -6 -19.5 -22 q-23 -21 -19 -21 q1 1 7 2 q6 1 10 2 q14 5 25 6 q20 6 33 6 q10 0 11 -3 q2 -1 2 -3 l-2 -8 q-4 -7 -19 -17 q-15 -10 -23 -10 l-7 0 q-5 0 -5 2 q0 1 16 11 q5 2 10.5 5 q5.5 3 8.5 5 l4 6 l-10 -2 q-6 0 -10 -1 q-4 -1 -7 -1 q-3 0 -15 -4 l-23 -6 q-3 -1 -19 -9 q-2 -2 -5 -3 q-3 -1 -5 -3 q-7 -4 -10 -4 q-3 0 -5 4 q-1 3 6.5 11.5 q7.5 8.5 27.5 28.5 q12 10 20.5 18.5 q8.5 8.5 8.5 10.5 q0 2 -8 2 q-7 0 -9 -2 q0 -1 -3 -2 q-3 -1 -5 -2 q-3 0 -9 -1 q-6 -1 -14 -1 l-13 -2 q-10 0 -8 8 q0 3 4 3.5 q4 0.5 13 0.5 q17 0 27 5 Z" /><glyph glyph-name="uni4E92" unicode="&#x4e92;" d="M103 147 q18 0 18 -13 q0 -6 -5 -16 l-5 -8 q0 -2 13 -2 q5 0 11.5 -1.5 q6.5 -1.5 9.5 -1.5 q15 -10 15 -16 q2 -8 -11 -36 q-3 -5 -4.5 -9 q-1.5 -4 -3.5 -6 q0 -3 1.5 -3.5 q1.5 -0.5 6.5 -0.5 q31 3 31 6 l7 0 q2 -2 10 -2 l3 0 q4 0 6.5 -3.5 q2.5 -3.5 1.5 -8.5 q0 -3 -2.5 -3.5 q-2.5 -0.5 -8.5 -0.5 q-3 2 -6.5 2 q-3.5 0 -5.5 -2 q-10 -5 -13 0 q-4 2 -15 2 q-7 0 -25 -2 q-44 -8 -46 -9 q-1 -1 -5.5 -2 q-4.5 -1 -8.5 -2 q-5 0 -9.5 -1 q-4.5 -1 -7.5 -1 q-4 -1 -4.5 0.5 q-0.5 1.5 2.5 3.5 q2 2 10 6 q5 1 12 3 q7 2 16 4 q5 1 11 3 q6 2 11 3 q5 0 11 6 q5 9 6 9 q2 0 2 2 q0 3 -2 3 q-2 0 -4 -3 l-6 0 q-1 3 -7 3 q-6 0 -18 -3 q-13 -5 -17 -5 q-6 0 -6 9 q1 4 5 14.5 q4 10.5 11 25.5 q14 26 18 36 q4 10 -1 10 l-10 0 q-9 0 -11 3.5 q-2 3.5 4 6.5 l15 0 ZM141 95 q-6 2 -14 2 q-9 0 -14 -2 l-12 -2 l-8 -15 q-4 -10 -6 -15.5 q-2 -5.5 1 -5.5 l17 4 q11 5 25 5 q9 0 11.5 1 q2.5 1 3.5 5 q2 4 2 17 q0 3 -6 6 Z" /><glyph glyph-name="uni4E94" unicode="&#x4e94;" d="M100 159 q0 3 3.5 2.5 q3.5 -0.5 4.5 -4.5 q11 -13 17 -15 q12 -3 15 -12 q2 -4 2 -7 q0 -6 -6 -29 q-1 -1 -1 -3 q0 -3 9 -3 q11 0 15 -3 q4 -3 4 -10 q0 -8 -4.5 -19.5 q-4.5 -11.5 -10.5 -17.5 q-1 -2 -3 -5.5 q-2 -3.5 -1 -3.5 q12 0 21 2 q11 3 23 3 q0 -3 8 -3 q11 -1 19 -5 q8 -4 8 -7 q0 -4 -2 -4 q-1 -2 -14.5 -3 q-13.5 -1 -14.5 1 q0 1 -10.5 4 q-10.5 3 -16.5 4 q-7 0 -14.5 -2 q-7.5 -2 -12.5 -4 q-5 0 -6 -2 l-2 0 q-4 0 -17 -5 q-2 0 -5.5 -1 q-3.5 -1 -9.5 -1 q-5 0 -8 -1 q-3 -1 -4 -1 q-5 -2 -9 -2 q-5 -1 -17 -3 q-12 -2 -19 -5 q-5 0 -8 1.5 q-3 1.5 -2 4.5 q0 2 2.5 3 q2.5 1 5.5 1 q8 0 26 4 q4 1 13.5 4 q9.5 3 13.5 3 l10 2 l-2 6 q-8 41 -17 46 q-4 4 -4 9 q0 3 3 4 q3 1 10 2 q12 4 19 4 q1 0 4.5 1 q3.5 1 4.5 2 q1 1 1 3 q0 2 1 3.5 q1 1.5 1 2.5 q1 3 2.5 5 q1.5 2 1.5 4 q3 4 3 13 q0 4 -1 5.5 q-1 1.5 -4 2.5 q-9 2 -17 11 q-8 9 -8 18 ZM115 63 q1 7 1 12.5 q0 5.5 -3 2.5 q0 -3 -9 -3 q-6 0 -7.5 -2.5 q-1.5 -2.5 1.5 -7.5 q0 -3 1 -6 q1 -3 1 -7 q1 -6 3.5 -7.5 q2.5 -1.5 4.5 1.5 q1 3 3 7.5 q2 4.5 4 9.5 ZM142 75 q-7 2 -9 1 q-2 -1 -5.5 -9 q-3.5 -8 -8.5 -23 q-6 -15 -6 -23 q2 0 4 4 l4 4 q2 0 2 2 q4 5 7 5 q8 5 10 10 q3 6 6 6 l0 2 l0 5 q1 0 2.5 3.5 q1.5 3.5 1.5 6.5 l2 6 l-10 0 Z" /><glyph glyph-name="uni4E95" unicode="&#x4e95;" d="M136 182 q0 3 4 3 q3 0 8 -18.5 q5 -18.5 5 -30.5 q0 -1 2.5 -3 q2.5 -2 3.5 -3 q6 -1 6 -7 q0 -5 -4 -8 q-3 -1 -3.5 -6 q-0.5 -5 -0.5 -15 l0 -16 l6 0 q4 0 8 4 q4 5 9 2 l10 0 l3 0 q10 0 10 -7 q0 -4 -7 -8 q-1 -1 -3.5 -1 q-2.5 0 -2.5 1 q-8 0 -25 -2 l-8 -2 l-2 -21 q0 -5 -0.5 -21 q-0.5 -16 0.5 -25 q0 -14 -2 -27 q-4 -3 -4.5 9 q-0.5 12 -0.5 35 q-2 25 -2 46 l-6 0 q-2 0 -3 -1 q-1 -1 -3 -1 q-2 0 -15 -7 q0 -4 4 -4 q3 0 3.5 -5 q0.5 -5 0.5 -16 q0 -23 3 -25 l0 -2 q0 -2 -2.5 -3.5 q-2.5 -1.5 -4.5 -0.5 q-3 2 -5 7.5 q-2 5.5 -5 25.5 l-4 21 q-14 -2 -26 -8 q-8 -2 -18.5 -5 q-10.5 -3 -12.5 -2.5 q-2 0.5 -2 3.5 q-3 6 25 25 l25 19 q8 6 9.5 9 q1.5 3 1.5 10 q0 6 1 9.5 q1 3.5 1 4.5 q0 9 -4 13 q-7 5 -7 8.5 q0 3.5 7 1.5 l3 -1 q3 0 4 4.5 q1 4.5 1 13.5 q0 22 6 13 l0 -19 l0 -19 l11 0 q10 0 10 4 q2 5 -6 36 q-5 9 -2 12 ZM146 117 q0 2 -2.5 2.5 q-2.5 0.5 -7.5 0.5 l-13 0 q-1 -4 -1 -11.5 q0 -7.5 1 -7.5 q4 2 11.5 7.5 q7.5 5.5 11.5 8.5 ZM146 103 q-2 0 -2 -2 q-9 -9 -10 -9 q-2 0 -4 -1.5 q-2 -1.5 -5 -2.5 q-6 -6 -6 -21 q6 0 15 2 l12 4 l0 15 l0 15 ZM109 73 q-3 -1 -7.5 -3.5 q-4.5 -2.5 -7.5 -4.5 l-6 -4 l-7 -4 l7 2 q3 0 7 1 q4 1 7 1 q6 2 8 4 q2 2 1 6 l-2 2 Z" /><glyph glyph-name="uni4E9A" unicode="&#x4e9a;" d="M119 143 q21 14 21 2 q0 -3 -1 -5 q-1 -2 -6 -3 q-10 -6 -12 -10.5 q-2 -4.5 -4 -18.5 l0 -26 q0 -3 0.5 -4.5 q0.5 -1.5 3.5 -1.5 q4 0 6 -2 q4 -1 4.5 5.5 q0.5 6.5 0.5 25.5 q0 21 1 24 q4 3 6.5 -5.5 q2.5 -8.5 2.5 -24.5 l0 -25 l2 -6 l13 12 q14 12 14 15 q-4 2 -8 2 q-8 2 -8 4 q0 3 12 4 q7 2 9.5 0.5 q2.5 -1.5 3.5 -2.5 q5 -5 5 -11 q0 -11 -9 -14 q-1 0 -13 -8 q-3 -3 -6.5 -5.5 q-3.5 -2.5 -5.5 -5.5 q-5 0 -5 -4 q-1 -6 -3 -8 q-2 -2 -7 -2 q-3 0 -5.5 -1.5 q-2.5 -1.5 -3.5 -2.5 l-1 -2 l1 0 l11 2 q3 0 10.5 1 q7.5 1 10.5 3 l10 0 q2 2 17 2 q15 0 15 -2 q4 -3 6 -3 q4 0 6 -4 l1 -3 q0 -4 -2.5 -6 q-2.5 -2 -6.5 -1 q-9 2 -38 2 q-31 0 -37 -2 l-17 -4 q-14 0 -17 -5 q-1 0 -3 -1 q-2 -1 -5 -1 l-9 0 q-3 -2 -12 -5.5 q-9 -3.5 -17 -4.5 l-2 -1 q-2 0 -3.5 3 q-1.5 3 -0.5 7 q2 2 8 4.5 q6 2.5 13 3.5 q5 2 16.5 6 q11.5 4 14.5 6.5 q3 2.5 2 4.5 q2 0 2 0 q3 0 3.5 1.5 q0.5 1.5 0.5 4.5 l0 12 l-2 9 l-4 -7 q-5 -7 -17 -4 q-2 1 -5.5 3 q-3.5 2 -8.5 6 q-9 3 -13.5 6.5 q-4.5 3.5 -1.5 5.5 q8 0 15 -2 q18 -6 21 -6 q4 0 6 2.5 q2 2.5 2 3.5 q8 8 8 21 q1 6 1 15 q0 5 -1.5 7.5 q-1.5 2.5 -5.5 4.5 q-2 3 -5 5 q-3 2 -3 4 q0 3 3.5 5 q3.5 2 4.5 -1 q1 -1 4 -1 q7 0 17 7 ZM121 68 q0 4 -2 4 q-2 2 -2 -4 q2 -2 2 -11 q0 -6 0.5 -6.5 q0.5 -0.5 5.5 2.5 q2 2 2 6 q0 4 -4 4 q-2 3 -2 5 Z" /><glyph glyph-name="uni4E9B" unicode="&#x4e9b;" d="M138 182 q2 2 4.5 1.5 q2.5 -0.5 3.5 -3.5 q4 -4 4 -13 q9 -49 24 -54 q5 -1 5 -7 q0 -6 -5 -8 q-9 0 -13 -4 q-2 -1 -5 -2.5 q-3 -1.5 -3 -4.5 l2 -8 q0 -8 3 -12 q3 -4 7 -2 q7 2 16.5 3 q9.5 1 17.5 1 q5 0 7.5 -0.5 q2.5 -0.5 2.5 -3.5 q0 -10 -33 -13 l-19 -2 l-7 4 q-6 12 -6 15 q-1 9 -3 11 q-2 2 -5 -1 l-19 -10 q-9 -4 -15 -9 q0 -3 -6 -6 q-15 -6 -29 -15 q-7 -7 -7 -8 q0 -1 -1.5 -3.5 q-1.5 -2.5 -4.5 -0.5 q-4 0 -5 1 q-1 1 -1 5 q0 19 2 34 q0 23 1 29 q1 6 5 6 l1 0 q2 0 2.5 -5.5 q0.5 -5.5 0.5 -19.5 q0 -23 2 -23 q7 0 13 4 q11 6 11 9 q-2 0 -3.5 4 q-1.5 4 -1.5 8 q0 6 -1 10 q-1 4 -1 5 q-1 1 -1 26 q0 25 1 26 l1 0 q2 0 6 -15 q1 -14 2.5 -18.5 q1.5 -4.5 5.5 -4.5 q4 0 14 3 q9 0 11 -2 q3 -4 2 -7.5 q-1 -3.5 -4 -3.5 q-5 0 -13 -4 q-1 -1 -5.5 -2.5 q-4.5 -1.5 -5.5 -3.5 q-1 -2 -1 -5 q0 -6 1 -10 q1 -4 3 -4 q2 0 6 4 q4 4 9 4 q2 0 2 2 q0 2 4 2 q3 3 13 7 l8 6 l0 44 l0 44 ZM159 109 q0 4 -2 8 q-4 3 -5 3 q-2 0 -2 -11 q1 -4 2 -5 q1 -1 5 0 q2 0 2 5 ZM108 41 q0 2 2 2 q2 0 5 -4 q15 -7 17 -8 q8 -2 9.5 -4 q1.5 -2 -1.5 -7 q-1 -4 -5 -4 q-6 0 -14 7 q-7 4 -11 9.5 q-4 5.5 -2 8.5 ZM104 -1 q0 4 7 0 l8 -1 q0 -3 6 -3 q6 -2 14 -5.5 q8 -3.5 9 -6.5 q1 -1 1 -3 q0 -2 -1.5 -4.5 q-1.5 -2.5 -3.5 -2.5 q-3 0 -11 3 q-4 5 -18 9 q-8 3 -10.5 6 q-2.5 3 -0.5 8 Z" /><glyph glyph-name="uni4EA1" unicode="&#x4ea1;" d="M104 144 q3 0 30 -13 q11 -5 11 -13 q0 -7 -11 -4 q-6 2 -20.5 16 q-14.5 14 -9.5 14 ZM178 103 q2 0 5.5 -1 q3.5 -1 9.5 -1 q19 -3 10 -10 q-4 -4 -23 -2 q-5 1 -12 1 q-10 0 -25 -6 q-19 -3 -25 -3 q-1 -1 -1 -11 q0 -24 3 -42 q0 -4 4 -4 q8 2 17 2 l29 6 q6 1 13 1 q4 0 5.5 -2 q1.5 -2 2.5 -3 q1 -2 1 -4 q0 -2 -1 -5 q-12 -3 -25 -3 q-14 0 -32 -5 q-10 -2 -14 -2 q-12 0 -13 7 q-2 2 -1.5 5.5 q0.5 3.5 1.5 4.5 l0 19 q0 7 1 13 q1 6 1 10 q1 4 0.5 5 q-0.5 1 -4.5 1 q-11 0 -19 -4 q-9 -4 -20 -4 q-15 0 -15 8 q6 2 10 2 l15 0 q5 5 23 8 l65 17 q4 0 8 2 l6 0 Z" /><glyph glyph-name="uni4EA4" unicode="&#x4ea4;" d="M105 166 q2 3 6 -4 q7 -11 19 -18 q6 -4 6 -9 q0 -3 1 -4 q1 -1 6 0 q10 3 10 -2 l1 -2 q0 -3 -2.5 -6 q-2.5 -3 -4.5 -3 q-2 -1 -4 -2 q-2 -1 -4 -2 q-4 -2 -12 -11.5 q-8 -9.5 -12.5 -17.5 q-4.5 -8 -0.5 -6 l10 3 q3 0 4.5 1.5 q1.5 1.5 1.5 3.5 l6 0 q5 0 13 4 q14 7 21 7 q5 0 8 -3 q4 -2 5 -5.5 q1 -3.5 -3 -4.5 q-2 -3 -6 -3 q-6 0 -11 -2 q-5 -2 -5 -6 q0 -11 -3 -19 q-3 -8 -4 -12 l-2 -6 q0 -6 10 -7 q3 0 7 -2.5 q4 -2.5 8 -3.5 q12 -6 13 -6 l6 0 q0 -1 2 -2.5 q2 -1.5 4 -1.5 q8 -1 14.5 -7.5 q6.5 -6.5 6.5 -11.5 q0 -8 -6 -8 q-4 0 -8 4 q-3 1 -9.5 4.5 q-6.5 3.5 -16.5 7.5 q-8 6 -22 13 q-7 4 -12 4 q-8 0 -16 -8 q-12 -11 -23.5 -15 q-11.5 -4 -32.5 -4 q-13 0 -19 0.5 q-6 0.5 -13 3.5 q-2 2 -5 4.5 q-3 2.5 -3 5.5 q0 9 13.5 19 q13.5 10 28.5 11 q8 2 17 2 q10 0 16 -2 l15 0 l10 0 l7 12 q5 11 5 21.5 q0 10.5 -5 5.5 q-2 -2 -15 -6 q-12 -4 -15 -6 q-4 -4 -8 -4 l-4 0 q0 -3 -10 -10 q-10 -7 -13 -7 q-6 0 -6 6 q0 3 3.5 7 q3.5 4 8.5 8 q11 11 11 12 q0 5 4 5 q5 2 8 12 q4 10 9 13 q3 3 3 5.5 q0 2.5 -3 0.5 q-1 -1 -3 -2 q-2 -1 -2 -2 q-2 -2 -6 -2 l-8 0 q0 -2 -2 -2 q-2 0 -4 -1.5 q-2 -1.5 -3 -1.5 q-1 0 -4 -0.5 q-3 -0.5 -6 0.5 q-4 0 -6 1 q-2 1 -2 4 q-3 4 3 4 q35 5 53 15 q5 1 5 3 q0 2 -5 3 q-7 3 -14.5 17 q-7.5 14 -4.5 18 ZM101 26 q-17 0 -17 2 q-4 0 -4 -2 l-6 -2 q-7 0 -19 -6.5 q-12 -6.5 -11 -10.5 q1 -7 26 -7 q14 0 23 3 q21 9 29 17 l4 4 l-6 2 l-19 0 Z" /><glyph glyph-name="uni4EA6" unicode="&#x4ea6;" d="M96 152 q0 1 0.5 1.5 q0.5 0.5 0.5 0.5 q3 0 6.5 -4 q3.5 -4 6.5 -11 q1 -1 4 -6 q3 -5 5 -7 q3 -7 0 -10 q-3 -3 -4 -3 q0 0 -7 5 q-4 3 -5 6.5 q-1 3.5 -1 8.5 q0 4 -1 6 q-1 2 -1 4 q-4 4 -4 9 ZM154 110 q7 2 13 2 l1 0 q2 0 4.5 -2.5 q2.5 -2.5 2.5 -4.5 q0 -2 -10.5 -6 q-10.5 -4 -18.5 -4 q-4 0 -6 -1 q-2 -1 0 -3 q2 0 2 -11 q-1 -6 -1 -24 q0 -20 1 -32 q1 -4 1 -11 q0 -7 -3 -10 q-3 -3 -5 -3 q-4 0 -7 5.5 q-3 5.5 -7 14.5 q-4 6 -6 12.5 q-2 6.5 0 6.5 q4 0 8 -9 q5 -8 7.5 -8.5 q2.5 -0.5 1.5 6.5 q-2 8 -2 20 q0 12 2 22 l0 10 l-2 1 q-2 0 -5.5 -4 q-3.5 -4 -5.5 -9 q-6 -14 -9 -25 q0 -2 -2 -2 l0 -2 q0 -3 -1 -4 q-1 -1 -1 -2 l-4 -11 q-1 -6 -3.5 -7 q-2.5 -1 -9.5 1 q-2 2 -2 15 q0 13 1.5 27 q1.5 14 3.5 18 l2 5 q0 4 -9 -1 q-3 0 -6 -1 q-3 -1 -6 -1 l-21 -4 q-16 -3 -19 0 q-3 3 0 6 q0 3 4 3 q6 1 21 4 q15 3 30 6 q4 0 8 2 q6 0 6 4 l2 0 q6 0 11 2 q26 4 39 9 ZM124 89 q0 0 -0.5 0.5 q-0.5 0.5 -0.5 0.5 q-2 0 -8 -3 q-5 -3 -10 -10 q-5 -7 -3 -9 q0 -1 -1 -3 q-1 -2 -1 -4 q0 -1 -0.5 -4 q-0.5 -3 0.5 -6 l0 -8 l2 6 q1 7 6 17 q5 10 7 10 q1 0 6 7 l3 6 ZM175 59 q0 3 3 3 q4 0 12 -4 q7 -9 15 -9 q6 -2 13 -9.5 q7 -7.5 5 -11.5 q0 -4 -4 -8 q-6 0 -21 14 q-23 23 -23 25 ZM39 39 q1 7 4 8.5 q3 1.5 5 -4.5 q0 -3 1.5 -6 q1.5 -3 2.5 -3 q2 0 3 -1.5 q1 -1.5 1 -4.5 l0 -8 q3 -3 2.5 -6 q-0.5 -3 -2.5 -5 q-1 -1 -3 -1 q-2 0 -7 10 q-7 11 -7 21 Z" /><glyph glyph-name="uni4EA7" unicode="&#x4ea7;" d="M112 189 q0 5 0.5 7 q0.5 2 1.5 2 q1 -1 3.5 -3 q2.5 -2 2.5 -4 q3 -5 7.5 -9.5 q4.5 -4.5 5.5 -4.5 q3 0 6.5 -5.5 q3.5 -5.5 1.5 -7.5 q0 -3 -6 -6 q-1 -1 -3 -1 q-1 0 -5 7 q-2 3 -4.5 6.5 q-2.5 3.5 -4.5 6.5 q-6 6 -6 12 ZM114 145 q20 12 27 5 q4 -3 4 -7 q0 -4 -6 -10 q-4 -4 -6 -8 q0 -3 -4 -7 l-7 -4 l7 0 q4 4 8 4 q4 5 12.5 9.5 q8.5 4.5 12.5 5.5 q10 0 10 -7 q0 -6 -8 -16 q-10 -11 -10 -15 l-4 -4 q-2 -2 -2 -4 q0 -1 1.5 -1 q1.5 0 2.5 1 l16 4 q8 1 12 1.5 q4 0.5 5 -1.5 l2 -4 q0 -3 -6.5 -6 q-6.5 -3 -18.5 -7 l-25 -8 q-2 -2 -8 -2 q-5 -2 -9 -2 q-2 -2 -6 -2 q-2 0 -2 -19 q0 -30 -7 -44 q-1 -3 -5 -13 q-4 -10 -5 -16 q-3 -11 -15 -11 l0 1 q0 3 5 14 q14 28 14 58 q1 5 1 13 q0 4 -1 6.5 q-1 2.5 -4 2.5 q-4 0 -10 -3 q-7 -3 -12 -3 q-6 0 -5 8 q4 3 15 9 q11 6 19 7 q13 6 27 19 q8 7 15.5 16 q7.5 9 5.5 9 q-2 0 -32 -23 q-7 -7 -9 -8 q-2 -1 -5 2 q-7 5 12 35 q8 12 8 15 q0 2 -2 1.5 q-2 -0.5 -6 -1.5 q-8 -4 -12 -4 q-4 -3 -9 -3 q-5 0 -10 5 q-2 1 -2 3 q0 3 8 3 q9 0 23 6 Z" /><glyph glyph-name="uni4EAB" unicode="&#x4eab;" d="M101 188 q0 2 1 2 q4 0 14 -10 q10 -10 16 -13 l9 -4 q0 -4 2 -6 q3 -2 10 0 q14 4 28 4 q9 -1 13 -2 q4 -1 6 -4 q0 -6 -3.5 -7.5 q-3.5 -1.5 -15.5 -1.5 q-10 1 -26.5 -1 q-16.5 -2 -19.5 -5 q-7 0 -11 -2 q-3 0 -6 -1 q-3 -1 -6 -1 q-6 -3 -25.5 -8 q-19.5 -5 -25.5 -5 q-5 0 -5 2 q0 5 12 9 q4 0 8 1 q4 1 6 3 q3 0 12 2.5 q9 2.5 15 3.5 q5 2 13 4.5 q8 2.5 8 4.5 l-10 8 q-8 6 -13.5 14 q-5.5 8 -5.5 13 ZM153 140 q3 0 5 1 q2 1 4 1 q2 0 6 -4.5 q4 -4.5 4 -7.5 q0 -2 -6.5 -8.5 q-6.5 -6.5 -14.5 -10.5 q-1 -1 -2.5 -3 q-1.5 -2 -1.5 -3 q0 -1 2 -3 q3 -3 0 -8 q-1 -3 -4.5 -3.5 q-3.5 -0.5 -9.5 -0.5 q-9 0 -13 -4 q-3 -5 -8 -5 q-5 0 -7 5 q0 2 -1 3 q-1 1 -1 3 q-4 8 -6 16.5 q-2 8.5 -2 12.5 q0 2 35 13 q16 4 21 6 ZM143 121 q0 1 -2 1 l-13 -3 q-9 -3 -11.5 -5.5 q-2.5 -2.5 -0.5 -7.5 q2 -1 3.5 -0.5 q1.5 0.5 4.5 3.5 l6 4 q3 1 8 4 q5 3 5 4 ZM135 81 q15 5 18 5 q4 -2 6 -3 q2 -1 3 -4 q0 -7 -13 -16 q-6 -6 -7.5 -9 q-1.5 -3 -0.5 -6 q4 -4 11 -4 q5 0 8 2 l4 1 q6 0 14.5 -2.5 q8.5 -2.5 10.5 -5.5 q3 -4 3 -9 q0 -5 -3 -7 q-6 0 -11 2 q-6 3 -12.5 3.5 q-6.5 0.5 -8.5 -1.5 q-1 0 -0.5 -3 q0.5 -3 0.5 -5 q5 -8 5 -21 q0 -8 -2 -12.5 q-2 -4.5 -7 -10.5 q-8 -9 -13.5 -11.5 q-5.5 -2.5 -13.5 -1.5 q-6 2 -23 13.5 q-17 11.5 -21 17.5 q-5 7 -5 12 q0 19 41 28 q5 2 6 3 q1 1 -2 3 q-2 3 -2 7 q0 5 8 12 q4 7 9 11 q0 4 -32 -11 q-8 -4 -14.5 -5 q-6.5 -1 -8.5 1 q-2 4 -2 6 q0 5 8 5 q4 0 7 1 q3 1 4 1 q4 4 8 4 q5 2 6 4 q3 1 6 2 q3 1 3 2 q8 0 13 2 ZM145 21 q-1 3 -7 3 q-6 0 -10 -1 q-2 -2 -8 -2 q-6 0 -16.5 -6 q-10.5 -6 -12.5 -9 l-2 -4 q0 -3 6 -7 l8 -6 l6 -4 q9 -6 13 -6 q6 -2 7 -2 q9 0 14 10 q3 7 3 21 q0 10 -1 13 Z" /><glyph glyph-name="uni4EAC" unicode="&#x4eac;" d="M97 173 q0 4 2 4 q3 0 6 -8 q7 -9 7 -6 q4 0 4 -5 l10 -10 q15 -11 9 -17 q-8 -3 -21.5 10.5 q-13.5 13.5 -16.5 27.5 l0 4 ZM173 131 q3 2 7.5 1.5 q4.5 -0.5 4.5 -3.5 l0 -1 q0 -4 -6 -8.5 q-6 -4.5 -15 -6.5 q-6 -5 -12 -7 q-3 0 -13.5 -6.5 q-10.5 -6.5 -14.5 -10.5 q-1 -3 0 -3.5 q1 -0.5 5 -0.5 q11 3 21 3.5 q10 0.5 14 -0.5 q3 -4 3 -7 q0 -7 -11 -17 q-8 -6 -11 -9.5 q-3 -3.5 -3.5 -13.5 q-0.5 -10 -0.5 -27 q0 -21 -1.5 -28.5 q-1.5 -7.5 -6.5 -7.5 q-3 0 -7 2.5 q-4 2.5 -4 4.5 q0 4 -8 12 q-11 24 -11 29 q0 2 2 2 q2 0 5 -3 q3 -3 4 -7 q3 -7 8 -13 q5 -6 7 -6 l0 21 q0 18 -1 20.5 q-1 2.5 -8 -1.5 q-1 -1 -4 -1 q-5 0 -8 18 q-2 12 -2 16 q0 23 20 34 l9 7 l-9 -3 q-31 -4 -33 -6 q0 -1 -3.5 -2 q-3.5 -1 -6.5 -2 q-6 0 -10 -1 q-4 -1 -5 -1 q-2 -2 -11 -2 q-11 0 -17 2 q-1 2 -2 6 q-1 4 2 4 l7 -2 q2 -1 7 -1 q5 0 20 3 q12 5 23 7 l6 1 l23 5 q41 8 47 10 ZM143 71 q11 6 2 6 q-4 0 -16 -4 q-3 -1 -5 -2.5 q-2 -1.5 -4 -1.5 q-2 0 -2 -3 q0 -2 1 -3 q1 -1 1 -3 q0 -2 0.5 -3 q0.5 -1 1.5 -1 q0 2 9 6 q6 3 12 9 ZM177 41 q0 1 -0.5 2 q-0.5 1 0.5 3 q0 3 1 3 q4 0 11 -12 q3 -4 7.5 -7.5 q4.5 -3.5 5.5 -4.5 q4 0 4 -5 q0 -2 6 -8 l4 -6 l-4 -5 q-2 -2 -4 -2 q-3 0 -8 9 q-10 10 -13 15 q-4 6 -10 18 ZM61 29 q3 6 6 6 q5 0 5 -15 q0 -17 -0.5 -25 q-0.5 -8 -3.5 -8 l-1 -1 q-5 0 -8 11 q-1 3 -1 10 q0 10 3 22 Z" /><glyph glyph-name="uni4EAE" unicode="&#x4eae;" d="M94 173 q2 2 2 2 q3 0 8 -8 q6 -6 9 -6 q1 0 4.5 -3 q3.5 -3 5.5 -4 q5 -4 6.5 -4.5 q1.5 -0.5 5.5 1.5 q17 8 34 8 q8 0 9 -1 q1 -1 1 -6 q-2 -4 -3.5 -5.5 q-1.5 -1.5 -8.5 -2.5 q-4 -1 -9.5 -2 q-5.5 -1 -9.5 -2 q-10 0 -10 -2 l-9 0 q-8 0 -12 -4 q-9 -4 -28.5 -8.5 q-19.5 -4.5 -28.5 -4.5 l-6 -1 q-5 0 -8 2 q-3 2 0 3 q0 1 4.5 2.5 q4.5 1.5 9.5 1.5 q24 5 40 11 q16 6 8 6 q-3 0 -9 12 q-6 12 -5 15 ZM92 121 q2 3 4 2.5 q2 -0.5 2 -4.5 q0 -7 6 -4 q3 0 6.5 1 q3.5 1 6.5 1 q4 1 8 2 q4 1 8 2 q5 1 10.5 1.5 q5.5 0.5 6.5 -1.5 q4 -1 4 -4 q0 -5 -6 -11 q-4 -3 -5 -5 q-1 -2 -1 -5 q2 -4 -2 -8 q-2 0 -2 -2 q0 -2 3 -1 q3 1 5 1 q10 3 25 5 q15 2 19 1 q7 -3 7 -6 q0 -7 -15 -17 q-5 -2 -9 -7 q-2 -2 -4 -2 q-4 0 -8 -2 q-9 -5 -9 2 q0 2 2 5 q2 3 5 4 q2 0 6 4 q0 2 2 2 q4 0 4 2 q-2 2 -4 2 q-9 -1 -25.5 -5 q-16.5 -4 -22.5 -7 q-7 -5 -11 -5 q-5 0 -2 -10 l2 -8 l9 4 q12 4 18 4 l9 -2 l2 -21 l0 -21 l15 0 q28 4 40 4 q1 1 3 1 q3 0 6 -1.5 q3 -1.5 3 -3.5 l1 -3 q-2 -9 -13 -12 q-7 -2 -11 -6 q0 -2 -4 -2 q-1 0 -3 -1 q-2 -1 -4 -1 q0 -2 -1.5 -1.5 q-1.5 0.5 -2.5 1.5 q-4 0 -6 -2 q-1 -2 -5.5 -2 q-4.5 0 -4.5 2 q0 3 6 6 q4 2 6 6 q-6 2 -12 0 q-8 0 -12 1 q-4 1 -7 5 q-5 5 -6 8.5 q-1 3.5 -1 12.5 l-1 17 q-1 1 -4 1 q-8 0 -15 -5 q-4 -3 -5 -8 q-1 -5 -2 -15 q0 -13 -0.5 -18 q-0.5 -5 -3.5 -5 q-4 0 -5.5 3 q-1.5 3 -1.5 12 q0 13 3 44 q2 6 1 7 q-1 1 -7 1 q-2 0 -5.5 -1 q-3.5 -1 -5.5 -3 q-4 -2 -8 -2 q-4 0 -7.5 -6 q-3.5 -6 -5.5 -15 q-2 -10 -4 -13 q-2 -3 -6 0 q-2 2 -2 8 q0 16 10 40 q3 9 6 10 q3 1 3 -5 q2 -5 4 -7 q3 0 14 5 q11 5 11 6 q0 4 -4 12 q-2 16 -2 25 q0 10 2 13 ZM127 108 q-7 -1 -11 -3 q-4 -2 -6 -3 q-2 -2 -3.5 -5.5 q-1.5 -3.5 1.5 -2.5 q21 9 21 12 l-2 2 ZM133 83 q2 3 -1 3 q-2 0 -2 -1.5 q0 -1.5 2 -1.5 l1 0 Z" /><glyph glyph-name="uni4EB2" unicode="&#x4eb2;" d="M101 202 q5 2 15 -8 q10 -10 10 -17 q3 -7 0 -7 q-2 -2 -4 -2 q0 -3 1.5 -3 q1.5 0 4.5 1 q8 0 15 6 q2 1 4.5 2.5 q2.5 1.5 5.5 2.5 q2 0 3 1 q1 1 3 1 q7 4 12 4 q10 0 5 -9 q-3 -4 -15.5 -11 q-12.5 -7 -15.5 -7 q-1 1 -3 1 q-4 0 -8 -1 q-4 -1 -8 -2 q-44 -13 -52 -13 q-3 0 -5 -1 q-2 -1 -4 -1 q-3 0 -4.5 1 q-1.5 1 -1.5 5 q2 5 3.5 6.5 q1.5 1.5 9.5 2.5 q13 2 29.5 5.5 q16.5 3.5 16.5 4.5 q2 2 -3 2 q0 2 -1 3.5 q-1 1.5 -2 4.5 q0 5 -5 10 q-5 5 -8 5 q-4 0 -4 2 l-1 1 q0 2 2 5 q2 3 5 5 ZM149 152 q3 3 6 0 q5 -1 5 -13 q0 -11 -5 -19 q-5 -10 -13 -18.5 q-8 -8.5 -10 -8.5 q-4 0 -4 3 q0 3 9 18 q6 11 10 25 q0 6 2 13 ZM97 137 q4 2 5 2 q5 0 5 -13 q0 -2 1.5 -5.5 q1.5 -3.5 3.5 -4.5 q2 -5 2 -7 q0 -2 -2 -6 q-3 -4 -6 -4 q-5 0 -8 10 q-3 10 -3 20 q0 6 2 8 ZM193 105 q8 0 20.5 -1.5 q12.5 -1.5 15.5 -2.5 l1 -2 q0 -6 -22 -15 q-16 -7 -33.5 -16 q-17.5 -9 -17.5 -11 q0 -3 13 -12 q3 -3 3 -5 q0 -6 -11 -6 q-14 -1 -15.5 -3 q-1.5 -2 -1.5 -16 l3 -49 q0 -11 -3 -12 q-3 -4 -7 -1 q-1 1 -2.5 3.5 q-1.5 2.5 -1.5 4.5 q-2 3 -3.5 6.5 q-1.5 3.5 -2.5 5.5 q-6 7 -6 11 l-4 4 q-2 2 -2 3 q0 1 2 1 q2 0 5.5 -1.5 q3.5 -1.5 4.5 -4.5 l6 -4 l0 19 q0 17 -1.5 23 q-1.5 6 -6.5 6 q-4 -2 -11 -2 q-5 -2 -10 -3.5 q-5 -1.5 -8 -2.5 q-8 -3 -12 -4 q-4 -1 -7 1 l-2 4 q0 5 14 9 q22 13 25 15 l15 8 l2 13 q0 5 -0.5 7.5 q-0.5 2.5 -4.5 2.5 l-15 -2 l-28 -6 q-9 -1 -23.5 -6 q-14.5 -5 -20.5 -7 q-4 -3 -8 -3.5 q-4 -0.5 -4 1.5 q-1 1 -1 3 q0 1 7 8 q28 11 67 16 l27 7 q6 1 65 16 ZM191 91 q4 2 -2 2 l-6 0 q-2 -2 -9 -2 q-16 -3 -21.5 -7 q-5.5 -4 -3.5 -10 q0 -5 0.5 -5 q0.5 0 5.5 1 l7 2 q4 3 12 8 q8 5 13 7 l4 4 ZM149 49 q0 2 -2 2 l-2 -2 q0 -2 2 -2 l2 2 ZM178 19 q0 4 3.5 5 q3.5 1 5.5 -2 q0 -2 4 -7 q4 -5 6 -8 q14 -19 14 -31 q0 -4 -3.5 -6 q-3.5 -2 -7 -2.5 q-3.5 -0.5 -3.5 1.5 q-4 22 -8 28 q-1 0 -1.5 0.5 q-0.5 0.5 -0.5 0.5 q2 2 2 3 q0 -1 -1 -1 q-2 0 -6 7.5 q-4 7.5 -4 11.5 ZM74 -2 q2 3 4 3 q3 0 5.5 -7 q2.5 -7 0.5 -10 q0 -4 2 -6 q1 -3 1 -5 q0 -2 -3 -4 q-3 -3 -6 -3 q-5 0 -6 7 q0 19 2 25 Z" /><glyph glyph-name="uni4EBA" unicode="&#x4eba;" d="M102 124 q3 8 6 8 q3 0 3 -5 q0 -4 -3 -10 q-3 -9 -27 -42 q-24 -33 -29 -35 q-5 0 -7 2 l-1 2 q0 3 8 11 q13 13 27 33 q14 20 23 36 ZM110 83 q0 1 1 1 q4 0 16 -6 q8 -7 15 -7 l6 -2 q7 -5 23 -10 q4 0 8 -4 q7 -5 11 -5 q7 -4 14 -10 q7 -6 7 -11 q0 -3 -7 -6 q-1 -1 -3 -1 q-3 0 -9 5 q-9 9 -13 9 q-1 1 -2.5 2 q-1.5 1 -1.5 2 q-4 3 -15 8.5 q-11 5.5 -23 12.5 q-3 2 -10 6 q-7 4 -11 7.5 q-4 3.5 -6 7.5 l0 1 Z" /><glyph glyph-name="uni4EBF" unicode="&#x4ebf;" d="M77 146 q2 2 4.5 1.5 q2.5 -0.5 4.5 -3.5 l0 -3 q0 -5 -1.5 -10 q-1.5 -5 -3.5 -8 q-2 -2 -2 -4 q0 -1 -4 -11 q-1 -1 -3.5 -4.5 q-2.5 -3.5 -0.5 -5.5 l6 -2 q9 -1 9 -10 q0 -5 -3 -13 q-1 -3 -1 -7 q0 -10 4 -10 q2 0 9 11 q7 11 7 14 l2 2 q2 0 3.5 1.5 q1.5 1.5 1.5 3.5 q1 2 2.5 2 q1.5 0 1.5 -2 q0 -4 -10 -24.5 q-10 -20.5 -15 -24.5 q0 -2 -9 -16 q-1 -2 -5 -7.5 q-4 -5.5 -7 -5.5 q-7 0 -7 4 l0 9 q5 4 8.5 22 q3.5 18 3.5 32 q0 7 -1 8 l-2 1 q-5 0 -12 -5 q-7 -5 -9 -10 q-6 -6 -10 -9 q-4 -3 -7 0 l-1 4 q0 2 3 9 q5 9 11 13 q6 4 16 18 q6 9 12 21 q6 12 5 15 l0 4 ZM146 114 q3 2 8 2 q7 0 7 -8 q0 -6 -1.5 -9.5 q-1.5 -3.5 -6.5 -10.5 q-5 -7 -5 -9 q-1 -2 -4.5 -10.5 q-3.5 -8.5 -11.5 -23.5 q-5 -10 -5.5 -12.5 q-0.5 -2.5 3.5 -5.5 q1 -3 7 -3.5 q6 -0.5 16 -0.5 q20 0 38 5 q18 5 24 11 q2 1 3.5 6 q1.5 5 1.5 9 q1 9 4 18.5 q3 9.5 4 8.5 q1 -1 1 -21 q0 -34 -3 -37 q0 -3 -6 -3 q-5 0 -17 -4 q-33 -8 -61 -8 q-3 0 -8 0.5 q-5 0.5 -9 2 q-4 1.5 -6 3.5 q-4 8 -4 13 q0 12 10 29 q11 22 11 27 q3 8 8 13 q2 2 2 4 q0 1 -8 -2 q-8 -4 -13 -4 q-3 0 -5 4.5 q-2 4.5 1 5.5 q5 1 12 4 q7 3 7 5 l6 1 Z" /><glyph glyph-name="uni4EC0" unicode="&#x4ec0;" d="M168 179 q0 4 2 4 q4 0 8 -6 q3 -2 4 -4 q1 -2 1 -7 l0 -33 q0 -7 0.5 -11 q0.5 -4 2.5 -4 q2 0 7 5 q6 3 13 3 q6 0 8 -1 q3 -1 3.5 -6 q0.5 -5 -1.5 -7 q-5 -2 -13 -4.5 q-8 -2.5 -13 -3.5 l-2 0 q-2 0 -4 -4 q-2 -4 -2 -13 q0 -8 -1 -13 q-1 -5 -1 -7 q0 -2 -1 -9 q-1 -7 -1 -19 l-4 -73 l-5 0 q-1 11 0 42 q1 31 3 73 q2 23 -3 19 q-9 -4 -24.5 -5.5 q-15.5 -1.5 -18.5 0.5 q-5 4 -15 -8 q-10 -12 -17 -31 q-5 -12 -8 -17.5 q-3 -5.5 -6 -5.5 q-7 -1 -7 8 q0 6 5 26 q1 5 1 12 q0 9 -4 16 q-3 8 -6 8 q-5 0 -10 -8 q-16 -11 -19 -3 l0 2 q0 5 16 18 q15 13 21.5 20.5 q6.5 7.5 6.5 15.5 q0 1 1 3.5 q1 2.5 2 3.5 q1 1 3 1 q5 -1 5 -7 q0 -8 -9 -22 l-6 -10 l4 -11 q1 -3 3.5 -9 q2.5 -6 2.5 -10 l2 -6 l8 8 q3 2 7.5 8 q4.5 6 7.5 9 l6 8 l9 -4 q5 -3 9 -3 q2 0 24 5 l9 2 l0 26 q0 27 -3 31 l-1 8 Z" /><glyph glyph-name="uni4EC1" unicode="&#x4ec1;" d="M69 135 q11 18 14 9 q1 -1 1 -3 q0 -2 -5 -10 q-5 -8 -8 -14 l-10 -13 l4 -11 q6 -15 6 -44 l0 -1 q2 0 10 14 q3 5 8 13 q5 8 7 8 q2 0 2 -2 q-1 -4 -5 -14 q-4 -10 -10 -24 q-4 -7 -7 -14.5 q-3 -7.5 -3 -12.5 q-2 -7 -4 -9.5 q-2 -2.5 -9 -2.5 q-1 0 -1.5 9.5 q-0.5 9.5 -0.5 32.5 q0 19 -0.5 28.5 q-0.5 9.5 -3.5 10.5 q-3 4 -4 4 q-1 0 -6 -4 q-5 -4 -9 -3.5 q-4 0.5 -4 5.5 q0 3 2.5 6.5 q2.5 3.5 5.5 4.5 q8 9 15 16.5 q7 7.5 7 8.5 q0 1 3 5 q3 4 5 7 ZM136 129 q0 10 29 -14 q2 -2 11 -7 q5 -4 5 -8 q0 -4 -3.5 -5.5 q-3.5 -1.5 -8.5 1.5 q-8 6 -20.5 19 q-12.5 13 -12.5 14 ZM197 66 q11 3 16.5 3.5 q5.5 0.5 8.5 -1.5 q5 -5 5 -7 q0 -6 -9 -9 q-3 0 -7 -2 q-4 -2 -6 -2 q-5 -5 -8 -5 q-9 0 -11 -2 q-3 0 -4 1 q-1 1 2 4 l4 6 l-10 -3 q-11 0 -17 -3 q-3 -5 -13 -5 l-16 -4 q-10 -2 -13 -2 q-15 0 -13 11 q1 1 2.5 2 q1.5 1 4.5 0 q22 0 46 8 q17 8 38 10 Z" /><glyph glyph-name="uni4EC5" unicode="&#x4ec5;" d="M74 148 q2 3 4 3 q6 0 7 -6 q0 -7 -2 -11 l-2 -6 q0 -3 -4 -7 q-5 -4 -5.5 -8 q-0.5 -4 2.5 -6 q5 -2 5 -11 q0 -4 -2 -12 q0 -6 -1.5 -15 q-1.5 -9 -1.5 -21 q0 -23 -0.5 -33 q-0.5 -10 -3.5 -11 l-3 0 q-8 0 -5 27 l2 27 q0 16 2 28 q3 8 -2 8 q-2 0 -4 -2 q0 -1 -12.5 -14 q-12.5 -13 -14.5 -13 q-2 0 -3 2 q-1 2 -1 4 q0 5 4 9 q8 8 14 16 q2 2 6 8.5 q4 6.5 5 6.5 l4 6 q1 2 3 7 q2 5 5 8 q4 8 4 10 l0 6 ZM150 130 q6 3 11 3 q6 0 10 -3 q4 -1 7 -5.5 q3 -4.5 3 -7.5 q0 -2 2 -4 q0 -19 -4 -25 q0 -2 -1 -5 q-1 -3 -1 -6 q0 -4 -4 -12 q-3 -10 -2.5 -11.5 q0.5 -1.5 6.5 -3.5 q10 -1 16.5 -4 q6.5 -3 15.5 -10 q11 -9 12 -9 l4 -6 l1 -3 q0 -4 -3 -6 q-3 -2 -8 1 q-6 2 -14 6.5 q-8 4.5 -11 7.5 q0 3 -8 8 q-8 5 -13 5 q-2 0 -5.5 -3.5 q-3.5 -3.5 -5.5 -5.5 q-3 -7 -10 -10 q-12 -6 -24.5 6.5 q-12.5 12.5 -12.5 27.5 q0 6 3 10 q11 13 25 11 q4 0 13 -9 q5 -5 7 -5 l6 9 q1 9 3.5 21.5 q2.5 12.5 2.5 16.5 q0 8 -3.5 10 q-3.5 2 -13.5 2 q-11 0 -11 4 q0 2 7 5 ZM144 58 q-7 7 -11 7 q-6 0 -11.5 -4 q-5.5 -4 -5.5 -9 q0 -9 8.5 -17 q8.5 -8 16.5 -6 q5 1 10 11 q5 10 3 10 l-10 8 Z" /><glyph glyph-name="uni4EC6" unicode="&#x4ec6;" d="M148 165 q3 1 4.5 -1 q1.5 -2 1.5 -5 q0 -1 7 -13 q3 -6 3.5 -12 q0.5 -6 0.5 -19 q0 -12 -3 -25 q0 -6 13 -9 l21 -8 q12 -4 15 -4 q2 0 4 -2 l8 -7 q4 -2 4 -8 q0 -6 -4 -9 q-4 -3 -8 1 q-2 2 -6 2 q-9 6 -13 10 q-8 9 -21 15 q-10 5 -10 2 q-2 0 -5 -29 q0 -8 -2 -24 q0 -5 -1 -10 q-1 -5 -1 -8 l0 -11 q0 -4 -4 -4 q-4 0 -4 4 q0 36 2 48 q2 7 2 49 q0 17 2 37 q0 7 -2 13 q-4 11 -5.5 18.5 q-1.5 7.5 1.5 8.5 ZM78 140 q4 0 5.5 -4 q1.5 -4 1.5 -15 q-1 -1 -3 -6.5 q-2 -5.5 -3 -8.5 q-5 -8 -5 -11 q0 -2 5 -12 q6 -6 6 -16 q0 -9 2 -9 l0 2 l6 15 q9 14 9 19 q0 4 4 4 q3 0 0 -8 q0 -4 -1 -6.5 q-1 -2.5 -1 -4.5 q-3 -1 -6 -9.5 q-3 -8.5 -3 -15.5 q0 -4 -2 -10 q-2 -4 -3.5 -10.5 q-1.5 -6.5 -4.5 -13.5 q-5 -14 -9 -18.5 q-4 -4.5 -8 0.5 q-3 3 -3 6 l3 19 q4 28 4 36 q-1 14 -5 14 q-3 0 -13 -10 q-16 -16 -19 -9 l0 2 q0 5 14 23 q6 5 14.5 21 q8.5 16 8.5 21 q0 3 -0.5 5 q-0.5 2 -3.5 2 q-4 0 0 2 q0 1 2.5 3 q2.5 2 3.5 3 l4 0 Z" /><glyph glyph-name="uni4EC7" unicode="&#x4ec7;" d="M143 161 q1 2 4 1.5 q3 -0.5 4 -3.5 q2 -4 2 -18 q0 -14 -2 -18 q0 -2 -1 -3 q-1 -1 -1 -3 q0 -2 -1.5 -4 q-1.5 -2 -1.5 -4 q0 -4 -1 -7 q-1 -3 -1 -6 q-1 -4 0 -4.5 q1 -0.5 5 0.5 l8 6 q3 3 6 3 q4 0 5.5 -5.5 q1.5 -5.5 0.5 -14.5 q0 -10 -4 -25 q-4 -20 -4 -25 q-1 -1 -1 -3 q0 -2 3 -8 q5 -3 8 -3 q16 0 32.5 6 q16.5 6 18.5 12 q4 4 4 11 l0 12 q4 8 4 19 q3 14 7 11 q2 -2 2 -8 l-2 -28 q0 -10 2 -21 q0 -4 -2 -6 q0 -6 -11 -8 q-4 -2 -11.5 -4 q-7.5 -2 -11.5 -3 q-18 -6 -25 -6 l-9 -1 q-7 0 -10.5 3 q-3.5 3 -7.5 12 q-3 5 -3 12 q0 11 7 39 q3 13 2.5 14.5 q-0.5 1.5 -6.5 -2.5 q-5 -2 -11 -10 q-10 -20 -10 -27 q0 -2 -2 -5 q-3 -4 -3 -6 q0 -6 -4 -13 q-2 -2 -4.5 -2.5 q-2.5 -0.5 -7.5 0.5 q-8 3 -13 13 q-5 12 -5 15 q0 4 3 10 q2 3 10 10 q8 7 11 7 q4 0 9.5 7 q5.5 7 7.5 12 q0 5 1 8 q1 3 1 6 q6 14 6 36 q0 5 1.5 11 q1.5 6 1.5 8 ZM69 140 q2 2 7.5 -4.5 q5.5 -6.5 5.5 -10.5 q0 -7 -7 -18.5 q-7 -11.5 -16 -20.5 q-31 -32 -36 -32 q-2 2 -4 2 q-1 1 -1 3 q0 3 5 8 q9 6 23.5 21 q14.5 15 14.5 18 l4 5 q3 1 4.5 7.5 q1.5 6.5 -0.5 8.5 q-3 3 -3 8 q0 5 3 5 ZM75 83 l0 -14 q-2 -15 -6 -32 q0 -4 -1 -10.5 q-1 -6.5 -1 -12.5 q4 -14 0 -16 l0 -3 q1 -3 -5 -2.5 q-6 0.5 -6 2.5 q-1 4 1.5 22.5 q2.5 18.5 5.5 19.5 l0 5 l0 6 q4 4 4 8 q0 7 4 15 q0 4 1 6 q1 2 1 4 l2 2 ZM126 63 q0 0 -0.5 0.5 q-0.5 0.5 -0.5 0.5 q-5 0 -12 -8 q-6 -5 -7.5 -7.5 q-1.5 -2.5 -0.5 -6.5 q2 -13 5 -13 q5 0 9 15 q1 4 3 8.5 q2 4.5 3 7.5 l1 3 Z" /><glyph glyph-name="uni4ECA" unicode="&#x4eca;" d="M130 169 q3 3 5 3 q6 0 8 -7 q0 -3 -1.5 -5.5 q-1.5 -2.5 -5.5 -6.5 q-5 -8 -5 -10 q0 -3 3 -9 l5 -9 l0 -1 q1 0 3 -3 q2 -3 3 -4 q3 -6 12 -13.5 q9 -7.5 17 -11.5 q2 -2 4 -2 q0 2 2 0.5 q2 -1.5 3 -2.5 q2 0 3 -1 q1 -1 3 -1 q9 -2 18.5 -6 q9.5 -4 10.5 -7 l0 -3 q0 -5 -6 -5 l-8 2 l-21 4 q-5 0 -5 2 q-6 7 -12 11 q-10 6 -22.5 17.5 q-12.5 11.5 -9.5 11.5 l-1 9 q-7 7 -7 10 q0 2 -6 -10 q-8 -15 -34 -51 q-8 -12 -23.5 -27 q-15.5 -15 -20.5 -15 q-3 0 -3 3 q0 7 7 8 q10 6 17 15 q12 13 32 46 q20 33 20 39 q0 2 3.5 6 q3.5 4 5.5 7 l4 10 q0 5 2 6 ZM130 82 q0 3 2 3 q5 0 11 -7 q6 -7 10 -7 q4 0 6 -4.5 q2 -4.5 0 -7.5 q0 -3 -6 -3 q-5 0 -14 10.5 q-9 10.5 -9 15.5 ZM158 50 q12 7 15.5 7.5 q3.5 0.5 6.5 -2.5 q4 -4 -2 -9 q-2 -1 -4 -2.5 q-2 -1.5 -4 -1.5 q-2 -4 -2 -11 q0 -10 -2 -14 q0 -2 -1 -5.5 q-1 -3.5 -1 -7.5 q-2 -6 -8 -14.5 q-6 -8.5 -9 -8.5 q-5 0 -5 3 q0 2 3 10 q4 8 7 18.5 q3 10.5 3 16.5 q0 3 -0.5 4.5 q-0.5 1.5 -3.5 1.5 q1 0 -23 -4 q-20 -4 -26.5 -4.5 q-6.5 -0.5 -6.5 2.5 q0 4 25 9 q8 2 18 5.5 q10 3.5 20 6.5 Z" /><glyph glyph-name="uni4ECB" unicode="&#x4ecb;" d="M107 179 q6 6 6 0 q0 -3 -6.5 -18 q-6.5 -15 -9.5 -16 q-5 -6 -7 -12 l-6 -11 l6 0 q5 0 13 4 l44 7 q37 5 39 5 q6 0 9 -5 q1 -3 1 -5 q0 -2 -1 -4 q-2 -2 -4 -2 q-5 0 -23 -12 q-4 -5 -11 -7 q-4 0 -4 -4 q0 -1 -1 -1.5 q-1 -0.5 -3 -0.5 q-4 0 -4 -3 q0 -3 4 -12 q3 -7 3 -16 q0 -14 -1 -26 q0 -15 -2 -33 l-2 -12 q-2 -16 -6 -22 l-5 0 l0 19 q5 28 5 53 q0 23 -5 37 q-4 10 -4 15 q0 6 7 6 q3 0 13.5 9 q10.5 9 9.5 10 q0 2 -4 2 q-3 0 -11 -2 q-5 -1 -12 -2 q-7 -1 -9 -2 q-5 0 -17 -4 q-6 -2 -12 -2 q-2 -2 -5 -2 q-1 -1 -2.5 -2 q-1.5 -1 -3.5 -3 q-5 0 -11 -3.5 q-6 -3.5 -6 -6.5 q0 -3 -4.5 -4 q-4.5 -1 -5.5 2 l-1 3 q0 8 9 18 l6 10 q0 1 2.5 3.5 q2.5 2.5 4.5 5.5 q-1 -3 17 29 q3 5 5.5 9.5 q2.5 4.5 4.5 7.5 ZM95 89 q0 1 2 0 q2 -1 4 -2 q3 -3 3 -12 q0 -7 -3 -16 q-3 -8 -3 -12.5 q0 -4.5 3 -4.5 q3 0 3.5 -2 q0.5 -2 0.5 -8 q0 -9 -4 -17.5 q-4 -8.5 -9 -9.5 q-9 -3 -9 8 q0 8 3 21 q9 38 9 46 q-2 1 -1 4.5 q1 3.5 1 4.5 Z" /><glyph glyph-name="uni4ECD" unicode="&#x4ecd;" d="M80 161 q0 1 1 1 q1 0 1 -1 q4 -4 4 -15 q0 -8 -3.5 -15.5 q-3.5 -7.5 -4.5 -9.5 l-8 -15 l3 -6 q5 -4 5 -15 q0 -9 2.5 -21 q2.5 -12 3.5 -12 q2 0 2 2 q-1 0 -1 1 q0 2 1 4 q1 2 2 6 l15 28 q5 16 12 30 q7 6 7 11 q2 1 2 3 l4 5 q-1 0 -1 1 q0 2 5 7 q3 7 7.5 8 q4.5 1 24.5 1 q10 0 10 -22 q0 -31 13 -31 l6 0 q0 0 0.5 0.5 q0.5 0.5 0.5 0.5 q3 0 9.5 -9 q6.5 -9 6.5 -13 q0 -6 -5.5 -28 q-5.5 -22 -9.5 -35 q-6 -12 -6 -16 q-1 -2 -3 -6.5 q-2 -4.5 -3 -4.5 q-1 -1 -4 -1 q-7 0 -15 18 q-1 7 -1 11 q0 4 3 -1 l6 -6 q1 -1 3 -1 q4 0 5 7 q5 8 9 24 q4 16 6 29 q0 11 -2.5 14.5 q-2.5 3.5 -12.5 3.5 q-18 0 -18 34 q0 12 -2.5 15.5 q-2.5 3.5 -10.5 3.5 q-8 0 -10 -1 q-2 -1 -5 -8 q-3 -2 -5 -5.5 q-2 -3.5 -3 -4.5 q-13 -27 -15 -27 q-2 -2 -2.5 -5 q-0.5 -3 -1.5 -5 q0 -9 -4 -13 q0 -2 -2.5 -8 q-2.5 -6 -3.5 -11 q-5 -15 -15 -34.5 q-10 -19.5 -12 -19.5 q-4 0 -7 6.5 q-3 6.5 0 9.5 q5 8 5 28 q0 11 -1 17 q0 9 -1 15 q-1 6 -1 7 q-2 0 -6 -4 q-4 -4 -7 -4 q-4 0 -8 4 q-1 1 -1 3 q0 -4 13 17 l14 20 q6 16 6 23 q1 4 2 9.5 q1 5.5 2 5.5 ZM143 125 q2 2 4 2 q3 0 5.5 -3 q2.5 -3 2.5 -5 q-1 0 -2 -4.5 q-1 -4.5 -2 -8.5 q-1 -24 -14 -58 q-13 -34 -19 -34 q-4 0 -5 2.5 q-1 2.5 2 5.5 q3 3 0 3 q0 2 3 2 q4 6 6 14 q1 3 8 25 q2 5 2 9 l4 12 q0 4 1.5 9.5 q1.5 5.5 1.5 7.5 q0 7 1 13 q1 6 1 8 Z" /><glyph glyph-name="uni4ECE" unicode="&#x4ece;" d="M174 57 q6 -3 19 -8.5 q13 -5.5 16 -10.5 q-1 -3 -8 -3 q-7 0 -17 3 q-10 3 -14 6 q-2 2 -10.5 5 q-8.5 3 -10.5 6 q-1 1 -7.5 -11 q-6.5 -12 -14.5 -19.5 q-8 -7.5 -19 -3.5 q-6 2 19 29 q15 19 15 20 q1 12 1.5 27.5 q0.5 15.5 -0.5 20.5 q2 11 2 24 q1 0 2 1 q1 1 2 1 q3 0 4.5 -6.5 q1.5 -6.5 1.5 -14.5 q0 -8 -1 -22 q-1 -14 -2 -16 q-4 -16 22 -28 ZM92 50 q1 -2 7 -7 q6 -5 4 -6 q-3 -6 -9 -6 q-8 0 -16 14 q-1 6 -3.5 9.5 q-2.5 3.5 -2.5 1.5 q-3 0 -9 -11 q-3 -7 -5.5 -9 q-2.5 -2 -4.5 3 q-1 1 -1 4 q0 3 3 9 q12 30 12 36 q3 1 3 4 q0 2 4 14 q2 8 4.5 10.5 q2.5 2.5 3.5 -3.5 q0 -11 -2 -19 q-1 -6 -2.5 -11.5 q-1.5 -5.5 -1.5 -8.5 q0 -3 2 -3 q2 0 8 -11 q1 -2 3 -6 q2 -4 3 -4 ZM143 117 l0 1 l0 -1 Z" /><glyph glyph-name="uni4ED3" unicode="&#x4ed3;" d="M116 171 q6 3 6 -2 q1 -2 1 -7 q0 -7 -3 -10 l-1 -4 q0 -3 12 -15 q8 -8 12.5 -10.5 q4.5 -2.5 16.5 -6.5 q18 -4 27 -8 q12 -4 19 -4 q17 -3 11 -13 q-4 -4 -30 -2 q-2 2 -10 6 q-3 4 -11.5 7.5 q-8.5 3.5 -11.5 5.5 q-14 4 -21.5 10 q-7.5 6 -12.5 15 q-6 6 -8 4 q-2 -2 -2 -4 q0 -2 -3 -5.5 q-3 -3.5 -8 -6.5 q-4 -7 -12 -15 q-1 -2 -4.5 -6 q-3.5 -4 -6.5 -9 q-1 -2 -5 -8.5 q-4 -6.5 -8 -8.5 q-1 -2 -3.5 -5 q-2.5 -3 -4.5 -7 q0 -2 -2.5 -4 q-2.5 -2 -5.5 -4 q-2 -1 -5 -1 q-2 0 -2 1 q0 2 5 10 q7 8 23 31 q5 7 11.5 15 q6.5 8 11.5 15 q23 35 23 42 q0 2 2 4 ZM129 81 q12 3 15 3 l8 -1 q6 -1 6 -9 q0 -10 -11 -35 q0 -4 -2 -7.5 q-2 -3.5 -2 -7.5 q-1 -4 -3.5 -7 q-2.5 -3 -4.5 -3 q-1 -1 -4 -1 q-3 0 -7 7 q-6 6 -8 11.5 q-2 5.5 -0.5 7 q1.5 1.5 6.5 -3.5 l4 -5 l7 7 q5 5 2 8 q0 2 2 4 q2 3 4.5 9.5 q2.5 6.5 1.5 9.5 q0 2 -3 2 q-6 0 -24 -8 l-15 -6 l0 -26 q0 -27 3 -29 q1 -4 16.5 -6 q15.5 -2 29.5 0 q9 1 18.5 3 q9.5 2 10.5 3 q1 1 5 2 q4 1 7 2 q5 0 7 2 q2 2 4 7 q0 2 0.5 5.5 q0.5 3.5 -0.5 4.5 q0 3 2.5 6.5 q2.5 3.5 3.5 2.5 q2 -9 2 -17 q1 -5 1 -12 q0 -3 -3 -11 q-3 -5 -7.5 -7 q-4.5 -2 -15.5 -2 l-19 0 q-6 -2 -30 -2 q-29 0 -37 2 q-13 8 -10 30 q2 8 2 33 q0 10 0.5 14.5 q0.5 4.5 3.5 4.5 q4 0 4 2 q1 0 2 1 q1 1 3 1 l6 2 q1 1 19 9 Z" /><glyph glyph-name="uni4ED4" unicode="&#x4ed4;" d="M138 158 q4 7 5 7 q3 0 3 -9 l0 -8 l9 4 q8 2 12 2 q9 0 15 -3 q6 -3 6 -7 q0 -3 -6 -15 q-6 -12 -10 -18 q-2 -4 -2 -5 q0 -1 4 -4 q1 -2 6 -13 q2 -6 6 -6 q3 1 5 0.5 q2 -0.5 3 -0.5 l5 0 q0 1 1 1 q1 0 3 -1 q1 0 2.5 -0.5 q1.5 -0.5 1.5 0.5 l6 -4 q0 -1 2 -4 q2 -3 0 -7 q0 -3 -3.5 -3.5 q-3.5 -0.5 -11.5 -0.5 l-14 3 l0 -15 q0 -36 -11 -53 q-7 -9 -22 -9 q-19 0 -28 12 q-6 8 -6 16 q0 8 11 32 q1 2 2.5 4 q1.5 2 1.5 4 q0 3 6.5 9 q6.5 6 9.5 6 q5 0 12 3 q7 3 7 5 q0 1 -8 11 q-8 6 -9 8.5 q-1 2.5 1 5.5 q2 4 4 6.5 q2 2.5 4 6.5 q4 4 8.5 12.5 q4.5 8.5 2.5 10.5 l-1 0 q-5 -1 -14.5 -3.5 q-9.5 -2.5 -12.5 -5.5 q-2 -1 -4 -1 q-2 0 -4 1 q-1 2 -1 7 q0 8 3 18 ZM88 155 q4 -1 4 -7 q0 -11 -15 -34 q-4 -4 -4.5 -6 q-0.5 -2 2.5 -4 q4 -1 7.5 -14 q3.5 -13 3.5 -28 q0 -4 2 -3.5 q2 0.5 4 5.5 q4 8 9.5 15.5 q5.5 7.5 7.5 7.5 q2 -2 2 -4 q0 -5 -5 -10 q-2 -2 -2 -6 q-4 -12 -10 -21 l-8 -22 q0 -3 -4 -5.5 q-4 -2.5 -9 -2.5 q-3 0 -3 8 q0 10 1 17 q2 14 2 23 q0 12 -2 20 q-2 8 -6 9 l-2 1 q-3 0 -7 -4.5 q-4 -4.5 -4 -6.5 q0 -2 -3.5 -2.5 q-3.5 -0.5 -6.5 0.5 q-3 3 -3 6 q0 6 5 9 q10 7 22.5 25.5 q12.5 18.5 14.5 28.5 q2 2 2 5 l5 0 ZM174 54 q1 3 -2 6 q-2 2 -4.5 2.5 q-2.5 0.5 -6.5 -0.5 q-8 -3 -13.5 -8 q-5.5 -5 -11.5 -15 q-7 -13 -7 -21 q0 -13 15 -14 q3 -1 8 -1 q14 0 17 20 q3 4 3 18 q2 7 2 13 Z" /><glyph glyph-name="uni4ED6" unicode="&#x4ed6;" d="M135 152 q3 3 10 0 q2 -2 3.5 -19.5 q1.5 -17.5 -0.5 -22.5 q-1 -3 -1 -4.5 q0 -1.5 1 -1.5 q-5 0 12.5 6 q17.5 6 22.5 6 q2 0 3.5 -0.5 q1.5 -0.5 1.5 -2.5 l-1 -8 q-2 -6 -21.5 -37.5 q-19.5 -31.5 -24.5 -35.5 q-3 -3 -6 0 q-3 3 -7 12 q-4 9 -4 15 q0 6 -1.5 9.5 q-1.5 3.5 -3.5 3.5 q-2 0 -3 -9 q-1 -9 -2 -14 l0 -21 l6 -2 q16 -7 30 -7 q10 0 20 3 q11 2 26 2 q3 1 13 3 q10 2 16 5 q3 1 3.5 4.5 q0.5 3.5 0.5 10.5 l0 14 l0 15 q0 11 1 14 q1 3 3 -3 q2 -8 4.5 -23.5 q2.5 -15.5 2.5 -27.5 l1 -8 q0 -9 -10 -9 q-1 -1 -7 -2 q-6 -1 -9 -1 q-36 -11 -64 -11 q-7 0 -25 2 q-8 1 -17.5 8 q-9.5 7 -9.5 12 q1 0 2 6 q1 6 1.5 15 q0.5 9 -1.5 11 q0 1 -1 1 q-1 0 -3 -1 q0 -3 -14 -10 q-12 -10 -17 -21 q-8 -17 -10.5 -21 q-2.5 -4 -6.5 -4 q-3 0 -4.5 0.5 q-1.5 0.5 -1.5 3.5 q1 2 2 11.5 q1 9.5 2 17.5 q2 12 2.5 30 q0.5 18 -0.5 18 l-13 -10 q-14 -19 -19 -8 q0 4 4.5 9.5 q4.5 5.5 17.5 17.5 q13 13 19 25 q6 11 8 11 q3 0 3 -1.5 q0 -1.5 -1 -5.5 q0 -4 -4 -12 q-7 -11 -7.5 -13.5 q-0.5 -2.5 3.5 -5.5 q0 -1 0.5 -8.5 q0.5 -7.5 -0.5 -19.5 l0 -21 l4 5 l4 6 q0 2 3.5 4 q3.5 2 8.5 4 l13 9 q0 4 4 4 q11 3 11 23 q0 9 2.5 14 q2.5 5 5.5 5 q7 0 4 -11 q-1 -1 -0.5 -4 q0.5 -3 0.5 -4 q1 -4 5 -3.5 q4 0.5 4 5.5 q1 2 2 10.5 q1 8.5 2 14.5 q4 21 2 21 l0 7 ZM166 93 q4 5 2 5 q-9 0 -17 -4.5 q-8 -4.5 -10 -9.5 q-4 -26 -2 -29 q0 -7 6 2 q8 11 11 19 q3 5 5.5 9.5 q2.5 4.5 4.5 7.5 Z" /><glyph glyph-name="uni4ED8" unicode="&#x4ed8;" d="M187 162 q1 2 6 2 q3 0 6 -1.5 q3 -1.5 3 -2.5 q0 -4 3 -8 q1 -2 1.5 -6.5 q0.5 -4.5 2.5 -8.5 q0 -8 1.5 -10.5 q1.5 -2.5 4.5 -4.5 l6 0 q4 0 4 -3 q0 -5 -6 -9 q-4 -2 -5.5 -6.5 q-1.5 -4.5 -1.5 -17.5 q0 -21 1 -39 l1 -17 q0 -13 -2.5 -20 q-2.5 -7 -9.5 -13 q-7 -9 -14 -9 q-4 0 -15 7 q-6 3 -9 6.5 q-3 3.5 -4 6 q-1 2.5 -2 3.5 q-9 20 -9 43 q0 15 5 20 q5 6 11 6 q12 0 21 -14 q9 -19 0 -19 q-10 0 -17 14 q-2 4 -5 4.5 q-3 0.5 -6 -4.5 q-4 -3 -4 -11 q0 -13 8 -28 q4 -12 17 -21 q3 -2 7 -1 q4 1 4 3 q0 2 2 2 q8 0 8 42 l0 44 l0 17 l-6 0 q-5 -3 -13.5 -5 q-8.5 -2 -11.5 -4 q0 -2 -4 -2 q-2 0 -28 -10 q-10 -5 -16 -5 q-2 1 -5 1 q-3 0 -4.5 -2 q-1.5 -2 -3.5 -5 l-8 -21 q-2 -6 -4.5 -9.5 q-2.5 -3.5 -2.5 -4.5 q-3 0 -8 -11.5 q-5 -11.5 -6 -14.5 q-1 -5 -2.5 -7.5 q-1.5 -2.5 -4.5 -2.5 q-6 0 -8 2 l4 27 q7 23 4 29 l0 13 q0 13 -10 13 q-7 -7 -13 -9 q-8 -8 -11 -8 q-4 0 -4 4 q0 3 3.5 8 q3.5 5 9.5 9 q19 15 26.5 25.5 q7.5 10.5 7.5 22.5 q0 7 2.5 9 q2.5 2 3.5 -5 q3 -9 3 -16 q0 -7 -3 -13 q-2 -4 -4.5 -6.5 q-2.5 -2.5 -3.5 -4.5 q-1 -1 -1 -3 q0 -2 3 -11 l4 -17 q-1 -2 -1 -8 q0 -5 1 -8.5 q1 -3.5 2 -4.5 q4 0 4 6 l4 7 q3 2 3 4 q1 2 2 5 q1 3 2 3 q1 2 3.5 6.5 q2.5 4.5 4.5 6.5 q5 9 7.5 11 q2.5 2 7.5 -1 q3 -3 5 -3 q3 0 10 3 l19 6 q19 8 28 9 q7 2 8 3 q1 1 -1 5 q-2 2 -2 15 q0 13 -2 13 q-3 2 -3 10 Z" /><glyph glyph-name="uni4ED9" unicode="&#x4ed9;" d="M158 152 q0 3 2.5 2 q2.5 -1 5.5 -4 q3 -3 3.5 -13.5 q0.5 -10.5 0.5 -34.5 q0 -21 1 -34 q1 -13 1 -14 q3 -1 18.5 0.5 q15.5 1.5 17.5 3.5 q2 0 2 10 q1 4 2.5 12 q1.5 8 3 10 q1.5 2 4.5 2 q4 0 6.5 -6.5 q2.5 -6.5 2.5 -14.5 q0 -9 2 -11 q0 -2 1 -8 q1 -6 1 -17 l2 -21 l-6 -2 q-7 0 -7 2 q-1 1 -3 10.5 q-2 9.5 -3 14.5 q0 3 -8 3 q-10 0 -19 -1 q-3 -1 -10.5 -2 q-7.5 -1 -10.5 -4 q-4 -4 -9 -4 q-3 0 -25 -8 q-11 -6 -16 -7.5 q-5 -1.5 -9 0.5 q-3 2 -4 5.5 q-1 3.5 2 5.5 q0 4 5 14 q0 2 2 7.5 q2 5.5 4 5.5 q2 0 2 2 l0 1 q0 4 4.5 13.5 q4.5 9.5 8.5 12.5 q1 3 3.5 5 q2.5 2 4.5 2 q3 0 6 -5 q3 -5 2 -8 q0 -2 2 -2 l4 -8 q0 -3 1.5 -6 q1.5 -3 2.5 -3 q1 -1 1 22 l-1 68 q-1 0 -1 4 ZM82 142 q0 5 0.5 6.5 q0.5 1.5 4.5 1.5 q8 0 8 -14 q0 -8 -8 -21 q-5 -5 -8.5 -10.5 q-3.5 -5.5 -4.5 -6.5 q0 -2 -1 -3.5 q-1 -1.5 -3 -1.5 q0 -1 2 -3 q3 -2 6.5 -10 q3.5 -8 3.5 -12 q0 -5 1.5 -9 q1.5 -4 3.5 -3 l3 12 q3 7 5.5 9.5 q2.5 2.5 3.5 -0.5 l1 -3 q0 -5 -1.5 -11 q-1.5 -6 -3.5 -9 q-1 -2 -2 -5.5 q-1 -3.5 -3 -7.5 l-1 -10 q-1 -2 -2 -5 q-1 -3 -3 -6 q-4 -18 -10 -21 q-6 0 -6 13 q5 32 5 43 q0 12 -3 18 q0 4 -5 6 q-1 0 -10 -9 q-9 -9 -17 -16 q-4 -8 -9.5 -10 q-5.5 -2 -7.5 2 q0 3 7 12 q7 9 17 19 q17 19 33 44 q4 7 5 10.5 q1 3.5 -1 10.5 ZM149 58 q-1 3 -3 9.5 q-2 6.5 -3 7.5 q-1 1 -2.5 0.5 q-1.5 -0.5 -3.5 -2.5 q-6 -11 -9 -21 q-4 -10 -4.5 -13.5 q-0.5 -3.5 2.5 -3.5 l2 -1 q3 0 5 1 q2 1 4 2 q2 0 3 1 q1 1 3 1 q9 0 6 19 Z" /><glyph glyph-name="uni4EE3" unicode="&#x4ee3;" d="M194 172 q0 2 2 4 q2 0 17 -16.5 q15 -16.5 15 -19.5 q0 -4 -5 -4 q-6 0 -10 4 q-4 4 -6 8 q0 5 -2 5 q-2 0 -6.5 7.5 q-4.5 7.5 -4.5 11.5 ZM123 159 q2 5 5 5 q3 0 5.5 -4.5 q2.5 -4.5 3.5 -11.5 q0 -2 1.5 -5 q1.5 -3 1.5 -5 q3 -4 9 -7 q6 -3 12 -3 q6 0 6 -5 q0 -10 -11 -10 q-4 0 -5 -2 q-1 -2 1 -8 q0 -11 2 -11 q0 -1 9 -19 q2 -6 5.5 -11.5 q3.5 -5.5 4.5 -7.5 q2 0 2 -4 q3 -6 10.5 -18 q7.5 -12 14.5 -20 q8 -8 9 -10 q3 -6 8 -6 q2 0 2.5 -7 q0.5 -7 -0.5 -8 l-2 -1 q-4 0 -12 11 q-5 9 -7 9 q-2 0 -2 2 q0 2 -4 6 q-3 1 -6.5 5.5 q-3.5 4.5 -6.5 7.5 l-8 13 q-3 3 -13.5 23.5 q-10.5 20.5 -13.5 32.5 q-2 6 -7 13 q-3 1 -19 -8.5 q-16 -9.5 -22 -15.5 q-1 -1 -7 -7 q-6 -6 -8 -12 q-6 -12 -10 -18 q-1 -4 -4 -8.5 q-3 -4.5 -3 -6.5 q0 -3 -2 -5.5 q-2 -2.5 -4 -2.5 q-3 0 -5 5 q-2 5 1 10 q3 8 6 39 q0 17 -2 21 q-1 1 -3 3.5 q-2 2.5 -3 2.5 q-5 -4 -8 -8 q-7 -6 -13 -6 q-2 2 -2 6 q0 7 8 12 l13 17 q6 11 8 11 q2 3 3.5 6.5 q1.5 3.5 2.5 5.5 q4 8 5.5 9 q1.5 1 5.5 -2 q2 -4 2 -7 q0 -3 -8 -19 l-9 -10 l6 -11 q6 -10 6 -25 l-1 -12 l4 6 q2 2 3 5 q1 3 1 6 q0 4 2 6 q2 0 6 1.5 q4 1.5 7 4.5 l12 8 q3 0 15 6.5 q12 6.5 12 8.5 q0 4 -2 9 q-4 8 -4 12 q-2 6 -4 8 l0 11 Z" /><glyph glyph-name="uni4EE4" unicode="&#x4ee4;" d="M111 170 q3 0 8 -6.5 q5 -6.5 5 -9.5 q0 -6 -2 -8 q-3 -3 -3 -5 q0 -2 3 -5 q5 -5 20 -15 q15 -10 24 -15 q6 0 10 -2 q5 0 8 -1 q3 -1 5 -1 q4 -2 8 -2 q10 -2 13 -8 q0 -4 -2 -4 q-2 -2 -10 -2 q-13 0 -17 4 l-7 0 q-8 0 -10 4 l-19 12 q-13 9 -21 19 q-11 13 -11 9 q-1 -1 -2.5 -3.5 q-1.5 -2.5 -3.5 -5.5 q-9 -17 -15 -25 q-6 -8 -8 -10 q-7 -12 -12 -17 q-7 -8 -14 -15.5 q-7 -7.5 -9 -7.5 q-4 2 -4 3 q0 3 12 18 q9 6 13 14 q0 3 4 7 l6 10 q5 10 8 13 q3 2 7 10 l2 7 q3 0 8 9 q5 9 5 18 l0 10 l1 1 ZM105 100 q0 3 3 3 q3 0 5 -3 q4 -5 16 -12 q9 -7 9 -11 q0 -4 7 -4 q9 3 11 3 q2 0 4 -5 q1 -1 1 -4 q0 -5 -6 -15 q-3 -5 -5.5 -9.5 q-2.5 -4.5 -2.5 -7.5 q0 -2 -2 -2 q-2 -2 -2 -4 q0 -3 -3 -6 q-3 -3 -5 -3 q-2 3 -0.5 0.5 q1.5 -2.5 3.5 -4.5 l9 -6 q2 2 2 -2 q0 -1 1 -2 q1 -1 1 -2 q4 0 4 -9 q0 -10 -4 -10 q-3 0 -5 1 q-2 1 -3 5 q-2 4 -4.5 6.5 q-2.5 2.5 -3.5 4.5 q-8 7 -13.5 15.5 q-5.5 8.5 -5.5 11.5 q0 5 8 0 q6 -2 6 0 q2 2 2 4 q0 1 6 15 l5 10 q0 0 -0.5 0.5 q-0.5 0.5 -0.5 0.5 q-2 0 -6.5 -1.5 q-4.5 -1.5 -11.5 -3.5 q-30 -12 -33 -6 q-1 1 -1 3 q0 4 11 7 q11 1 18 4.5 q7 3.5 7 6.5 l-4 6 q-5 6 -11 14 q-6 8 -6 11 Z" /><glyph glyph-name="uni4EE5" unicode="&#x4ee5;" d="M149 131 q4 0 7 -4 q1 -5 1 -30 l0 -27 l5 -2 q1 0 5.5 -2 q4.5 -2 13.5 0 q13 3 19 0 q3 -2 5 -6 q2 -4 1 -9 q-4 -3 -12.5 -7.5 q-8.5 -4.5 -15.5 -6.5 q-2 0 -3 -1 q-1 -1 -3 -1 q-3 -4 -8 -5 q-5 -1 -15 -2 q-4 0 -7 -1 q-3 -1 -5 -1 q-3 -3 -4.5 -3 q-1.5 0 -1.5 3 q0 4 6 4 q13 9 19 9 l18 8 q9 4 10 6 q1 2 -6 0 q-16 -1 -24.5 5 q-8.5 6 -8.5 19 q0 2 1 10 q1 8 1 21 q0 21 2 23 ZM91 102 l4 -13 q5 -12 8 -12 l1 0 q3 0 3 -13 q-3 -13 -12 -6 q-3 3 -6.5 19.5 q-3.5 16.5 -1.5 19.5 l4 5 ZM55 80 q0 15 4 15 q2 0 2 -8 q0 -7 7 -10 l6 -7 l-2 -12 q-1 -2 -2.5 -6.5 q-1.5 -4.5 -3 -5.5 q-1.5 -1 -3.5 -1 q-6 0 -6 10 q0 5 -2 11 l0 14 Z" /><glyph glyph-name="uni4EEA" unicode="&#x4eea;" d="M120 141 q0 2 2 4 q2 0 8 -7.5 q6 -7.5 6 -9.5 l9 -8 q7 -7 9 -12 q2 -5 -3 -5 q-15 0 -15 7 q-1 2 -2.5 4 q-1.5 2 -1.5 4 q-3 1 -7.5 10.5 q-4.5 9.5 -4.5 12.5 ZM78 139 q6 6 6 2 l-4 -21 q-3 -16 -3 -21 q0 -6 1 -10 q2 -7 2 -19 q-1 -5 -1 -6.5 q0 -1.5 3 -0.5 q4 2 5.5 0.5 q1.5 -1.5 -1.5 -4.5 q-8 -16 -8 -23 l-4 -17 q-4 -12 -6 -12 q-2 0 -4 1 q-2 1 -3 1 q-1 0 -1 8 q0 10 1 15 l7 34 q2 7 2 14 q0 7 -2 7 l-11 -9 q-15 -15 -19 -8 l0 1 q0 4 7 14 q7 10 10 10 q3 0 8.5 9.5 q5.5 9.5 10.5 21.5 l4 13 ZM159 128 q0 5 3 5 q4 0 8 -5 q3 -3 3 -11 q0 -13 -7 -30 l-8 -17 l6 -2 q6 0 19 -15 q11 -11 14 -11 l1 0 q4 0 12 -8.5 q8 -8.5 6 -11.5 q0 -6 -3 -6 q-3 0 -11 6 q-4 3 -7.5 5 q-3.5 2 -5.5 3 l-13 12 q-11 15 -17 15 q-4 1 -6.5 1 q-2.5 0 -3.5 -3 l-6 -8 l-4 -5 q-3 -4 -7 -6 q-6 -3 -17 -3 q-12 0 -12 3 q0 4 -2 4 q-6 11 -6 15 q0 2 1 2 q1 0 7 -8 q3 -5 5 -6 q2 -1 7 -1 q6 0 15 9 q9 9 9 10 q-34 13 -38 13 q-4 0 -4 4 q0 6 8 6 q6 0 6 -2 q6 -4 28 -8 l8 -2 l6 15 q7 12 9.5 22 q2.5 10 -0.5 13 q0 2 -1.5 3 q-1.5 1 -1.5 3 Z" /><glyph glyph-name="uni4EEC" unicode="&#x4eec;" d="M136 145 q2 4 3 4 q2 0 8 -12 q6 -10 6 -17 q0 -6 -6 -6 q-4 0 -9 13.5 q-5 13.5 -2 17.5 ZM199 143 q6 4 12 6 q2 0 4.5 -2.5 q2.5 -2.5 4.5 -3.5 l6 -6 l0 -38 q1 -33 1 -69 q0 -25 -3 -27 q-2 -2 -8 -2 q-2 0 -4 1 q-2 1 -5 1 q-3 2 -7.5 8.5 q-4.5 6.5 -4.5 10.5 q0 5 3.5 5.5 q3.5 0.5 4.5 -3.5 q0 -2 2 -5 l6 -1 q2 -1 3 3.5 q1 4.5 1 15.5 q0 30 -1 58 q-3 19 -3 36 l-14 0 q-9 0 -13 0.5 q-4 0.5 -4 3.5 q0 4 19 8 ZM69 135 q2 0 2 -5 q0 -6 -4 -18 l-4 -11 l6 -8 q1 -2 4 -8.5 q3 -6.5 3 -14.5 q0 -1 1 -1 q1 0 1 1 l4 8 q2 2 4 2 q2 0 2 -4 q0 -7 -2 -13 l-4 -14 q-2 -7 -11 -30 q-3 -4 -7.5 -4.5 q-4.5 -0.5 -4.5 3.5 q-1 0 -1 2 q0 0 3 12 q4 13 2 13 l0 4 q2 2 2 14 q0 13 -2 13 q0 2 -1 3 q-1 1 -1 3 q0 5 -2 5 l-1 0 q-4 0 -18 -17 q-3 -6 -7 -6.5 q-4 -0.5 -6 4.5 l-1 2 q0 3 18 21 q5 5 15 25 l10 19 ZM105 112 q2 2 4 0 q7 0 7 -30 q0 -31 -2.5 -41.5 q-2.5 -10.5 -6.5 -10.5 q-4 0 -5 5.5 q-1 5.5 -1 13.5 q2 6 2 38 q0 11 2 25 Z" /><glyph glyph-name="uni4EF0" unicode="&#x4ef0;" d="M59 168 q7 10 11 10 q1 -2 1 -6 q0 -6 -5.5 -17 q-5.5 -11 -10.5 -17 q-3 -3 -3 -5 q0 -4 5 -7 q2 -3 4.5 -8.5 q2.5 -5.5 3.5 -8.5 q3 -2 3 -6 q0 -6 6 2 q0 3 3 4 q3 1 3 -2 l1 -4 q0 -5 -1.5 -10.5 q-1.5 -5.5 -3.5 -8.5 q-1 0 -3 -4 q-2 -4 -3 -8 q-5 -9 -9 -14 q-4 -5 -8 -5 q-1 0 -7 4 q0 15 3 21 q6 19 4 23 q-2 7 -5.5 14 q-3.5 7 -5.5 7 q-2 0 -8 -7 q-8 -7 -14 -7 q-4 0 -4 3 q0 5 10 15 q4 3 8.5 6.5 q4.5 3.5 5.5 3.5 q12 16 19 32 ZM103 63 q-2 5 0.5 37 q2.5 32 5.5 38 q1 2 1 5 q0 2 -3 8 q-3 4 -3.5 6.5 q-0.5 2.5 1.5 6.5 l0 6 l9 -9 q5 -8 10 -8 l4 1 q4 0 7.5 -2.5 q3.5 -2.5 3.5 -4.5 q0 -3 -4 -6 q-4 -3 -7 -3 q0 2 -1.5 0.5 q-1.5 -1.5 -2.5 -2.5 q-2 -2 -2 -4 q1 0 0.5 -2 q-0.5 -2 -2.5 -4 q-5 -10 -5 -19 q0 -13 -1 -17 q0 -6 1 -6 q3 2 5 2 q1 0 6 7 q5 7 13 16 q23 33 48 42 q4 3 9 3.5 q5 0.5 12 0.5 l21 -4 q6 -3 9.5 -8 q3.5 -5 0.5 -7 q-2 -2 -2 -8 q0 -3 -8 -14 q-8 -11 -17 -20 q-9 -6 -13 -6 q-3 1 -4.5 0 q-1.5 -1 -2.5 -9.5 q-1 -8.5 -3 -23.5 q0 -13 -2 -21 l-2 -24 q0 -7 -2 -25 l0 -10 l-7 0 l0 17 q2 11 2 54 q2 34 2 76 l-2 12 l-8 -4 q-15 -11 -25 -31 q-4 -9 -18 -23.5 q-14 -14.5 -18 -14.5 q-4 0 -6 2 ZM201 145 q-6 0 -8 -4 q-2 -4 -2 -17 q3 -16 6 -19 q2 -2 4 -2 q1 0 9 8 q17 22 15 27 l-11 5 l-13 2 Z" /><glyph glyph-name="uni4EF2" unicode="&#x4ef2;" d="M163 182 q2 3 3 3 q3 0 8 -8 q0 -3 2.5 -6.5 q2.5 -3.5 3.5 -5.5 q2 -2 2 -19 q0 -8 1 -11.5 q1 -3.5 3 -1.5 q4 1 11 1 q18 0 25 -7 q3 -3 3 -5 q0 -4 -18 -12 q-5 -4 -7 -6 q-2 -2 1 -2 q5 -1 5 -6 q0 -4 -3.5 -7.5 q-3.5 -3.5 -9.5 -3.5 q-6 0 -8 -2.5 q-2 -2.5 -2.5 -14 q-0.5 -11.5 -0.5 -31.5 l0 -54 q0 -11 -2 -13 q-2 0 -2 2 q0 4 -2 8 q-2 23 -2 63 q0 36 -5 36 q-6 -5 -14 -7 q-7 -4 -10.5 -5 q-3.5 -1 -6.5 1 q-2 2 -10 2 q-7 1 -10 7 q-3 6 -5 18 q-1 5 -2 11 q-1 6 -2 6 q0 3 -10 -20.5 q-10 -23.5 -13 -33.5 q0 -2 -2 -4 q-2 0 -3.5 -3 q-1.5 -3 -1.5 -6 q-2 -8 -5.5 -12 q-3.5 -4 -6.5 -3 q-4 6 -4 19 q0 21 -3 23 q-2 5 -2 11 q0 5 -4 8 q-1 3 -2 3 q0 0 -6 -7 q-4 -4 -6.5 -5 q-2.5 -1 -6.5 1 q-4 3 -1 8 q3 5 25 30 q3 2 7 7.5 q4 5.5 5 11.5 q6 10 11.5 16 q5.5 6 7.5 4 q3 0 3.5 -4 q0.5 -4 -1.5 -4 l-6 -11 q-3 -4 -7 -10.5 q-4 -6.5 -8 -9.5 q-4 -7 -5 -10 q-1 -3 1 -5 q0 -1 0.5 -3.5 q0.5 -2.5 -0.5 -2.5 q0 -1 1 -3.5 q1 -2.5 1 -5.5 q4 -4 4 -8 q0 -4 2 -9 q2 -5 4 -6 q2 2 2 6 q17 38 28 51 q6 8 10 8 q3 -2 4.5 -5.5 q1.5 -3.5 1.5 -13.5 q0 -21 3 -23 q1 -2 2 -1.5 q1 0.5 2 3.5 q1 3 2 6.5 q1 3.5 2 6.5 q1 4 6.5 8 q5.5 4 18.5 9 l13 4 l0 10 l0 13 l0 0 q0 2 -1.5 3 q-1.5 1 -1.5 3 q-3 6 -5 13.5 q-2 7.5 -1 12.5 ZM201 119 q0 2 -13 2 q-2 0 -4 -2 q0 -5 -2 -7 q0 -1 1 -1.5 q1 -0.5 3 -0.5 l15 9 ZM174 110 q0 4 -4 4 q-3 0 -15 -6 q-9 -4 -13 -13 q0 -6 -2 -8 q0 -2 1 -2 q2 0 14 6 q9 6 14 10.5 q5 4.5 5 8.5 Z" /><glyph glyph-name="uni4EF6" unicode="&#x4ef6;" d="M139 185 q2 6 4 6 q4 0 8 -10 l6 -15 q3 -3 0 -10 l0 -13 l0 -8 l7 4 q2 0 5.5 0.5 q3.5 0.5 4.5 -0.5 q6 0 6 -4 q0 -5 -6 -11 q-3 -2 -6 -4 q-3 -2 -6 -4 q-4 -5 -4.5 -9 q-0.5 -4 -0.5 -14 l0 -17 l7 0 q4 2 12 2 q5 0 9 4 q4 5 6 3 l13 0 q10 0 16.5 -3 q6.5 -3 6.5 -8 q0 -9 -13 -6 q-6 2 -16 2 q-27 0 -34 -7 l-7 -2 l-1 -39 q0 -26 0 -40 q0 -14 -1 -18 q-1 -4 -4 -5 l-2 0 q-3 0 -3.5 6.5 q-0.5 6.5 -0.5 22.5 q0 6 1 17 q1 11 1 25 q0 30 -2 30 q-1 1 -3 0 q-2 -1 -5 -3 q-3 0 -5 -1 q-2 -1 -4 -1 q-15 -4 -23 -8 q-11 -4 -14 2 q-4 6 2 8 q5 7 19 23 q8 11 22 25 l7 7 l-7 -4 q-12 -7 -16 -3 q-5 8 -5 13 q-4 10 -6 10 q-2 0 -12 -20 q-3 -5 -7 -14 q-4 -9 -4 -14 q0 -5 -4 -19 l-8 -29 q-2 -3 -4.5 -9 q-2.5 -6 -4.5 -7 q-2 0 -5 2.5 q-3 2.5 -3 5.5 q1 0 1.5 9 q0.5 9 0.5 22 q0 18 -2 23 q-1 16 -6 16 q-2 0 -7 -5 q-3 -3 -7.5 -3 q-4.5 0 -4.5 3 l0 2 q0 3 4 9 q4 6 8 8 q7 1 12 9 q5 8 7 18 q3 12 7 12 q3 0 3 -2 l-2 -8 q0 -14 -6 -21 q-6 -11 -2 -15 q5 -11 7 -21 q1 -6 2.5 -11 q1.5 -5 1.5 -3 l0 4 q0 2 2 4 q0 2 2 7.5 q2 5.5 4 13.5 q5 13 10 22 q5 9 13 20 q4 7 7 8.5 q3 1.5 6 -0.5 l4 -4 l0 -2 q0 -4 2 -10 q2 -6 4 -9 q1 0 11 4 l8 5 l0 16 q0 12 -1 22 q-1 10 -3 10 q-2 0 -2 8 ZM147 89 q0 9 -2 9 q-3 0 -21 -22 l-11 -13 q5 0 18 5 q13 5 14 8 q2 0 2 13 Z" /><glyph glyph-name="uni4EF7" unicode="&#x4ef7;" d="M142 176 q0 5 2.5 6.5 q2.5 1.5 3.5 -4.5 q2 -4 2 -7 q0 -5 -12 -26 l-4 -11 q13 2 29 9 q6 0 11 2 l12 0 q4 2 21 2 q9 1 13.5 1 q4.5 0 5.5 -3 q1 -2 1 -6 q0 -4 -5 -6.5 q-5 -2.5 -19 -4.5 q-4 -1 -10 -2.5 q-6 -1.5 -11 -3.5 q-6 -3 -6.5 -4.5 q-0.5 -1.5 0.5 -8.5 q0 -8 4 -12 q2 -5 2 -51 q0 -77 -6 -77 q-5 0 -5 61 q0 29 -0.5 46.5 q-0.5 17.5 -2.5 21.5 q-2 4 -7 3 q-2 0 -2 0 q-2 0 -2 3 l2 9 q4 9 6 9 q4 0 6 2 q0 2 2.5 4 q2.5 2 4.5 2 q4 2 4 2 q0 1 -17 -2.5 q-17 -3.5 -29 -7.5 l-11 -4 l-8 -5 q-4 -3 -9.5 -3 q-5.5 0 -5.5 3 q0 5 7 11 q9 9 17 18.5 q8 9.5 10 14.5 q0 5 2 6 q4 6 4 13 ZM69 149 q-1 3 2 2 q3 -1 4 -4 q1 -1 1 -5 q0 -7 -7 -18 l-6 -9 l4 -4 q6 -6 8 -21 q1 -4 1.5 -11.5 q0.5 -7.5 2.5 -5.5 l9 19 q-2 0 -0.5 2 q1.5 2 2.5 3 q3 4 5 4 q2 0 2 -3 q0 -4 -3 -10 l-2 -6 q0 -2 -2 -4 q-2 -2 -2 -5 q-2 -9 -13 -35 q-2 -4 -2 -11 q0 -3 -3.5 -4.5 q-3.5 -1.5 -6.5 0.5 q-8 0 -5 7 q7 29 7 46 q-1 25 -9 25 q-4 0 -10 -7 q-8 -8 -12 -9.5 q-4 -1.5 -7 1.5 q-1 1 -1 3 q0 2 9 14 q14 14 24 27.5 q10 13.5 10 18.5 ZM136 109 q4 0 8 -2 q2 -2 4.5 -13.5 q2.5 -11.5 2.5 -17.5 q0 -2 -1.5 -9.5 q-1.5 -7.5 -1.5 -14.5 q-1 -13 -2 -19 q-1 -6 -4 -6 q-2 0 -3.5 1.5 q-1.5 1.5 -2.5 1.5 l0 79 Z" /><glyph glyph-name="uni4EFB" unicode="&#x4efb;" d="M161 155 q1 2 2.5 6 q1.5 4 2.5 4.5 q1 0.5 3 -0.5 q4 -1 4 -5 q0 -4 -4 -12 q0 -5 -7 -14 q-7 -9 -10 -9 l0 -1 q0 -5 5 -13 q8 -14 8 -19 q0 -2 1 -4 q1 -2 1 -5 q2 -2 2 -4 q0 -2 8 -2 q8 1 12.5 -3 q4.5 -4 4.5 -10 q0 -8 -10 -20 q-9 -9 -9 -20 q0 -6 5 -7 q2 0 8 3 q2 3 16 3 q10 0 11 -3 q4 -2 4 -7 q0 -5 -4 -5 q-6 0 -12 -2 q-13 0 -25 -1.5 q-12 -1.5 -13 -2.5 q-4 0 -6 -2 q-4 0 -11 -2 q-2 -4 -12 -6 q-7 0 -8 0.5 q-1 0.5 -1 5.5 q0 5 1.5 6.5 q1.5 1.5 5.5 3.5 q8 4 8 6 q2 6 -27 42 q-3 3 -3 8.5 q0 5.5 3 6.5 q8 2 17 2 q14 0 19.5 0.5 q5.5 0.5 5.5 2.5 q0 11 -6 22 q-5 11 -9 15.5 q-4 4.5 -6 1.5 l-6 -2 q-5 0 -5 4 q0 3 5 6 q25 15 31 32 ZM67 115 q3 4 7 9.5 q4 5.5 5 5.5 q1 0 1 -2 q0 -6 -7 -17 l-6 -13 l6 -4 q6 -6 6 -8 q0 -5 2 -5 l0 -10 q0 -11 2 -11 q3 5 3 9 q3 7 6 4 l0 -4 q0 -1 -1 -3 q-1 -2 -1 -4 q0 -1 -1 -4.5 q-1 -3.5 -1 -9.5 q-4 -8 -5.5 -19 q-1.5 -11 -1.5 -15 q-1 -15 -5 -21 q-4 -6 -9 -1 q-1 0 -1 4 q0 6 1 10 q2 4 2 29 q2 11 2 27 q0 6 -2 13.5 q-2 7.5 -4 7.5 q-2 0 -8 -4 q-6 -4 -9 -8 q-6 -3 -9 -3.5 q-3 -0.5 -4 3.5 q0 4 15 21 q6 3 6 6 l0 2 q1 0 4.5 5.5 q3.5 5.5 6.5 9.5 ZM182 62 q0 3 -5 3 q-1 0 -1 -9 l0 -6 l1 4 q5 4 5 8 ZM161 48 q0 7 -0.5 11 q-0.5 4 -3.5 4 q-3 0 -11 -3 q-2 0 -6.5 -0.5 q-4.5 -0.5 -7.5 0.5 q-7 0 -7 -2 q0 -3 13.5 -18 q13.5 -15 16.5 -15 q2 0 4 7 q2 7 2 16 Z" /><glyph glyph-name="uni4EFD" unicode="&#x4efd;" d="M77 165 q0 3 2.5 4 q2.5 1 3.5 -2 l1 -3 q0 -6 -3 -13 q-3 -7 -7 -11 q-2 -3 -2 -9 l-2 -2 q-1 0 -2 -1.5 q-1 -1.5 -2 -2.5 q0 -6 4 -8 q6 -8 9 -38 q0 -6 7 7 q7 13 9 20 q0 1 2.5 6 q2.5 5 6.5 5 q3 0 3 -3 q0 -2 -5 -14 q-7 -12 -7 -17 q0 -2 -4 -6 q0 -3 -2 -6.5 q-2 -3.5 -2 -6.5 q-4 -6 -10 -25 q-3 -4 -3 -10 q0 -7 -4 -11 q-2 -5 -8 -2 q-4 4 -2 13 l2 16 q0 3 1 6 q1 3 1 7 q1 5 1 23 q0 26 -3 27 q0 3 -11 -6 l-10 -7 q-3 0 -6 -6 q-4 -3 -5.5 -3 q-1.5 0 -3.5 3 q-2 2 -2 3 q0 3 15 18 q15 13 15 15 q0 4 2 4 q5 3 13 17 q8 14 8 19 ZM144 156 q5 11 10 11 q4 0 2 -9 q-2 -2 -2 -6 q0 -3 -4 -10.5 q-4 -7.5 -6 -10.5 l-5 -6 q-1 -4 -0.5 -5 q0.5 -1 5.5 -1 q2 -1 5.5 -2 q3.5 -1 4.5 -3 q3 -3 3 -11 q0 -6 -3 -14 q-3 -8 -2.5 -9.5 q0.5 -1.5 4.5 -0.5 q4 0 9 -6 q5 -6 5 -13 q0 -12 3 -19 q2 -10 2 -11 q0 -6 -3.5 -9.5 q-3.5 -3.5 -13.5 -8.5 q-17 -8 -31 -19 q-18 -10 -21 -10 q-4 0 -4 2 q0 2 6 8 q9 4 12 9 q5 3 7 3 q2 0 4 3 q1 3 8 6.5 q7 3.5 13 7.5 q3 2 6.5 5 q3.5 3 3.5 4 q0 8 -1 14 q-3 7 -3 15 q0 6 -5 6 q-8 0 -16 -10 q-1 -1 -3 -3 q-2 -2 -3.5 -2 q-1.5 0 -3.5 1 q-4 1 -4 4 q0 3 4 10.5 q4 7.5 6 10.5 q8 12 11 20.5 q3 8.5 -2 8.5 q-6 0 -15 -11 q-3 -4 -7 -7 q-4 -3 -6 -3 q-2 2 -2 4 l-1 3 q0 4 9 20 q17 27 24 44 ZM192 148 q1 0 3 -2 q2 -2 7 -6 q11 -11 15 -13 q1 -1 3.5 -3 q2.5 -2 2.5 -3 q0 -2 2 -4 q6 -9 6 -9 q3 -7 0 -10 q-3 -4 -5.5 -3.5 q-2.5 0.5 -2.5 5.5 l-6 6 l-4 8 q-5 5 -7 9 q-6 6 -10 13 q-4 7 -4 10 l0 2 Z" /><glyph glyph-name="uni4F01" unicode="&#x4f01;" d="M101 148 q0 2 1.5 1.5 q1.5 -0.5 2.5 -1.5 l8 0 q8 0 5 -13 q-3 -4 -11.5 -16 q-8.5 -12 -14.5 -17 q-4 -8 -4 -9 q0 -1 -18 -19 q-18 -18 -20 -18 q-2 0 -6 4 q-3 2 -2.5 3 q0.5 1 2.5 3 q23 17 29 25 q3 3 6.5 8 q3.5 5 4.5 7 l8 10 q3 9 9 13 q3 3 3 8 q0 4 -3 7 l0 4 ZM110 120 l1 0 l17 -4 q6 -3 16.5 -5 q10.5 -2 14.5 -3 q37 -8 34 -21 q-1 -4 -8 -4 q-7 0 -11 4 q-3 3 -13 8 q-2 0 -6 3 q0 2 -2 2 q-2 -2 -16.5 3 q-14.5 5 -18.5 9 q-2 0 -4.5 2.5 q-2.5 2.5 -2.5 4.5 l-1 1 ZM115 89 q0 2 3 2 q2 0 4.5 -6.5 q2.5 -6.5 3.5 -14.5 q0 -8 6 -8 q2 0 4 2 q0 2 2 2 q7 0 7 2 q2 2 11 2 q10 0 12 -2 q7 -7 0 -10 q-6 -2 -16 -3 q-10 -1 -18 -1 q-4 0 -5 -0.5 q-1 -0.5 -1 -4.5 q0 -1 1 -4.5 q1 -3.5 1 -9.5 l2 -9 l8 0 q6 0 11.5 1.5 q5.5 1.5 9.5 2.5 q12 4 16 4 q5 0 9 -1 q4 -3 13 -3 q6 0 11.5 -2.5 q5.5 -2.5 5.5 -5.5 q0 -6 -12 -6 q-4 0 -18 2 q-7 1 -18 1 q-10 0 -30 -3 q-10 0 -19.5 -1 q-9.5 -1 -11.5 -3 q-1 0 -4.5 -0.5 q-3.5 -0.5 -8.5 0.5 q-9 0 -23 -1.5 q-14 -1.5 -19 -3.5 q-2 -2 -2 0 q0 10 32 13 q6 0 9 2 q3 2 1 4 q-1 2 -1 12 q0 9 1 11 q1 3 2 3.5 q1 0.5 2 -1.5 q5 -3 5 -8 q0 -8 4 -13 q3 -8 8 -8 l7 0 l-2 32 q0 31 -3 33 l0 2 Z" /><glyph glyph-name="uni4F0A" unicode="&#x4f0a;" d="M159 183 q8 6 17 6 q5 0 7.5 -0.5 q2.5 -0.5 2.5 -3.5 q0 -3 -4 -9 q-2 -3 -2 -19 l0 -12 l6 0 q24 0 42 6 q20 4 20 4 q6 0 6 -6 q0 -4 -5.5 -8 q-5.5 -4 -16.5 -9 q-6 -2 -13 -4.5 q-7 -2.5 -12 -3.5 l-6 -2 q-2 -2 -4 0 l0 1 q0 3 3.5 5.5 q3.5 2.5 6.5 1.5 l3 2 q0 4 -2 4 q-2 0 -7 -1 q-16 -2 -18.5 -4 q-2.5 -2 -2.5 -11 q1 -4 2 -9.5 q1 -5.5 2 -5.5 q3 -1 3 -3 q0 -4 -7 -9 q-4 -4 -13 -2 q-17 0 -20 -13 q0 -3 -1 -7 q-1 -4 -1 -10 q-3 -4 -3 -12 q0 -8 -4 -19 q-8 -38 -8 -57 q0 -10 -4 -10 l-3 -1 q-6 0 -6 13 q-1 3 -1 7 q0 4 4 12 q6 14 6 15 q0 6 2 10 q4 10 4 19 q0 4 1 8 q1 4 1 7 q2 7 4 15.5 q2 8.5 3 13.5 l-2 1 q-4 0 -10.5 -2 q-6.5 -2 -11.5 -5 q-2 0 -10 -4 q-5 0 -7 0.5 q-2 0.5 -3 3.5 q0 8 12 11 q8 2 16.5 5.5 q8.5 3.5 12.5 6.5 q0 1 1.5 5.5 q1.5 4.5 1.5 9.5 q1 10 -3 10 q-4 -1 -12 -3.5 q-8 -2.5 -13 -4.5 l-15 -4 q-10 -1 -12 -3.5 q-2 -2.5 -6 -11.5 q0 -4 -2 -9 q-2 -5 -5 -8 q-4 -8 -4 -12 q-3 -12 -9 -29.5 q-6 -17.5 -10 -25.5 q-2 -2 -6 -2 q-4 4 -2 17 q0 8 1 12.5 q1 4.5 1 6.5 q0 1 1 10.5 q1 9.5 1 20.5 q1 6 1 16 q0 20 -5 20 q-2 -1 -6.5 -5 q-4.5 -4 -10.5 -8 l-16 -12 q-5 0 -5 4 q-1 4 6 12 q7 8 21 21 q12 8 9 21 l-1 5 q0 5 3 5 q3 0 8 -6 q6 -4 6 -8 q0 -1 -4 -11 q-3 -3 -3 -6 q0 -3 1 -6 q5 -4 8 -12.5 q3 -8.5 1 -16.5 l0 -15 l2 -6 l6 12 l12 25 q12 25 13 25 l0 -3 q-3 -7 0 -7 q3 0 9.5 2 q6.5 2 11.5 5 q1 1 4 1 q3 0 6 2 q2 0 5 1.5 q3 1.5 6 1.5 q4 2 5 4.5 q1 2.5 -1 7.5 q-1 10 -4 12.5 q-3 2.5 -11 2.5 q-8 0 -13 2.5 q-5 2.5 -5 5.5 q0 3 3 3.5 q3 0.5 9 0.5 q6 0 11 0 q17 0 31 9 ZM167 162 q0 1 -0.5 5.5 q-0.5 4.5 -3.5 4.5 l-10 -4 l-6 -4 l2 -10 q0 -6 1 -10 q1 -4 1 -5 l8 0 q6 1 7 4.5 q1 3.5 1 18.5 ZM167 126 q-1 5 -12 3 q-3 -3 -4.5 -5.5 q-1.5 -2.5 -1.5 -9.5 q0 -7 0.5 -10 q0.5 -3 3.5 -3 q5 0 9 3 q4 3 4 8 q0 6 1 8 q0 1 1 3.5 q1 2.5 -1 2.5 Z" /><glyph glyph-name="uni4F0F" unicode="&#x4f0f;" d="M198 155 q0 0 0.5 0.5 q0.5 0.5 0.5 0.5 q4 0 15 -10 q12 -8 13 -8 l2 -6 q0 -9 -5 -9 q-3 0 -10 7 q-5 6 -10.5 14 q-5.5 8 -5.5 11 ZM139 138 q1 4 4 4 q2 0 4.5 -3 q2.5 -3 3.5 -7 q1 -2 3 -5 q2 -3 4 -6 q5 -5 10 -2 q14 0 11 -8 q-12 -8 -19 -8 q-2 0 -5.5 -1.5 q-3.5 -1.5 -7.5 -1.5 q-10 -7 -23 -41 q-4 -6 -4 -9 q-4 -4 -4 -6 q-3 -7 -9.5 -15 q-6.5 -8 -9.5 -8 q-3 0 -3 2 q0 1 5 11 q5 6 15.5 29.5 q10.5 23.5 9.5 24.5 q-4 0 -8 -2 q-9 -3 -15 -3 q-10 0 -17 5 q-4 4 -4 8 q0 4 9 2 q5 -1 12 -1 q5 0 11.5 1 q6.5 1 9.5 2 q8 3 11 8.5 q3 5.5 4 19.5 q0 4 1 6 q1 2 1 4 ZM55 125 q3 5 4 5 q1 0 2 -5 q1 -2 1 -5 q0 -3 -3 -11 q-3 -5 -3.5 -8.5 q-0.5 -3.5 1.5 -8.5 q0 -2 1 -6.5 q1 -4.5 1 -10.5 l2 -13 l5 9 q1 3 4 5 q3 2 4 3 q3 0 3 -2 q0 -2 -5 -15 q-4 -6 -6 -12 l-5 -8 q-1 -4 -2.5 -7.5 q-1.5 -3.5 -1.5 -5.5 q-2 -21 -10 -21 q-5 2 -5 9 q0 4 3 10 q3 13 4.5 30 q1.5 17 -0.5 24 l-2 7 l-7 -9 q-14 -14 -14 -2 q0 7 10 19 q6 6 10 11 q4 5 5 8 q0 2 4 10 ZM147 111 q0 1 0.5 2 q0.5 1 -0.5 2 l0 2 q-3 0 -2.5 -4 q0.5 -4 2.5 -2 ZM151 60 q0 3 2.5 2 q2.5 -1 4.5 -3 q0 -2 4.5 -6 q4.5 -4 7.5 -7 q14 -11 27 -25 q13 -14 13 -17 q0 -3 -5 -3 q-6 0 -12 3 l-4 6 q0 2 -2 4 q-2 2 -4 5 q-7 7 -7 8 q-3 4 -8 7 q-5 6 -11 14.5 q-6 8.5 -6 11.5 Z" /><glyph glyph-name="uni4F10" unicode="&#x4f10;" d="M226 149 q3 0 3 -3.5 q0 -3.5 -3 -6.5 q0 -2 -5 -2 q-3 1 -6 5 q-3 4 -4 7 q0 3 -2.5 7 q-2.5 4 -3.5 8 q-7 8 -7 13 q0 0 1 0.5 q1 0.5 3 0.5 q6 0 17 -18 q4 -8 7 -11 ZM204 80 q5 0 5 -9 q0 -2 -2 -14 q-3 -30 -3 -52 q0 -13 1 -15 q3 -5 0 -8 q-3 -4 -7 -4 q-1 0 -6.5 5.5 q-5.5 5.5 -9.5 10.5 l-11 13 q-5 3 -10 12 q-5 9 -7 9 q-4 -1 -10.5 -5.5 q-6.5 -4.5 -6.5 -5.5 l-6 0 q-2 0 -6 -4 q-2 -2 -5.5 -4 q-3.5 -2 -7.5 -2 q-5 -1 -6.5 -1 q-1.5 0 0.5 3 q0 0 15 10 q23 14 27.5 18 q4.5 4 3.5 10 q-1 1 -2 5 q-1 4 -2 7 q-2 11 -4.5 21.5 q-2.5 10.5 -3.5 10.5 q-2 0 -4.5 -1.5 q-2.5 -1.5 -4.5 -2.5 q-10 -11 -23 -11 q-3 0 -8.5 -4.5 q-5.5 -4.5 -8.5 -6.5 q-19 -22 -20 -31 q0 -2 -3 -6 q-3 -4 -4 -6 q-2 -3 -2 -5 q2 0 -2 -4 q-4 -4 -6 -4 q-6 0 -6 7 q0 6 4 10 q2 6 4.5 16 q2.5 10 3.5 17 q0 6 -3 12.5 q-3 6.5 -5 6.5 q-2 0 -4 -2 q-2 -2 -5 -4 q-5 -5 -9 -6.5 q-4 -1.5 -6 2.5 q-1 2 4 11 q5 9 9 12 q5 2 12 11 q7 9 7 14 q0 6 6 15 q6 9 9 6 q1 -1 -2 -13 q-3 -12 -7 -23 q-5 -7 -5 -11 q0 -4 4 -10.5 q4 -6.5 6 -9.5 l1 -11 l5 6 l6 9 l0 2 q1 0 7 4 q9 11 22 11 q3 0 8.5 2.5 q5.5 2.5 8.5 3.5 l8 6 l-2 11 q0 10 -4 14 q-2 5 -3.5 13 q-1.5 8 -1.5 15 q0 7 4 7 q4 0 8.5 -6 q4.5 -6 5.5 -14 q2 -8 7.5 -17.5 q5.5 -9.5 11.5 -13.5 q4 -4 4 -11 q-1 -3 -3.5 -3.5 q-2.5 -0.5 -5.5 -0.5 q-5 0 -5 -3 q0 -2 3 -16 q5 -20 5 -23 l2 -6 q2 -2 21 14 l8 9 q4 4 6 4 q0 4 4 4 l2 0 ZM192 9 q1 3 2 10 q1 7 2 14 q0 12 2 20 q0 3 -2 3 q-2 0 -12 -7 q-15 -10 -15 -15 l2 -8 q2 -5 11 -12.5 q9 -7.5 10 -4.5 Z" /><glyph glyph-name="uni4F11" unicode="&#x4f11;" d="M145 171 q4 0 6.5 -4 q2.5 -4 5.5 -17 q0 -5 2.5 -10 q2.5 -5 4.5 -6 q5 -6 5 -12 q0 -7 -7 -7 q-2 0 -7 -5 q0 -35 2 -37 l19 -4 q12 -4 21 -4 q1 -2 5.5 -3 q4.5 -1 7.5 -2 q7 0 16.5 -4.5 q9.5 -4.5 12.5 -8.5 q1 -1 1 -4 q0 -6 -7 -6 q-4 1 -13 4.5 q-9 3.5 -21 10.5 q-18 6 -21 6 q-5 0 -9 1 q-4 1 -7 1 l-3 1 q-3 0 -4 -9 q0 -5 -1 -13.5 q-1 -8.5 -1 -20.5 q0 -21 -1.5 -27 q-1.5 -6 -6.5 -6 q-4 0 -5.5 5 q-1.5 5 -3.5 16 q0 6 -2 14 q0 1 -1 9 q-1 8 -1 17 q0 28 -5 28 q-3 0 -9 -12 q-3 -7 -11.5 -15.5 q-8.5 -8.5 -11.5 -7.5 q-4 0 -4 4 q0 4 8 11 q7 9 16 24 q9 15 9 20 q-4 0 -6 -2 q-3 -1 -8 -1 q-5 0 -15 3 q-6 4 -3 -2 q0 -5 -2 -6 q-6 -5 -31 -57 q-9 -21 -15 -21 q-5 0 -5 9 q0 7 3 14 q5 12 5 32 q0 8 -2 12 q0 3 -2 4 q-2 1 -5 0 q-7 0 -10 -6 q-2 -2 -9 -2 q-3 0 -4 3.5 q-1 3.5 2 6.5 l4 5 l9 10 q16 16 16 27 q0 2 1.5 3 q1.5 1 3.5 1 q3 0 3.5 -2 q0.5 -2 0.5 -6 q1 -1 1 -3 q0 -2 -3 -8 q0 -1 -3 -4.5 q-3 -3.5 -4 -5.5 q-1 -2 0 -4 q1 -2 3 -4 q6 -3 8 -9 q2 -6 2 -19 q0 -8 2 -8 q1 0 4 8 q4 10 17 28 q10 15 14 18 q4 3 9 -2 l4 -4 l13 6 q5 2 8.5 5 q3.5 3 5.5 4 q0 2 1.5 3 q1.5 1 3.5 1 q3 0 3 5 q0 17 -0.5 29 q-0.5 12 1.5 12 ZM145 104 q-1 3 -2 2.5 q-1 -0.5 -2 -4.5 q-4 -8 -4 -15 q0 -10 4 -10 q2 0 2.5 4 q0.5 4 1.5 6 l0 17 ZM132 85 l-2 0 q-2 0 -2.5 -3 q-0.5 -3 0.5 -5 q2 0 2 2 l2 6 ZM143 58 q0 11 -2 11 q-2 0 -2 -11 q0 -8 2 -12 l0 -9 l2 7 l0 14 Z" /><glyph glyph-name="uni4F17" unicode="&#x4f17;" d="M106 156 q3 6 5 7 q2 1 3 -3 q1 -1 1 -5 q0 -7 -7 -20 l-6 -9 l10 -6 q15 -10 19 -14 q8 -7 22.5 -14 q14.5 -7 19.5 -7 q3 0 6 -4 q3 -4 2 -7 q0 -3 -2.5 -3.5 q-2.5 -0.5 -7.5 -0.5 q-17 2 -21 6 q0 1 -9.5 10 q-9.5 9 -11.5 9 q-3 0 -11 6 q-8 10 -14 13 l-6 6 l-9 -14 q-12 -19 -20 -30.5 q-8 -11.5 -11 -11.5 l-1 0 q-3 0 -3.5 3.5 q-0.5 3.5 2.5 4.5 l4 4 q0 3 6 13 q4 4 8 11 q3 6 9 14 l8 12 q2 7 7 11 q2 6 6 10 q0 5 2 9 ZM129 74 q3 5 9 5.5 q6 0.5 8 -3.5 q1 0 1 -3 q0 -3 -3 -11 l-5 -11 l5 -10 l8 -11 q2 0 4 -2 q0 -2 7 -7 q7 -5 10 -5 q2 0 2 -3 l4 0 q4 0 7 -1 q5 -2 13 -3 q8 -1 12 -2 q16 -6 10 -12 q-4 -4 -17 -2 q-12 4 -18 4 q-7 0 -11 4 q-4 4 -6 4 l-8 4 q-3 4 -7 7 q-4 0 -15 14 q-1 9 -4 9 q-1 0 -12 -15 q-13 -21 -18.5 -25.5 q-5.5 -4.5 -9.5 2.5 q-4 4 -6 4 q-6 0 -15 17 l-4 10 l-4 -8 q-25 -37 -31 -25 l0 2 q0 5 3 11 q3 6 5 6 q6 0 25 31 q16 23 19 23 q1 0 1 -3 q0 -8 -5 -16 l-4 -8 q0 -3 5.5 -14 q5.5 -11 6.5 -11 q2 0 9 10 q7 10 10 17 q12 20 19 27 ZM131 57 q0 2 -2.5 0.5 q-2.5 -1.5 -3.5 -1.5 q0 -5 -4 -9 q-3 -2 -3 -4 q2 0 7 5.5 q5 5.5 6 8.5 Z" /><glyph glyph-name="uni4F18" unicode="&#x4f18;" d="M130 149 q3 5 4 5 q1 0 6 -3 q2 0 3 -4.5 q1 -4.5 1 -10.5 q2 -10 5 -19.5 q3 -9.5 6 -9.5 q2 0 2.5 -4.5 q0.5 -4.5 -0.5 -8.5 q-1 -1 -4.5 -2 q-3.5 -1 -6.5 -2 q-6 0 -7 -1.5 q-1 -1.5 1 -4.5 q0 -3 1 -11.5 q1 -8.5 1 -24.5 q0 -24 2 -30 q2 -6 12 -6 q9 0 16 1 q17 2 23.5 3.5 q6.5 1.5 11.5 2.5 q15 3 15 6 l0 23 q-1 9 -1 21 q0 12 3 9 q2 -2 2 -7 l8 -35 q0 -4 1.5 -9 q1.5 -5 1.5 -8 l0 -6 l-19 -4 q-7 -2 -17 -4.5 q-10 -2.5 -13 -2.5 q-4 -2 -14 -2 l-7 0 q0 -1 -4 -1 q-6 0 -13.5 1.5 q-7.5 1.5 -9.5 3.5 q-5 2 -9.5 8 q-4.5 6 -3.5 9 q2 1 2 21 q0 20 -2 21 q-2 -3 -7 -13.5 q-5 -10.5 -5 -13.5 q-1 -4 -6 -13 q-5 -9 -7 -10 l-1 0 q-3 0 -5.5 6.5 q-2.5 6.5 0.5 9.5 q4 0 4 5 l5 12 q2 6 4 9.5 q2 3.5 2 5.5 q0 6 2 8 q2 3 0.5 4.5 q-1.5 1.5 -4.5 -0.5 q-4 -4 -15 -4 q-5 0 -8.5 -0.5 q-3.5 -0.5 -4.5 -3.5 l-1 -8 q-2 -1 -3 -5.5 q-1 -4.5 -2 -7.5 q-4 -8 -4 -10 q-2 0 -6 -15 q-4 -9 -6 -12 q-2 -3 -7 -3 q-6 0 -6 2 q0 13 2 23 q6 27 6 37 q0 6 -2 10 q-3 6 -6 6 l-13 -13 q-5 -5 -7.5 -7 q-2.5 -2 -2.5 1 q-2 0 -2 4 q1 4 7.5 13.5 q6.5 9.5 13.5 16.5 q6 9 13 27 q1 3 4.5 2 q3.5 -1 3.5 -4 l1 -3 q0 -5 -2 -11.5 q-2 -6.5 -4 -6.5 q-2 0 -2 -3 q0 -6 5 -12 q3 -5 3.5 -9.5 q0.5 -4.5 0.5 -11.5 l0 -10 q-2 0 -2 -5 q0 -4 2 -4 q2 0 2 7 q4 8 6 10 l4 6 q1 5 4 13 q3 8 5 8 q2 0 6 -4 l4 -4 l11 4 q2 1 6 3 q4 2 4 3 q6 8 8 38 q0 16 5 19 ZM193 140 q0 2 1 2 q4 0 19 -22 q5 -9 13 -17 q2 -2 1.5 -5.5 q-0.5 -3.5 -3.5 -3.5 q-2 -2 -6 -2 q-5 5 -7 9 q-18 35 -18 39 ZM140 107 q0 6 -2 5.5 q-2 -0.5 -4 -5.5 q0 -6 2 -6 q4 4 4 6 Z" /><glyph glyph-name="uni4F19" unicode="&#x4f19;" d="M143 162 q3 0 4 -7 q2 -2 5 -6.5 q3 -4.5 4 -5.5 q5 -8 5 -14 q0 -6 -3 -18 q0 -4 8 -4 q9 0 12.5 -0.5 q3.5 -0.5 6.5 -3.5 q4 -6 4 -9 q0 -8 -10 -19 q-2 -3 -10 -11 q-8 -8 -11 -8 q-5 0 0.5 -7 q5.5 -7 22.5 -20 q13 -13 18.5 -16 q5.5 -3 15.5 -3 q6 0 10 -2 q8 -3 8 -8 q0 -5 -1 -5.5 q-1 -0.5 -7 -0.5 l-8 0 q0 2 -5 2 q-6 0 -22 8 q-5 0 -9 8 q-2 2 -4.5 5.5 q-2.5 3.5 -3.5 3.5 q-4 2 -13 11.5 q-9 9.5 -10 15.5 q-3 5 -5 5 q-2 0 -4 -9 q0 -3 -2.5 -9.5 q-2.5 -6.5 -3.5 -9.5 q-11 -20 -14.5 -24.5 q-3.5 -4.5 -8.5 -4.5 q-2 0 -2 0 q-2 0 -2 2 q0 3 6 10 q16 22 19 40 q0 3 1 7 q1 4 3 8 q2 6 2 12 q-4 -1 -9 -5 q-5 -4 -10 -7 q-2 -2 -2 -7 q0 -1 -6 -1 q-4 0 -5 1.5 q-1 1.5 -1 8.5 q3 25 6 25 q1 0 2.5 -2 q1.5 -2 1.5 -4 l2 -6 q7 2 13 8 q9 6 12 11.5 q3 5.5 4 15.5 q0 3 1.5 7 q1.5 4 1.5 5 q1 2 0.5 5 q-0.5 3 -0.5 4 q-7 9 -9.5 16.5 q-2.5 7.5 0.5 10.5 l2 1 ZM58 107 q2 6 4.5 7.5 q2.5 1.5 3.5 -3.5 q3 -3 0 -6 l0 -5 l-4 -6 q-2 -5 0 -10 q2 -3 3 -8 q1 -5 1 -11 q1 -4 2 -8.5 q1 -4.5 2 -4.5 l0 -6 l-2 -8 q0 -11 -2 -17 l-2 -17 l0 -8 q-1 -1 -3 -1 q-2 0 -8 3 q-2 2 -2 10 q0 2 1 5.5 q1 3.5 1 9.5 q0 8 3 8 q1 0 1 10 q0 20 -4 28 l-2 11 l-6 -7 q0 0 -15 -12 q-4 -4 -6.5 -4 q-2.5 0 -5.5 4 l-1 2 q0 1 3.5 4.5 q3.5 3.5 5.5 5.5 q15 13 23 21 q8 8 9 13 ZM171 94 l-2 0 q-3 0 -8 -2.5 q-5 -2.5 -7 -5.5 q-3 -4 -3 -9.5 q0 -5.5 3 -5.5 q3 0 9 6 q6 6 8 11 l0 6 Z" /><glyph glyph-name="uni4F1A" unicode="&#x4f1a;" d="M111 162 q0 8 6 3 q3 -5 6 -5 q3 0 3 -4 q0 -4 -3 -6 q-1 -1 -1 -3 q0 -2 5 -10 q13 -18 30 -29 l12 -9 q8 -7 32 -10 q8 0 12 -2.5 q4 -2.5 2 -5.5 q-2 -8 -10 -4 l-9 0 l-8 1 l-6 0 q-6 0 -12.5 5.5 q-6.5 5.5 -12.5 9.5 q-25 21 -34 36 q-1 2 -3.5 6 q-2.5 4 -4.5 2 q-1 0 -10.5 -13.5 q-9.5 -13.5 -12.5 -19.5 q0 -2 -2 -2 q-1 0 -3 -3.5 q-2 -3.5 -4 -5.5 q-3 -7 -10 -15 q-6 -6 -6 -10 q0 -3 -8 -10.5 q-8 -7.5 -13 -10.5 q-6 0 -6 3 q0 2 6 8 q3 2 5.5 4 q2.5 2 2.5 4 l2 6 q3 0 9 9 q4 8 6 8 q2 0 2 2 l4 8 q3 7 11 17 q2 5 6 11 l4 6 q0 3 8 13 l7 10 q-2 0 -2 6 ZM109 89 q0 3 1.5 3 q1.5 0 4.5 -1 q4 0 9.5 -1 q5.5 -1 11.5 -1 q9 0 11 -0.5 q2 -0.5 4 -5.5 q0 -3 -9 -9 q-15 -8 -19 -9 q-4 -1 -4 5 q0 7 2 7 q4 0 -4 4 q-8 3 -8 8 ZM130 58 q25 9 25 0 q1 -4 -3.5 -9 q-4.5 -5 -17.5 -16 l-19 -24 q4 0 8 3 q12 6 19 6 q9 3 15 8.5 q6 5.5 6 10.5 q0 6 2 6 q6 0 15 -25 q4 -12 4 -22 q0 -10 -6 -10 l-2 0 q-9 0 -9 15 q0 5 -0.5 8 q-0.5 3 -3.5 3 q-5 0 -22.5 -6 q-17.5 -6 -17.5 -7 q-1 -1 -27 -11 q-3 -1 -3.5 1 q-0.5 2 -0.5 6 q0 14 27 38 q3 3 8.5 8.5 q5.5 5.5 4.5 5.5 l-11 -4 q-6 -4 -14.5 -7 q-8.5 -3 -16.5 -8 q-2 0 -9 -2 q-7 -2 -12 0 q-2 0 -2 2 q0 4 2 6 q2 2 8 3 l25 8 q4 1 13 5.5 q9 4.5 15 7.5 Z" /><glyph glyph-name="uni4F20" unicode="&#x4f20;" d="M145 173 q0 7 0.5 9.5 q0.5 2.5 1.5 1.5 q4 0 7 -7 q0 -5 4 -11 q0 -1 1 -2.5 q1 -1.5 1 -3.5 q0 -4 2 -4 q2 -3 2.5 -7 q0.5 -4 -0.5 -14 l0 -16 l4 2 l3 0 q5 0 8.5 -2 q3.5 -2 3.5 -5 q0 -4 -4.5 -9 q-4.5 -5 -8.5 -5 q-6 0 -10 -15 l-1 -3 q0 -2 4 -2 q6 0 10 1 q4 1 6 2.5 q2 1.5 2 5.5 q0 3 1 3.5 q1 0.5 3 -1.5 q2 0 6.5 -1 q4.5 -1 10.5 -1 q2 0 7 -1 q5 -1 6.5 -2 q1.5 -1 1.5 -3 q1 -3 -6.5 -6.5 q-7.5 -3.5 -14.5 -2.5 q-9 0 -11 -2 q-2 -2 -10 -2 q-17 0 -17 -14 q0 -4 0.5 -5.5 q0.5 -1.5 1.5 -1.5 q17 6 30 6 q9 0 15 -3 q6 -3 7 -7 l1 -2 q0 -3 -4 -8.5 q-4 -5.5 -7 -10.5 q-6 -5 -9.5 -10.5 q-3.5 -5.5 -3.5 -8.5 q0 -1 -1.5 -2 q-1.5 -1 -2.5 -2 q-2 0 2 -2 q0 -1 0.5 -2.5 q0.5 -1.5 -0.5 -1.5 q0 -4 2 -6 q6 -14 0 -17 l-3 -1 q-3 0 -6 2.5 q-3 2.5 -3 4.5 q0 3 -7 8 q-10 15 -10 21 q0 4 2 4.5 q2 0.5 6 0.5 q11 0 11 2 q3 0 6 6 q1 2 3.5 6 q2.5 4 4.5 9 q7 5 0 8 l-4 0 q-1 0 -4.5 -1 q-3.5 -1 -9.5 -1 q-9 0 -17 -8 q-6 -7 -6 -11 l-7 0 q-4 0 -4 6 q0 9 4 17 l0 2 q0 2 1 3 q1 1 1 3 q4 8 -6 5.5 q-10 -2.5 -31 -13.5 q-9 -4 -11.5 -7.5 q-2.5 -3.5 -9.5 -17.5 q-5 -5 -7 -10.5 q-2 -5.5 -2 -8.5 q0 -2 -4.5 -5 q-4.5 -3 -7.5 -3 q-4 0 -4 3 q0 3 1.5 8 q1.5 5 2.5 12 q4 16 4 25 q2 12 2 26 q0 16 -2 18 q-1 2 -8.5 -5.5 q-7.5 -7.5 -10.5 -13.5 q-2 -4 -8 -4 q-5 0 -5 5 q0 5 5 10 q16 17 25 31 q9 14 4 14 q-2 0 -4.5 3.5 q-2.5 3.5 -2.5 6.5 q0 6 3.5 7 q3.5 1 5.5 -4 q0 -2 1.5 -4 q1.5 -2 4.5 -2 q7 -3 7 -8 q0 -3 -5 -13 q-3 -7 -3.5 -10.5 q-0.5 -3.5 1.5 -6.5 q4 -3 4 -20 q0 -8 -2 -24 l-2 -10 l5 6 q7 7 18 34 q4 7 10 18 q6 11 7 11 q2 0 4 -2 l4 -1 q5 0 11.5 2.5 q6.5 2.5 7.5 6.5 q2 0 3.5 6 q1.5 6 1.5 13 q0 17 -2 23 q-2 2 -4 9 q-2 7 -3 10 ZM131 89 l-2 0 q-5 0 -9 -4 q-4 -4 -4 -8 q0 -3 -2 -3 q-2 0 -2 -4 q0 -3 1 -3 q0 0 7 5 q19 15 19 17 l-8 0 ZM145 77 q2 0 2.5 1.5 q0.5 1.5 -0.5 2.5 q-2 0 -4 -2 q-2 -3 -2.5 -4 q-0.5 -1 0.5 -1 q4 0 4 3 Z" /><glyph glyph-name="uni4F26" unicode="&#x4f26;" d="M159 190 q2 2 4.5 1 q2.5 -1 3.5 -4 q0 0 7 -7 q3 -3 3 -4 q0 -1 -3 -4 q-1 -2 -4 -6 q-3 -4 -3 -7 l-3 -7 l-2 -1 q0 -3 20 -12 q15 -8 27 -10 q8 0 13.5 -3.5 q5.5 -3.5 5.5 -7.5 q0 -1 -4 -3 q-4 -2 -8 -2 q-2 2 -7 2 q-8 3 -14 8 q-16 7 -17 7 l-11 5 l-10 7 l-2 -3 q-4 -6 -8.5 -12 q-4.5 -6 -8.5 -12 l-6 -11 q-2 -2 -4.5 -5.5 q-2.5 -3.5 -6.5 -7.5 q-7 -12 -10 -12 q-2 0 -5.5 2 q-3.5 2 -3.5 3 l5 5 q5 4 15 17.5 q10 13.5 18 28.5 q3 6 11 20 q8 14 9.5 19 q1.5 5 0.5 8 q-2 3 -2 8 ZM98 95 q0 -3 -6 -12 q-1 -2 -5 -9.5 q-4 -7.5 -6 -13.5 q-2 -7 -8 -19 q-1 -5 -6 -21.5 q-5 -16.5 -5 -20.5 q0 -5 -4 -9.5 q-4 -4.5 -6 -1.5 q-2 2 -2.5 10.5 q-0.5 8.5 0.5 12.5 q2 6 2 32 q0 27 -2 31 q-1 2 -2 2 q-1 0 -11 -8 q-6 -6 -9.5 -7.5 q-3.5 -1.5 -6.5 0.5 q-1 1 -1 3 q0 2 7 12 q6 11 10 11 q5 3 12 17 q7 14 9 22 q2 13 7 13 q5 0 5 -9 q0 -9 -4.5 -20 q-4.5 -11 -9.5 -13 q-2 -2 -1.5 -6 q0.5 -4 3.5 -4 q2 0 3 -9.5 q1 -9.5 1 -13.5 q2 -4 3 -7.5 q1 -3.5 2 -3.5 q4 5 6 11 q11 21 13 23 l12 8 ZM140 74 q0 -5 1 -8 q1 -3 1 -5 q1 0 11.5 13 q10.5 13 13.5 19 q0 3 6 11 q6 8 9 8 q6 0 8.5 -0.5 q2.5 -0.5 3.5 -3.5 q0 -7 -10 -15 q-24 -28 -36 -46 q-8 -11 -8 -19 q2 -2 2 -8 q2 -5 6 -7 q4 -2 13 -2 q9 0 25 1.5 q16 1.5 27 3.5 q10 0 12.5 -2 q2.5 -2 0.5 -7 q-4 -6 -11 -6 q-3 -1 -7 -2 q-4 -1 -7 -2 l-11 0 q0 -2 -4 -2 q-6 -3 -10 -3 q-13 0 -13 -1 q-2 0 -2 1 q0 5 -11 5 q-20 3 -20 17 q0 1 -2 2.5 q-2 1.5 -3 3.5 q-3 3 -2.5 11 q0.5 8 4.5 27 q1 3 1 10 q0 3 -3 21 q0 4 4.5 6 q4.5 2 6.5 4 q7 -9 2 -14 l2 -11 Z" /><glyph glyph-name="uni4F2A" unicode="&#x4f2a;" d="M182 163 q1 4 5 4 q2 0 4 -1.5 q2 -1.5 1 -4.5 l0 -9 q-4 -12 -13 -31 q-6 -14 -11.5 -28 q-5.5 -14 -6.5 -20 q2 0 10 4 q24 10 29 6 q4 -2 7.5 -13 q3.5 -11 3.5 -23 q0 -13 -2.5 -33 q-2.5 -20 -5.5 -25 q-3 -6 -10 -3 q-7 3 -13.5 13 q-6.5 10 -8.5 21 q0 6 0.5 8.5 q0.5 2.5 3.5 2.5 q4 2 11 2 q8 0 10 -2 q1 -3 2 0.5 q1 3.5 1 9.5 q0 17 -3 24 q-1 4 -2.5 5 q-1.5 1 -7.5 1 q-4 -1 -7.5 -2.5 q-3.5 -1.5 -5.5 -1.5 q-1 -1 -4 -3.5 q-3 -2.5 -6 -5.5 q-8 -3 -11.5 -8 q-3.5 -5 -9.5 -23 q-3 -8 -8.5 -21 q-5.5 -13 -8.5 -15 l-2 0 q-4 0 -8 17 q-4 17 -4 34 q0 10 2 10 q12 3 31 13 q0 2 2 6 q2 4 4 10 q0 5 6 17 q3 5 3 5 q0 2 -11 -9 q-1 -1 -5 -5 q-4 -4 -6.5 -5 q-2.5 -1 -5.5 -1 q-6 0 -12 9 q-3 7 -5.5 18 q-2.5 11 -0.5 15 q2 3 2 3 q2 0 6 -15 q5 -13 7.5 -15 q2.5 -2 9.5 2 q8 7 19.5 23.5 q11.5 16.5 11.5 20.5 q0 2 2 2 q3 3 5.5 8 q2.5 5 5.5 9 ZM79 130 q2 -1 2 -9 q0 -11 -4 -19 q-4 -5 -4 -9 q0 -3 4 -7 q4 -6 4 -13 q0 -5 1 -9.5 q1 -4.5 2 -6.5 q1 -2 1 1 q0 4 5 9 l4 4 l-3 -11 q0 -14 -1 -14 q0 -1 -1 -4.5 q-1 -3.5 -1 -8.5 q-2 -4 -3.5 -8.5 q-1.5 -4.5 -1.5 -8.5 q-4 -10 -4 -14 q0 -5 -3 -6 q-3 -1 -7 1 q-2 4 -2 13 q0 15 4 34 q2 8 2 19 q-2 2 -2 10 q-1 10 -6 10 q-3 0 -11 -8 q-6 -6 -8.5 -6 q-2.5 0 -4.5 6 q0 5 15 21 q9 9 12.5 14.5 q3.5 5.5 6.5 14.5 l4 5 ZM135 46 q-4 0 -8 -2 q-8 -4 -8 -9 q0 -6 2.5 -14.5 q2.5 -8.5 3.5 -8.5 q1 0 3.5 8 q2.5 8 5.5 15 l1 11 ZM194 16 q-8 0 -8 3 q-2 1 -3 0 q-1 -1 -1 -3 q0 -3 3.5 -8.5 q3.5 -5.5 6.5 -5.5 l4 8 q1 3 1 4.5 q0 1.5 -3 1.5 Z" /><glyph glyph-name="uni4F2F" unicode="&#x4f2f;" d="M167 161 q2 0 4.5 -2.5 q2.5 -2.5 2.5 -4.5 q0 -3 -7 -10 q-7 -7 -10 -11 q-22 -18 -15 -25 q2 0 2 -4 q-1 -1 -0.5 -6.5 q0.5 -5.5 0.5 -8.5 l2 -10 l6 4 q5 3 20 6.5 q15 3.5 24 3.5 q10 -1 13.5 -7.5 q3.5 -6.5 3.5 -25.5 q0 -22 -6.5 -42 q-6.5 -20 -14.5 -25 q-8 -2 -11 -2 q-10 0 -16 6 q-4 3 -5 5.5 q-1 2.5 1 7.5 q4 10 19 35 q2 2 5 7.5 q3 5.5 5 7.5 q0 3 9 0 q2 -1 2.5 7 q0.5 8 -0.5 12 q-1 3 -6 3 q-4 0 -13 -3 q-22 -3 -32 -15 q-2 -2 -2 -29 l0 -27 l-4 0 q-6 0 -6 4 q-2 2 -2 36 q0 35 -2 39 q-1 3 -2 7.5 q-1 4.5 -2 5.5 q0 6 -3 6 l-1 -1 q-2 0 -3.5 2.5 q-1.5 2.5 -1.5 4.5 q0 2 4.5 6.5 q4.5 4.5 10.5 8.5 q11 11 21 23 q4 4 8 11 l2 0 ZM88 129 q0 4 4 4 q3 0 5.5 -3 q2.5 -3 2.5 -7 q0 -4 -10 -17 q-6 -8 -7.5 -11 q-1.5 -3 0.5 -8 q0 -2 1.5 -6 q1.5 -4 1.5 -8 q1 -5 1.5 -10 q0.5 -5 2.5 -9 q3 -10 6 -6 q4 2 4 -3 l0 -3 q0 -7 -2 -15.5 q-2 -8.5 -4 -10.5 q-2 -2 -2 -11 q0 -6 -2.5 -9 q-2.5 -3 -6.5 -1 q-5 0 -5 7 q0 7 1 12 q3 12 3 18 q0 7 -3 19 q-4 17 -2 19 q0 4 -2.5 10 q-2.5 6 -3.5 3 q-1 -4 -10.5 -12.5 q-9.5 -8.5 -12.5 -8.5 q-4 1 -4 4 q0 8 16 21 q2 3 4.5 6 q2.5 3 2.5 5 q2 2 2 4 q6 1 13.5 12.5 q7.5 11.5 5.5 14.5 ZM199 35 q-4 6 -7 6 q-4 0 -4 -2 l-2 -4 q-4 -3 -9 -14.5 q-5 -11.5 -6 -16.5 q3 -3 9 -3 q8 0 14 11.5 q6 11.5 5 22.5 Z" /><glyph glyph-name="uni4F34" unicode="&#x4f34;" d="M161 169 q4 2 5 2 q4 0 8 -16 q0 -5 1.5 -8 q1.5 -3 4.5 -3 l10 2 q6 1 9 1 q3 0 6 -3 q3 -1 3 -4 q0 -3 -1 -8 q-2 -9 -4 -12 q-2 -3 -11 -9 q-5 -1 -8.5 -4 q-3.5 -3 -3.5 -5 q-1 0 -0.5 -4.5 q0.5 -4.5 0.5 -7.5 q0 -6 0.5 -8.5 q0.5 -2.5 3.5 -2.5 q2 1 5 1 q8 0 10 -5 q1 -1 1 -3 q0 -2 -5 -10 q-3 -3 -5 -5.5 q-2 -2.5 0 -2.5 q0 -2 -2 -2 q-2 0 -4 -2 q0 -6 -2 -8 q0 -1 1 -1 l9 1 q11 1 15.5 1.5 q4.5 0.5 7.5 -1.5 q0 -1 1 -3.5 q1 -2.5 1 -5.5 q0 -3 -4 -4.5 q-4 -1.5 -16 -1.5 q-7 -2 -15 -2 q-2 -2 -2 -19 q0 -14 -1.5 -18.5 q-1.5 -4.5 -4.5 -4.5 q-8 0 -14.5 10 q-6.5 10 -21.5 42 q-4 9 -11 15 q-3 3 -3 6 q0 5 12 9 q14 4 23 8 l10 4 l0 11 q0 6 -0.5 9.5 q-0.5 3.5 -3.5 4.5 q-3 0 -8 7 q-1 1 -2 3.5 q-1 2.5 -2 2.5 l-21 -25 q-6 -8 -11 -8 q-5 0 -8 8 q-3 6 -3 15 q0 9 3 12 q2 2 2 2 q2 0 2 -10 q1 -3 2 -7 q1 -4 2 -4 q6 4 13 13 q4 4 9 8 q5 4 8 8 q3 1 5 4.5 q2 3.5 3 4.5 q1 1 2 1 q1 0 2 -1 q0 0 0.5 -0.5 q0.5 -0.5 0.5 -0.5 l0 1 q0 10 -3 25 q-3 5 0 8 ZM73 125 q2 6 3.5 8.5 q1.5 2.5 2.5 0.5 q2 -4 2 -7 q0 -2 -2 -10 q-2 -6 -6 -11 q-2 0 -2 -2 l4 -8 q6 -10 4 -59 q-1 -17 -2.5 -25.5 q-1.5 -8.5 -5.5 -9.5 q-6 0 -6 10 l4 55 l1 4 q0 5 -1.5 10 q-1.5 5 -3.5 7 q-5 0 -5 -2 q0 -4 -7.5 -11 q-7.5 -7 -11.5 -6 q-2 0 -2 2 q0 5 5 12 q2 5 8 11 l8 10 q1 2 2.5 5 q1.5 3 -0.5 4 q0 2 3 2 q1 0 8 10 ZM195 134 q0 2 -4 2 q-3 0 -9 -2 q-6 -3 -6 -9 q0 -6 1.5 -7 q1.5 -1 6.5 1 q13 13 11 15 ZM167 117 q0 4 -2 4 q-2 2 -2 -2 q0 -6 2 -6 q2 0 2 4 ZM172 56 q-2 2 -3 3.5 q-1 1.5 -2 2.5 l-29 -10 q2 -6 6 -12 q5 -17 9 -9 l10 11 q9 9 9 14 ZM169 15 q3 1 0 3 l-8 -2 l-6 0 l4 -6 q1 -2 3 -6.5 q2 -4.5 3 -5.5 q3 -2 3.5 -0.5 q0.5 1.5 0.5 6.5 l0 11 Z" /><glyph glyph-name="uni4F38" unicode="&#x4f38;" d="M155 183 q0 10 2 10 q4 0 6 -3 q2 -3 3 -12 q0 -4 2.5 -10.5 q2.5 -6.5 3.5 -10.5 l4 -10 l13 2 q5 1 13 1 q14 0 20 -7 q5 -7 5 -12 q0 -12 -21 -38 q-6 -5 -10 -10.5 q-4 -5.5 -5 -8.5 q-1 -1 -2.5 -3.5 q-1.5 -2.5 -5.5 -5.5 q-4 -1 -5.5 -2 q-1.5 -1 -1.5 -6 q0 -8 -2 -13 q0 -6 -1 -22 q-1 -16 -1 -38 q-2 -9 -2 -17 q-4 0 -4 -6 l-2 -7 l-2 7 q0 12 2 21 q0 6 1 18 q1 12 1 28 l0 29 l-4 -2 q-3 0 -5.5 -1 q-2.5 -1 -3.5 -1 q0 -2 -8 -2 q-9 -3 -9 4 q0 2 1 3 q1 1 1 3 q28 24 28 27 q0 4 -2 4 q-3 0 -11 -4 q3 0 -23 -6 q-9 -1 -11.5 -3 q-2.5 -2 -0.5 -5 q0 -15 -7 -15 q-3 0 -5.5 3 q-2.5 3 -4.5 10 q-2 7 -2.5 15 q-0.5 8 -1.5 16 q0 17 4 17 q3 0 4 -2.5 q1 -2.5 2 -8.5 q0 -12 2 -12 q2 3 2 21 q2 2 2 8 q0 2 1.5 3 q1.5 1 3.5 1 q3 0 7 1 q4 1 7 1 q0 0 21 7 q13 4 13 6 l-4 12 q-3 9 -4.5 15.5 q-1.5 6.5 -2.5 10.5 ZM65 143 q2 4 7 8 l1 -3 q0 -7 -4 -14 q0 -4 -2 -8 q0 -1 -4 -11 q-1 -2 -1 -6 q0 -5 7 -12 q4 -3 0 -7 q0 -3 3 -3 q1 -5 1 -11 q0 -2 3 -2 q2 0 2 4 q0 3 2.5 6 q2.5 3 3.5 0 q1 -1 1 -5 q0 -5 -1 -9.5 q-1 -4.5 -2 -6.5 q0 -8 -2 -12 q0 -23 -8 -23 q-4 0 -5.5 5 q-1.5 5 -1.5 24 q-1 14 -2 22 q-1 8 -4 14 q-5 6 -7 6 q-2 0 -5 -6 q-3 -6 -5.5 -8.5 q-2.5 -2.5 -5.5 -2.5 q-6 0 -6 4 q0 6 17 23 q1 3 3.5 6 q2.5 3 2.5 5 q0 4 4 8 q3 3 5 8 q2 5 3 7 ZM210 139 q-4 2 -6 2 l-15 -2 q-9 -1 -12 -5.5 q-3 -4.5 -3 -15.5 q0 -12 6 -9 q7 0 9.5 -3.5 q2.5 -3.5 -0.5 -8.5 l-2 -5 q0 -1 1 -1 q1 0 9 10 q15 19 15 27 q3 9 -2 11 ZM166 120 q-2 6 -2 10 q0 1 -2 1 q-5 0 -15 -5 q-18 -6 -21 -6 q-4 -2 -8 -2 l0 -15 l-2 -13 l8 3 q5 0 19 4 l8 4 l4 0 q6 0 8.5 4.5 q2.5 4.5 2.5 14.5 Z" /><glyph glyph-name="uni4F3C" unicode="&#x4f3c;" d="M61 133 q2 0 2 -6 q0 -11 -4 -23 q-2 -6 -2 -12 q3 0 7 -5 q4 -5 5 -8 q-1 -1 -0.5 -2 q0.5 -1 0.5 -2 q3 0 3 -6 q0 -7 3 -7 q1 0 2 2.5 q1 2.5 1 6.5 q1 1 2 3.5 q1 2.5 4 2.5 q2 0 2 -8 q0 -9 -2 -9 l-2 -6 q-3 -13 -9 -23 q-3 -10 -5.5 -11.5 q-2.5 -1.5 -6.5 3.5 q-3 3 -3 6 l1 8 q2 10 2 17 q0 17 -6 21 q-3 3 -3 3 q-2 0 -14 -13 q-7 -7 -10 -8 q-3 -1 -7 3 l-1 3 q0 5 12 16 q9 9 12 15 q2 5 4.5 9 q2.5 4 4.5 8 q4 8 4 14 l2 7 l2 1 ZM185 134 q2 0 2 -4 l-2 -13 l0 -23 q3 -10 6.5 -11.5 q3.5 -1.5 22.5 -1.5 q14 0 17.5 -1.5 q3.5 -1.5 3.5 -6.5 q1 -4 -4.5 -7.5 q-5.5 -3.5 -31.5 -13.5 q-5 -2 -11 -4.5 q-6 -2.5 -16 -3.5 q-10 0 -10 2 q4 4 8 4 l6 4 q2 2 7 2 q2 1 4 2 q2 1 4 2 l8 2 q3 2 3 3 q0 2 -2.5 3 q-2.5 1 -6.5 1 q-6 0 -10 4 q-4 3 -7 15 q-3 12 -2 18 q0 9 2.5 18 q2.5 9 6.5 10 l2 0 ZM126 111 q0 0 0.5 0.5 q0.5 0.5 0.5 0.5 q4 0 7 -14 q4 -12 4 -12 q3 0 3 -9 q0 -8 -7 -8 q-3 0 -5.5 3 q-2.5 3 -2.5 7 l0 32 ZM97 102 q2 5 3 5 q3 0 5 -15 q0 -17 4 -9 q1 4 3 4 q3 0 3 -10 l1 -5 q0 -9 -5.5 -12.5 q-5.5 -3.5 -9.5 0.5 q-2 8 -4 23 q-2 15 0 19 Z" /><glyph glyph-name="uni4F46" unicode="&#x4f46;" d="M173 141 q4 1 11 1 q11 0 18 -5 q6 -3 8.5 -7.5 q2.5 -4.5 2.5 -15.5 q-3 -13 -5.5 -19.5 q-2.5 -6.5 -11.5 -18.5 q-5 -7 -17 -13 q-4 0 -9 -3 q-5 -3 -5 -5 q0 -3 -6.5 -8.5 q-6.5 -5.5 -8.5 -3.5 q-2 2 -2 6 q0 6 4 8 q5 2 5 7 q0 4 -3 10 l-4 4 l2 -6 q0 -5 -2.5 -8.5 q-2.5 -3.5 -5.5 -1.5 q-5 2 -9.5 25.5 q-4.5 23.5 -4.5 41.5 q0 12 3 12 q1 0 3 -9 q2 -9 4 -20 q0 -11 3 -11 q2 0 3 13 q1 12 2 17.5 q1 5.5 4 5.5 q4 0 6 2 q7 2 15 2 ZM198 126 q-1 4 -12 5.5 q-11 1.5 -17 -0.5 q-6 0 -17 -11 l0 -12 l-1 -5 q0 -4 2.5 -7 q2.5 -3 4.5 -3 q6 3 20 3 q10 0 12 -1 l2 -1 q1 0 3 2.5 q2 2.5 3 4.5 q3 8 3 14 q0 8 -3 11 ZM68 126 q3 0 3.5 -2 q0.5 -2 -1.5 -4 q-2 -2 -2 -4 q0 -6 -2 -10 q-3 -6 0 -9 q1 0 3.5 -5 q2.5 -5 4.5 -10 q4 -11 5.5 -21.5 q1.5 -10.5 1.5 -32.5 q0 -9 -0.5 -13 q-0.5 -4 -3.5 -4 q-5 0 -7 2 q-2 0 -2 36 q0 30 -4 40 q-1 4 -2.5 5.5 q-1.5 1.5 -1.5 -1.5 q0 -6 -2 -6 q-4 -6 -17 -19 q-9 -12 -13.5 -15 q-4.5 -3 -7.5 0 l-1 1 q0 2 4 8.5 q4 6.5 7 11.5 q25 29 34 46 l4 6 ZM173 78 q2 3 3 4.5 q1 1.5 -1 1.5 q-2 0 -4 -1 q-2 -1 -6 -1 q-3 0 -3 -1 q0 -1 3 -3 q3 -3 4 -3 q1 0 4 3 ZM223 50 q6 0 8 -5 q1 -1 1 -4 q0 -7 -26 -7 q-18 0 -21 -2 l-4 -2 q-4 0 -4 -2 q-6 0 -12 -2 q-4 -1 -9 -2 q-5 -1 -6 -2 q-10 0 -17 -2 q-7 0 -9.5 0.5 q-2.5 0.5 -2.5 3.5 q0 10 19 10 q17 3 36.5 7.5 q19.5 4.5 19.5 5.5 q0 2 13 2 l12 0 l2 1 Z" /><glyph glyph-name="uni4F4D" unicode="&#x4f4d;" d="M136 157 q1 0 3.5 -5.5 q2.5 -5.5 2.5 -9.5 q0 -2 4 -10 q1 -4 4 -8.5 q3 -4.5 3 -6.5 l0 -4 q2 0 6 -4 q4 -4 4 -11 q0 -7 -2 -10 q-2 -4 -1.5 -4.5 q0.5 -0.5 3.5 2.5 q5 3 15.5 6.5 q10.5 3.5 16.5 3.5 q5 0 8 -8 q1 -2 1 -5 q0 -2 -7 -12 q-13 -21 -40 -38 q-15 -7 -15 -10 l23 2 q2 1 11 2 q9 1 17 2 q8 1 18 2 q10 1 13 2 q6 0 6 -2 q0 -5 -10 -8 q-3 0 -7.5 -1 q-4.5 -1 -9.5 -1 l-57 -11 q-10 0 -18 -4 q-8 -1 -11 -1 q-3 0 -6 3 q-1 2 -1 4 q0 2 1 4 q1 0 2.5 1 q1.5 1 1.5 -1 q1 0 2 1.5 q1 1.5 2 1.5 q0 4 4 4 q2 0 2 2 q0 2 3 2 q5 0 39 27 q6 6 13.5 15.5 q7.5 9.5 9.5 13.5 q0 1 -2 1 q-3 0 -6 -1 q-3 -1 -4 -2 q-2 -2 -6 -2 q-5 -2 -7 -4 q-1 0 -3 -2.5 q-2 -2.5 -3 -3.5 q-13 -13 -13 -13 q-6 -6 -9.5 -7.5 q-3.5 -1.5 -6.5 1.5 q-2 3 2.5 13.5 q4.5 10.5 11.5 17.5 q5 11 7 13 q1 3 1.5 4.5 q0.5 1.5 -1.5 1.5 q-27 -6 -32 -6 q-9 0 -4 8 q4 4 6 4 q1 -1 6 -0.5 q5 0.5 7 0.5 l8 3 l-2 6 q-6 12 -6 21 q-1 4 -3 8.5 q-2 4.5 -3 8.5 q-3 2 -3 3 q0 1 3 1 l8 0 ZM60 121 q2 5 4 3.5 q2 -1.5 1 -7.5 q0 -5 -12.5 -31 q-12.5 -26 -17.5 -32 q-1 0 -2.5 -1 q-1.5 -1 -3.5 -1 q-3 0 -3 5 q0 6 3 10 l9 14 q4 14 10 17 q2 3 12 23 ZM60 83 q3 5 4 5 q3 0 3 -17 q0 -12 0.5 -17.5 q0.5 -5.5 1.5 -5.5 q2 2 2 8 q0 3 2 6.5 q2 3.5 2 -0.5 q4 -13 0 -16 q-2 -9 -2 -17 q-1 -20 -4.5 -26 q-3.5 -6 -8.5 -1 q-2 2 -2 16 q0 13 1 23 l1 42 Z" /><glyph glyph-name="uni4F4E" unicode="&#x4f4e;" d="M228 24 q3 -2 4 -5.5 q1 -3.5 -2 -7.5 q-1 -1 -8 -1 q-7 0 -7 1 q-2 2 -4 2 q-17 7 -28.5 18 q-11.5 11 -23.5 30 q-5 8 -8.5 9.5 q-3.5 1.5 -6.5 -2.5 q-2 0 -4 -2 q-2 0 -12 -7.5 q-10 -7.5 -13 -11.5 q-3 -1 -5.5 -7.5 q-2.5 -6.5 -3.5 -9.5 q-3 -17 -8 -17 q-6 0 -6 11 q0 7 2 15.5 q2 8.5 4 13.5 q9 26 11 36 l0 5 q0 11 -7 18 q-3 5 -3 6 q0 2 4.5 5.5 q4.5 3.5 11.5 7.5 q10 7 14 11.5 q4 4.5 2 9.5 q-2 4 0 4 q2 2 3 2 q3 0 6 -6 q2 -6 0 -13 q0 -2 -1 -6.5 q-1 -4.5 1 -6.5 q0 -4 7.5 -12.5 q7.5 -8.5 11.5 -8.5 q4 0 10 -4.5 q6 -4.5 8 -7.5 l1 -3 q-1 -5 -13 -8 q-2 0 -2 -2 q0 -5 8 -17 q8 -12 13 -16 q4 -7 12 -12 q8 -5 13 -5 q1 0 2 -1 q1 -1 2 -1 l0 10 l0 7 q0 6 2 6 q1 -1 3 -5.5 q2 -4.5 3 -11.5 q3 -6 7 -10 ZM71 55 q1 0 1.5 -1.5 q0.5 -1.5 0.5 -4.5 q-2 -2 -2 -11 q0 -2 -1.5 -3 q-1.5 -1 -1.5 -3 l-3 -16 l-9 -18 q-7 -1 -7 9 q0 7 3 25 l3 21 l2 23 q0 7 -3 11 q0 6 -4 6 l-9 -9 q-6 -7 -11 -8 q-5 -1 -5 4 q0 5 4 9 q5 6 12 15.5 q7 9.5 11 17.5 q1 2 2.5 6 q1.5 4 3.5 7 q4 4 4 2 q2 -2 2 -5 q0 -10 -6 -22 q-3 -3 -3 -4.5 q0 -1.5 3 -4.5 q7 -7 7 -10 q2 -5 2.5 -12 q0.5 -7 -1.5 -9 l0 -9 q0 -4 0.5 -5 q0.5 -1 4.5 -1 ZM129 74 q14 7 14 12 q0 5 -6 9 q0 2 -1.5 6.5 q-1.5 4.5 -4.5 16.5 q-2 6 -5 6 q-3 0 -7 -4 q-3 -3 -3 -5 q0 -2 1 -7 q2 -5 2 -11 l0 -4 q2 0 2 -4 q-3 -6 -5.5 -14.5 q-2.5 -8.5 -0.5 -8.5 l14 8 ZM159 91 q2 2 2 4 q-2 2 -6.5 2.5 q-4.5 0.5 -4.5 -0.5 q0 -6 9 -6 ZM140 36 q0 4 2 4 q4 0 19 -21 q15 -21 2 -21 q-3 0 -10.5 11 q-7.5 11 -6.5 13 l-2 6 l-4 8 Z" /><glyph glyph-name="uni4F4F" unicode="&#x4f4f;" d="M133 155 q0 3 3.5 3.5 q3.5 0.5 5.5 -3.5 q0 -2 2.5 -6 q2.5 -4 5.5 -7 q2 -2 5 -6.5 q3 -4.5 3 -7.5 q3 -2 9 -2 q8 0 10.5 -4.5 q2.5 -4.5 1.5 -14.5 q-2 -5 -2 -21 l-2 -13 l6 0 q5 0 9 -3.5 q4 -3.5 4 -8.5 q0 -4 -11 -15 q-13 -13 -10 -13 q6 3 15 5 q13 7 17 4 q3 0 6 2 l1 0 q2 0 6.5 -4 q4.5 -4 4.5 -7 q0 -9 -17 -6 q-9 0 -21 -2.5 q-12 -2.5 -12 -3.5 l0 -2 q-12 0 -25 -9 q-4 -2 -8 -3.5 q-4 -1.5 -7 -2.5 q-1 -1 -3 -1 q-7 0 -7 5 q0 4 5 8.5 q5 4.5 9 4.5 q1 0 13 8 q5 8 5 10 q0 3 -5 5 q-5 2 -11 2 q-6 0 -8 -2 q-4 -2 -8.5 -2.5 q-4.5 -0.5 -6.5 0.5 q-4 4 -4 5 q0 5 7 7 q7 6 18.5 12 q11.5 6 16.5 7 q5 0 6.5 3.5 q1.5 3.5 3.5 13.5 q0 17 3 19 l1 3 q0 0 -0.5 0.5 q-0.5 0.5 -0.5 0.5 l-17 -9 q-27 -13 -27 -3 q0 2 0 2 q0 4 12 8 q12 3 12 8 q0 3 -5 15 q-4 6 -6.5 12 q-2.5 6 -2.5 9 ZM72 132 q2 2 3 2 q2 0 2 -6 q0 -11 -5 -17 q-3 -5 -2.5 -6 q0.5 -1 7.5 -1 q6 -1 9.5 -8 q3.5 -7 0.5 -12 q-1 -2 -1 -9 q0 -6 3 -29 q0 -4 1 -11.5 q1 -7.5 1 -15.5 q0 -14 -0.5 -16.5 q-0.5 -2.5 -5.5 -4.5 q-2 -2 -4 -2 q-1 1 -2.5 27 q-1.5 26 -1.5 53 q0 10 -0.5 14 q-0.5 4 -4.5 4 q-4 -1 -11.5 -9 q-7.5 -8 -13.5 -16 q-6 -9 -14 -4 q-2 0 -2 1 q0 2 10 16 q7 12 13 20 q6 8 8 11 q9 18 10 19 ZM177 61 q0 2 -2 2 q-2 -2 -2 -5 l2 -1 q2 1 2 4 ZM161 54 q0 3 -1 5 q-1 2 -4 2 q-13 -3 -13 -4 q0 -2 7 -5 q6 -1 8.5 -1 q2.5 0 2.5 3 Z" /><glyph glyph-name="uni4F50" unicode="&#x4f50;" d="M140 152 q3 6 5 6 q6 0 8 -19 q0 -5 0.5 -7.5 q0.5 -2.5 3.5 -2.5 q2 0 4 -2 q2 -2 2 -5 l2 -4 q0 -6 -12 -4 q-4 0 -6.5 -1 q-2.5 -1 -4.5 -5 q-4 -6 -4 -11 q-1 -3 -2 -6 q-1 -3 -2 -6 q-2 -2 -3 -6 q-1 -4 -1 -7 l-2 -8 l6 2 q1 1 21 10 l25 11 q7 2 13 0 q2 -2 2 -5 q0 -7 -7 -8 q-7 -1 -9.5 -6 q-2.5 -5 -4.5 -17 l0 -15 l6 0 q1 2 7 3 q6 1 10 2 l10 0 q4 0 4 4 q9 4 9 0 q0 -2 2 -2 l10 0 q8 -2 11 -7 l0 -2 q0 -4 -4.5 -6.5 q-4.5 -2.5 -10.5 -1.5 q-7 3 -21 3 q-13 0 -27 -3 q-5 0 -15.5 -2 q-10.5 -2 -16.5 -2 l-16 -4 q0 -2 -4 -2 q-7 0 -7 2 q0 2 10.5 6.5 q10.5 4.5 13.5 3.5 q2 1 7 4.5 q5 3.5 5 6.5 l0 6 q1 3 2 6.5 q1 3.5 2 6.5 l0 8 l-4 -2 q-5 -4 -21 -9 q-10 -4 -13 -7.5 q-3 -3.5 -6 -11.5 q-6 -18 -12 -12 q-1 0 -1 3 q0 5 3 12 q2 2 2 10 q0 3 4 9 q3 2 9 22.5 q6 20.5 4 22.5 l-15 -6 q-5 -3 -9.5 -4.5 q-4.5 -1.5 -7.5 -1.5 q-11 0 -8 6 q0 2 -2 2 q-2 2 -2 3 q0 3 10 3 q9 0 38 13 q3 3 6 15 q0 9 4 19 ZM57 139 q3 6 6 -4 q2 -6 2 -9 q0 -5 -8 -23 q-1 -2 -2.5 -3.5 q-1.5 -1.5 -1.5 -2.5 q0 -2 6 -10 q3 -3 4.5 -7.5 q1.5 -4.5 1.5 -7.5 q0 -4 2 -2 q2 4 6 8 q8 4 4 -6 q0 -2 -1 -6.5 q-1 -4.5 -3 -5.5 q-2 -5 -2 -9 q-1 -3 -1.5 -5.5 q-0.5 -2.5 -2.5 -4.5 q-2 -7 -2 -13 q-1 -3 -2 -7 q-1 -4 -2 -5 l-2 -9 q0 -4 -3.5 -8 q-3.5 -4 -5.5 -2 q-4 0 -4 6 q0 10 9 58 q1 3 1 8 q0 6 -6 14 l-1 0 q-3 0 -16 -13 q-6 -9 -14 -15 q-1 0 -6 5 q-1 1 -1 3 q0 2 2 3.5 q2 1.5 5 5.5 q2 3 12 13 q5 5 14.5 23 q9.5 18 9.5 25 q0 4 2 6 Z" /><glyph glyph-name="uni4F51" unicode="&#x4f51;" d="M176 157 q4 8 6 8 q2 -1 2 -6 q0 -3 -4 -19 q-4 -6 -6 -13 q0 -1 -1 -3 q-1 -2 -1 -5 l-5 -4 l11 0 q2 1 5.5 2.5 q3.5 1.5 6.5 3.5 q3 3 3 0 q0 -2 12 -2 q17 0 17 -6 q0 -2 -11 -8 q-6 -4 -9 -4.5 q-3 -0.5 -8 1.5 q-6 2 -11 2 q-9 0 -15.5 -2.5 q-6.5 -2.5 -4.5 -5.5 q0 -2 -2 -2 q-3 0 -5.5 -14 q-2.5 -14 -0.5 -23 l0 -9 l17 0 l36 3 q5 0 8 -3 q4 -3 4 -5 q0 -3 -7 -10 q-7 -5 -4 -8 q3 -3 3 -5 q0 -7 -15 -10 q-4 -1 -10 -2 q-6 -1 -7 -2 l-5 -1 q-8 0 -8 8 q0 2 10 10.5 q10 8.5 11 7.5 q3 1 8 4.5 q5 3.5 5 4.5 q0 2 -1.5 1.5 q-1.5 -0.5 -2.5 -1.5 q-2 0 -6.5 -1 q-4.5 -1 -10.5 -1 q-20 -3 -17 -13 q2 -4 2 -8 q0 -1 -2 -11 q0 -14 -4 -14 q-5 0 -8 8 q-2 8 -4 25.5 q-2 17.5 -1 20.5 q0 4 -2 4 q0 2 -1 1 q-1 -1 -1 -3 q0 -4 -2 -6 q-1 -2 -2.5 -4.5 q-1.5 -2.5 -1.5 -4.5 q0 -4 -4 -8 q-7 -3 -7 -8 q0 -4 -2 -4 q-4 -3 -4 -5 q-4 -3 -8.5 -2 q-4.5 1 -4.5 4 l0 5 q0 6 2.5 11 q2.5 5 4.5 3 q3 -2 15 16 q12 18 16 32 q4 10 4 11 q3 4 3 8 q-7 -2 -15 -2 q-13 -3 -13 -6 l0 -5 q-3 -1 -7.5 -10 q-4.5 -9 -4.5 -12 q-2 -9 -7 -15 l-12 -31 q-3 -11 -5 -15 q-2 -4 -6 -4 q-5 0 -5 5 q0 4 3 16 q0 15 4 31 q0 11 -0.5 16.5 q-0.5 5.5 -3.5 8.5 q-4 4 -6 4 q-5 0 -17 -12 q-7 -9 -13 -13.5 q-6 -4.5 -7 -1.5 q-3 2 -3 7 q1 2 4.5 6.5 q3.5 4.5 10.5 11.5 q16 16 19 24 q3 2 6.5 12 q3.5 10 3.5 16 q2 6 6.5 6.5 q4.5 0.5 4.5 -5.5 q0 -6 -3 -17 q-3 -11 -6 -15 q-2 -3 -2.5 -4.5 q-0.5 -1.5 2.5 -1.5 q3 0 11 -8 q3 -4 4 -10 q1 -6 2 -9 q0 -11 2 -11 l0 3 q0 2 1.5 6 q1.5 4 2.5 4 q4 4 7 10 q2 3 4.5 7 q2.5 4 3.5 4 q2 2 0.5 3 q-1.5 1 -4.5 1 q-5 0 -7 3 q-2 3 0 6 q2 1 24 3 q10 5 18 5 q8 5 13 12 q2 7 2 13 q0 4 4 8 l5 6 q0 3 4 11 Z" /><glyph glyph-name="uni4F53" unicode="&#x4f53;" d="M138 162 q3 5 8 0 q4 -4 5 -7.5 q1 -3.5 1 -18.5 q2 -7 3 -10 q1 -3 4 -2 q4 0 6 -2 q2 -3 2 -7 q0 -4 -2 -4 l-6 -4 q-1 -1 -3.5 -3.5 q-2.5 -2.5 -2.5 -4.5 q0 -1 2 -11 q0 -15 2 -15 q10 -2 19 -2 q5 -1 12 -2 q7 -1 7 -2 q8 0 16 -2 q5 -1 11.5 -2 q6.5 -1 7.5 -2 q4 -2 9 -2 q6 -2 9.5 -6 q3.5 -4 0.5 -9 q-4 -2 -7 -2 q-6 2 -14.5 3.5 q-8.5 1.5 -12.5 2.5 q-1 0 -2.5 1.5 q-1.5 1.5 -3.5 2.5 l-4 5 q-11 2 -25 2 l-23 4 l-2 -6 q-1 -2 -1 -5 q0 -4 3 -4 q3 0 8 3 l5 0 q10 0 10 -7 q0 -4 -3.5 -6 q-3.5 -2 -11.5 -2 q-4 0 -10 -2 q-4 -3 -4 -21 q-2 -11 -4 -17 q-2 -6 -5 -6 q-2 0 -4 2.5 q-2 2.5 -3.5 7.5 q-1.5 5 -2.5 8 q-2 3 -2 11 q-5 7 -5 13 q-2 2 -2 4 q2 2 2 4 q-3 8 -4 8.5 q-1 0.5 -4 -4.5 l-8 -8 q-2 -1 -4.5 -5 q-2.5 -4 -4.5 -6 q-4 -4 -12 -7.5 q-8 -3.5 -9 -2.5 q0 3 3 7.5 q3 4.5 6 4.5 q1 0 11.5 14.5 q10.5 14.5 15.5 23.5 q5 10 6.5 15 q1.5 5 -0.5 8 l0 7 q0 3 -1.5 2.5 q-1.5 -0.5 -4.5 -2.5 q-12 -5 -21 -5 q-6 0 -8 2 q-2 2 -3.5 1.5 q-1.5 -0.5 -3.5 -3.5 q-4 -4 -4 -8 l-11 -30 l-8 -20 q-4 -4 -8 -15 q-3 -9 -4.5 -10.5 q-1.5 -1.5 -6.5 -1.5 q-3 0 -3.5 1.5 q-0.5 1.5 -0.5 4.5 l2 41 q0 15 -2 19 q0 7 -3.5 8.5 q-3.5 1.5 -6.5 -3.5 q0 -4 -9 -11 q-3 -4 -4.5 -4.5 q-1.5 -0.5 -3.5 0.5 q-2 3 -2 5 q0 2 5 8.5 q5 6.5 14 17.5 q8 9 14.5 20 q6.5 11 8.5 14 q7 10 8.5 11 q1.5 1 1.5 -7 q0 -5 -5.5 -17.5 q-5.5 -12.5 -9.5 -13.5 q-3 0 -3 -4 q0 -4 3 -7 q2 -2 4 -15.5 q2 -13.5 1 -24.5 l0 -12 q10 16 12 21 q4 11 14.5 32 q10.5 21 13.5 22 q2 0 6 -4 q3 -3 5 -3 q2 0 7 1 q6 1 17.5 6.5 q11.5 5.5 16.5 8.5 q2 0 2 15 q0 14 -2 18 q-3 5 0 9 ZM142 86 q0 6 -1 10.5 q-1 4.5 -1 6.5 l-1 2 q-1 0 -1 -10 q-3 -22 0 -22 q4 0 4 13 ZM134 67 l-3 1 q-4 0 -4 -9 q0 -7 2.5 -13 q2.5 -6 4.5 -6 q3 1 6 10 q3 9 4 13 q-1 1 -2 2.5 q-1 1.5 -2 1.5 l-6 0 ZM140 23 q0 3 -1.5 5.5 q-1.5 2.5 -2.5 1.5 q-1 -2 -0.5 -5.5 q0.5 -3.5 2.5 -3.5 q2 0 2 2 Z" /><glyph glyph-name="uni4F55" unicode="&#x4f55;" d="M208 169 q5 0 9 -4 q1 -1 1 -3 q0 -4 -5.5 -6.5 q-5.5 -2.5 -14.5 -2.5 q-14 0 -19 -2 l-12 0 q-1 0 -2 -1 q-1 -1 -2 -1 q0 -3 -5 -3 q-1 -2 -8 -2 q-16 -6 -29 -6 q-11 0 -11 4 q0 4 11 4 q4 2 8 2.5 q4 0.5 6 2.5 l7 0 q35 9 37 14 q3 3 9 3 q6 -4 12 0 l8 1 ZM79 149 q1 1 3.5 5.5 q2.5 4.5 5.5 4.5 q3 0 4 -3.5 q1 -3.5 -3 -4.5 l-1 -9 q-1 -2 -4.5 -9.5 q-3.5 -7.5 -6.5 -8.5 q0 -3 2 -5 q3 -4 6 -9.5 q3 -5.5 3 -9.5 q-2 -1 -1 -3 q1 -2 1 -3 q1 0 1 -8 l0 -6 q2 0 10.5 12.5 q8.5 12.5 13.5 22.5 q1 2 1 10 q0 6 3 6 q2 0 4.5 -3 q2.5 -3 3.5 -9 q0 -6 4 -6 q15 5 24 5 q10 0 12 -5 q2 -3 3 -3 q2 0 4.5 6 q2.5 6 4.5 16 q9 17 15 17 q2 -2 3.5 -4.5 q1.5 -2.5 2 -6 q0.5 -3.5 0.5 -4.5 q0 -11 4 -19 q3 -6 3 -38 q-3 -14 -3 -31 q-2 -2 -2 -17 q-1 -6 -1.5 -12 q-0.5 -6 -2.5 -11 q0 -4 -1 -7 q-1 -3 -1 -5 q-1 -5 -3.5 -8 q-2.5 -3 -4.5 -1 l0 11 q4 20 5.5 35 q1.5 15 2.5 40 q0 35 -2 38 l-6 8 q0 5 -1 5.5 q-1 0.5 -1 -3.5 q0 -3 -3.5 -9.5 q-3.5 -6.5 -7.5 -11.5 q-1 0 -5 -4.5 q-4 -4.5 -7 -7.5 q-16 -14 -29 -17 q-7 0 -9 4.5 q-2 4.5 -4 18.5 q-1 9 -3 13 q-2 4 -2 0 q-4 -9 -7.5 -18.5 q-3.5 -9.5 -4.5 -9.5 q-3 -6 -8.5 -21 q-5.5 -15 -5.5 -20 q0 -5 -3 -9 q-3 -4 -6 -4 q-3 0 -3.5 6 q-0.5 6 -0.5 23 q1 15 1 35 q0 18 -5 22 q-1 3 -2.5 3.5 q-1.5 0.5 -1.5 -1.5 q-3 -2 -5 -5 q-4 0 -4 -1 q0 -2 -7 -6.5 q-7 -4.5 -10 -4.5 q-3 0 -4 4 q-1 4 2 8 q9 12 19 15 q12 5 21 28 ZM152 105 q-1 1 -2.5 1 q-1.5 0 -3.5 -1 l-6 0 q-12 -3 -8 -15 l1 -9 l11 11 l8 13 Z" /><glyph glyph-name="uni4F59" unicode="&#x4f59;" d="M113 174 q5 5 6 0 q2 0 4 -1 q2 -1 3 -1 q4 0 5.5 -3.5 q1.5 -3.5 -1.5 -7.5 q-1 -1 -1 -3 q0 -3 5 -9 q17 -21 23 -21 q2 -2 5.5 -3.5 q3.5 -1.5 5.5 -2.5 q2 -2 5 -3.5 q3 -1.5 5 -1.5 q2 0 6 -4 q5 -2 11 -2 q7 -2 8.5 -4.5 q1.5 -2.5 1.5 -3.5 q0 -4 -6 -9 q-3 -1 -11 -1 q-9 0 -12 1 q-4 0 -4 5 q0 6 -2 6 q-2 1 -4.5 2.5 q-2.5 1.5 -3.5 3.5 q-6 4 -9 4 l-2 2 q-2 3 -6 5 q-12 12 -15 16 l-8 13 l-7 -6 q-4 -4 -6 -9 q0 -2 -2 -4 q-4 0 -4 -4 q-1 -2 -2.5 -4 q-1.5 -2 -1.5 -4 q-8 -9 -17 -23 q0 -3 -4.5 -8.5 q-4.5 -5.5 -6.5 -8.5 q-7 -7 -12 -17 q-5 -6 -9 -6 q-4 0 -4 6 q-2 2 0 4 q4 0 16.5 16 q12.5 16 25.5 39 q11 20 13 20 q4 5 8 13 q4 8 4 11 l0 8 ZM124 97 q10 4 13 4 q7 0 7 -6 q0 -1 -4 -9 q-4 -4 -4.5 -13.5 q-0.5 -9.5 2.5 -7.5 q4 0 7.5 -3 q3.5 -3 1.5 -5 q0 -4 -4 -4 q-5 0 -6.5 -3 q-1.5 -3 -1.5 -11 q0 -13 1 -22 l1 -8 q0 -9 -2.5 -15.5 q-2.5 -6.5 -6.5 -6.5 q-3 0 -8 8.5 q-5 8.5 -5 14.5 l-4 11 q-3 6 -3 11.5 q0 5.5 3 3.5 q1 0 4 -3.5 q3 -3.5 4 -7.5 l7 -10 l-2 14 q0 15 -2 15 l-11 -4 q-26 -11 -29 -4 q0 3 19 25 q12 12 15.5 16.5 q3.5 4.5 -1.5 4.5 q-6 -1 -7.5 -1 q-1.5 0 -2.5 5 q-2 5 -1 6.5 q1 1.5 7 1.5 q1 -1 3 -1 q2 0 10 4 ZM122 59 q1 3 -1 3.5 q-2 0.5 -3 -1.5 q-2 -2 -2 -3 q0 -1 2 -1 l4 2 ZM109 57 q-2 0 -2 -2 q1 -1 3.5 -0.5 q2.5 0.5 2.5 2.5 l-4 0 ZM187 44 q0 3 1 3 q1 0 9 -11 q11 -16 11 -30 q0 -10 -7 -10 l-4 4 q-2 11 -5.5 25 q-3.5 14 -4.5 19 ZM60 24 q2 0 4.5 -2.5 q2.5 -2.5 2.5 -4.5 l4 -7 q2 -2 4.5 -5.5 q2.5 -3.5 4.5 -8.5 q2 -10 0 -15 q-1 -1 -4 -1 q-9 0 -9 5 q0 2 -1 3.5 q-1 1.5 -1 3.5 q-4 7 -6 18 q-2 11 0 13 l1 1 Z" /><glyph glyph-name="uni4F5B" unicode="&#x4f5b;" d="M153 187 q3 0 2 -17 l0 -18 q0 -1 1 -3 q1 -2 2 -2.5 q1 -0.5 3 0.5 q2 3 9 3 q3 0 4.5 -1 q1.5 -1 1.5 -4 q0 -6 -4.5 -13 q-4.5 -7 -10.5 -10 q-3 -2 -4.5 -4 q-1.5 -2 -1 -3 q0.5 -1 1.5 1 q5 0 10 -3 q5 -3 5 -8 q0 -3 -9 -12 q-6 -6 -8 -12 q-2 -6 4 -3 q33 8 51 11 q6 0 9.5 -0.5 q3.5 -0.5 6.5 -3.5 q6 -4 6 -10 q0 -8 -25 -32 q-26 -26 -29 -23 q-8 8 -12 16 q-7 7 -11 13 l0 -35 q-3 -47 -8 -47 q-2 0 -2 11 l0 21 q1 18 1 34 q0 16 -1 22 q0 5 -9 3 q-8 -3 -10.5 -7.5 q-2.5 -4.5 -2.5 -13.5 q0 -15 -0.5 -21.5 q-0.5 -6.5 -2.5 -6.5 l-3 0 q-3 0 -3.5 5 q-0.5 5 -0.5 14 l0 15 l-10 -7 q-6 -4 -9 -4.5 q-3 -0.5 -6 2.5 l-2 5 q0 3 5 6.5 q5 3.5 7 5.5 q12 11 15.5 17 q3.5 6 -2.5 10 q-4 4 -4.5 8 q-0.5 4 2.5 7 q6 3 6 12 q2 5 2 11 q-4 0 -8 -2 q-6 -3 -14 -11 q-8 -8 -9 -14 q0 -1 -4 -11 q-3 -2 -3 -4 q2 0 1 -2 q-1 -2 -1 -4 q-3 -12 -3 -13 q0 -2 -1.5 -5 q-1.5 -3 -1.5 -5 q-2 -2 -2 -11 q0 -6 -4 -6 q-6 -3 -8 4 q-2 7 -2 27 q0 23 -1 32 q-1 9 -5 9 q-3 0 -9 -7 q-4 -4 -7.5 -6 q-3.5 -2 -5.5 -4 q-3 -2 -4 -1 q-1 1 -2 5 q0 3 3.5 7.5 q3.5 4.5 4.5 6.5 l11 13 l12 21 q13 21 15 19 q4 0 0 -9 q0 -6 -5 -17.5 q-5 -11.5 -7 -11.5 q-2 0 0.5 -2.5 q2.5 -2.5 3.5 -3.5 q6 -10 6 -17 l0 -10 q2 -5 2 -9 l0 -4 q1 0 4 8 q6 8 6 15 q0 4 3 6 l4 6 q7 18 23 21 q2 1 5 3.5 q3 2.5 3 3.5 q2 24 4.5 32.5 q2.5 8.5 6.5 9.5 q4 0 2 -2 q-2 -4 -2.5 -19.5 q-0.5 -15.5 0.5 -16.5 q0 -2 8 2 q9 3 9 8 q0 34 4 38 l4 2 ZM145 126 q0 5 -9 0 q-2 -1 -4 -2.5 q-2 -1.5 -4 -1.5 q-2 -4 -2 -8 l0 -6 l8 8 l11 10 ZM140 93 q-8 -3 -13 -7 q-5 -4 -4 -6 l1 0 q3 0 8.5 4 q5.5 4 5.5 7 l2 2 ZM216 76 q0 2 -6.5 2 q-6.5 0 -6.5 -2 l-8 0 q-11 -2 -25 -6.5 q-14 -4.5 -15 -8.5 q0 -2 11 -13.5 q11 -11.5 14 -11.5 q3 0 20 18.5 q17 18.5 16 21.5 Z" /><glyph glyph-name="uni4F5C" unicode="&#x4f5c;" d="M125 172 q3 8 7 8 q3 0 3.5 -1.5 q0.5 -1.5 0.5 -4.5 q2 -11 3 -12.5 q1 -1.5 5 0.5 q5 1 10.5 3 q5.5 2 10.5 3 q12 5 16.5 5.5 q4.5 0.5 4.5 -5.5 q0 -2 -17 -13 l-16 -8 l2 -15 q0 -11 0.5 -17 q0.5 -6 3.5 -6 q0 1 5.5 2 q5.5 1 9.5 2 q6 0 9.5 -0.5 q3.5 -0.5 6.5 -3.5 q4 -3 4 -7 q0 -5 -4 -10 l-4 -6 q0 -4 -4 -8 l-8 -11 q0 -2 2 0 q3 3 28 3 q15 0 16 -1 q2 -2 2 -5 q0 -7 -5 -7 q-12 0 -22.5 -1.5 q-10.5 -1.5 -10.5 -2.5 q0 -1 -1.5 -1 q-1.5 0 -2.5 1 q-3 3 -6 0 l-5 -2 q-4 0 -6.5 4 q-2.5 4 -2.5 9 q0 7 5 12 q4 4 4 6 l5 6 q6 3 6 9 q0 3 -2.5 3.5 q-2.5 0.5 -8.5 0.5 q-4 -1 -8.5 -2 q-4.5 -1 -5.5 -2 q-1 -6 -2 -23 q-1 -17 -1 -39 q0 -27 1 -39 l0 -21 q-1 -3 -2.5 -2.5 q-1.5 0.5 -4.5 2.5 q-3 3 -3.5 11 q-0.5 8 0.5 26 l0 51 q0 18 -0.5 24 q-0.5 6 -0.5 7 q-3 6 0 9 l0 23 q0 14 -0.5 17 q-0.5 3 -5.5 4 q-6 0 -6 4 q-1 3 -3 3 q-2 0 -8 -9 q-7 -14 -8 -17 q-8 -10 -5 -10 l-4 -7 l-6 -14 q-2 -7 -6 -15 q0 -5 -9 -23 q-4 -14 -7.5 -19.5 q-3.5 -5.5 -8.5 -5.5 q-4 2 -5.5 11 q-1.5 9 -1.5 31 q0 26 -3 26 q-2 0 -7 -8 q-6 -6 -10.5 -7 q-4.5 -1 -4.5 3 q-1 1 -1 3 q0 3 5 10 q7 3 7 8 q0 4 4 4 l4 5 q0 4 4 8 q7 11 4 17 q-1 2 -0.5 3.5 q0.5 1.5 2.5 2.5 q3 1 4.5 0.5 q1.5 -0.5 2.5 -2.5 q1 -2 1 -8 q0 -11 -5 -17 q-2 -6 -2 -6 q0 -2 4 -7 q3 -4 3.5 -10.5 q0.5 -6.5 0.5 -18.5 l-1 -14 q0 -6 1 -6 q2 0 8 16 q5 13 15 34 q10 21 21 39 l10 21 Z" /><glyph glyph-name="uni4F60" unicode="&#x4f60;" d="M132 166 q0 4 0.5 5.5 q0.5 1.5 1.5 1.5 q5 0 9 -9 q3 -7 3 -11 q0 -7 -1 -12 q-1 -4 -3 -14 q-2 -10 -4 -15 q0 -6 -1 -11 q-1 -5 -1 -6 q5 2 7 4 q4 2 8 3.5 q4 1.5 8 3.5 q5 3 8.5 3.5 q3.5 0.5 6.5 -1.5 q3 -3 3 -7 q0 -11 -13 -24 l-7 -9 l0 -25 q0 -34 -2.5 -50 q-2.5 -16 -7.5 -11 q-1 0 -2 4 q-1 4 -2 7 q-3 11 -7 14 q-3 3 0 8 q2 5 4.5 5 q2.5 0 2.5 -5 q0 -3 2 -3 q1 -1 1 16 q0 30 -3 40 q0 4 0.5 6 q0.5 2 3.5 4 q6 5 10 9.5 q4 4.5 2 5.5 q-6 -2 -12 -6 q-6 -3 -10 -5.5 q-4 -2.5 -5 -4.5 q-1 -5 -3 -6 q-2 -1 -7 1 q-2 0 -2 7 q0 5 2 8 q3 6 7.5 28.5 q4.5 22.5 4.5 31.5 q0 15 -2 19 ZM67 118 q2 2 2 2 q3 0 3 -8 q0 -7 -3 -18 q-3 -11 -6 -16 q-3 -5 0 -8 q3 -1 4.5 -13.5 q1.5 -12.5 1.5 -23.5 q0 -5 1 -5 q3 0 12 19 q3 7 6 11.5 q3 4.5 4 7.5 q4 3 1 -10 q-3 -13 -9 -26 q-9 -22 -11 -25 q-1 -1 -1.5 -5 q-0.5 -4 -2.5 -7 q0 -7 -6 -7 q-5 0 -7 4.5 q-2 4.5 1 8.5 q1 2 1 15 q0 14 -1 27 q-1 13 -2 18 q-3 4 -8 -1 q-5 -5 -9 -5 q-4 0 -6 5 q0 4 10 14 q18 15 21 38 q1 2 2 5 q1 3 2 3 ZM187 37 q0 4 2 4 q4 0 8 -7 q19 -19 19 -19 q20 -15 6 -18 q-6 0 -16 12 q-5 4 -8 8.5 q-3 4.5 -3 6.5 l-4 6 q-1 1 -2.5 3 q-1.5 2 -1.5 4 ZM105 22 q3 11 6 11 q1 0 2.5 -7.5 q1.5 -7.5 2.5 -13.5 q0 -21 -5 -26 q-2 -2 -3 -2.5 q-1 -0.5 -3 2.5 q-3 3 -3 13 q0 11 3 23 Z" /><glyph glyph-name="uni4F69" unicode="&#x4f69;" d="M148 147 q11 5 20.5 8 q9.5 3 11.5 1 q2 0 2 -9 q0 -10 -2 -18 q-1 -8 -1 -28 q0 -24 3 -41 q3 -12 10 -19 q12 -12 30 -12 q9 0 18 3 q4 2 5.5 3.5 q1.5 1.5 1.5 5.5 q-1 6 -1 20 q0 12 1 13 q2 0 5.5 -12 q3.5 -12 5.5 -17 q0 -7 3 -15 q4 -6 -2 -8 q-3 -2 -17.5 -3.5 q-14.5 -1.5 -27.5 -1.5 q-5 0 -15 5 q-6 3 -13.5 8.5 q-7.5 5.5 -7.5 7.5 q0 3 -4 7 q-2 1 -3 4 q-1 3 -2 4 l0 10 q-3 23 -3 41 q0 15 1 20 q2 9 2 17 q-8 -1 -22.5 -5 q-14.5 -4 -23.5 -7 q0 -3 -2 -3 q0 2 -1 2 q-1 0 -1 -2 q-2 -2 -5 -2 q-5 0 -5 7 q0 4 4 4 q4 0 6 2 q14 6 29 10 ZM50 139 q2 5 4 5 q2 0 2 -5 q0 -5 -4.5 -13 q-4.5 -8 -10.5 -14 q-3 -7 -3 -9.5 q0 -2.5 3 -7.5 q4 -3 5 -8.5 q1 -5.5 0 -20.5 l0 -17 l4 6 q2 3 6 9 q4 6 9 14 q5 9 9 15.5 q4 6.5 5 9.5 q2 2 4 9 q0 3 6 7.5 q6 4.5 9 4.5 q1 -1 1.5 -6 q0.5 -5 0.5 -15 l-8 -65 q-1 0 -0.5 -1 q0.5 -1 0.5 -2 q1 -2 1 -5 q0 -8 -7 -8 q-3 0 -4.5 1.5 q-1.5 1.5 -2 3.5 q-0.5 2 -0.5 3 q-1 6 -1 18 q0 12 3 18 q2 2 2 16 q3 7 3 13 q2 0 2 4 q0 1 -1 1 q-2 0 -6 -6 q-4 -6 -4 -9 q0 -2 -1 -4 q-1 -2 -1 -3 q-1 -2 -2.5 -4 q-1.5 -2 -1.5 -4 q0 -2 -1.5 -4 q-1.5 -2 -2.5 -5 q-1 -1 -5 -7 q-4 -6 -6 -9 q-14 -21 -18.5 -24.5 q-4.5 -3.5 -10.5 -0.5 q-2 0 -2 1 q0 2 1.5 5.5 q1.5 3.5 2.5 9.5 q5 14 5 32 q0 10 -2 16.5 q-2 6.5 -5 6.5 q-2 0 -13 -11 q-8 -8 -14 -10 q-6 -2 -6 4 q0 3 7.5 12 q7.5 9 10.5 9 q7 4 11 8 q10 12 27 36 ZM134 114 q6 3 10 3 q6 0 6 -4 q0 -4 -4 -8 q-4 -4 -4 -12 l-2 -8 l8 0 q15 0 15 -13 q0 -8 -5 -19 q-5 -11 -10 -12 q-1 -2 -2.5 -2 q-1.5 0 -1.5 2 l-2 -3 q-2 0 -2 -18 q-2 -14 -3.5 -19 q-1.5 -5 -4.5 -4 q-2 2 -2 35 q0 16 -0.5 25 q-0.5 9 -2.5 9 q-3 0 -6.5 -5.5 q-3.5 -5.5 -5.5 -11.5 q-3 -5 -8.5 -5.5 q-5.5 -0.5 -6.5 3.5 l0 4 q1 1 2 3 q1 2 2 3 q0 6 6.5 17.5 q6.5 11.5 8.5 16.5 q5 6 5 8 q0 2 -5 2 q-5 1 -5 4 q0 3 7 5 q5 0 13 4 ZM132 85 q2 3 -1.5 2 q-3.5 -1 -3.5 -5 q-2 -2 0 -2 q5 0 5 5 ZM146 70 q0 2 -2 2 q-3 0 -3.5 -2.5 q-0.5 -2.5 -0.5 -6.5 q1 -2 1.5 -5 q0.5 -3 2.5 -3 q2 0 3 6.5 q1 6.5 -1 6.5 q-2 0 0 2 Z" /><glyph glyph-name="uni4F6C" unicode="&#x4f6c;" d="M128 167 q-1 2 -0.5 3 q0.5 1 2.5 1 q3 0 5 -1.5 q2 -1.5 4 -4.5 q2 -8 2 -13 q0 -6 -2 -10 q-3 -5 -3 -11 l-1 -8 l6 2 q3 2 8 2 q5 0 11 -4 q1 -1 1 -4 q0 -3 -6 -9 q-3 -1 -5.5 -4.5 q-2.5 -3.5 -2.5 -5.5 q-2 -2 -3.5 -5.5 q-1.5 -3.5 -2.5 -5.5 l-5 -6 l5 0 q4 0 10 9 q6 9 9 16 q1 4 5 10.5 q4 6.5 7 10.5 l6 8 q3 3 4.5 4 q1.5 1 4.5 -1 q2 -3 2.5 -7 q0.5 -4 -2.5 -4 q-4 -4 -9.5 -11.5 q-5.5 -7.5 -7.5 -11.5 l-4 -11 q-3 -4 -2.5 -6 q0.5 -2 4.5 0 q2 3 29 3 q12 0 18 -0.5 q6 -0.5 10 -2.5 q9 -12 -28 -12 l-19 0 q0 2 -1.5 1.5 q-1.5 -0.5 -2.5 -1.5 q-2 0 -5 -1.5 q-3 -1.5 -5 -1.5 q-13 0 -13 -10 q0 -8 19 -15 q8 -1 8 -6 q0 -5 -4.5 -6 q-4.5 -1 -16.5 0 q-4 1 -10 1 q-5 0 -6.5 -2.5 q-1.5 -2.5 -1.5 -11.5 l0 -12 q0 -5 1 -6.5 q1 -1.5 5 -1.5 q8 -2 13 -2 q7 0 22 3 q6 0 11 1.5 q5 1.5 8 1.5 q9 1 11 4 q2 3 4 15 q2 15 3 15 q3 0 10 -24 q0 -6 1 -9.5 q1 -3.5 1 -4.5 q0 -2 -7.5 -4.5 q-7.5 -2.5 -13.5 -2.5 q-4 -1 -8.5 -2 q-4.5 -1 -8.5 -2 q-22 -4 -36 -4 q-15 0 -20 2 q-8 1 -10.5 5 q-2.5 4 -0.5 14 q1 8 2.5 14.5 q1.5 6.5 1.5 9 q0 2.5 -2 1.5 q-2 0 -4 -2 q0 -2 -4 -6 q-1 -3 -2.5 -5 q-1.5 -2 -1.5 -4 q0 -1 -16 -16 q-16 -15 -18 -15 q-1 0 -3 1 q-2 1 -4 1 l0 1 q0 5 11 18 q13 16 17 16 q3 0 15 14.5 q12 14.5 16 25.5 l4 6 l-8 -4 q-18 -7 -36 -7 q-9 0 -12 3 q-1 3 0 5.5 q1 2.5 4 2.5 q2 0 19 15.5 q17 15.5 17 18.5 q-2 2 -4 2 q-3 0 -4 1.5 q-1 1.5 -1 4.5 q0 3 1 5 q1 2 4 2 q4 0 5.5 2 q1.5 2 2.5 6 q0 7 4 19 q2 10 2 11 q0 2 -2 10 ZM53 117 q4 6 7 6 q3 0 3 -5 q0 -2 -2 -10 q-5 -7 -2 -15 q2 -1 3 -8 q1 -7 1 -15 l0 -18 q1 0 1.5 1 q0.5 1 0.5 3 q0 3 3.5 7.5 q3.5 4.5 4.5 2.5 q4 -5 -8 -46 q0 -1 -1 -5 q-1 -4 -1 -10 q0 -6 -4 -9.5 q-4 -3.5 -8 -0.5 q-5 2 -3 6 q2 4 2 37 q0 33 -2 36 q0 7 -2 7 q-2 0 -6 -7 q-4 -2 -8 -10 q-2 -1 -3.5 -1 q-1.5 0 -2.5 1 q-3 3 -3 7 q0 5 7 12 q6 6 11 13.5 q5 7.5 7 11.5 q0 2 2 4 q2 2 3 5 ZM122 81 q0 4 -2 4 q-2 0 -13 -11 q2 -1 8.5 2.5 q6.5 3.5 6.5 4.5 Z" /><glyph glyph-name="uni4F73" unicode="&#x4f73;" d="M148 168 q2 3 3 3 q2 0 9 -7 q4 -2 6 -5 q2 -3 2 -7 l-2 -17 l0 -7 q0 -5 1 -7.5 q1 -2.5 4 -2.5 q8 0 8 -14 q-3 -5 -6 -5 q-12 0 -8 -12 q0 -5 1.5 -6 q1.5 -1 8.5 -1 q6 0 10 -4 q0 -4 -1.5 -8 q-1.5 -4 -2.5 -4 q-1 0 -6.5 -5.5 q-5.5 -5.5 -8.5 -9.5 q-1 -2 0 -3 q1 -1 3 -1 q6 0 9 -2.5 q3 -2.5 3 -5.5 q0 -6 -8 -11 q-2 -2 -5 -4.5 q-3 -2.5 -3 -4.5 q0 -1 -1.5 -2.5 q-1.5 -1.5 -3.5 -3.5 q-1 -3 0 -3.5 q1 -0.5 5 -0.5 q6 2 14 4 q8 2 13 5 q2 0 7 2 q5 2 10 2 q3 -3 10 -3 q3 0 4.5 -3.5 q1.5 -3.5 -0.5 -6.5 q-2 -5 -9.5 -7 q-7.5 -2 -15.5 -1 l-13 0 q-3 -2 -8.5 -3 q-5.5 -1 -11.5 -4 q-9 0 -17 -1 q-6 0 -11.5 -1.5 q-5.5 -1.5 -5.5 -3.5 q-2 -2 -10 -2 q-5 0 -6 1.5 q-1 1.5 -1 5.5 q0 5 8 8 q6 2 18 12 q6 7 6 9 q0 2 -5 0 q-1 -3 -6 -3 q-3 3 -3 8 q0 6 3 9 q2 2 2 7 q0 10 -10 23 q-4 4 -4 8 q0 3 3 3.5 q3 0.5 7 -3.5 q5 -3 13 0 q4 1 5.5 4.5 q1.5 3.5 2.5 10.5 q0 6 -2 10 l-15 -8 q-6 -2 -11 -4 q-5 -2 -7 -2 q-7 0 -9 -2.5 q-2 -2.5 -4 -10.5 q-4 -18 -11 -34 q-2 -2 -3 -5 q-1 -3 -1 -5 q-2 -3 -3.5 -6.5 q-1.5 -3.5 -2.5 -5.5 l-4 -11 l0 -1 q0 -3 -3 -7 q-3 -4 -6 -4 q-5 0 -5 7 q0 6 3 16 q7 27 7 41 q-4 23 -6.5 27.5 q-2.5 4.5 -8.5 -2.5 q-2 -1 -15 -14 q-5 -6 -9 -8 q-4 -2 -5 2 q-1 1 -1 3 q0 2 4 7.5 q4 5.5 7 9.5 q9 10 16.5 21 q7.5 11 10.5 17 q0 3 4.5 10 q4.5 7 6.5 7 q4 0 4 -3 q0 -2 -7 -18 q-6 -11 -6.5 -14 q-0.5 -3 2.5 -5 q5 -3 9 -12.5 q4 -9.5 4 -16.5 q1 -8 3.5 -9.5 q2.5 -1.5 4.5 4.5 q0 6 13 30 q0 3 3 4 q3 1 5 2 q10 0 21 8 l17 7 l0 23 q0 11 -0.5 16.5 q-0.5 5.5 -3.5 8.5 q-1 1 -2.5 3.5 q-1.5 2.5 0.5 4.5 ZM148 51 q4 3 4.5 6 q0.5 3 -3.5 3 q-1 0 -3 -0.5 q-2 -0.5 -5 0.5 q-1 0 0 -2 q3 -3 3 -7 q0 -2 1 -2 q1 0 3 2 Z" /><glyph glyph-name="uni4F7F" unicode="&#x4f7f;" d="M144 169 q0 1 2 1 q5 0 9 -16 q1 -3 3.5 -9.5 q2.5 -6.5 4.5 -4.5 l6 -5 q1 -1 0.5 -2.5 q-0.5 -1.5 -2.5 -3.5 q-3 -1 -3.5 -5 q-0.5 -4 -0.5 -12 q1 -6 2 -9 q1 -3 4 -3 l8 0 q5 0 5 -7 q2 -5 -3 -15 q-5 -10 -12 -16 q-6 -6 -6 -11 q-2 -2 -2 -14 l-2 -9 l12 -2 q16 -3 30 -8.5 q14 -5.5 18 -10.5 q2 -1 5.5 -3.5 q3.5 -2.5 5.5 -2.5 q2 -2 2 -8 q-1 -4 -6 -4.5 q-5 -0.5 -9 2.5 q-2 0 -3 1 q-1 1 -3 1 q-2 1 -5.5 3 q-3.5 2 -7.5 5 q-12 13 -29 13 q-4 0 -4 2 q-2 2 -4 2 q-2 0 -5.5 -3 q-3.5 -3 -5.5 -8 q-5 -9 -14 -15 q-9 -6 -18 -6 q-13 0 -25 13 q-12 13 -8 23 q0 2 11 6 q7 4 16 4 q11 0 24 -4 q6 0 8.5 0.5 q2.5 0.5 3.5 4.5 q1 2 2 6 q1 4 3 6 l0 9 l-9 0 q-4 0 -8 -3 q-1 -4 -6.5 -7 q-5.5 -3 -8.5 -1 q-5 0 -8 23 q-2 8 0.5 25.5 q2.5 17.5 5.5 18.5 q3 3 2 4.5 q-1 1.5 -4 1.5 q-4 0 -6 3.5 q-2 3.5 2 3.5 q1 1 6.5 2 q5.5 1 9.5 2 q16 5 19 6 q5 2 5 4 q0 2 -5 19 q-4 13 -2 13 ZM65 116 q3 7 6 7 q3 0 3 -1 q0 -2 -7 -16 l-9 -15 l4 -8 q5 -10 5 -29 l-2 -21 l6 10 q6 12 6 15 q2 5 4 5.5 q2 0.5 2 -3.5 q-2 -11 -11 -35.5 q-9 -24.5 -12 -27.5 q-3 -5 -6 -2 q-3 1 -3 4 q0 3 1 7 q3 27 3 52 q0 17 -1 19 q-1 1 -8.5 -7 q-7.5 -8 -10.5 -14 q-3 -7 -6 -7 q-5 0 -5 3 q0 6 9 16 q27 37 32 48 ZM155 121 q-7 -2 -11 -5 q-7 -3 -13 -7 q-6 -4 -6 -7 l0 -4 l-1 -2 q0 -4 12 -1 q6 0 10.5 1.5 q4.5 1.5 5.5 1.5 q0 1 1.5 4.5 q1.5 3.5 1.5 7.5 l0 11 ZM169 85 q0 2 -2 2 q-2 0 -2 -2 q-2 -2 2 -2 q2 0 2 2 ZM127 70 q0 4 -1 7 q-1 3 -1 4 q-1 3 -3 3 q-1 0 -1 -18 q0 -3 0.5 -4 q0.5 -1 3.5 0 l2 8 ZM152 81 q2 2 1.5 3 q-0.5 1 -2.5 1 q-10 -2 -12.5 -3 q-2.5 -1 -2.5 -7 q0 -4 0.5 -5.5 q0.5 -1.5 3.5 -1.5 q5 0 8.5 3.5 q3.5 3.5 3.5 9.5 ZM136 20 q-10 2 -23 2 q-13 0 -19 -2 q-4 -1 -4 -7 q0 -4 3 -8.5 q3 -4.5 9 -7.5 q2 -2 13 -2 q7 0 10 1 q3 1 9 7 q7 8 7.5 11.5 q0.5 3.5 -5.5 5.5 Z" /><glyph glyph-name="uni4F8B" unicode="&#x4f8b;" d="M207 162 q4 0 10 -5 q6 -4 7.5 -6.5 q1.5 -2.5 2.5 -9.5 l-1 -44 q0 -7 -1.5 -14 q-1.5 -7 -1.5 -14 q-2 -35 -4.5 -57 q-2.5 -22 -5.5 -22 q-1 0 -1.5 5.5 q-0.5 5.5 -0.5 17.5 q0 19 1 49.5 q1 30.5 3 54.5 q0 17 -2 24 l-4 6 l-2 -9 q0 -7 -5 -19 q-2 -4 -2 -12 q0 -9 -4.5 -22 q-4.5 -13 -9.5 -18 q-4 -3 -7 -3 q-4 0 -10 9 q-3 5 -3.5 10 q-0.5 5 -0.5 15 q0 32 8 32 q4 -4 4 -6 q0 -2 -1 -7.5 q-1 -5.5 -1 -15.5 q0 -15 2 -19 q2 -4 7 2 q3 5 8 20 q5 15 6 26 q0 1 1 4 q1 3 1 7 q0 1 1 4 q1 3 1 8 q0 2 1.5 4.5 q1.5 2.5 1.5 3.5 l2 1 ZM66 147 q2 1 4.5 3.5 q2.5 2.5 4.5 2.5 q2 0 2.5 -2.5 q0.5 -2.5 -0.5 -3.5 q-2 0 -9 -13 l-6 -10 l4 0 l6 -2 q4 -5 4 -18 q0 -9 -1 -14 q-3 -7 -3.5 -9.5 q-0.5 -2.5 0.5 -2.5 q3 0 5.5 4.5 q2.5 4.5 3.5 5.5 l6 13 q3 0 3.5 -6 q0.5 -6 -1.5 -9 q-3 -4 -6.5 -12 q-3.5 -8 -3.5 -11 q0 -3 -2 -9 q-2 -6 -5 -10 q-1 -2 -2 -4 q-1 -2 -2 -4 q0 -5 -4 -5 q-4 0 -6 5 q-1 4 0.5 23 q1.5 19 3.5 33 q1 4 2.5 9 q1.5 5 1.5 7.5 q0 2.5 -2 2.5 q-3 3 -27 -25 q-10 -7 -10 2 q0 2 4 9 q2 1 12 16 q3 6 6 10.5 q3 4.5 5 4.5 l6 8 q0 2 2 4.5 q2 2.5 4 6.5 ZM112 144 q1 5 6 6.5 q5 1.5 5 -3.5 q0 -3 1 -4 q1 -1 3 -1 q1 1 3.5 2 q2.5 1 2.5 3 q1 0 3 0.5 q2 0.5 6 -0.5 q3 -1 3 -5 q0 -6 -8 -14 q-3 -3 -5.5 -7 q-2.5 -4 -2.5 -6 l-1 -3 q0 -2 5 -3.5 q5 -1.5 7 -1.5 q15 -6 12 -17 q0 -7 -1.5 -14.5 q-1.5 -7.5 -4.5 -10.5 l0 -4 q0 -2 -1.5 -4.5 q-1.5 -2.5 -2.5 -2.5 q-3 -3 -6.5 -8.5 q-3.5 -5.5 -2.5 -5.5 q1 -1 -4.5 -8 q-5.5 -7 -7.5 -7 q-10 0 -10 17 q0 9 3 15 q1 1 4 -3.5 q3 -4.5 3 -7.5 q0 -4 2 2 q3 5 2.5 9 q-0.5 4 -4.5 4 q-6 0 -11.5 4.5 q-5.5 4.5 -5.5 7.5 q0 8 6.5 29 q6.5 21 10.5 24 q1 1 0.5 2.5 q-0.5 1.5 -2.5 1.5 q-5 0 -7.5 5 q-2.5 5 0.5 9 ZM142 90 q-3 4 -8 4 q-9 0 -13 -12 q-2 -3 -2 -6 q0 -3 8 -3 q6 0 7.5 1 q1.5 1 5.5 6 q0 3 1 5 q1 2 1 3 l0 2 Z" /><glyph glyph-name="uni4F91" unicode="&#x4f91;" d="M180 161 q2 3 4 3 q5 0 7 -7 q0 -6 -2 -10 q-2 -2 -3 -5.5 q-1 -3.5 -1 -5.5 q0 -2 1 -3 q1 -1 3 -1 q2 0 6 4 q0 3 7 0 q4 -2 14 -2 q2 0 4 -1.5 q2 -1.5 2 -2.5 l1 -3 q0 -5 -17 -5 l-19 0 q-6 0 -8.5 -2 q-2.5 -2 -8.5 -11 q-5 -5 -12 -19 q-2 -2 -5 -7 q-3 -5 -6 -7 q-2 -3 -6 -8.5 q-4 -5.5 -7 -8.5 q-9 -13 -12 -7 l0 2 q0 4 2 8.5 q2 4.5 4 6.5 q4 0 15 19 q11 13 13.5 20.5 q2.5 7.5 -3.5 4.5 q-12 -4 -23.5 -5.5 q-11.5 -1.5 -13.5 1.5 q-2 2 -2 6 q0 4 3.5 4.5 q3.5 0.5 10.5 0.5 q6 0 10.5 1 q4.5 1 6.5 1 q4 4 13 4 q6 1 9 3.5 q3 2.5 5 6.5 q6 12 6 15 q0 4 1 6 q1 2 1 4 ZM76 132 q0 2 6 2 q6 0 2 -12 q0 -7 -6 -19 q-4 -8 -4 -11 q2 -2 4 -2 q5 -2 7.5 -4 q2.5 -2 3.5 -8 q1 -7 1 -19 q-1 -7 0 -9 q5 3 5 7 q0 3 3.5 9.5 q3.5 6.5 4.5 6.5 q3 0 3 -4 q0 -7 -5 -17 q-4 -7 -8 -33 q0 -2 -1.5 -4.5 q-1.5 -2.5 -2.5 -5.5 q0 -4 -1 -7 q-1 -3 -1 -4 q-2 -3 -6 -4 q-4 -1 -5 2 l0 19 l3 53 q0 7 -3 10 q-3 3 -8 0 q-5 -2 -7 -5 q0 -2 -4 -2 q-2 0 -2 -2 q0 -2 -8 -10 q-4 -5 -7 -6.5 q-3 -1.5 -6 -0.5 q-3 2 -3 4 q0 7 14 22 q24 27 20 27 q0 2 5 6 q4 8 4 13 q0 8 2 8 ZM183 107 q8 4 10 4 q3 0 8 -3 q5 -3 5 -5 l4 -7 q3 -7 4.5 -17 q1.5 -10 1.5 -35 q0 -16 1 -26 q1 -10 1 -14 q3 -8 0.5 -10 q-2.5 -2 -2.5 -2 l-4 -2 q-4 0 -7.5 3.5 q-3.5 3.5 -5.5 8.5 l-4 11 q-3 1 -1.5 5.5 q1.5 4.5 3.5 4.5 q2 0 3.5 -1 q1.5 -1 1.5 -3 q0 -2 2 -4 q2 2 2 6 q0 6 -1 6.5 q-1 0.5 -8 -0.5 q-8 0 -10 2 q-7 7 -10 9 q-7 5 -7 8 q0 2 3 6.5 q3 4.5 5 6.5 l7 6 l-8 2 l-9 0 q-1 0 -3.5 -18.5 q-2.5 -18.5 -2.5 -33.5 q0 -4 -4 -6 q-4 -2 -6 1 q-1 1 -1 9 q0 10 1.5 20.5 q1.5 10.5 2.5 12.5 q0 4 2 9 q2 5 3 10 q3 30 8 30 q2 0 2 -2 l0 -3 q1 0 3 2 q2 2 4 3 q0 2 6 6 ZM199 90 q-3 7 -6.5 9.5 q-3.5 2.5 -5.5 -0.5 q0 -3 -7 -3 q-3 0 -6.5 -4 q-3.5 -4 -3.5 -8 q0 -3 15 -6 l8 -2 q3 -3 3 -9 q0 -5 -3 -10 q-5 -6 -2 -9 q0 -2 4 -2 q4 0 4 -4 q0 -2 5 -2 q3 0 1 20.5 q-2 20.5 -6 29.5 Z" /><glyph glyph-name="uni4F9B" unicode="&#x4f9b;" d="M159 176 q2 0 5 -2 q4 0 4 -34 q-1 -5 -1 -12 q0 -3 1 -4.5 q1 -1.5 4 -1.5 q6 0 11 1 q8 4 10 0 q2 -2 2 -3 q0 -6 -12 -13 q-3 -2 -7 -3.5 q-4 -1.5 -4 -2.5 q-1 -1 -1 -7 q0 -6 1 -11 q1 -5 2 -7 q6 0 15 2 q15 3 19 3 q5 0 10 -3 q9 -4 9 -7 q0 -4 -4 -6 q-4 -2 -9 0 q-2 2 -15 2 q-8 0 -15.5 -1.5 q-7.5 -1.5 -7.5 -2.5 q0 -2 -4 -2 q-3 3 -6 0 l-7 -2 q-5 0 -46 -9 q-4 -2 -10 -2 q-3 0 -11 -4 q-2 -2 -8 -4 q-1 1 -2 1 q-1 0 -2 -1 l0 -9 q0 -4 -1 -6 q-1 -2 -1 -4 q-2 0 -2 -4 q0 -2 -2 -5.5 q-2 -3.5 -3 -7.5 q0 -4 -1.5 -5 q-1.5 -1 -4.5 -1 q-4 0 -5.5 2 q-1.5 2 -2.5 6 q0 11 -2 11 q1 8 4 23 q3 15 4 17 l0 12 q0 8 -0.5 9 q-0.5 1 -5.5 1 q-8 0 -11 -3 q-7 -7 -13 -8.5 q-6 -1.5 -6 3.5 q0 4 3.5 10.5 q3.5 6.5 9.5 10.5 q2 3 4.5 7.5 q2.5 4.5 5.5 9.5 q3 7 5.5 10.5 q2.5 3.5 5.5 3.5 q5 0 5 -4 q0 -4 -5 -12 l-4 -13 l4 0 q3 0 5.5 -1 q2.5 -1 2.5 -3 q5 -7 5 -21 q0 -6 -1 -8 l-2 -8 l0 -1 q2 0 7 11 q6 12 25 31 q13 16 15.5 20 q2.5 4 3.5 14 q3 20 6 20 q1 0 2.5 -7 q1.5 -7 1.5 -11 q-1 -1 -1 -9 q0 -8 1 -8 q1 -1 5 -1 q6 0 11 1 q5 1 7 2 q2 14 2 25 q0 10 1 19 q1 9 1 11 l0 6 ZM147 96 q2 2 0.5 3 q-1.5 1 -4.5 -1 q-5 0 -7 -0.5 q-2 -0.5 -2 -3.5 q1 -2 2.5 -2.5 q1.5 -0.5 3.5 0.5 q5 2 7 4 ZM122 86 q0 12 -4 12 q-3 0 -11.5 -10.5 q-8.5 -10.5 -14.5 -20.5 l-6 -10 l4 0 q14 3 25 14 q3 3 5 6 q2 3 2 9 ZM159 79 q0 7 -2 11 q-2 0 -2 -2 q0 -2 -4 -2 q-2 0 -7.5 -6 q-5.5 -6 -5.5 -9 q0 -1 1.5 -1.5 q1.5 -0.5 5.5 -0.5 l10 2 q4 0 4 8 ZM193 44 q1 0 2 1 q1 1 2 1 q8 -12 6 -15 l8 -18 q4 -6 5.5 -17 q1.5 -11 -0.5 -13 q-3 -4 -6 -4 q-5 0 -7 11 q-1 5 -3 13 q-2 8 -3 16 l-4 25 ZM111 29 q4 6 6.5 1 q2.5 -5 2.5 -16 q0 -11 -2 -16 q-2 -6 -4 -6.5 q-2 -0.5 -5 4.5 q-2 2 -2 11 q0 14 4 22 Z" /><glyph glyph-name="uni4F9D" unicode="&#x4f9d;" d="M132 176 q2 3 5 3 q3 0 4 -3 q1 -7 6 -16.5 q5 -9.5 9 -12.5 q3 -4 3 -6.5 q0 -2.5 -2 -5.5 q-3 -6 -6 -6 q-5 0 -8 12 q-2 6 -3.5 11.5 q-1.5 5.5 -2.5 9.5 q-5 6 -5 14 ZM63 118 q6 8 9 8 q1 0 1 -3 q0 -3 -3 -9 q-10 -10 -2 -17 q0 -1 0.5 -4 q0.5 -3 -0.5 -7 q-4 -21 -4 -33 q0 -7 2 -11 q0 -2 4 5 q7 21 12 31 q6 13 10 20.5 q4 7.5 5 4.5 q1 0 0.5 -2 q-0.5 -2 -2.5 -4 q-2 -5 -3.5 -10 q-1.5 -5 -2.5 -9 q-7 -21 -7 -21 l-4 -8 q-1 -5 -3 -12.5 q-2 -7.5 -3 -13.5 q-4 -6 -4 -20 q0 -4 -4 -6 q-4 -2 -7 1 q-2 5 -2 9 q-1 6 -1 33 q0 27 1 30 q0 3 1 7 q1 4 1 7 l1 4 q0 1 -1 1 q-2 0 -12 -17 q-9 -13 -13.5 -18 q-4.5 -5 -7.5 -5 q-5 2 -5 5 q0 6 9 16 q5 5 8 9 q3 4 4 5 q3 2 3 4 l8 13 q3 4 6 8.5 q3 4.5 6 8.5 ZM120 122 q5 3 8.5 3 q3.5 0 3.5 -3 l0 -2 q7 0 11 2 q8 3 11 3 q3 0 6 -3 q3 -9 -13 -31 q-4 -6 -5 -11.5 q-1 -5.5 -1 -12.5 q0 3 -4 -39 q-1 -6 -1 -24 q0 -15 1 -16 q2 -2 9 7.5 q7 9.5 14 21.5 l8 17 q-4 2 -8 2 q-4 0 -7.5 2 q-3.5 2 -5.5 4 q-4 3 -4 7 q0 2 2 4 q2 2 4 2 q6 0 10 0.5 q4 0.5 7 3.5 q1 1 6 5.5 q5 4.5 9 11.5 q9 14 19 19.5 q10 5.5 10 -2.5 q0 -5 -4.5 -13 q-4.5 -8 -14.5 -21 q-4 -6 -6 -12 l13 0 q33 0 37 -2 q3 -2 3 -6.5 q0 -4.5 -3 -6.5 q-1 -1 -26 -1 q-26 0 -28 1 q-4 0 -11 -13 q-2 -3 -4.5 -7.5 q-2.5 -4.5 -3.5 -4.5 q0 -3 -5 -11 q-2 -9 -8 -15 q-6 -6 -12 -6 q-13 0 -13 23 q0 15 1.5 33.5 q1.5 18.5 3.5 21.5 l0 4 q-4 0 -15 -15 q-9 -16 -15 -16 q-5 0 -6 3 q-1 3 2 7 q0 0 10 15 q2 3 4 5.5 q2 2.5 3 4.5 q0 2 2 5 q7 7 19 25.5 q12 18.5 10 18.5 q-1 0 -3.5 -1.5 q-2.5 -1.5 -4.5 -1.5 q-6 -2 -9 -2 q-10 0 -10 8 q0 5 4 9 Z" /><glyph glyph-name="uni4FA0" unicode="&#x4fa0;" d="M163 185 q1 2 2 2 q1 0 2 -2 q2 -2 2 -6 q-2 -7 -2 -15 q0 -7 -1 -12.5 q-1 -5.5 -1 -8.5 q-1 -2 -1 -4 q0 -2 0.5 -2.5 q0.5 -0.5 0.5 0.5 l11 1 q8 0 10 -3 l0 -3 q0 -10 -15 -10 q-7 -2 -8.5 -3 q-1.5 -1 -1.5 -6 l-1 -5 q0 -3 1 -3 q1 0 8 5 q5 1 9 6 q3 0 5.5 -5 q2.5 -5 2.5 -10 q-3 -9 -17 -23 q-12 -13 -16 -21 l-1 -4 q0 -3 3 -3 l12 3 q11 2 11 8 q0 5 -2 5 q-2 1 -2 4 q0 3 4.5 3 q4.5 0 5.5 -3 q0 -3 4 -4.5 q4 -1.5 7 -2.5 q14 -3 14 -6 q0 -3 -3 -5.5 q-3 -2.5 -7 -2.5 q-6 -1 -14.5 -3 q-8.5 -2 -15.5 -4 l-18 -6 l-3 -8 q0 -4 -1 -9 q-1 -5 -1 -8 q0 -4 -2 -8 q0 -1 -1 -4.5 q-1 -3.5 -1 -8.5 q0 -4 -1 -8.5 q-1 -4.5 -3 -6.5 q-2 -2 -2 -4 q2 0 -1 -2 q-3 -2 -5 -2 q-4 0 -4 5 q0 2 4 8 q2 2 2 8 q2 6 2 10 q4 14 4 21 q0 5 1 8.5 q1 3.5 1 4.5 q0 0 -0.5 0.5 q-0.5 0.5 -0.5 0.5 q-5 0 -28 -7 q-8 -4 -13 -4 q-8 0 -1 11 q7 11 24 22 q4 4 9 6 q0 2 -3 5 q-4 4 -4 10 q0 5 6.5 18.5 q6.5 13.5 10.5 16.5 q0 1 0.5 3 q0.5 2 -0.5 2 l-4 0 q-3 0 -9 4 l-1 1 q-2 0 -7 -10 q-10 -15 -10 -16 q-12 -18 -19 -42 q0 -3 -1.5 -7 q-1.5 -4 -2.5 -4 q-5 -11 -9 -23 q-2 -10 -4.5 -15.5 q-2.5 -5.5 -5.5 -5.5 q-7 0 -7 8 q0 6 3 16 q1 4 2.5 22 q1.5 18 1.5 32 q-2 4 -7 4 q-4 0 -8 -4 q-10 -7 -13 2 q0 4 7 10 q10 11 12 22 q3 8 5.5 11.5 q2.5 3.5 5.5 2.5 q2 0 2 -2 l-2 -12 l-4 -13 l6 -6 q3 -4 4.5 -9 q1.5 -5 1.5 -15 l0 -16 q1 -1 4 5.5 q3 6.5 5 9.5 q1 1 7 13.5 q6 12.5 7 15.5 q1 2 3 4.5 q2 2.5 3 5.5 l13 21 q1 2 4 7 q3 5 6 5 q3 0 7 -6 q3 -2 10 0 q6 2 7.5 4 q1.5 2 3.5 9 q2 31 6 40 ZM148 105 q-2 0 -8 -17 q3 0 5.5 4 q2.5 4 2.5 7 l0 6 ZM163 88 q1 1 2.5 3 q1.5 2 -0.5 2 q-2 0 -4 -2 q0 -2 -0.5 -3.5 q-0.5 -1.5 0.5 -1.5 q2 0 2 2 ZM142 59 q-6 -6 -15 -10 q-2 -2 -2 -3 q0 -1 2 -1 q2 0 5 1 q3 1 6 1 q3 0 3.5 1.5 q0.5 1.5 0.5 4.5 l0 6 ZM190 13 q-1 14 0 17 q1 3 5 -2 l1 -2 q0 -4 3 -7 l2 -6 q0 -4 2 -8 l2 -9 l4 -10 q5 -8 5 -12 q0 -4 -5 -5 q-3 0 -5.5 3.5 q-2.5 3.5 -7.5 13.5 q-6 12 -6 27 Z" /><glyph glyph-name="uni4FA6" unicode="&#x4fa6;" d="M133 175 q3 3 6 -2 q0 -2 1.5 -9 q1.5 -7 1.5 -12 q0 -9 2 -15 l14 4 q9 4 13 4.5 q4 0.5 6 -2.5 q3 -3 3 -6 q0 -2 -3 -4.5 q-3 -2.5 -8 -3.5 q-7 -3 -16 -9.5 q-9 -6.5 -8 -9.5 l3 -17 q-4 -4 -4 -8 q0 -3 -2 -6 l-2 -4 q0 -1 1 -1 q2 0 9 5 q6 5 17 10 q5 2 7 3 q2 1 5 -1 q3 -1 3.5 -5 q0.5 -4 0.5 -12 q0 -17 -4 -25 q-1 -2 -2.5 -6.5 q-1.5 -4.5 -2.5 -5 q-1 -0.5 -3 0.5 q-5 0 -5 3 q0 3 2 7.5 q2 4.5 1 6.5 q-1 3 -1.5 9.5 q-0.5 6.5 -3.5 6.5 q-1 0 -3.5 -21 q-2.5 -21 -21.5 -49 q-5 -10 -8 -13 q-3 -3 -5 -3 q-2 0 -5 3 q-4 4 -4 8 q0 6 6 9 q3 2 10 12 q7 10 11 18 q1 4 10 22 q2 6 2 11 q-10 -2 -14 -8 q-10 -5 -11 -7.5 q-1 -2.5 0 -5 q1 -2.5 2 -3.5 q0 -4 -2 -7.5 q-2 -3.5 -6 -3.5 q-4 0 -5 1 q-1 1 -1 5 q0 14 1.5 19 q1.5 5 4.5 9 q7 10 10 26 q-1 8 -2.5 20.5 q-1.5 12.5 -2.5 15.5 q-1 1 -1 8 q0 11 1.5 22.5 q1.5 11.5 2.5 15.5 ZM60 138 q3 0 3 -12 q0 -7 -1 -10 l-1 -1 q0 -1 7 -5 q5 -5 7 -10.5 q2 -5.5 2 -17.5 q0 -2 1 -4 q1 -2 3 -2 q1 0 1 -2 q0 -3 -1 -9 q-1 -6 -2 -16 q0 -3 -1 -8.5 q-1 -5.5 -1 -12.5 q-2 -12 -4.5 -15 q-2.5 -3 -6.5 -2 q-3 1 -4 2 q-1 1 -1 1 q2 11 3 43 q1 32 0 36 q-2 5 -4 5 q-4 0 -13 -9 q-12 -12 -16 -7 q-1 1 -1 3 q0 4 9 14 q13 20 15 25 q4 10 4 13 l2 1 ZM194 32 q0 4 3 4 q4 0 10 -6 l4 -8 q4 -6 9.5 -19 q5.5 -13 6.5 -19 q0 -4 -1 -4 q-1 0 -1.5 -0.5 q-0.5 -0.5 -1.5 0.5 q-7 0 -12 12 q0 9 -4 13 q-3 3 -8 13.5 q-5 10.5 -5 13.5 Z" /><glyph glyph-name="uni4FA7" unicode="&#x4fa7;" d="M207 164 q0 4 3 5 q3 1 9 -1 q3 -2 6.5 -7.5 q3.5 -5.5 4.5 -12.5 q2 -10 2 -83 q0 -75 -2 -79 q-1 0 -2.5 -0.5 q-1.5 -0.5 -1.5 0.5 q-2 0 -2.5 29.5 q-0.5 29.5 -0.5 75.5 l-1 21 q-1 27 -3 33 q-3 8 -8 13 q-1 0 -2.5 2 q-1.5 2 -1.5 4 ZM62 156 q1 1 3 3.5 q2 2.5 4 0.5 q3 0 3 -5 q0 -7 -6 -16 l-4 -10 l7 -9 q6 -3 6 -8 q-2 -12 -2 -23 q2 -10 2 -32 q0 -8 -3.5 -11.5 q-3.5 -3.5 -9.5 -2.5 q-2 1 -2.5 4 q-0.5 3 0 15 q0.5 12 2.5 35 q0 14 -4 14 q-3 0 -13 -10 q-6 -7 -11 -10 q-5 -3 -8 -2 q-5 0 -5 3 q0 4 14 18 q11 13 16.5 21 q5.5 8 10.5 25 ZM123 141 q6 3 9 3 q20 0 20 -25 q0 -4 -2 -14 q-2 -11 -7 -17.5 q-5 -6.5 -10 -5.5 q-4 0 -6 -3 q-1 -3 -1 -5.5 q0 -2.5 3 -3.5 q6 -4 16.5 -14.5 q10.5 -10.5 10.5 -12.5 q0 -6 -6 -8 q-2 0 -10 5.5 q-8 5.5 -13 12.5 q-2 1 -4.5 4 q-2.5 3 -3.5 3 l-5 -11 q-11 -18 -16 -14 q-3 2 -3 4 q0 4 3 10 q10 20 10 23 l0 2 q3 0 8 11 q2 2 4 6 q2 4 3 4 l0 2 q0 1 8 13 q1 1 9 13 q0 3 -3.5 6.5 q-3.5 3.5 -7.5 3.5 q-5 0 -15 -21 l-1 -13 q-3 -2 -3 -6 q0 -4 -4 -6 q-6 -4 -7.5 2.5 q-1.5 6.5 -0.5 26.5 q0 25 2 25 l1 1 q2 0 3.5 -2.5 q1.5 -2.5 1.5 -4.5 q0 -4 2.5 -4 q2.5 0 4.5 4 q1 1 10 6 ZM175 126 q3 4 5 4 q6 0 4 -26 l1 -5 q3 0 5 11 q3 10 6 10 q3 0 3 -3 l-3 -13 q-2 -17 -4.5 -25.5 q-2.5 -8.5 -5.5 -10.5 q-3 -6 -7 0 q-3 3 -4.5 26.5 q-1.5 23.5 0.5 31.5 Z" /><glyph glyph-name="uni4FB5" unicode="&#x4fb5;" d="M142 166 q10 2 19 2 q10 0 12 -2 q4 -4 2 -19 q0 -7 1 -13 q1 -6 1 -12 l1 -6 q0 -5 -3 -7 q-3 -2 -11 -4 q-6 0 -8 -2 l-12 -2 q-5 -1 -7 -2 q-2 -1 -4 -6 l0 -4 q6 1 16.5 4 q10.5 3 21.5 8 q9 5 20 7.5 q11 2.5 16 1.5 q3 0 3 -7 q0 -15 -20 -12 q-2 1 -6 1 q-5 0 -17 -5 q-9 -5 -17 -7 q-3 0 -9.5 -6.5 q-6.5 -6.5 -9.5 -14.5 q-2 -4 -8 -10 q-4 -3 -5.5 -3 q-1.5 0 -3.5 3 q-2 2 -2 8 q5 17 13 36 q4 8 4 12 l-1 3 q0 1 3.5 2 q3.5 1 5.5 2 q9 0 17 4 l4 4 l-10 2 q-3 0 -7.5 1 q-4.5 1 -7.5 1 q-5 0 -5 3 q0 5 9 6 q11 0 11 4 q7 3 10 0 l3 -1 q2 0 2.5 4.5 q0.5 4.5 0.5 6.5 l0 9 l-16 0 q-24 0 -15 6 q0 2 2.5 3 q2.5 1 6.5 1 ZM74 133 q3 2 5 6 q3 0 3 -10 q0 -10 -3 -15 q-4 -6 -4 -13 q0 -6 4 -12 q6 -12 6 -42 q0 -10 -2 -36 q-1 -3 -5 -3 q-4 0 -6 3 l0 46 q0 21 -2 25 q-1 1 -3 4 q-2 3 -3 3 l-4 -9 q-10 -16 -11 -17 q-4 -7 -8 -9 q-4 -2 -4 3 q0 9 14 27 l9 15 q0 2 2 5.5 q2 3.5 4 9.5 q8 12 8 19 ZM167 72 q2 1 5 1 q4 0 11 -5 q5 -5 5 -12 q0 -7 -5 -18 q-6 -12 2 -12 q3 0 13.5 -10 q10.5 -10 16.5 -17 l1 -3 q0 -2 -2.5 -4 q-2.5 -2 -6.5 -2 q-7 0 -9 2 q-4 2 -7 5.5 q-3 3.5 -6 5.5 q-8 5 -8 8 q0 6 -2 6 q-2 0 -6 -6 q-1 -2 -6 -7.5 q-5 -5.5 -9 -9.5 q-5 -4 -8.5 -5.5 q-3.5 -1.5 -8.5 -0.5 q-5 0 -9.5 4 q-4.5 4 -6.5 9 l0 6 q-2 8 -2 12 q0 10 3 18 q3 8 7 8 l1 0 q3 0 7 -2.5 q4 -2.5 9 -4.5 q13 -7 17 -7 q5 0 8 9 q8 18 0 21 l-8 2 q-13 -3 -13 3 q0 6 4 6 l13 0 ZM139 28 q-6 4 -8 4.5 q-2 0.5 -4 -2.5 q-1 -3 -1 -9 q0 -8 3.5 -15 q3.5 -7 7.5 -7 q4 0 12.5 7.5 q8.5 7.5 8.5 10.5 q0 5 -4 5 q-2 2 -15 6 Z" /><glyph glyph-name="uni4FBF" unicode="&#x4fbf;" d="M158 175 q1 1 3 1 q3 0 5.5 -1 q2.5 -1 3.5 -2 q1 -2 1 -5 q0 -5 -11 -12 q-5 -3 -9.5 -5.5 q-4.5 -2.5 -7.5 -4.5 q-5 -6 -10 -6 q-1 0 -1 -1.5 q0 -1.5 1 -1.5 q0 -1 2 -1 q2 0 4 1 q3 0 8.5 1.5 q5.5 1.5 12.5 2.5 q9 0 14 -0.5 q5 -0.5 11 -3.5 q7 -3 10 -6 q3 -3 3 -9 l-2 -12 q-4 -12 -4 -25 q0 -5 -1.5 -10.5 q-1.5 -5.5 -3.5 -8.5 q0 -4 -1 -6 q-1 -2 -1 -4 q0 -7 -6 -7 q-4 0 -9 7 q-1 4 -6.5 6.5 q-5.5 2.5 -7.5 -0.5 q-3 -3 -5.5 -13 q-2.5 -10 -0.5 -12 q0 -4 12 -4 q19 -4 48 -17 q10 -5 13.5 -7.5 q3.5 -2.5 3.5 -7.5 q0 -6 -2 -6 l-3 -1 q-4 0 -11 2.5 q-7 2.5 -9 4.5 q-1 3 -18.5 11 q-17.5 8 -21.5 8 l-10 0 l-4 1 q-3 0 -6 -12 q-4 -10 -12 -20 q-8 -10 -14 -11 q-1 -1 -5 -1 q-9 0 -13 7 q-2 5 -4 25 q-2 20 -1 24 q8 6 30 6 l16 -2 l3 12 l0 13 l-9 -4 q-8 -4 -13 -4.5 q-5 -0.5 -6 4.5 q-1 1 -2.5 1.5 q-1.5 0.5 -1.5 -1.5 q-3 -3 -6 2 q-2 2 -2 10 q0 2 -1.5 8 q-1.5 6 -2.5 15 q-5 18 -5 23 q0 7 5 7 l6 0 q3 0 18 15 q15 15 15 18 q0 2 -6 2 q-2 -2 -6.5 3.5 q-4.5 5.5 -4.5 9.5 q0 3 4 4 q4 1 5 -2 q0 -2 10 -2 q12 1 15 2.5 q3 1.5 4 1.5 ZM68 146 q0 2 3 2 q6 0 8 -5 q2 -2 2 -4 q0 -5 -9 -16 q-4 -5 -4 -11 q8 -16 9.5 -20.5 q1.5 -4.5 1.5 -17.5 l0 -16 q4 4 6 10 q6 14 6 9 l1 -5 q0 -6 -2 -15 q-2 -9 -5 -14 q-3 -6 -7 -17.5 q-4 -11.5 -4 -16.5 q-2 -4 -4 -4 q-1 -3 -2.5 -2.5 q-1.5 0.5 -3.5 2.5 q-1 1 -1 16 q0 17 1 22 q2 4 2 22 q0 24 -2 30 q-3 7 -6 7 q-4 -5 -9 -7 q-15 -12 -19 -4 q0 4 15 19 q11 9 17 19 q6 10 6 17 ZM181 125 q-5 3 -10 3.5 q-5 0.5 -7 -3.5 q-2 -7 -2 -11 q0 -9 6 -12 q7 -4 7 -8 q0 -2 -5 -7 q-4 -4 -4.5 -7 q-0.5 -3 2.5 -3 l7 -5 l1 -1 q2 0 3 10 q0 7 4 25 q1 9 1 12.5 q0 3.5 -3 6.5 ZM148 114 q0 4 -3 11 q-5 -1 -15 -5 q-10 -4 -16 -8 q-6 -4 -6 -9 q0 -3 6 -6 q2 -1 4 -1 q2 0 2 1 q3 0 5 1.5 q2 1.5 4 1.5 q10 0 14 2 q4 2 4.5 4 q0.5 2 0.5 8 ZM145 87 q0 3 -2.5 3 q-2.5 0 -7.5 -1 q-4 -2 -15 -2 l-10 0 l0 -2 q0 -4 3 -11 q3 -7 5 -8 l15 8 q6 4 9 7 q3 3 3 6 ZM133 28 q-6 1 -18 1 q-11 0 -16 -3 l-1 -11 q0 -23 4 -27 q3 -4 7 -4 q3 0 11 4 q5 5 9 13.5 q4 8.5 4 12.5 q0 2 1 3 q1 1 1 3 q3 2 2.5 4.5 q-0.5 2.5 -4.5 3.5 Z" /><glyph glyph-name="uni4FDD" unicode="&#x4fdd;" d="M112 157 q0 13 0.5 19 q0.5 6 3.5 6 q1 0 3 -4.5 q2 -4.5 3 -8.5 q0 -7 6 -4 q14 2 28 2 q17 0 21 -2 q7 -3 7 -6 q0 -6 -16 -19 l-10 -8 l6 -2 q9 -3 9 -9 q0 -7 -14 -15 q-8 -4 -10.5 -6.5 q-2.5 -2.5 0.5 -5.5 q1 0 2.5 -2 q1.5 -2 1.5 -4 q0 -3 6 0 q11 2 43 2 q3 -2 4 -6 q1 -4 -2 -7 q-1 0 -9 -1 q-8 -1 -17 -1 q-9 0 -15 -1 q-6 -1 -8 -1 q0 -4 -1.5 -24.5 q-1.5 -20.5 -2.5 -42.5 q1 -4 1 -12 q0 -15 -3 -21 q-1 -2 -5 -2 q-4 0 -7 2 q-3 7 -6 17 q-3 10 -5 20 q0 13 2 13 q1 0 3 -3 q2 -3 3 -6 q0 -2 3 -6 q1 0 2.5 23.5 q1.5 23.5 1.5 33.5 l-1 1 q-3 0 -6 -8 q-1 -4 -8 -14 q-7 -10 -14 -17 q-2 -1 -5 -4 q-3 -3 -4 -3 q-3 -4 -11 -8 q-8 -4 -10 -2 q-1 0 3 4.5 q4 4.5 8 10.5 q8 6 16 14 q3 5 7 11.5 q4 6.5 6 11.5 q0 4 -32 -8 q-6 -1 -8 -3 q-2 -2 -4 -7 q0 -7 -4 -19 q-4 -14 -4 -15 q0 -5 -3.5 -8.5 q-3.5 -3.5 -7.5 -3.5 q-2 2 -2 12 l0 46 q0 19 -0.5 28 q-0.5 9 -3.5 10 q-3 3 -4 3 q-1 0 -9 -5 q-10 -7 -12.5 -8 q-2.5 -1 -5.5 4 q-1 1 -1 3 q0 2 13 11 q14 11 22.5 23 q8.5 12 8.5 21 q0 6 1 7.5 q1 1.5 6 1.5 q5 0 8 -9 q0 -6 -4 -12 q-4 -4 -4 -9 q-2 -4 -7 -8 q-6 -6 -6 -8 q2 -5 6 -9 q3 -4 4 -9 q1 -5 1 -12 q0 -8 2 -14 q2 0 12 27 q5 14 6 14 l1 -2 l-2 -8 q-5 -16 -6.5 -21.5 q-1.5 -5.5 1.5 -5.5 q5 0 6 2 l3 2 q4 0 8.5 2.5 q4.5 2.5 7.5 5.5 q5 5 6 8.5 q1 3.5 1 16.5 q-1 6 -2 13.5 q-1 7.5 -2 7.5 q-3 3 0 3 l0 27 ZM164 155 q0 2 -3 1.5 q-3 -0.5 -6 -1.5 q-3 -3 -6 0 l-1 0 q-5 0 -14 -3 q-9 -3 -10 -6 q0 -6 2 -12 l2 -11 l5 4 q6 5 18.5 16 q12.5 11 12.5 12 ZM149 115 q0 2 -1 2 l-9 -2 q-5 -2 -9 -9 q0 -2 1 -2.5 q1 -0.5 3 0.5 q3 0 9 4.5 q6 4.5 6 6.5 ZM139 88 q0 2 -3 2 q-3 0 -3 -2 q-2 0 -5 -3 q-3 -3 -6 -4 q-4 -2 -8 -6 q0 -1 1 -1 q1 0 3 1 q2 0 10 4 q11 0 11 9 ZM162 50 q0 3 1.5 3.5 q1.5 0.5 4.5 0.5 q8 -3 20.5 -8 q12.5 -5 21.5 -9 q1 -1 2.5 -1 q1.5 0 1.5 1 l2 2 q-1 0 -1 -1 q0 -3 10 -13 q5 -4 6.5 -6.5 q1.5 -2.5 1.5 -6.5 q-1 -3 -4 -3.5 q-3 -0.5 -7 -0.5 q-9 3 -16 10 q-6 8 -17 13 q-5 2 -8 4 q-3 2 -4 2 q0 1 -3.5 3 q-3.5 2 -5.5 4 q-6 3 -6 6 Z" /><glyph glyph-name="uni4FE1" unicode="&#x4fe1;" d="M140 159 q0 6 2 6 l11 -14 q13 -16 16 -17 q3 -2 6 -9 q0 -3 2 -3 q2 0 7 2 q1 1 3 2 q2 1 5 2 q7 0 11 2 q4 0 6 -2 l1 -4 q0 -3 -2.5 -5 q-2.5 -2 -4.5 -2 q-2 0 -6 -4 q-2 0 -6 -1 q-4 -1 -9 -1 q-13 0 -19 -4 q-8 -4 -8 -2 q-2 0 -5 -2 q-4 -4 -19 -6.5 q-15 -2.5 -20 -0.5 q-3 1 -3.5 2 q-0.5 1 1.5 2 q6 0 39 11 q5 0 5 2 q4 0 8 4 l6 0 l-6 8 q-9 9 -15 19 q-6 10 -6 15 ZM69 125 q3 4 3.5 2.5 q0.5 -1.5 0.5 -6.5 q0 -2 -2 -5.5 q-2 -3.5 -4 -8.5 q-5 -4 -7 -11 q0 -1 3 -3 q3 -2 4 -3 q10 -7 10 -21 q0 -4 1 -6 q1 -2 1 -4 l0 -13 q-2 -6 -2 -12 q3 0 21 41 q3 8 6.5 9.5 q3.5 1.5 1.5 -4.5 q-1 -3 -2 -6.5 q-1 -3.5 -2 -6.5 q-2 -2 -2 -6 q0 -5 -2 -9 q-3 -8 -8 -19 q-5 -11 -5 -14 q0 -5 -3.5 -14.5 q-3.5 -9.5 -6.5 -10.5 q-4 0 -5 7 q-1 7 -1 35 q0 14 -1 24.5 q-1 10.5 -3 12.5 q-2 6 -5.5 8 q-3.5 2 -5.5 -1 q-2 -2 -3 -4.5 q-1 -2.5 -3 -4.5 q-4 -4 -4 -8 q-3 -5 -9 -2 q-1 1 -1 3 q0 2 3 9 q2 8 9 15 q2 0 2 4 l10 15 l9 14 l2 4 ZM150 94 q0 2 1 2 l8 -2 q2 -2 14 -2 q5 -2 9 -2 q0 -4 -2 -6 q0 -6 -7 -6 q-4 0 -8 2 q0 1 -2 1 q-3 0 -8 5 q-5 5 -5 8 ZM157 71 q0 1 2 1 q3 0 14 -3 q7 -1 7.5 -2 q0.5 -1 -2.5 -6 q-2 -4 -6 -4 q-3 0 -7.5 1.5 q-4.5 1.5 -9.5 2.5 q-5 0 -10 2.5 q-5 2.5 -5 3.5 q0 1 4.5 2.5 q4.5 1.5 8.5 1.5 q1 -1 2.5 -1 q1.5 0 1.5 1 ZM173 42 q8 1 22 1 q15 0 21 -3 q3 -3 6 -4 q0 -6 -11 -13 q-4 -2 -5.5 -4.5 q-1.5 -2.5 -0.5 -6.5 q0 -5 -3 -7 q-3 -2 -14 -3 q-4 0 -8.5 -1 q-4.5 -1 -7.5 -3 q-5 -2 -9 -2 q-2 1 -2 4 q0 6 17 17 q19 10 19 14 q0 2 -4 2 l-13 -2 q-30 -7 -30 -12 l5 -9 q2 -3 2 -9 q0 -7 -4 -9 q-11 -8 -17 33 q-1 7 0 8.5 q1 1.5 4 -2.5 q4 0 10 3 l23 8 Z" /></font>
</defs>
</svg>
